%TF.GenerationSoftware,KiCad,Pcbnew,(5.99.0-11145-g173c9a974c)*%
%TF.CreationDate,2021-06-27T16:32:02+02:00*%
%TF.ProjectId,micro,6d696372-6f2e-46b6-9963-61645f706362,rev1.0*%
%TF.SameCoordinates,Original*%
%TF.FileFunction,Soldermask,Bot*%
%TF.FilePolarity,Negative*%
%FSLAX46Y46*%
G04 Gerber Fmt 4.6, Leading zero omitted, Abs format (unit mm)*
G04 Created by KiCad (PCBNEW (5.99.0-11145-g173c9a974c)) date 2021-06-27 16:32:02*
%MOMM*%
%LPD*%
G01*
G04 APERTURE LIST*
G04 Aperture macros list*
%AMRoundRect*
0 Rectangle with rounded corners*
0 $1 Rounding radius*
0 $2 $3 $4 $5 $6 $7 $8 $9 X,Y pos of 4 corners*
0 Add a 4 corners polygon primitive as box body*
4,1,4,$2,$3,$4,$5,$6,$7,$8,$9,$2,$3,0*
0 Add four circle primitives for the rounded corners*
1,1,$1+$1,$2,$3*
1,1,$1+$1,$4,$5*
1,1,$1+$1,$6,$7*
1,1,$1+$1,$8,$9*
0 Add four rect primitives between the rounded corners*
20,1,$1+$1,$2,$3,$4,$5,0*
20,1,$1+$1,$4,$5,$6,$7,0*
20,1,$1+$1,$6,$7,$8,$9,0*
20,1,$1+$1,$8,$9,$2,$3,0*%
%AMRotRect*
0 Rectangle, with rotation*
0 The origin of the aperture is its center*
0 $1 length*
0 $2 width*
0 $3 Rotation angle, in degrees counterclockwise*
0 Add horizontal line*
21,1,$1,$2,0,0,$3*%
G04 Aperture macros list end*
%ADD10C,3.987800*%
%ADD11C,2.250000*%
%ADD12RoundRect,0.250000X0.312500X0.625000X-0.312500X0.625000X-0.312500X-0.625000X0.312500X-0.625000X0*%
%ADD13C,1.000000*%
%ADD14C,3.800000*%
%ADD15C,2.600000*%
%ADD16R,1.500000X1.000000*%
%ADD17RoundRect,0.200000X-0.275000X0.200000X-0.275000X-0.200000X0.275000X-0.200000X0.275000X0.200000X0*%
%ADD18RoundRect,0.225000X-0.225000X-0.250000X0.225000X-0.250000X0.225000X0.250000X-0.225000X0.250000X0*%
%ADD19RoundRect,0.200000X0.275000X-0.200000X0.275000X0.200000X-0.275000X0.200000X-0.275000X-0.200000X0*%
%ADD20RoundRect,0.225000X0.335876X0.017678X0.017678X0.335876X-0.335876X-0.017678X-0.017678X-0.335876X0*%
%ADD21RoundRect,0.225000X0.225000X0.250000X-0.225000X0.250000X-0.225000X-0.250000X0.225000X-0.250000X0*%
%ADD22RoundRect,0.225000X0.250000X-0.225000X0.250000X0.225000X-0.250000X0.225000X-0.250000X-0.225000X0*%
%ADD23R,0.600000X0.700000*%
%ADD24RoundRect,0.170000X0.330000X-0.255000X0.330000X0.255000X-0.330000X0.255000X-0.330000X-0.255000X0*%
%ADD25RoundRect,0.300000X-0.070711X-0.494975X0.494975X0.070711X0.070711X0.494975X-0.494975X-0.070711X0*%
%ADD26RoundRect,0.200000X0.200000X0.275000X-0.200000X0.275000X-0.200000X-0.275000X0.200000X-0.275000X0*%
%ADD27C,1.700000*%
%ADD28RoundRect,0.200000X-0.200000X-0.275000X0.200000X-0.275000X0.200000X0.275000X-0.200000X0.275000X0*%
%ADD29RoundRect,0.062500X0.291682X0.380070X-0.380070X-0.291682X-0.291682X-0.380070X0.380070X0.291682X0*%
%ADD30RoundRect,0.062500X-0.291682X0.380070X-0.380070X0.291682X0.291682X-0.380070X0.380070X-0.291682X0*%
%ADD31RotRect,5.200000X5.200000X225.000000*%
%ADD32RoundRect,0.243750X0.243750X0.456250X-0.243750X0.456250X-0.243750X-0.456250X0.243750X-0.456250X0*%
%ADD33RoundRect,0.225000X-0.335876X-0.017678X-0.017678X-0.335876X0.335876X0.017678X0.017678X0.335876X0*%
%ADD34RoundRect,0.250000X-0.312500X-0.625000X0.312500X-0.625000X0.312500X0.625000X-0.312500X0.625000X0*%
%ADD35RoundRect,0.150000X-0.150000X0.512500X-0.150000X-0.512500X0.150000X-0.512500X0.150000X0.512500X0*%
%ADD36RoundRect,0.150000X-0.150000X0.825000X-0.150000X-0.825000X0.150000X-0.825000X0.150000X0.825000X0*%
%ADD37RoundRect,0.225000X-0.250000X0.225000X-0.250000X-0.225000X0.250000X-0.225000X0.250000X0.225000X0*%
%ADD38R,0.600000X1.150000*%
%ADD39R,0.300000X1.150000*%
%ADD40O,1.000000X2.200000*%
%ADD41O,1.000000X1.800000*%
G04 APERTURE END LIST*
D10*
%TO.C,MX1*%
X151240000Y-99310000D03*
D11*
X147430000Y-96770000D03*
X153780000Y-94230000D03*
%TD*%
D12*
%TO.C,R9*%
X155477500Y-110370000D03*
X158402500Y-110370000D03*
%TD*%
D13*
%TO.C,J7*%
X163872579Y-88894000D03*
X163872579Y-90164000D03*
X163872579Y-91434000D03*
X163872579Y-92704000D03*
X163872579Y-93974000D03*
X163872579Y-95244000D03*
X163872579Y-96514000D03*
X163872579Y-97784000D03*
X163872579Y-99054000D03*
X163872579Y-100324000D03*
X163872579Y-101594000D03*
X163872579Y-102864000D03*
X163872579Y-104134000D03*
X163872579Y-105404000D03*
X163872579Y-106674000D03*
X163872579Y-107944000D03*
%TD*%
%TO.C,J3*%
X154455000Y-111660000D03*
X153185000Y-111660000D03*
%TD*%
%TO.C,J4*%
X149230000Y-111660000D03*
X150500000Y-111660000D03*
X151770000Y-111660000D03*
%TD*%
%TO.C,J5*%
X147090000Y-111670000D03*
X145820000Y-111670000D03*
X144550000Y-111670000D03*
X143280000Y-111670000D03*
%TD*%
%TO.C,J6*%
X138710000Y-105810000D03*
X138710000Y-104540000D03*
X138710000Y-103270000D03*
X138710000Y-102000000D03*
X138710000Y-100730000D03*
%TD*%
D14*
%TO.C,H2*%
X161212579Y-109159000D03*
D15*
X161212579Y-109159000D03*
%TD*%
%TO.C,H1*%
X141212579Y-89159000D03*
D14*
X141212579Y-89159000D03*
%TD*%
D16*
%TO.C,D2*%
X159686579Y-102709000D03*
X159686579Y-105909000D03*
X154786579Y-105909000D03*
X154786579Y-102709000D03*
%TD*%
D17*
%TO.C,R6*%
X144192579Y-88244000D03*
X144192579Y-89894000D03*
%TD*%
%TO.C,R5*%
X139712579Y-107724000D03*
X139712579Y-109374000D03*
%TD*%
D18*
%TO.C,C4*%
X151365000Y-103220000D03*
X152915000Y-103220000D03*
%TD*%
%TO.C,C9*%
X154175579Y-100245000D03*
X155725579Y-100245000D03*
%TD*%
D19*
%TO.C,R8*%
X160538579Y-91926000D03*
X160538579Y-90276000D03*
%TD*%
D20*
%TO.C,C8*%
X148248008Y-110438008D03*
X147151992Y-109341992D03*
%TD*%
D21*
%TO.C,C1*%
X148105579Y-91101000D03*
X146555579Y-91101000D03*
%TD*%
D22*
%TO.C,C6*%
X144790579Y-96194000D03*
X144790579Y-94644000D03*
%TD*%
D17*
%TO.C,R4*%
X155712579Y-96880000D03*
X155712579Y-98530000D03*
%TD*%
D23*
%TO.C,D1*%
X149932579Y-95673000D03*
X151332579Y-95673000D03*
%TD*%
D24*
%TO.C,FB1*%
X144536579Y-92917000D03*
X144536579Y-91317000D03*
%TD*%
D25*
%TO.C,Y1*%
X148339129Y-108001769D03*
X149894764Y-106446134D03*
X151096845Y-107648215D03*
X149541210Y-109203850D03*
%TD*%
D26*
%TO.C,R1*%
X157807579Y-91863000D03*
X156157579Y-91863000D03*
%TD*%
D27*
%TO.C,J2*%
X142504579Y-92371000D03*
X139964579Y-92371000D03*
X142504579Y-94911000D03*
X139964579Y-94911000D03*
X142504579Y-97451000D03*
X139964579Y-97451000D03*
%TD*%
D18*
%TO.C,C2*%
X139697579Y-99229000D03*
X141247579Y-99229000D03*
%TD*%
D28*
%TO.C,R2*%
X156157579Y-90339000D03*
X157807579Y-90339000D03*
%TD*%
D18*
%TO.C,C5*%
X146555579Y-94657000D03*
X148105579Y-94657000D03*
%TD*%
D29*
%TO.C,U2*%
X145299039Y-99241555D03*
X145652592Y-99595109D03*
X146006146Y-99948662D03*
X146359699Y-100302215D03*
X146713252Y-100655769D03*
X147066806Y-101009322D03*
X147420359Y-101362876D03*
X147773913Y-101716429D03*
X148127466Y-102069982D03*
X148481019Y-102423536D03*
X148834573Y-102777089D03*
D30*
X148834573Y-103961493D03*
X148481019Y-104315046D03*
X148127466Y-104668600D03*
X147773913Y-105022153D03*
X147420359Y-105375706D03*
X147066806Y-105729260D03*
X146713252Y-106082813D03*
X146359699Y-106436367D03*
X146006146Y-106789920D03*
X145652592Y-107143473D03*
X145299039Y-107497027D03*
D29*
X144114635Y-107497027D03*
X143761082Y-107143473D03*
X143407528Y-106789920D03*
X143053975Y-106436367D03*
X142700422Y-106082813D03*
X142346868Y-105729260D03*
X141993315Y-105375706D03*
X141639761Y-105022153D03*
X141286208Y-104668600D03*
X140932655Y-104315046D03*
X140579101Y-103961493D03*
D30*
X140579101Y-102777089D03*
X140932655Y-102423536D03*
X141286208Y-102069982D03*
X141639761Y-101716429D03*
X141993315Y-101362876D03*
X142346868Y-101009322D03*
X142700422Y-100655769D03*
X143053975Y-100302215D03*
X143407528Y-99948662D03*
X143761082Y-99595109D03*
X144114635Y-99241555D03*
D31*
X144706837Y-103369291D03*
%TD*%
D32*
%TO.C,F1*%
X148014079Y-92879000D03*
X146139079Y-92879000D03*
%TD*%
D21*
%TO.C,C3*%
X143447579Y-109499000D03*
X141897579Y-109499000D03*
%TD*%
D17*
%TO.C,R3*%
X154188579Y-96880000D03*
X154188579Y-98530000D03*
%TD*%
D33*
%TO.C,C7*%
X151201979Y-105204976D03*
X152297995Y-106300992D03*
%TD*%
D34*
%TO.C,R7*%
X159076079Y-88307000D03*
X162001079Y-88307000D03*
%TD*%
D35*
%TO.C,U1*%
X149632579Y-91731500D03*
X150582579Y-91731500D03*
X151532579Y-91731500D03*
X151532579Y-94006500D03*
X150582579Y-94006500D03*
X149632579Y-94006500D03*
%TD*%
D36*
%TO.C,Q1*%
X157363579Y-94976000D03*
X158633579Y-94976000D03*
X159903579Y-94976000D03*
X161173579Y-94976000D03*
X161173579Y-99926000D03*
X159903579Y-99926000D03*
X158633579Y-99926000D03*
X157363579Y-99926000D03*
%TD*%
D37*
%TO.C,C10*%
X161652579Y-104154000D03*
X161652579Y-105704000D03*
%TD*%
D38*
%TO.C,J1*%
X148092579Y-89456500D03*
X148892579Y-89456500D03*
D39*
X150042579Y-89456500D03*
X151042579Y-89456500D03*
X151542579Y-89456500D03*
X152542579Y-89456500D03*
D38*
X153692579Y-89456500D03*
X154492579Y-89456500D03*
X154492579Y-89456500D03*
X153692579Y-89456500D03*
D39*
X153042579Y-89456500D03*
X152042579Y-89456500D03*
X150542579Y-89456500D03*
X149542579Y-89456500D03*
D38*
X148892579Y-89456500D03*
X148092579Y-89456500D03*
D40*
X156912579Y-84156500D03*
D41*
X156912579Y-88156500D03*
D40*
X145672579Y-84156500D03*
D41*
X145672579Y-88156500D03*
%TD*%
M02*
