%TF.GenerationSoftware,KiCad,Pcbnew,(5.99.0-11145-g173c9a974c)*%
%TF.CreationDate,2021-06-27T16:32:01+02:00*%
%TF.ProjectId,micro,6d696372-6f2e-46b6-9963-61645f706362,rev1.0*%
%TF.SameCoordinates,Original*%
%TF.FileFunction,Copper,L3,Inr*%
%TF.FilePolarity,Positive*%
%FSLAX46Y46*%
G04 Gerber Fmt 4.6, Leading zero omitted, Abs format (unit mm)*
G04 Created by KiCad (PCBNEW (5.99.0-11145-g173c9a974c)) date 2021-06-27 16:32:01*
%MOMM*%
%LPD*%
G01*
G04 APERTURE LIST*
%TA.AperFunction,ComponentPad*%
%ADD10C,2.250000*%
%TD*%
%TA.AperFunction,ComponentPad*%
%ADD11C,1.000000*%
%TD*%
%TA.AperFunction,ComponentPad*%
%ADD12C,2.600000*%
%TD*%
%TA.AperFunction,ComponentPad*%
%ADD13C,1.700000*%
%TD*%
%TA.AperFunction,ComponentPad*%
%ADD14C,0.500000*%
%TD*%
%TA.AperFunction,ComponentPad*%
%ADD15O,1.000000X2.200000*%
%TD*%
%TA.AperFunction,ComponentPad*%
%ADD16O,1.000000X1.800000*%
%TD*%
%TA.AperFunction,ViaPad*%
%ADD17C,0.400000*%
%TD*%
%TA.AperFunction,Conductor*%
%ADD18C,0.100000*%
%TD*%
G04 APERTURE END LIST*
D10*
%TO.N,COL0*%
%TO.C,MX1*%
X147430000Y-96770000D03*
%TO.N,Net-(D1-Pad2)*%
X153780000Y-94230000D03*
%TD*%
D11*
%TO.N,ROW0*%
%TO.C,J7*%
X163872579Y-88894000D03*
%TO.N,ROW1*%
X163872579Y-90164000D03*
%TO.N,ROW2*%
X163872579Y-91434000D03*
%TO.N,ROW3*%
X163872579Y-92704000D03*
%TO.N,ROW4*%
X163872579Y-93974000D03*
%TO.N,ROW5*%
X163872579Y-95244000D03*
%TO.N,ROW6*%
X163872579Y-96514000D03*
%TO.N,ROW7*%
X163872579Y-97784000D03*
%TO.N,ROW8*%
X163872579Y-99054000D03*
%TO.N,ROW9*%
X163872579Y-100324000D03*
%TO.N,ROW10*%
X163872579Y-101594000D03*
%TO.N,ROW11*%
X163872579Y-102864000D03*
%TO.N,ROW12*%
X163872579Y-104134000D03*
%TO.N,ROW13*%
X163872579Y-105404000D03*
%TO.N,ROW14*%
X163872579Y-106674000D03*
%TO.N,ROW15*%
X163872579Y-107944000D03*
%TD*%
%TO.N,BLD*%
%TO.C,J3*%
X154455000Y-111660000D03*
%TO.N,VCC*%
X153185000Y-111660000D03*
%TD*%
%TO.N,GND*%
%TO.C,J4*%
X149230000Y-111660000D03*
%TO.N,RGBO*%
X150500000Y-111660000D03*
%TO.N,VCC*%
X151770000Y-111660000D03*
%TD*%
%TO.N,SDA*%
%TO.C,J5*%
X147090000Y-111670000D03*
%TO.N,SCK*%
X145820000Y-111670000D03*
%TO.N,VCC*%
X144550000Y-111670000D03*
%TO.N,GND*%
X143280000Y-111670000D03*
%TD*%
%TO.N,COL0*%
%TO.C,J6*%
X138710000Y-105810000D03*
%TO.N,COL1*%
X138710000Y-104540000D03*
%TO.N,COL2*%
X138710000Y-103270000D03*
%TO.N,COL3*%
X138710000Y-102000000D03*
%TO.N,COL4*%
X138710000Y-100730000D03*
%TD*%
D12*
%TO.N,GND*%
%TO.C,H2*%
X161212579Y-109159000D03*
%TD*%
%TO.N,GND*%
%TO.C,H1*%
X141212579Y-89159000D03*
%TD*%
D13*
%TO.N,ROW3*%
%TO.C,J2*%
X142504579Y-92371000D03*
%TO.N,VCC*%
X139964579Y-92371000D03*
%TO.N,ROW1*%
X142504579Y-94911000D03*
%TO.N,ROW2*%
X139964579Y-94911000D03*
%TO.N,RST*%
X142504579Y-97451000D03*
%TO.N,GND*%
X139964579Y-97451000D03*
%TD*%
D14*
%TO.N,GND*%
%TO.C,U2*%
X144706837Y-101707590D03*
X141383435Y-103369291D03*
X148030239Y-103369291D03*
X146368538Y-101707590D03*
X143045136Y-105030992D03*
X144706837Y-100045889D03*
X144706837Y-103369291D03*
X144706837Y-105030992D03*
X143045136Y-101707590D03*
X146368538Y-105030992D03*
X143045136Y-103369291D03*
X144706837Y-106692693D03*
X146368538Y-103369291D03*
%TD*%
D15*
%TO.N,GND*%
%TO.C,J1*%
X156912579Y-84156500D03*
D16*
X156912579Y-88156500D03*
D15*
X145672579Y-84156500D03*
D16*
X145672579Y-88156500D03*
%TD*%
D17*
%TO.N,GND*%
X154040000Y-104370000D03*
X151740000Y-104360000D03*
%TO.N,Net-(MX1-Pad4)*%
X157500000Y-110350000D03*
X153140000Y-104420000D03*
%TO.N,RST*%
X149340000Y-104669491D03*
%TO.N,GND*%
X148810000Y-99640000D03*
X153220000Y-96590000D03*
X143370000Y-98860000D03*
X140280000Y-103370000D03*
X146490000Y-98900000D03*
X149680000Y-92840000D03*
X145360000Y-93820000D03*
X152840000Y-101290000D03*
%TO.N,VCC*%
X147110000Y-93780000D03*
%TO.N,GND*%
X140790000Y-108660000D03*
X158490000Y-104080000D03*
%TO.N,Net-(C1-Pad1)*%
X153172579Y-91609000D03*
X149152579Y-90609000D03*
%TO.N,GND*%
X158372579Y-96879000D03*
X155822579Y-89339000D03*
X146802579Y-89589000D03*
X153372579Y-108789000D03*
%TO.N,VCC*%
X140472579Y-98721000D03*
X142662579Y-108969000D03*
X145442579Y-97919000D03*
X148020000Y-99380000D03*
X145298579Y-95419000D03*
X150670000Y-104210000D03*
X145392579Y-90599000D03*
X144532579Y-87359000D03*
X161340000Y-104930000D03*
%TO.N,Net-(C9-Pad1)*%
X147430000Y-100000000D03*
X153560000Y-100850000D03*
%TO.N,Net-(D1-Pad2)*%
X151952579Y-95669000D03*
%TO.N,RGB*%
X153730000Y-102511900D03*
X145313948Y-98642576D03*
%TO.N,RGBO*%
X158480000Y-107208060D03*
%TO.N,Net-(J1-PadA5)*%
X155458579Y-91609000D03*
X149870579Y-90593000D03*
%TO.N,Net-(J1-PadA6)*%
X151982579Y-90639000D03*
X151032579Y-90349000D03*
%TO.N,Net-(J1-PadB5)*%
X153172579Y-90593000D03*
X155458579Y-90847000D03*
%TO.N,ROW0*%
X150632579Y-95673000D03*
X148520000Y-100940000D03*
%TO.N,ROW3*%
X149552579Y-103129000D03*
%TO.N,ROW2*%
X149962579Y-102639000D03*
%TO.N,ROW1*%
X148952579Y-101499000D03*
%TO.N,COL0*%
X142140000Y-99640000D03*
%TO.N,ROW9*%
X141712579Y-106349000D03*
%TO.N,ROW10*%
X141772579Y-106999000D03*
%TO.N,ROW12*%
X142530000Y-107670000D03*
%TO.N,ROW11*%
X142452579Y-107029000D03*
%TO.N,ROW13*%
X146670000Y-107460000D03*
%TO.N,ROW14*%
X146242579Y-107979000D03*
%TO.N,ROW4*%
X142830000Y-99340000D03*
%TO.N,ROW5*%
X140322579Y-104929000D03*
%TO.N,ROW6*%
X140292579Y-105669000D03*
%TO.N,ROW7*%
X141012579Y-105629000D03*
%TO.N,ROW8*%
X141052579Y-106349000D03*
%TO.N,COL1*%
X141730000Y-100260000D03*
%TO.N,COL2*%
X141340000Y-100710000D03*
%TO.N,COL3*%
X140900000Y-100320000D03*
%TO.N,COL4*%
X140250000Y-100340000D03*
%TO.N,ROW15*%
X145840000Y-108450000D03*
%TD*%
D18*
%TO.N,Net-(MX1-Pad4)*%
X153140000Y-104420000D02*
X153140000Y-106150000D01*
X153140000Y-106150000D02*
X157340000Y-110350000D01*
X157340000Y-110350000D02*
X157500000Y-110350000D01*
%TO.N,RST*%
X142504579Y-97451000D02*
X142781609Y-97451000D01*
X142781609Y-97451000D02*
X149350000Y-104019391D01*
X149350000Y-104019391D02*
X149350000Y-104659491D01*
X149350000Y-104659491D02*
X149340000Y-104669491D01*
%TO.N,ROW3*%
X149552579Y-103129000D02*
X149023938Y-103129000D01*
X141300000Y-95400000D02*
X141300000Y-93575579D01*
X149023938Y-103129000D02*
X143749521Y-97854584D01*
X143749521Y-97854584D02*
X143749521Y-97000256D01*
X143749521Y-97000256D02*
X142879745Y-96130480D01*
X142879745Y-96130480D02*
X142030480Y-96130480D01*
X142030480Y-96130480D02*
X141300000Y-95400000D01*
X141300000Y-93575579D02*
X142504579Y-92371000D01*
%TO.N,ROW2*%
X149962579Y-102639000D02*
X149962579Y-103213284D01*
X141947835Y-96329999D02*
X140528836Y-94911000D01*
X140528836Y-94911000D02*
X139964579Y-94911000D01*
X149962579Y-103213284D02*
X149675863Y-103500000D01*
X143550001Y-97937228D02*
X143550001Y-97082899D01*
X149675863Y-103500000D02*
X149112773Y-103500000D01*
X149112773Y-103500000D02*
X149112772Y-103499998D01*
X149112772Y-103499998D02*
X143550001Y-97937228D01*
X143550001Y-97082899D02*
X142797102Y-96330000D01*
X142797102Y-96330000D02*
X141947835Y-96329999D01*
%TO.N,ROW1*%
X148952579Y-101499000D02*
X147676102Y-101499000D01*
X147676102Y-101499000D02*
X143949041Y-97771939D01*
X143949041Y-97771939D02*
X143949040Y-96917611D01*
X143949040Y-96917611D02*
X142504579Y-95473150D01*
X142504579Y-95473150D02*
X142504579Y-94911000D01*
%TD*%
%TA.AperFunction,Conductor*%
%TO.N,GND*%
G36*
X156915471Y-82158712D02*
G01*
X156915471Y-82161109D01*
X156967486Y-82162186D01*
X156999134Y-82162841D01*
X157007670Y-82163771D01*
X157171278Y-82196314D01*
X157180458Y-82199100D01*
X157334096Y-82262738D01*
X157342558Y-82267260D01*
X157470385Y-82352672D01*
X157480829Y-82359650D01*
X157488254Y-82365744D01*
X157605835Y-82483324D01*
X157611929Y-82490749D01*
X157704316Y-82629015D01*
X157708842Y-82637482D01*
X157772481Y-82791119D01*
X157775269Y-82800312D01*
X157807810Y-82963906D01*
X157808741Y-82972450D01*
X157810399Y-83052501D01*
X157810474Y-83056106D01*
X157811589Y-83059537D01*
X157813050Y-83064035D01*
X157815448Y-83079229D01*
X157815257Y-83251451D01*
X157812937Y-85340054D01*
X157812608Y-85635822D01*
X157810209Y-85650912D01*
X157808873Y-85655022D01*
X157808873Y-85655025D01*
X157807582Y-85658997D01*
X157810415Y-85767551D01*
X157852771Y-85980487D01*
X157935855Y-86181069D01*
X158056475Y-86361588D01*
X158209994Y-86515106D01*
X158211995Y-86516443D01*
X158388510Y-86634386D01*
X158388513Y-86634387D01*
X158390513Y-86635724D01*
X158591095Y-86718807D01*
X158593450Y-86719275D01*
X158593452Y-86719276D01*
X158801985Y-86760755D01*
X158801987Y-86760755D01*
X158804032Y-86761162D01*
X158806118Y-86761216D01*
X158806123Y-86761217D01*
X158902841Y-86763740D01*
X158902842Y-86763740D01*
X158912585Y-86763994D01*
X158912585Y-86761163D01*
X158924285Y-86758994D01*
X160811228Y-86758991D01*
X162861866Y-86758988D01*
X162874581Y-86761586D01*
X162874581Y-86763988D01*
X162923040Y-86764992D01*
X162958237Y-86765721D01*
X162966781Y-86766652D01*
X163130375Y-86799193D01*
X163139567Y-86801981D01*
X163293205Y-86865620D01*
X163301669Y-86870144D01*
X163301688Y-86870157D01*
X163439938Y-86962533D01*
X163447363Y-86968627D01*
X163564943Y-87086208D01*
X163571037Y-87093633D01*
X163663427Y-87231904D01*
X163667949Y-87240366D01*
X163719959Y-87365931D01*
X163731587Y-87394003D01*
X163734373Y-87403184D01*
X163766916Y-87566792D01*
X163767846Y-87575328D01*
X163769503Y-87655392D01*
X163769504Y-87655395D01*
X163769578Y-87658991D01*
X163771089Y-87663640D01*
X163772180Y-87666999D01*
X163774578Y-87682141D01*
X163774578Y-88258430D01*
X163760226Y-88293078D01*
X163731974Y-88307011D01*
X163719046Y-88308713D01*
X163719045Y-88308713D01*
X163715864Y-88309132D01*
X163712902Y-88310359D01*
X163712898Y-88310360D01*
X163572795Y-88368393D01*
X163572792Y-88368395D01*
X163569829Y-88369622D01*
X163444426Y-88465847D01*
X163348201Y-88591250D01*
X163346974Y-88594213D01*
X163346972Y-88594216D01*
X163288939Y-88734319D01*
X163288938Y-88734323D01*
X163287711Y-88737285D01*
X163287292Y-88740466D01*
X163287292Y-88740467D01*
X163268766Y-88881187D01*
X163267079Y-88894000D01*
X163267498Y-88897183D01*
X163273687Y-88944189D01*
X163287711Y-89050715D01*
X163288938Y-89053677D01*
X163288939Y-89053681D01*
X163346972Y-89193784D01*
X163348201Y-89196750D01*
X163444426Y-89322153D01*
X163569829Y-89418378D01*
X163572792Y-89419605D01*
X163572795Y-89419607D01*
X163712898Y-89477640D01*
X163712902Y-89477641D01*
X163715864Y-89478868D01*
X163719045Y-89479287D01*
X163719046Y-89479287D01*
X163727645Y-89480419D01*
X163760123Y-89499171D01*
X163769830Y-89535396D01*
X163751078Y-89567874D01*
X163727645Y-89577581D01*
X163719046Y-89578713D01*
X163719045Y-89578713D01*
X163715864Y-89579132D01*
X163712902Y-89580359D01*
X163712898Y-89580360D01*
X163572795Y-89638393D01*
X163572792Y-89638395D01*
X163569829Y-89639622D01*
X163444426Y-89735847D01*
X163348201Y-89861250D01*
X163346974Y-89864213D01*
X163346972Y-89864216D01*
X163288939Y-90004319D01*
X163288938Y-90004323D01*
X163287711Y-90007285D01*
X163287292Y-90010466D01*
X163287292Y-90010467D01*
X163274576Y-90107056D01*
X163267079Y-90164000D01*
X163267498Y-90167183D01*
X163285637Y-90304958D01*
X163287711Y-90320715D01*
X163288938Y-90323677D01*
X163288939Y-90323681D01*
X163341243Y-90449953D01*
X163348201Y-90466750D01*
X163365290Y-90489021D01*
X163434841Y-90579661D01*
X163444426Y-90592153D01*
X163446975Y-90594109D01*
X163462382Y-90605931D01*
X163569829Y-90688378D01*
X163572792Y-90689605D01*
X163572795Y-90689607D01*
X163712898Y-90747640D01*
X163712902Y-90747641D01*
X163715864Y-90748868D01*
X163719045Y-90749287D01*
X163719046Y-90749287D01*
X163727645Y-90750419D01*
X163760123Y-90769171D01*
X163769830Y-90805396D01*
X163751078Y-90837874D01*
X163727645Y-90847581D01*
X163719046Y-90848713D01*
X163719045Y-90848713D01*
X163715864Y-90849132D01*
X163712902Y-90850359D01*
X163712898Y-90850360D01*
X163572795Y-90908393D01*
X163572792Y-90908395D01*
X163569829Y-90909622D01*
X163444426Y-91005847D01*
X163348201Y-91131250D01*
X163346974Y-91134213D01*
X163346972Y-91134216D01*
X163288939Y-91274319D01*
X163288938Y-91274323D01*
X163287711Y-91277285D01*
X163287292Y-91280466D01*
X163287292Y-91280467D01*
X163268051Y-91426618D01*
X163267079Y-91434000D01*
X163267498Y-91437183D01*
X163277375Y-91512202D01*
X163287711Y-91590715D01*
X163288938Y-91593677D01*
X163288939Y-91593681D01*
X163346972Y-91733784D01*
X163348201Y-91736750D01*
X163350157Y-91739299D01*
X163435151Y-91850065D01*
X163444426Y-91862153D01*
X163446975Y-91864109D01*
X163500070Y-91904850D01*
X163569829Y-91958378D01*
X163572792Y-91959605D01*
X163572795Y-91959607D01*
X163712898Y-92017640D01*
X163712902Y-92017641D01*
X163715864Y-92018868D01*
X163719045Y-92019287D01*
X163719046Y-92019287D01*
X163727645Y-92020419D01*
X163760123Y-92039171D01*
X163769830Y-92075396D01*
X163751078Y-92107874D01*
X163727645Y-92117581D01*
X163719046Y-92118713D01*
X163719045Y-92118713D01*
X163715864Y-92119132D01*
X163712902Y-92120359D01*
X163712898Y-92120360D01*
X163572795Y-92178393D01*
X163572792Y-92178395D01*
X163569829Y-92179622D01*
X163444426Y-92275847D01*
X163348201Y-92401250D01*
X163346974Y-92404213D01*
X163346972Y-92404216D01*
X163288939Y-92544319D01*
X163288938Y-92544323D01*
X163287711Y-92547285D01*
X163267079Y-92704000D01*
X163267498Y-92707183D01*
X163283841Y-92831316D01*
X163287711Y-92860715D01*
X163288938Y-92863677D01*
X163288939Y-92863681D01*
X163345558Y-93000370D01*
X163348201Y-93006750D01*
X163444426Y-93132153D01*
X163446975Y-93134109D01*
X163507127Y-93180265D01*
X163569829Y-93228378D01*
X163572792Y-93229605D01*
X163572795Y-93229607D01*
X163712898Y-93287640D01*
X163712902Y-93287641D01*
X163715864Y-93288868D01*
X163719045Y-93289287D01*
X163719046Y-93289287D01*
X163727645Y-93290419D01*
X163760123Y-93309171D01*
X163769830Y-93345396D01*
X163751078Y-93377874D01*
X163727645Y-93387581D01*
X163719046Y-93388713D01*
X163719045Y-93388713D01*
X163715864Y-93389132D01*
X163712902Y-93390359D01*
X163712898Y-93390360D01*
X163572795Y-93448393D01*
X163572792Y-93448395D01*
X163569829Y-93449622D01*
X163444426Y-93545847D01*
X163442470Y-93548396D01*
X163422218Y-93574789D01*
X163348201Y-93671250D01*
X163346974Y-93674213D01*
X163346972Y-93674216D01*
X163288939Y-93814319D01*
X163288938Y-93814323D01*
X163287711Y-93817285D01*
X163287292Y-93820466D01*
X163287292Y-93820467D01*
X163268051Y-93966618D01*
X163267079Y-93974000D01*
X163267498Y-93977183D01*
X163277375Y-94052202D01*
X163287711Y-94130715D01*
X163288938Y-94133677D01*
X163288939Y-94133681D01*
X163346972Y-94273784D01*
X163348201Y-94276750D01*
X163444426Y-94402153D01*
X163446975Y-94404109D01*
X163500070Y-94444850D01*
X163569829Y-94498378D01*
X163572792Y-94499605D01*
X163572795Y-94499607D01*
X163712898Y-94557640D01*
X163712902Y-94557641D01*
X163715864Y-94558868D01*
X163719045Y-94559287D01*
X163719046Y-94559287D01*
X163727645Y-94560419D01*
X163760123Y-94579171D01*
X163769830Y-94615396D01*
X163751078Y-94647874D01*
X163727645Y-94657581D01*
X163719046Y-94658713D01*
X163719045Y-94658713D01*
X163715864Y-94659132D01*
X163712902Y-94660359D01*
X163712898Y-94660360D01*
X163572795Y-94718393D01*
X163572792Y-94718395D01*
X163569829Y-94719622D01*
X163444426Y-94815847D01*
X163348201Y-94941250D01*
X163346974Y-94944213D01*
X163346972Y-94944216D01*
X163288939Y-95084319D01*
X163288938Y-95084323D01*
X163287711Y-95087285D01*
X163287292Y-95090466D01*
X163287292Y-95090467D01*
X163268241Y-95235177D01*
X163267079Y-95244000D01*
X163267498Y-95247183D01*
X163283841Y-95371316D01*
X163287711Y-95400715D01*
X163288938Y-95403677D01*
X163288939Y-95403681D01*
X163345558Y-95540370D01*
X163348201Y-95546750D01*
X163367657Y-95572106D01*
X163435151Y-95660065D01*
X163444426Y-95672153D01*
X163446975Y-95674109D01*
X163450765Y-95677017D01*
X163569829Y-95768378D01*
X163572792Y-95769605D01*
X163572795Y-95769607D01*
X163712898Y-95827640D01*
X163712902Y-95827641D01*
X163715864Y-95828868D01*
X163719045Y-95829287D01*
X163719046Y-95829287D01*
X163727645Y-95830419D01*
X163760123Y-95849171D01*
X163769830Y-95885396D01*
X163751078Y-95917874D01*
X163727645Y-95927581D01*
X163719046Y-95928713D01*
X163719045Y-95928713D01*
X163715864Y-95929132D01*
X163712902Y-95930359D01*
X163712898Y-95930360D01*
X163572795Y-95988393D01*
X163572792Y-95988395D01*
X163569829Y-95989622D01*
X163444426Y-96085847D01*
X163348201Y-96211250D01*
X163346974Y-96214213D01*
X163346972Y-96214216D01*
X163288939Y-96354319D01*
X163288938Y-96354323D01*
X163287711Y-96357285D01*
X163287292Y-96360466D01*
X163287292Y-96360467D01*
X163271489Y-96480500D01*
X163267079Y-96514000D01*
X163267498Y-96517183D01*
X163283670Y-96640017D01*
X163287711Y-96670715D01*
X163288938Y-96673677D01*
X163288939Y-96673681D01*
X163346972Y-96813784D01*
X163348201Y-96816750D01*
X163444426Y-96942153D01*
X163446975Y-96944109D01*
X163497734Y-96983058D01*
X163569829Y-97038378D01*
X163572792Y-97039605D01*
X163572795Y-97039607D01*
X163712898Y-97097640D01*
X163712902Y-97097641D01*
X163715864Y-97098868D01*
X163719045Y-97099287D01*
X163719046Y-97099287D01*
X163727645Y-97100419D01*
X163760123Y-97119171D01*
X163769830Y-97155396D01*
X163751078Y-97187874D01*
X163727645Y-97197581D01*
X163719046Y-97198713D01*
X163719045Y-97198713D01*
X163715864Y-97199132D01*
X163712902Y-97200359D01*
X163712898Y-97200360D01*
X163572795Y-97258393D01*
X163572792Y-97258395D01*
X163569829Y-97259622D01*
X163444426Y-97355847D01*
X163348201Y-97481250D01*
X163346974Y-97484213D01*
X163346972Y-97484216D01*
X163288939Y-97624319D01*
X163288938Y-97624323D01*
X163287711Y-97627285D01*
X163287292Y-97630466D01*
X163287292Y-97630467D01*
X163267498Y-97780817D01*
X163267079Y-97784000D01*
X163267498Y-97787183D01*
X163283841Y-97911316D01*
X163287711Y-97940715D01*
X163288938Y-97943677D01*
X163288939Y-97943681D01*
X163346972Y-98083784D01*
X163348201Y-98086750D01*
X163350157Y-98089299D01*
X163442301Y-98209383D01*
X163444426Y-98212153D01*
X163569829Y-98308378D01*
X163572792Y-98309605D01*
X163572795Y-98309607D01*
X163712898Y-98367640D01*
X163712902Y-98367641D01*
X163715864Y-98368868D01*
X163719045Y-98369287D01*
X163719046Y-98369287D01*
X163727645Y-98370419D01*
X163760123Y-98389171D01*
X163769830Y-98425396D01*
X163751078Y-98457874D01*
X163727645Y-98467581D01*
X163719046Y-98468713D01*
X163719045Y-98468713D01*
X163715864Y-98469132D01*
X163712902Y-98470359D01*
X163712898Y-98470360D01*
X163572795Y-98528393D01*
X163572792Y-98528395D01*
X163569829Y-98529622D01*
X163444426Y-98625847D01*
X163348201Y-98751250D01*
X163346974Y-98754213D01*
X163346972Y-98754216D01*
X163288939Y-98894319D01*
X163288938Y-98894323D01*
X163287711Y-98897285D01*
X163287292Y-98900466D01*
X163287292Y-98900467D01*
X163268235Y-99045220D01*
X163267079Y-99054000D01*
X163267498Y-99057183D01*
X163282621Y-99172049D01*
X163287711Y-99210715D01*
X163288938Y-99213677D01*
X163288939Y-99213681D01*
X163346972Y-99353784D01*
X163348201Y-99356750D01*
X163444426Y-99482153D01*
X163569829Y-99578378D01*
X163572792Y-99579605D01*
X163572795Y-99579607D01*
X163712898Y-99637640D01*
X163712902Y-99637641D01*
X163715864Y-99638868D01*
X163719045Y-99639287D01*
X163719046Y-99639287D01*
X163727645Y-99640419D01*
X163760123Y-99659171D01*
X163769830Y-99695396D01*
X163751078Y-99727874D01*
X163727645Y-99737581D01*
X163719046Y-99738713D01*
X163719045Y-99738713D01*
X163715864Y-99739132D01*
X163712902Y-99740359D01*
X163712898Y-99740360D01*
X163572795Y-99798393D01*
X163572792Y-99798395D01*
X163569829Y-99799622D01*
X163567280Y-99801578D01*
X163452019Y-99890021D01*
X163444426Y-99895847D01*
X163442470Y-99898396D01*
X163417926Y-99930383D01*
X163348201Y-100021250D01*
X163346974Y-100024213D01*
X163346972Y-100024216D01*
X163288939Y-100164319D01*
X163288938Y-100164323D01*
X163287711Y-100167285D01*
X163287292Y-100170466D01*
X163287292Y-100170467D01*
X163269693Y-100304147D01*
X163267079Y-100324000D01*
X163267498Y-100327183D01*
X163280232Y-100423903D01*
X163287711Y-100480715D01*
X163288938Y-100483677D01*
X163288939Y-100483681D01*
X163346972Y-100623784D01*
X163348201Y-100626750D01*
X163444426Y-100752153D01*
X163446975Y-100754109D01*
X163463848Y-100767056D01*
X163569829Y-100848378D01*
X163572792Y-100849605D01*
X163572795Y-100849607D01*
X163712898Y-100907640D01*
X163712902Y-100907641D01*
X163715864Y-100908868D01*
X163719045Y-100909287D01*
X163719046Y-100909287D01*
X163727645Y-100910419D01*
X163760123Y-100929171D01*
X163769830Y-100965396D01*
X163751078Y-100997874D01*
X163727645Y-101007581D01*
X163719046Y-101008713D01*
X163719045Y-101008713D01*
X163715864Y-101009132D01*
X163712902Y-101010359D01*
X163712898Y-101010360D01*
X163572795Y-101068393D01*
X163572792Y-101068395D01*
X163569829Y-101069622D01*
X163444426Y-101165847D01*
X163348201Y-101291250D01*
X163346974Y-101294213D01*
X163346972Y-101294216D01*
X163288939Y-101434319D01*
X163288938Y-101434323D01*
X163287711Y-101437285D01*
X163287292Y-101440466D01*
X163287292Y-101440467D01*
X163269660Y-101574396D01*
X163267079Y-101594000D01*
X163267498Y-101597183D01*
X163282313Y-101709710D01*
X163287711Y-101750715D01*
X163288938Y-101753677D01*
X163288939Y-101753681D01*
X163327373Y-101846467D01*
X163348201Y-101896750D01*
X163444426Y-102022153D01*
X163446975Y-102024109D01*
X163462910Y-102036336D01*
X163569829Y-102118378D01*
X163572792Y-102119605D01*
X163572795Y-102119607D01*
X163712898Y-102177640D01*
X163712902Y-102177641D01*
X163715864Y-102178868D01*
X163719045Y-102179287D01*
X163719046Y-102179287D01*
X163727645Y-102180419D01*
X163760123Y-102199171D01*
X163769830Y-102235396D01*
X163751078Y-102267874D01*
X163727645Y-102277581D01*
X163719046Y-102278713D01*
X163719045Y-102278713D01*
X163715864Y-102279132D01*
X163712902Y-102280359D01*
X163712898Y-102280360D01*
X163572795Y-102338393D01*
X163572792Y-102338395D01*
X163569829Y-102339622D01*
X163444426Y-102435847D01*
X163348201Y-102561250D01*
X163346974Y-102564213D01*
X163346972Y-102564216D01*
X163288939Y-102704319D01*
X163288938Y-102704323D01*
X163287711Y-102707285D01*
X163287292Y-102710466D01*
X163287292Y-102710467D01*
X163269660Y-102844396D01*
X163267079Y-102864000D01*
X163267498Y-102867183D01*
X163287139Y-103016367D01*
X163287711Y-103020715D01*
X163288938Y-103023677D01*
X163288939Y-103023681D01*
X163346972Y-103163784D01*
X163348201Y-103166750D01*
X163444426Y-103292153D01*
X163446975Y-103294109D01*
X163463135Y-103306509D01*
X163569829Y-103388378D01*
X163572792Y-103389605D01*
X163572795Y-103389607D01*
X163712898Y-103447640D01*
X163712902Y-103447641D01*
X163715864Y-103448868D01*
X163719045Y-103449287D01*
X163719046Y-103449287D01*
X163727645Y-103450419D01*
X163760123Y-103469171D01*
X163769830Y-103505396D01*
X163751078Y-103537874D01*
X163727645Y-103547581D01*
X163719046Y-103548713D01*
X163719045Y-103548713D01*
X163715864Y-103549132D01*
X163712902Y-103550359D01*
X163712898Y-103550360D01*
X163572795Y-103608393D01*
X163572792Y-103608395D01*
X163569829Y-103609622D01*
X163554994Y-103621005D01*
X163452698Y-103699500D01*
X163444426Y-103705847D01*
X163348201Y-103831250D01*
X163346974Y-103834213D01*
X163346972Y-103834216D01*
X163288939Y-103974319D01*
X163288938Y-103974323D01*
X163287711Y-103977285D01*
X163287292Y-103980466D01*
X163287292Y-103980467D01*
X163268235Y-104125220D01*
X163267079Y-104134000D01*
X163267498Y-104137183D01*
X163284000Y-104262524D01*
X163287711Y-104290715D01*
X163288938Y-104293677D01*
X163288939Y-104293681D01*
X163346972Y-104433784D01*
X163348201Y-104436750D01*
X163444426Y-104562153D01*
X163569829Y-104658378D01*
X163572792Y-104659605D01*
X163572795Y-104659607D01*
X163712898Y-104717640D01*
X163712902Y-104717641D01*
X163715864Y-104718868D01*
X163719045Y-104719287D01*
X163719046Y-104719287D01*
X163727645Y-104720419D01*
X163760123Y-104739171D01*
X163769830Y-104775396D01*
X163751078Y-104807874D01*
X163727645Y-104817581D01*
X163719046Y-104818713D01*
X163719045Y-104818713D01*
X163715864Y-104819132D01*
X163712902Y-104820359D01*
X163712898Y-104820360D01*
X163572795Y-104878393D01*
X163572792Y-104878395D01*
X163569829Y-104879622D01*
X163567280Y-104881578D01*
X163457086Y-104966133D01*
X163444426Y-104975847D01*
X163442470Y-104978396D01*
X163436819Y-104985761D01*
X163348201Y-105101250D01*
X163346974Y-105104213D01*
X163346972Y-105104216D01*
X163288939Y-105244319D01*
X163288938Y-105244323D01*
X163287711Y-105247285D01*
X163287292Y-105250466D01*
X163287292Y-105250467D01*
X163269794Y-105383378D01*
X163267079Y-105404000D01*
X163267498Y-105407183D01*
X163269324Y-105421049D01*
X163287711Y-105560715D01*
X163288938Y-105563677D01*
X163288939Y-105563681D01*
X163336407Y-105678277D01*
X163348201Y-105706750D01*
X163444426Y-105832153D01*
X163569829Y-105928378D01*
X163572792Y-105929605D01*
X163572795Y-105929607D01*
X163712898Y-105987640D01*
X163712902Y-105987641D01*
X163715864Y-105988868D01*
X163719045Y-105989287D01*
X163719046Y-105989287D01*
X163727645Y-105990419D01*
X163760123Y-106009171D01*
X163769830Y-106045396D01*
X163751078Y-106077874D01*
X163727645Y-106087581D01*
X163719046Y-106088713D01*
X163719045Y-106088713D01*
X163715864Y-106089132D01*
X163712902Y-106090359D01*
X163712898Y-106090360D01*
X163572795Y-106148393D01*
X163572792Y-106148395D01*
X163569829Y-106149622D01*
X163567280Y-106151578D01*
X163476134Y-106221517D01*
X163444426Y-106245847D01*
X163348201Y-106371250D01*
X163346974Y-106374213D01*
X163346972Y-106374216D01*
X163288939Y-106514319D01*
X163288938Y-106514323D01*
X163287711Y-106517285D01*
X163267079Y-106674000D01*
X163267498Y-106677183D01*
X163273954Y-106726217D01*
X163287711Y-106830715D01*
X163288938Y-106833677D01*
X163288939Y-106833681D01*
X163346972Y-106973784D01*
X163348201Y-106976750D01*
X163378790Y-107016614D01*
X163432414Y-107086498D01*
X163444426Y-107102153D01*
X163569829Y-107198378D01*
X163572792Y-107199605D01*
X163572795Y-107199607D01*
X163712898Y-107257640D01*
X163712902Y-107257641D01*
X163715864Y-107258868D01*
X163719045Y-107259287D01*
X163719046Y-107259287D01*
X163727645Y-107260419D01*
X163760123Y-107279171D01*
X163769830Y-107315396D01*
X163751078Y-107347874D01*
X163727645Y-107357581D01*
X163719046Y-107358713D01*
X163719045Y-107358713D01*
X163715864Y-107359132D01*
X163712902Y-107360359D01*
X163712898Y-107360360D01*
X163572795Y-107418393D01*
X163572792Y-107418395D01*
X163569829Y-107419622D01*
X163444426Y-107515847D01*
X163348201Y-107641250D01*
X163346974Y-107644213D01*
X163346972Y-107644216D01*
X163288939Y-107784319D01*
X163288938Y-107784323D01*
X163287711Y-107787285D01*
X163287292Y-107790466D01*
X163287292Y-107790467D01*
X163270836Y-107915461D01*
X163267079Y-107944000D01*
X163267498Y-107947183D01*
X163287014Y-108095417D01*
X163287711Y-108100715D01*
X163288938Y-108103677D01*
X163288939Y-108103681D01*
X163346972Y-108243784D01*
X163348201Y-108246750D01*
X163444426Y-108372153D01*
X163446975Y-108374109D01*
X163468546Y-108390661D01*
X163569829Y-108468378D01*
X163572792Y-108469605D01*
X163572795Y-108469607D01*
X163641347Y-108498002D01*
X163715864Y-108528868D01*
X163719043Y-108529287D01*
X163719045Y-108529287D01*
X163725781Y-108530174D01*
X163731977Y-108530989D01*
X163764456Y-108549740D01*
X163774582Y-108579570D01*
X163774582Y-110635840D01*
X163772184Y-110650982D01*
X163770694Y-110655566D01*
X163770693Y-110655570D01*
X163769582Y-110658990D01*
X163769507Y-110662589D01*
X163769507Y-110662592D01*
X163767849Y-110742646D01*
X163766918Y-110751190D01*
X163734377Y-110914784D01*
X163731589Y-110923976D01*
X163668270Y-111076843D01*
X163667952Y-111077610D01*
X163663426Y-111086078D01*
X163622725Y-111146991D01*
X163571037Y-111224347D01*
X163564943Y-111231772D01*
X163447362Y-111349352D01*
X163439937Y-111355446D01*
X163301666Y-111447836D01*
X163293204Y-111452358D01*
X163141708Y-111515109D01*
X163139567Y-111515996D01*
X163130386Y-111518782D01*
X162966778Y-111551325D01*
X162958242Y-111552255D01*
X162884323Y-111553785D01*
X162884322Y-111553785D01*
X162874579Y-111553987D01*
X162874579Y-111556389D01*
X162862190Y-111558987D01*
X161122927Y-111558988D01*
X155090174Y-111558992D01*
X155055526Y-111544640D01*
X155041593Y-111516388D01*
X155040287Y-111506467D01*
X155040287Y-111506466D01*
X155039868Y-111503285D01*
X155038641Y-111500323D01*
X155038640Y-111500319D01*
X154980607Y-111360216D01*
X154980605Y-111360213D01*
X154979378Y-111357250D01*
X154883153Y-111231847D01*
X154757750Y-111135622D01*
X154754787Y-111134395D01*
X154754784Y-111134393D01*
X154614681Y-111076360D01*
X154614677Y-111076359D01*
X154611715Y-111075132D01*
X154608534Y-111074713D01*
X154608533Y-111074713D01*
X154458183Y-111054919D01*
X154455000Y-111054500D01*
X154451817Y-111054919D01*
X154301467Y-111074713D01*
X154301466Y-111074713D01*
X154298285Y-111075132D01*
X154295323Y-111076359D01*
X154295319Y-111076360D01*
X154155216Y-111134393D01*
X154155213Y-111134395D01*
X154152250Y-111135622D01*
X154026847Y-111231847D01*
X153930622Y-111357250D01*
X153929395Y-111360213D01*
X153929393Y-111360216D01*
X153871360Y-111500319D01*
X153871359Y-111500323D01*
X153870132Y-111503285D01*
X153869713Y-111506466D01*
X153869713Y-111506467D01*
X153868581Y-111515066D01*
X153849829Y-111547544D01*
X153813604Y-111557251D01*
X153781126Y-111538499D01*
X153771419Y-111515066D01*
X153770287Y-111506467D01*
X153770287Y-111506466D01*
X153769868Y-111503285D01*
X153768641Y-111500323D01*
X153768640Y-111500319D01*
X153710607Y-111360216D01*
X153710605Y-111360213D01*
X153709378Y-111357250D01*
X153613153Y-111231847D01*
X153487750Y-111135622D01*
X153484787Y-111134395D01*
X153484784Y-111134393D01*
X153344681Y-111076360D01*
X153344677Y-111076359D01*
X153341715Y-111075132D01*
X153338534Y-111074713D01*
X153338533Y-111074713D01*
X153188183Y-111054919D01*
X153185000Y-111054500D01*
X153181817Y-111054919D01*
X153031467Y-111074713D01*
X153031466Y-111074713D01*
X153028285Y-111075132D01*
X153025323Y-111076359D01*
X153025319Y-111076360D01*
X152885216Y-111134393D01*
X152885213Y-111134395D01*
X152882250Y-111135622D01*
X152756847Y-111231847D01*
X152660622Y-111357250D01*
X152659395Y-111360213D01*
X152659393Y-111360216D01*
X152601360Y-111500319D01*
X152601359Y-111500323D01*
X152600132Y-111503285D01*
X152599713Y-111506466D01*
X152599713Y-111506467D01*
X152598407Y-111516389D01*
X152579656Y-111548868D01*
X152549826Y-111558994D01*
X152405174Y-111558994D01*
X152370526Y-111544642D01*
X152356593Y-111516389D01*
X152355287Y-111506467D01*
X152355287Y-111506466D01*
X152354868Y-111503285D01*
X152353641Y-111500323D01*
X152353640Y-111500319D01*
X152295607Y-111360216D01*
X152295605Y-111360213D01*
X152294378Y-111357250D01*
X152198153Y-111231847D01*
X152072750Y-111135622D01*
X152069787Y-111134395D01*
X152069784Y-111134393D01*
X151929681Y-111076360D01*
X151929677Y-111076359D01*
X151926715Y-111075132D01*
X151923534Y-111074713D01*
X151923533Y-111074713D01*
X151773183Y-111054919D01*
X151770000Y-111054500D01*
X151766817Y-111054919D01*
X151616467Y-111074713D01*
X151616466Y-111074713D01*
X151613285Y-111075132D01*
X151610323Y-111076359D01*
X151610319Y-111076360D01*
X151470216Y-111134393D01*
X151470213Y-111134395D01*
X151467250Y-111135622D01*
X151341847Y-111231847D01*
X151245622Y-111357250D01*
X151244395Y-111360213D01*
X151244393Y-111360216D01*
X151240704Y-111369123D01*
X151185132Y-111503285D01*
X151184713Y-111506464D01*
X151184713Y-111506466D01*
X151183581Y-111515067D01*
X151164830Y-111547546D01*
X151128605Y-111557253D01*
X151096126Y-111538502D01*
X151086419Y-111515067D01*
X151085287Y-111506466D01*
X151085287Y-111506464D01*
X151084868Y-111503285D01*
X151029296Y-111369123D01*
X151025607Y-111360216D01*
X151025605Y-111360213D01*
X151024378Y-111357250D01*
X150928153Y-111231847D01*
X150802750Y-111135622D01*
X150799787Y-111134395D01*
X150799784Y-111134393D01*
X150659681Y-111076360D01*
X150659677Y-111076359D01*
X150656715Y-111075132D01*
X150653534Y-111074713D01*
X150653533Y-111074713D01*
X150503183Y-111054919D01*
X150500000Y-111054500D01*
X150496817Y-111054919D01*
X150346467Y-111074713D01*
X150346466Y-111074713D01*
X150343285Y-111075132D01*
X150340323Y-111076359D01*
X150340319Y-111076360D01*
X150200216Y-111134393D01*
X150200213Y-111134395D01*
X150197250Y-111135622D01*
X150071847Y-111231847D01*
X149975622Y-111357250D01*
X149974395Y-111360213D01*
X149974393Y-111360216D01*
X149970704Y-111369123D01*
X149915132Y-111503285D01*
X149913576Y-111515109D01*
X149913407Y-111516390D01*
X149894656Y-111548869D01*
X149864826Y-111558995D01*
X149864675Y-111558995D01*
X149830027Y-111544643D01*
X149816094Y-111516393D01*
X149814804Y-111506595D01*
X149813157Y-111500448D01*
X149755172Y-111360463D01*
X149754408Y-111359139D01*
X149749375Y-111356233D01*
X149744627Y-111357505D01*
X149557489Y-111544643D01*
X149522841Y-111558995D01*
X149095648Y-111558996D01*
X148937160Y-111558996D01*
X148902512Y-111544644D01*
X148716991Y-111359123D01*
X148710098Y-111356268D01*
X148706354Y-111357818D01*
X148704828Y-111360463D01*
X148646843Y-111500448D01*
X148645196Y-111506595D01*
X148643906Y-111516393D01*
X148625153Y-111548871D01*
X148595325Y-111558996D01*
X147878612Y-111558997D01*
X147723858Y-111558997D01*
X147689210Y-111544645D01*
X147676761Y-111519400D01*
X147676119Y-111519572D01*
X147675287Y-111516465D01*
X147674868Y-111513285D01*
X147673641Y-111510323D01*
X147673640Y-111510319D01*
X147615607Y-111370216D01*
X147615605Y-111370213D01*
X147614378Y-111367250D01*
X147518153Y-111241847D01*
X147392750Y-111145622D01*
X147389787Y-111144395D01*
X147389784Y-111144393D01*
X147380687Y-111140625D01*
X148926233Y-111140625D01*
X148927505Y-111145373D01*
X149223107Y-111440975D01*
X149230000Y-111443830D01*
X149236893Y-111440975D01*
X149530877Y-111146991D01*
X149533732Y-111140098D01*
X149532182Y-111136354D01*
X149529537Y-111134828D01*
X149389552Y-111076843D01*
X149383404Y-111075196D01*
X149233183Y-111055419D01*
X149226817Y-111055419D01*
X149076596Y-111075196D01*
X149070448Y-111076843D01*
X148930463Y-111134828D01*
X148929139Y-111135592D01*
X148926233Y-111140625D01*
X147380687Y-111140625D01*
X147249681Y-111086360D01*
X147249677Y-111086359D01*
X147246715Y-111085132D01*
X147243534Y-111084713D01*
X147243533Y-111084713D01*
X147093183Y-111064919D01*
X147090000Y-111064500D01*
X147086817Y-111064919D01*
X146936467Y-111084713D01*
X146936466Y-111084713D01*
X146933285Y-111085132D01*
X146930323Y-111086359D01*
X146930319Y-111086360D01*
X146790216Y-111144393D01*
X146790213Y-111144395D01*
X146787250Y-111145622D01*
X146661847Y-111241847D01*
X146565622Y-111367250D01*
X146564395Y-111370213D01*
X146564393Y-111370216D01*
X146506360Y-111510319D01*
X146506359Y-111510323D01*
X146505132Y-111513285D01*
X146504713Y-111516465D01*
X146503881Y-111519572D01*
X146503019Y-111519341D01*
X146485975Y-111548869D01*
X146456142Y-111558998D01*
X146453858Y-111558998D01*
X146419210Y-111544646D01*
X146406762Y-111519400D01*
X146406119Y-111519572D01*
X146405287Y-111516465D01*
X146404868Y-111513285D01*
X146403641Y-111510323D01*
X146403640Y-111510319D01*
X146345607Y-111370216D01*
X146345605Y-111370213D01*
X146344378Y-111367250D01*
X146248153Y-111241847D01*
X146122750Y-111145622D01*
X146119787Y-111144395D01*
X146119784Y-111144393D01*
X145979681Y-111086360D01*
X145979677Y-111086359D01*
X145976715Y-111085132D01*
X145973534Y-111084713D01*
X145973533Y-111084713D01*
X145823183Y-111064919D01*
X145820000Y-111064500D01*
X145816817Y-111064919D01*
X145666467Y-111084713D01*
X145666466Y-111084713D01*
X145663285Y-111085132D01*
X145660323Y-111086359D01*
X145660319Y-111086360D01*
X145520216Y-111144393D01*
X145520213Y-111144395D01*
X145517250Y-111145622D01*
X145391847Y-111241847D01*
X145295622Y-111367250D01*
X145294395Y-111370213D01*
X145294393Y-111370216D01*
X145236360Y-111510319D01*
X145236359Y-111510323D01*
X145235132Y-111513285D01*
X145234713Y-111516465D01*
X145233881Y-111519572D01*
X145233019Y-111519341D01*
X145215975Y-111548869D01*
X145186142Y-111558998D01*
X145183858Y-111558998D01*
X145149210Y-111544646D01*
X145136762Y-111519400D01*
X145136119Y-111519572D01*
X145135287Y-111516465D01*
X145134868Y-111513285D01*
X145133641Y-111510323D01*
X145133640Y-111510319D01*
X145075607Y-111370216D01*
X145075605Y-111370213D01*
X145074378Y-111367250D01*
X144978153Y-111241847D01*
X144852750Y-111145622D01*
X144849787Y-111144395D01*
X144849784Y-111144393D01*
X144709681Y-111086360D01*
X144709677Y-111086359D01*
X144706715Y-111085132D01*
X144703534Y-111084713D01*
X144703533Y-111084713D01*
X144553183Y-111064919D01*
X144550000Y-111064500D01*
X144546817Y-111064919D01*
X144396467Y-111084713D01*
X144396466Y-111084713D01*
X144393285Y-111085132D01*
X144390323Y-111086359D01*
X144390319Y-111086360D01*
X144250216Y-111144393D01*
X144250213Y-111144395D01*
X144247250Y-111145622D01*
X144121847Y-111241847D01*
X144025622Y-111367250D01*
X143965132Y-111513285D01*
X143964713Y-111516467D01*
X143963881Y-111519572D01*
X143963020Y-111519341D01*
X143945975Y-111548870D01*
X143916142Y-111558999D01*
X143913358Y-111558999D01*
X143878710Y-111544647D01*
X143866320Y-111519518D01*
X143865636Y-111519701D01*
X143863157Y-111510448D01*
X143805172Y-111370463D01*
X143804408Y-111369139D01*
X143799375Y-111366233D01*
X143794627Y-111367505D01*
X143617485Y-111544647D01*
X143582837Y-111558999D01*
X143301654Y-111558999D01*
X142977163Y-111559000D01*
X142942516Y-111544648D01*
X142766991Y-111369123D01*
X142760098Y-111366268D01*
X142756354Y-111367818D01*
X142754828Y-111370463D01*
X142696843Y-111510448D01*
X142694364Y-111519701D01*
X142693456Y-111519458D01*
X142676465Y-111548878D01*
X142646641Y-111559000D01*
X139723293Y-111559002D01*
X139710578Y-111556404D01*
X139710578Y-111554002D01*
X139662119Y-111552998D01*
X139626922Y-111552269D01*
X139618378Y-111551338D01*
X139454784Y-111518797D01*
X139445591Y-111516009D01*
X139445560Y-111515996D01*
X139291954Y-111452370D01*
X139283490Y-111447846D01*
X139150731Y-111359139D01*
X139145221Y-111355457D01*
X139137796Y-111349363D01*
X139020216Y-111231782D01*
X139014122Y-111224357D01*
X138985193Y-111181062D01*
X138964856Y-111150625D01*
X142976233Y-111150625D01*
X142977505Y-111155373D01*
X143273107Y-111450975D01*
X143280000Y-111453830D01*
X143286893Y-111450975D01*
X143580877Y-111156991D01*
X143583732Y-111150098D01*
X143582182Y-111146354D01*
X143579537Y-111144828D01*
X143439552Y-111086843D01*
X143433404Y-111085196D01*
X143283183Y-111065419D01*
X143276817Y-111065419D01*
X143126596Y-111085196D01*
X143120448Y-111086843D01*
X142980463Y-111144828D01*
X142979139Y-111145592D01*
X142976233Y-111150625D01*
X138964856Y-111150625D01*
X138921732Y-111086086D01*
X138917210Y-111077624D01*
X138853572Y-110923986D01*
X138850786Y-110914806D01*
X138818243Y-110751198D01*
X138817313Y-110742662D01*
X138815656Y-110662598D01*
X138815655Y-110662592D01*
X138815581Y-110658999D01*
X138812979Y-110650991D01*
X138810581Y-110635849D01*
X138810581Y-109021524D01*
X142361628Y-109021524D01*
X142400714Y-109126344D01*
X142403714Y-109129729D01*
X142471915Y-109206681D01*
X142471918Y-109206683D01*
X142474915Y-109210065D01*
X142574280Y-109261461D01*
X142685485Y-109273640D01*
X142793619Y-109244969D01*
X142841748Y-109210065D01*
X142880519Y-109181948D01*
X142880520Y-109181947D01*
X142884181Y-109179292D01*
X142945028Y-109085417D01*
X142968000Y-108975931D01*
X142968079Y-108969000D01*
X142947596Y-108859021D01*
X142888895Y-108763789D01*
X142799846Y-108696075D01*
X142795502Y-108694817D01*
X142795500Y-108694816D01*
X142725725Y-108674611D01*
X142692391Y-108664958D01*
X142687885Y-108665348D01*
X142687883Y-108665348D01*
X142585448Y-108674220D01*
X142585446Y-108674221D01*
X142580938Y-108674611D01*
X142480432Y-108723739D01*
X142477355Y-108727056D01*
X142452844Y-108753480D01*
X142404352Y-108805755D01*
X142362897Y-108909661D01*
X142361628Y-109021524D01*
X138810581Y-109021524D01*
X138810581Y-108549740D01*
X138810581Y-108502524D01*
X145539049Y-108502524D01*
X145578135Y-108607344D01*
X145581135Y-108610729D01*
X145649336Y-108687681D01*
X145649339Y-108687683D01*
X145652336Y-108691065D01*
X145751701Y-108742461D01*
X145862906Y-108754640D01*
X145971040Y-108725969D01*
X146019169Y-108691065D01*
X146057940Y-108662948D01*
X146057941Y-108662947D01*
X146061602Y-108660292D01*
X146122449Y-108566417D01*
X146141845Y-108473976D01*
X146144929Y-108459277D01*
X146144929Y-108459275D01*
X146145421Y-108456931D01*
X146145500Y-108450000D01*
X146125017Y-108340021D01*
X146124196Y-108338688D01*
X146125075Y-108302613D01*
X146152233Y-108276748D01*
X146175209Y-108273753D01*
X146265485Y-108283640D01*
X146373619Y-108254969D01*
X146421748Y-108220065D01*
X146460519Y-108191948D01*
X146460520Y-108191947D01*
X146464181Y-108189292D01*
X146525028Y-108095417D01*
X146539775Y-108025131D01*
X146547508Y-107988277D01*
X146547508Y-107988275D01*
X146548000Y-107985931D01*
X146548079Y-107979000D01*
X146527596Y-107869021D01*
X146489506Y-107807226D01*
X146483542Y-107770202D01*
X146505506Y-107739804D01*
X146542532Y-107733840D01*
X146553729Y-107737993D01*
X146581701Y-107752461D01*
X146692906Y-107764640D01*
X146801040Y-107735969D01*
X146864061Y-107690265D01*
X146887940Y-107672948D01*
X146887941Y-107672947D01*
X146891602Y-107670292D01*
X146952449Y-107576417D01*
X146968809Y-107498443D01*
X146974929Y-107469277D01*
X146974929Y-107469275D01*
X146975421Y-107466931D01*
X146975500Y-107460000D01*
X146955017Y-107350021D01*
X146896316Y-107254789D01*
X146807267Y-107187075D01*
X146802923Y-107185817D01*
X146802921Y-107185816D01*
X146733146Y-107165611D01*
X146699812Y-107155958D01*
X146695306Y-107156348D01*
X146695304Y-107156348D01*
X146592869Y-107165220D01*
X146592867Y-107165221D01*
X146588359Y-107165611D01*
X146487853Y-107214739D01*
X146484776Y-107218056D01*
X146434605Y-107272142D01*
X146411773Y-107296755D01*
X146370318Y-107400661D01*
X146370045Y-107424739D01*
X146369180Y-107501013D01*
X146369049Y-107512524D01*
X146408135Y-107617344D01*
X146411460Y-107621095D01*
X146411601Y-107621504D01*
X146413466Y-107624608D01*
X146412809Y-107625002D01*
X146423704Y-107656541D01*
X146407297Y-107690265D01*
X146371849Y-107702510D01*
X146361163Y-107700664D01*
X146276739Y-107676217D01*
X146276738Y-107676217D01*
X146272391Y-107674958D01*
X146267885Y-107675348D01*
X146267883Y-107675348D01*
X146165448Y-107684220D01*
X146165446Y-107684221D01*
X146160938Y-107684611D01*
X146060432Y-107733739D01*
X146057355Y-107737056D01*
X146008044Y-107790215D01*
X145984352Y-107815755D01*
X145942897Y-107919661D01*
X145942370Y-107966137D01*
X145941701Y-108025131D01*
X145941628Y-108031524D01*
X145963802Y-108090988D01*
X145964119Y-108091839D01*
X145962777Y-108129318D01*
X145935327Y-108154871D01*
X145904578Y-108156025D01*
X145874160Y-108147217D01*
X145874159Y-108147217D01*
X145869812Y-108145958D01*
X145865306Y-108146348D01*
X145865304Y-108146348D01*
X145762869Y-108155220D01*
X145762867Y-108155221D01*
X145758359Y-108155611D01*
X145657853Y-108204739D01*
X145654776Y-108208056D01*
X145585739Y-108282480D01*
X145581773Y-108286755D01*
X145540318Y-108390661D01*
X145540267Y-108395184D01*
X145539459Y-108466422D01*
X145539049Y-108502524D01*
X138810581Y-108502524D01*
X138810580Y-106445230D01*
X138824932Y-106410582D01*
X138843300Y-106401524D01*
X140751628Y-106401524D01*
X140790714Y-106506344D01*
X140793714Y-106509729D01*
X140861915Y-106586681D01*
X140861918Y-106586683D01*
X140864915Y-106590065D01*
X140964280Y-106641461D01*
X141075485Y-106653640D01*
X141183619Y-106624969D01*
X141231748Y-106590065D01*
X141270519Y-106561948D01*
X141270520Y-106561947D01*
X141274181Y-106559292D01*
X141335028Y-106465417D01*
X141335957Y-106460990D01*
X141335958Y-106460987D01*
X141336441Y-106458683D01*
X141337616Y-106456963D01*
X141337681Y-106456806D01*
X141337714Y-106456820D01*
X141357600Y-106427720D01*
X141394457Y-106420787D01*
X141425420Y-106441946D01*
X141430309Y-106451623D01*
X141450714Y-106506344D01*
X141453714Y-106509729D01*
X141521915Y-106586681D01*
X141521918Y-106586683D01*
X141524915Y-106590065D01*
X141624280Y-106641461D01*
X141627409Y-106641804D01*
X141655921Y-106665142D01*
X141659645Y-106702460D01*
X141634255Y-106732318D01*
X141590432Y-106753739D01*
X141514352Y-106835755D01*
X141472897Y-106939661D01*
X141472770Y-106950868D01*
X141471693Y-107045831D01*
X141471628Y-107051524D01*
X141510714Y-107156344D01*
X141513714Y-107159729D01*
X141581915Y-107236681D01*
X141581918Y-107236683D01*
X141584915Y-107240065D01*
X141684280Y-107291461D01*
X141795485Y-107303640D01*
X141903619Y-107274969D01*
X141915162Y-107266598D01*
X141990519Y-107211948D01*
X141990520Y-107211947D01*
X141994181Y-107209292D01*
X142055028Y-107115417D01*
X142059615Y-107093556D01*
X142080776Y-107062593D01*
X142117633Y-107055662D01*
X142148596Y-107076823D01*
X142153482Y-107086496D01*
X142190714Y-107186344D01*
X142193714Y-107189729D01*
X142261915Y-107266681D01*
X142261918Y-107266683D01*
X142264915Y-107270065D01*
X142364280Y-107321461D01*
X142366963Y-107321755D01*
X142395309Y-107344956D01*
X142399034Y-107382274D01*
X142373643Y-107412132D01*
X142365238Y-107416241D01*
X142351919Y-107422751D01*
X142351917Y-107422752D01*
X142347853Y-107424739D01*
X142271773Y-107506755D01*
X142270098Y-107510952D01*
X142270098Y-107510953D01*
X142267781Y-107516761D01*
X142230318Y-107610661D01*
X142230000Y-107638701D01*
X142229236Y-107706075D01*
X142229049Y-107722524D01*
X142268135Y-107827344D01*
X142271135Y-107830729D01*
X142339336Y-107907681D01*
X142339339Y-107907683D01*
X142342336Y-107911065D01*
X142441701Y-107962461D01*
X142552906Y-107974640D01*
X142661040Y-107945969D01*
X142697316Y-107919661D01*
X142747940Y-107882948D01*
X142747941Y-107882947D01*
X142751602Y-107880292D01*
X142812449Y-107786417D01*
X142830357Y-107701065D01*
X142834929Y-107679277D01*
X142834929Y-107679275D01*
X142835421Y-107676931D01*
X142835500Y-107670000D01*
X142815017Y-107560021D01*
X142756316Y-107464789D01*
X142667267Y-107397075D01*
X142662921Y-107395816D01*
X142662920Y-107395816D01*
X142613013Y-107381364D01*
X142583724Y-107357942D01*
X142579576Y-107320669D01*
X142597875Y-107294631D01*
X142647188Y-107258868D01*
X142674181Y-107239292D01*
X142735028Y-107145417D01*
X142756136Y-107044815D01*
X142757508Y-107038277D01*
X142757508Y-107038275D01*
X142758000Y-107035931D01*
X142758079Y-107029000D01*
X142757056Y-107023507D01*
X144592193Y-107023507D01*
X144592398Y-107024004D01*
X144594422Y-107025169D01*
X144669515Y-107045079D01*
X144677466Y-107045831D01*
X144785673Y-107038170D01*
X144793437Y-107036306D01*
X144815993Y-107026755D01*
X144821226Y-107021439D01*
X144821208Y-107019196D01*
X144713730Y-106911718D01*
X144706837Y-106908863D01*
X144699944Y-106911718D01*
X144595048Y-107016614D01*
X144592193Y-107023507D01*
X142757056Y-107023507D01*
X142737596Y-106919021D01*
X142678895Y-106823789D01*
X142589846Y-106756075D01*
X142585502Y-106754817D01*
X142585500Y-106754816D01*
X142548760Y-106744177D01*
X144356240Y-106744177D01*
X144357489Y-106752066D01*
X144373877Y-106801190D01*
X144378767Y-106806825D01*
X144380155Y-106806923D01*
X144380994Y-106806404D01*
X144487812Y-106699586D01*
X144490667Y-106692693D01*
X144923007Y-106692693D01*
X144925862Y-106699586D01*
X145033372Y-106807096D01*
X145040265Y-106809951D01*
X145041387Y-106809487D01*
X145041578Y-106808956D01*
X145061412Y-106700353D01*
X145061810Y-106696147D01*
X145061820Y-106694813D01*
X145061489Y-106690604D01*
X145043362Y-106581697D01*
X145042495Y-106579165D01*
X145038479Y-106575895D01*
X145035457Y-106576205D01*
X144925862Y-106685800D01*
X144923007Y-106692693D01*
X144490667Y-106692693D01*
X144487812Y-106685800D01*
X144383911Y-106581899D01*
X144377018Y-106579044D01*
X144375536Y-106579658D01*
X144375193Y-106580201D01*
X144358466Y-106627834D01*
X144357091Y-106635712D01*
X144356240Y-106744177D01*
X142548760Y-106744177D01*
X142515725Y-106734611D01*
X142482391Y-106724958D01*
X142477885Y-106725348D01*
X142477883Y-106725348D01*
X142375448Y-106734220D01*
X142375446Y-106734221D01*
X142370938Y-106734611D01*
X142270432Y-106783739D01*
X142267355Y-106787056D01*
X142218287Y-106839953D01*
X142194352Y-106865755D01*
X142192677Y-106869952D01*
X142192677Y-106869953D01*
X142160867Y-106949684D01*
X142134697Y-106976547D01*
X142097197Y-106977038D01*
X142070334Y-106950868D01*
X142067183Y-106940497D01*
X142058425Y-106893469D01*
X142058424Y-106893466D01*
X142057596Y-106889021D01*
X141998895Y-106793789D01*
X141909846Y-106726075D01*
X141905500Y-106724816D01*
X141905499Y-106724816D01*
X141859173Y-106711401D01*
X141829884Y-106687979D01*
X141825736Y-106650706D01*
X141844035Y-106624668D01*
X141903287Y-106581697D01*
X141934181Y-106559292D01*
X141995028Y-106465417D01*
X142016337Y-106363856D01*
X144591141Y-106363856D01*
X144592453Y-106366177D01*
X144699944Y-106473668D01*
X144706837Y-106476523D01*
X144713730Y-106473668D01*
X144818345Y-106369053D01*
X144821200Y-106362160D01*
X144820295Y-106359975D01*
X144798825Y-106350483D01*
X144791086Y-106348496D01*
X144683019Y-106339137D01*
X144675055Y-106339763D01*
X144597191Y-106359105D01*
X144591189Y-106363538D01*
X144591141Y-106363856D01*
X142016337Y-106363856D01*
X142018000Y-106355931D01*
X142018079Y-106349000D01*
X141997596Y-106239021D01*
X141938895Y-106143789D01*
X141849846Y-106076075D01*
X141845502Y-106074817D01*
X141845500Y-106074816D01*
X141775725Y-106054611D01*
X141742391Y-106044958D01*
X141737885Y-106045348D01*
X141737883Y-106045348D01*
X141635448Y-106054220D01*
X141635446Y-106054221D01*
X141630938Y-106054611D01*
X141530432Y-106103739D01*
X141527355Y-106107056D01*
X141468111Y-106170923D01*
X141454352Y-106185755D01*
X141452678Y-106189950D01*
X141452674Y-106189957D01*
X141430372Y-106245857D01*
X141404203Y-106272720D01*
X141366703Y-106273210D01*
X141339147Y-106245341D01*
X141338424Y-106243468D01*
X141337596Y-106239021D01*
X141278895Y-106143789D01*
X141189846Y-106076075D01*
X141185502Y-106074817D01*
X141185500Y-106074816D01*
X141115725Y-106054611D01*
X141082391Y-106044958D01*
X141077885Y-106045348D01*
X141077883Y-106045348D01*
X140975448Y-106054220D01*
X140975446Y-106054221D01*
X140970938Y-106054611D01*
X140870432Y-106103739D01*
X140867355Y-106107056D01*
X140808111Y-106170923D01*
X140794352Y-106185755D01*
X140792677Y-106189952D01*
X140792677Y-106189953D01*
X140792560Y-106190246D01*
X140752897Y-106289661D01*
X140752846Y-106294184D01*
X140751699Y-106395287D01*
X140751628Y-106401524D01*
X138843300Y-106401524D01*
X138853186Y-106396649D01*
X138863532Y-106395287D01*
X138866715Y-106394868D01*
X138869677Y-106393641D01*
X138869681Y-106393640D01*
X139009784Y-106335607D01*
X139009787Y-106335605D01*
X139012750Y-106334378D01*
X139128126Y-106245847D01*
X139135604Y-106240109D01*
X139138153Y-106238153D01*
X139140444Y-106235168D01*
X139232422Y-106115299D01*
X139234378Y-106112750D01*
X139236737Y-106107056D01*
X139293640Y-105969681D01*
X139293641Y-105969677D01*
X139294868Y-105966715D01*
X139298081Y-105942314D01*
X139315081Y-105813183D01*
X139315500Y-105810000D01*
X139311828Y-105782106D01*
X139303852Y-105721524D01*
X139991628Y-105721524D01*
X140030714Y-105826344D01*
X140033714Y-105829729D01*
X140101915Y-105906681D01*
X140101918Y-105906683D01*
X140104915Y-105910065D01*
X140204280Y-105961461D01*
X140315485Y-105973640D01*
X140423619Y-105944969D01*
X140446496Y-105928378D01*
X140510519Y-105881948D01*
X140510520Y-105881947D01*
X140514181Y-105879292D01*
X140575028Y-105785417D01*
X140595938Y-105685761D01*
X140596827Y-105681524D01*
X140711628Y-105681524D01*
X140750714Y-105786344D01*
X140753714Y-105789729D01*
X140821915Y-105866681D01*
X140821918Y-105866683D01*
X140824915Y-105870065D01*
X140924280Y-105921461D01*
X141035485Y-105933640D01*
X141143619Y-105904969D01*
X141191748Y-105870065D01*
X141230519Y-105841948D01*
X141230520Y-105841947D01*
X141234181Y-105839292D01*
X141295028Y-105745417D01*
X141311062Y-105669000D01*
X141317508Y-105638277D01*
X141317508Y-105638275D01*
X141318000Y-105635931D01*
X141318079Y-105629000D01*
X141297596Y-105519021D01*
X141238895Y-105423789D01*
X141157383Y-105361806D01*
X142930492Y-105361806D01*
X142930697Y-105362303D01*
X142932721Y-105363468D01*
X143007814Y-105383378D01*
X143015765Y-105384130D01*
X143123972Y-105376469D01*
X143131736Y-105374605D01*
X143154292Y-105365054D01*
X143157489Y-105361806D01*
X144592193Y-105361806D01*
X144592398Y-105362303D01*
X144594422Y-105363468D01*
X144669515Y-105383378D01*
X144677466Y-105384130D01*
X144785673Y-105376469D01*
X144793437Y-105374605D01*
X144815993Y-105365054D01*
X144819190Y-105361806D01*
X146253894Y-105361806D01*
X146254099Y-105362303D01*
X146256123Y-105363468D01*
X146331216Y-105383378D01*
X146339167Y-105384130D01*
X146447374Y-105376469D01*
X146455138Y-105374605D01*
X146477694Y-105365054D01*
X146482927Y-105359738D01*
X146482909Y-105357495D01*
X146375431Y-105250017D01*
X146368538Y-105247162D01*
X146361645Y-105250017D01*
X146256749Y-105354913D01*
X146253894Y-105361806D01*
X144819190Y-105361806D01*
X144821226Y-105359738D01*
X144821208Y-105357495D01*
X144713730Y-105250017D01*
X144706837Y-105247162D01*
X144699944Y-105250017D01*
X144595048Y-105354913D01*
X144592193Y-105361806D01*
X143157489Y-105361806D01*
X143159525Y-105359738D01*
X143159507Y-105357495D01*
X143052029Y-105250017D01*
X143045136Y-105247162D01*
X143038243Y-105250017D01*
X142933347Y-105354913D01*
X142930492Y-105361806D01*
X141157383Y-105361806D01*
X141149846Y-105356075D01*
X141145502Y-105354817D01*
X141145500Y-105354816D01*
X141075725Y-105334611D01*
X141042391Y-105324958D01*
X141037885Y-105325348D01*
X141037883Y-105325348D01*
X140935448Y-105334220D01*
X140935446Y-105334221D01*
X140930938Y-105334611D01*
X140926871Y-105336599D01*
X140875303Y-105361806D01*
X140830432Y-105383739D01*
X140754352Y-105465755D01*
X140712897Y-105569661D01*
X140712846Y-105574184D01*
X140711719Y-105673534D01*
X140711628Y-105681524D01*
X140596827Y-105681524D01*
X140597508Y-105678277D01*
X140597508Y-105678275D01*
X140598000Y-105675931D01*
X140598079Y-105669000D01*
X140577596Y-105559021D01*
X140518895Y-105463789D01*
X140429846Y-105396075D01*
X140425502Y-105394817D01*
X140425500Y-105394816D01*
X140355725Y-105374611D01*
X140322391Y-105364958D01*
X140317885Y-105365348D01*
X140317883Y-105365348D01*
X140215448Y-105374220D01*
X140215446Y-105374221D01*
X140210938Y-105374611D01*
X140110432Y-105423739D01*
X140034352Y-105505755D01*
X140032677Y-105509952D01*
X140032677Y-105509953D01*
X140029059Y-105519021D01*
X139992897Y-105609661D01*
X139992436Y-105650319D01*
X139991767Y-105709299D01*
X139991628Y-105721524D01*
X139303852Y-105721524D01*
X139295287Y-105656467D01*
X139295287Y-105656466D01*
X139294868Y-105653285D01*
X139293641Y-105650323D01*
X139293640Y-105650319D01*
X139235607Y-105510216D01*
X139235605Y-105510213D01*
X139234378Y-105507250D01*
X139149071Y-105396075D01*
X139140109Y-105384396D01*
X139138153Y-105381847D01*
X139102926Y-105354816D01*
X139015299Y-105287578D01*
X139012750Y-105285622D01*
X139009787Y-105284395D01*
X139009784Y-105284393D01*
X138869681Y-105226360D01*
X138869677Y-105226359D01*
X138866715Y-105225132D01*
X138863534Y-105224713D01*
X138863533Y-105224713D01*
X138854934Y-105223581D01*
X138822455Y-105204830D01*
X138812748Y-105168605D01*
X138831499Y-105136126D01*
X138854934Y-105126419D01*
X138863533Y-105125287D01*
X138863534Y-105125287D01*
X138866715Y-105124868D01*
X138869677Y-105123641D01*
X138869681Y-105123640D01*
X139009784Y-105065607D01*
X139009787Y-105065605D01*
X139012750Y-105064378D01*
X139120728Y-104981524D01*
X140021628Y-104981524D01*
X140060714Y-105086344D01*
X140063714Y-105089729D01*
X140131915Y-105166681D01*
X140131918Y-105166683D01*
X140134915Y-105170065D01*
X140234280Y-105221461D01*
X140345485Y-105233640D01*
X140453619Y-105204969D01*
X140501748Y-105170065D01*
X140540519Y-105141948D01*
X140540520Y-105141947D01*
X140544181Y-105139292D01*
X140581007Y-105082476D01*
X142694539Y-105082476D01*
X142695788Y-105090365D01*
X142712176Y-105139489D01*
X142717066Y-105145124D01*
X142718454Y-105145222D01*
X142719293Y-105144703D01*
X142826111Y-105037885D01*
X142828966Y-105030992D01*
X143261306Y-105030992D01*
X143264161Y-105037885D01*
X143371671Y-105145395D01*
X143378564Y-105148250D01*
X143379686Y-105147786D01*
X143379877Y-105147255D01*
X143391707Y-105082476D01*
X144356240Y-105082476D01*
X144357489Y-105090365D01*
X144373877Y-105139489D01*
X144378767Y-105145124D01*
X144380155Y-105145222D01*
X144380994Y-105144703D01*
X144487812Y-105037885D01*
X144490667Y-105030992D01*
X144923007Y-105030992D01*
X144925862Y-105037885D01*
X145033372Y-105145395D01*
X145040265Y-105148250D01*
X145041387Y-105147786D01*
X145041578Y-105147255D01*
X145053408Y-105082476D01*
X146017941Y-105082476D01*
X146019190Y-105090365D01*
X146035578Y-105139489D01*
X146040468Y-105145124D01*
X146041856Y-105145222D01*
X146042695Y-105144703D01*
X146149513Y-105037885D01*
X146152368Y-105030992D01*
X146584708Y-105030992D01*
X146587563Y-105037885D01*
X146695073Y-105145395D01*
X146701966Y-105148250D01*
X146703088Y-105147786D01*
X146703279Y-105147255D01*
X146723113Y-105038652D01*
X146723511Y-105034446D01*
X146723521Y-105033112D01*
X146723190Y-105028903D01*
X146705063Y-104919996D01*
X146704196Y-104917464D01*
X146700180Y-104914194D01*
X146697158Y-104914504D01*
X146587563Y-105024099D01*
X146584708Y-105030992D01*
X146152368Y-105030992D01*
X146149513Y-105024099D01*
X146045612Y-104920198D01*
X146038719Y-104917343D01*
X146037237Y-104917957D01*
X146036894Y-104918500D01*
X146020167Y-104966133D01*
X146018792Y-104974011D01*
X146017941Y-105082476D01*
X145053408Y-105082476D01*
X145061412Y-105038652D01*
X145061810Y-105034446D01*
X145061820Y-105033112D01*
X145061489Y-105028903D01*
X145043362Y-104919996D01*
X145042495Y-104917464D01*
X145038479Y-104914194D01*
X145035457Y-104914504D01*
X144925862Y-105024099D01*
X144923007Y-105030992D01*
X144490667Y-105030992D01*
X144487812Y-105024099D01*
X144383911Y-104920198D01*
X144377018Y-104917343D01*
X144375536Y-104917957D01*
X144375193Y-104918500D01*
X144358466Y-104966133D01*
X144357091Y-104974011D01*
X144356240Y-105082476D01*
X143391707Y-105082476D01*
X143399711Y-105038652D01*
X143400109Y-105034446D01*
X143400119Y-105033112D01*
X143399788Y-105028903D01*
X143381661Y-104919996D01*
X143380794Y-104917464D01*
X143376778Y-104914194D01*
X143373756Y-104914504D01*
X143264161Y-105024099D01*
X143261306Y-105030992D01*
X142828966Y-105030992D01*
X142826111Y-105024099D01*
X142722210Y-104920198D01*
X142715317Y-104917343D01*
X142713835Y-104917957D01*
X142713492Y-104918500D01*
X142696765Y-104966133D01*
X142695390Y-104974011D01*
X142694539Y-105082476D01*
X140581007Y-105082476D01*
X140605028Y-105045417D01*
X140622976Y-104959874D01*
X140627508Y-104938277D01*
X140627508Y-104938275D01*
X140628000Y-104935931D01*
X140628079Y-104929000D01*
X140607596Y-104819021D01*
X140548895Y-104723789D01*
X140520445Y-104702155D01*
X142929440Y-104702155D01*
X142930752Y-104704476D01*
X143038243Y-104811967D01*
X143045136Y-104814822D01*
X143052029Y-104811967D01*
X143156644Y-104707352D01*
X143158797Y-104702155D01*
X144591141Y-104702155D01*
X144592453Y-104704476D01*
X144699944Y-104811967D01*
X144706837Y-104814822D01*
X144713730Y-104811967D01*
X144818345Y-104707352D01*
X144820498Y-104702155D01*
X146252842Y-104702155D01*
X146254154Y-104704476D01*
X146361645Y-104811967D01*
X146368538Y-104814822D01*
X146375431Y-104811967D01*
X146480046Y-104707352D01*
X146482901Y-104700459D01*
X146481996Y-104698274D01*
X146460526Y-104688782D01*
X146452787Y-104686795D01*
X146344720Y-104677436D01*
X146336756Y-104678062D01*
X146258892Y-104697404D01*
X146252890Y-104701837D01*
X146252842Y-104702155D01*
X144820498Y-104702155D01*
X144821200Y-104700459D01*
X144820295Y-104698274D01*
X144798825Y-104688782D01*
X144791086Y-104686795D01*
X144683019Y-104677436D01*
X144675055Y-104678062D01*
X144597191Y-104697404D01*
X144591189Y-104701837D01*
X144591141Y-104702155D01*
X143158797Y-104702155D01*
X143159499Y-104700459D01*
X143158594Y-104698274D01*
X143137124Y-104688782D01*
X143129385Y-104686795D01*
X143021318Y-104677436D01*
X143013354Y-104678062D01*
X142935490Y-104697404D01*
X142929488Y-104701837D01*
X142929440Y-104702155D01*
X140520445Y-104702155D01*
X140459846Y-104656075D01*
X140455502Y-104654817D01*
X140455500Y-104654816D01*
X140406119Y-104640517D01*
X140352391Y-104624958D01*
X140347885Y-104625348D01*
X140347883Y-104625348D01*
X140245448Y-104634220D01*
X140245446Y-104634221D01*
X140240938Y-104634611D01*
X140140432Y-104683739D01*
X140137355Y-104687056D01*
X140107846Y-104718868D01*
X140064352Y-104765755D01*
X140062677Y-104769952D01*
X140062677Y-104769953D01*
X140058079Y-104781479D01*
X140022897Y-104869661D01*
X140022433Y-104910556D01*
X140021715Y-104973891D01*
X140021628Y-104981524D01*
X139120728Y-104981524D01*
X139138153Y-104968153D01*
X139162111Y-104936931D01*
X139232422Y-104845299D01*
X139234378Y-104842750D01*
X139235607Y-104839784D01*
X139293640Y-104699681D01*
X139293641Y-104699677D01*
X139294868Y-104696715D01*
X139298138Y-104671881D01*
X139315081Y-104543183D01*
X139315500Y-104540000D01*
X139304065Y-104453142D01*
X139295287Y-104386467D01*
X139295287Y-104386466D01*
X139294868Y-104383285D01*
X139293641Y-104380323D01*
X139293640Y-104380319D01*
X139235607Y-104240216D01*
X139235605Y-104240213D01*
X139234378Y-104237250D01*
X139150240Y-104127599D01*
X139140109Y-104114396D01*
X139138153Y-104111847D01*
X139128537Y-104104468D01*
X139015299Y-104017578D01*
X139012750Y-104015622D01*
X139009787Y-104014395D01*
X139009784Y-104014393D01*
X138869681Y-103956360D01*
X138869677Y-103956359D01*
X138866715Y-103955132D01*
X138863534Y-103954713D01*
X138863533Y-103954713D01*
X138854934Y-103953581D01*
X138822455Y-103934830D01*
X138812748Y-103898605D01*
X138831499Y-103866126D01*
X138854934Y-103856419D01*
X138863533Y-103855287D01*
X138863534Y-103855287D01*
X138866715Y-103854868D01*
X138869677Y-103853641D01*
X138869681Y-103853640D01*
X139009784Y-103795607D01*
X139009787Y-103795605D01*
X139012750Y-103794378D01*
X139133443Y-103701767D01*
X139135604Y-103700109D01*
X139135609Y-103700105D01*
X141268791Y-103700105D01*
X141268996Y-103700602D01*
X141271020Y-103701767D01*
X141346113Y-103721677D01*
X141354064Y-103722429D01*
X141462271Y-103714768D01*
X141470035Y-103712904D01*
X141492591Y-103703353D01*
X141495788Y-103700105D01*
X142930492Y-103700105D01*
X142930697Y-103700602D01*
X142932721Y-103701767D01*
X143007814Y-103721677D01*
X143015765Y-103722429D01*
X143123972Y-103714768D01*
X143131736Y-103712904D01*
X143154292Y-103703353D01*
X143157489Y-103700105D01*
X144592193Y-103700105D01*
X144592398Y-103700602D01*
X144594422Y-103701767D01*
X144669515Y-103721677D01*
X144677466Y-103722429D01*
X144785673Y-103714768D01*
X144793437Y-103712904D01*
X144815993Y-103703353D01*
X144819190Y-103700105D01*
X146253894Y-103700105D01*
X146254099Y-103700602D01*
X146256123Y-103701767D01*
X146331216Y-103721677D01*
X146339167Y-103722429D01*
X146447374Y-103714768D01*
X146455138Y-103712904D01*
X146477694Y-103703353D01*
X146480891Y-103700105D01*
X147915595Y-103700105D01*
X147915800Y-103700602D01*
X147917824Y-103701767D01*
X147992917Y-103721677D01*
X148000868Y-103722429D01*
X148109075Y-103714768D01*
X148116839Y-103712904D01*
X148139395Y-103703353D01*
X148144628Y-103698037D01*
X148144610Y-103695794D01*
X148037132Y-103588316D01*
X148030239Y-103585461D01*
X148023346Y-103588316D01*
X147918450Y-103693212D01*
X147915595Y-103700105D01*
X146480891Y-103700105D01*
X146482927Y-103698037D01*
X146482909Y-103695794D01*
X146375431Y-103588316D01*
X146368538Y-103585461D01*
X146361645Y-103588316D01*
X146256749Y-103693212D01*
X146253894Y-103700105D01*
X144819190Y-103700105D01*
X144821226Y-103698037D01*
X144821208Y-103695794D01*
X144713730Y-103588316D01*
X144706837Y-103585461D01*
X144699944Y-103588316D01*
X144595048Y-103693212D01*
X144592193Y-103700105D01*
X143157489Y-103700105D01*
X143159525Y-103698037D01*
X143159507Y-103695794D01*
X143052029Y-103588316D01*
X143045136Y-103585461D01*
X143038243Y-103588316D01*
X142933347Y-103693212D01*
X142930492Y-103700105D01*
X141495788Y-103700105D01*
X141497824Y-103698037D01*
X141497806Y-103695794D01*
X141390328Y-103588316D01*
X141383435Y-103585461D01*
X141376542Y-103588316D01*
X141271646Y-103693212D01*
X141268791Y-103700105D01*
X139135609Y-103700105D01*
X139138153Y-103698153D01*
X139234378Y-103572750D01*
X139235607Y-103569784D01*
X139293640Y-103429681D01*
X139293641Y-103429677D01*
X139294868Y-103426715D01*
X139295650Y-103420775D01*
X141032838Y-103420775D01*
X141034087Y-103428664D01*
X141050475Y-103477788D01*
X141055365Y-103483423D01*
X141056753Y-103483521D01*
X141057592Y-103483002D01*
X141164410Y-103376184D01*
X141167265Y-103369291D01*
X141599605Y-103369291D01*
X141602460Y-103376184D01*
X141709970Y-103483694D01*
X141716863Y-103486549D01*
X141717985Y-103486085D01*
X141718176Y-103485554D01*
X141730006Y-103420775D01*
X142694539Y-103420775D01*
X142695788Y-103428664D01*
X142712176Y-103477788D01*
X142717066Y-103483423D01*
X142718454Y-103483521D01*
X142719293Y-103483002D01*
X142826111Y-103376184D01*
X142828966Y-103369291D01*
X143261306Y-103369291D01*
X143264161Y-103376184D01*
X143371671Y-103483694D01*
X143378564Y-103486549D01*
X143379686Y-103486085D01*
X143379877Y-103485554D01*
X143391707Y-103420775D01*
X144356240Y-103420775D01*
X144357489Y-103428664D01*
X144373877Y-103477788D01*
X144378767Y-103483423D01*
X144380155Y-103483521D01*
X144380994Y-103483002D01*
X144487812Y-103376184D01*
X144490667Y-103369291D01*
X144923007Y-103369291D01*
X144925862Y-103376184D01*
X145033372Y-103483694D01*
X145040265Y-103486549D01*
X145041387Y-103486085D01*
X145041578Y-103485554D01*
X145053408Y-103420775D01*
X146017941Y-103420775D01*
X146019190Y-103428664D01*
X146035578Y-103477788D01*
X146040468Y-103483423D01*
X146041856Y-103483521D01*
X146042695Y-103483002D01*
X146149513Y-103376184D01*
X146152368Y-103369291D01*
X146584708Y-103369291D01*
X146587563Y-103376184D01*
X146695073Y-103483694D01*
X146701966Y-103486549D01*
X146703088Y-103486085D01*
X146703279Y-103485554D01*
X146715109Y-103420775D01*
X147679642Y-103420775D01*
X147680891Y-103428664D01*
X147697279Y-103477788D01*
X147702169Y-103483423D01*
X147703557Y-103483521D01*
X147704396Y-103483002D01*
X147811214Y-103376184D01*
X147814069Y-103369291D01*
X147811214Y-103362398D01*
X147707313Y-103258497D01*
X147700420Y-103255642D01*
X147698938Y-103256256D01*
X147698595Y-103256799D01*
X147681868Y-103304432D01*
X147680493Y-103312310D01*
X147679642Y-103420775D01*
X146715109Y-103420775D01*
X146723113Y-103376951D01*
X146723511Y-103372745D01*
X146723521Y-103371411D01*
X146723190Y-103367202D01*
X146705063Y-103258295D01*
X146704196Y-103255763D01*
X146700180Y-103252493D01*
X146697158Y-103252803D01*
X146587563Y-103362398D01*
X146584708Y-103369291D01*
X146152368Y-103369291D01*
X146149513Y-103362398D01*
X146045612Y-103258497D01*
X146038719Y-103255642D01*
X146037237Y-103256256D01*
X146036894Y-103256799D01*
X146020167Y-103304432D01*
X146018792Y-103312310D01*
X146017941Y-103420775D01*
X145053408Y-103420775D01*
X145061412Y-103376951D01*
X145061810Y-103372745D01*
X145061820Y-103371411D01*
X145061489Y-103367202D01*
X145043362Y-103258295D01*
X145042495Y-103255763D01*
X145038479Y-103252493D01*
X145035457Y-103252803D01*
X144925862Y-103362398D01*
X144923007Y-103369291D01*
X144490667Y-103369291D01*
X144487812Y-103362398D01*
X144383911Y-103258497D01*
X144377018Y-103255642D01*
X144375536Y-103256256D01*
X144375193Y-103256799D01*
X144358466Y-103304432D01*
X144357091Y-103312310D01*
X144356240Y-103420775D01*
X143391707Y-103420775D01*
X143399711Y-103376951D01*
X143400109Y-103372745D01*
X143400119Y-103371411D01*
X143399788Y-103367202D01*
X143381661Y-103258295D01*
X143380794Y-103255763D01*
X143376778Y-103252493D01*
X143373756Y-103252803D01*
X143264161Y-103362398D01*
X143261306Y-103369291D01*
X142828966Y-103369291D01*
X142826111Y-103362398D01*
X142722210Y-103258497D01*
X142715317Y-103255642D01*
X142713835Y-103256256D01*
X142713492Y-103256799D01*
X142696765Y-103304432D01*
X142695390Y-103312310D01*
X142694539Y-103420775D01*
X141730006Y-103420775D01*
X141738010Y-103376951D01*
X141738408Y-103372745D01*
X141738418Y-103371411D01*
X141738087Y-103367202D01*
X141719960Y-103258295D01*
X141719093Y-103255763D01*
X141715077Y-103252493D01*
X141712055Y-103252803D01*
X141602460Y-103362398D01*
X141599605Y-103369291D01*
X141167265Y-103369291D01*
X141164410Y-103362398D01*
X141060509Y-103258497D01*
X141053616Y-103255642D01*
X141052134Y-103256256D01*
X141051791Y-103256799D01*
X141035064Y-103304432D01*
X141033689Y-103312310D01*
X141032838Y-103420775D01*
X139295650Y-103420775D01*
X139310481Y-103308127D01*
X139315081Y-103273183D01*
X139315500Y-103270000D01*
X139294868Y-103113285D01*
X139293641Y-103110323D01*
X139293640Y-103110319D01*
X139264701Y-103040454D01*
X141267739Y-103040454D01*
X141269051Y-103042775D01*
X141376542Y-103150266D01*
X141383435Y-103153121D01*
X141390328Y-103150266D01*
X141494943Y-103045651D01*
X141497096Y-103040454D01*
X142929440Y-103040454D01*
X142930752Y-103042775D01*
X143038243Y-103150266D01*
X143045136Y-103153121D01*
X143052029Y-103150266D01*
X143156644Y-103045651D01*
X143158797Y-103040454D01*
X144591141Y-103040454D01*
X144592453Y-103042775D01*
X144699944Y-103150266D01*
X144706837Y-103153121D01*
X144713730Y-103150266D01*
X144818345Y-103045651D01*
X144820498Y-103040454D01*
X146252842Y-103040454D01*
X146254154Y-103042775D01*
X146361645Y-103150266D01*
X146368538Y-103153121D01*
X146375431Y-103150266D01*
X146480046Y-103045651D01*
X146482901Y-103038758D01*
X146481996Y-103036573D01*
X146460526Y-103027081D01*
X146452787Y-103025094D01*
X146344720Y-103015735D01*
X146336756Y-103016361D01*
X146258892Y-103035703D01*
X146252890Y-103040136D01*
X146252842Y-103040454D01*
X144820498Y-103040454D01*
X144821200Y-103038758D01*
X144820295Y-103036573D01*
X144798825Y-103027081D01*
X144791086Y-103025094D01*
X144683019Y-103015735D01*
X144675055Y-103016361D01*
X144597191Y-103035703D01*
X144591189Y-103040136D01*
X144591141Y-103040454D01*
X143158797Y-103040454D01*
X143159499Y-103038758D01*
X143158594Y-103036573D01*
X143137124Y-103027081D01*
X143129385Y-103025094D01*
X143021318Y-103015735D01*
X143013354Y-103016361D01*
X142935490Y-103035703D01*
X142929488Y-103040136D01*
X142929440Y-103040454D01*
X141497096Y-103040454D01*
X141497798Y-103038758D01*
X141496893Y-103036573D01*
X141475423Y-103027081D01*
X141467684Y-103025094D01*
X141359617Y-103015735D01*
X141351653Y-103016361D01*
X141273789Y-103035703D01*
X141267787Y-103040136D01*
X141267739Y-103040454D01*
X139264701Y-103040454D01*
X139235607Y-102970216D01*
X139235605Y-102970213D01*
X139234378Y-102967250D01*
X139138153Y-102841847D01*
X139103661Y-102815380D01*
X139025026Y-102755042D01*
X139012750Y-102745622D01*
X139009787Y-102744395D01*
X139009784Y-102744393D01*
X138869681Y-102686360D01*
X138869677Y-102686359D01*
X138866715Y-102685132D01*
X138863534Y-102684713D01*
X138863533Y-102684713D01*
X138854934Y-102683581D01*
X138822455Y-102664830D01*
X138812748Y-102628605D01*
X138831499Y-102596126D01*
X138854934Y-102586419D01*
X138863533Y-102585287D01*
X138863534Y-102585287D01*
X138866715Y-102584868D01*
X138869677Y-102583641D01*
X138869681Y-102583640D01*
X139009784Y-102525607D01*
X139009787Y-102525605D01*
X139012750Y-102524378D01*
X139138153Y-102428153D01*
X139158282Y-102401921D01*
X139199154Y-102348655D01*
X139234378Y-102302750D01*
X139235607Y-102299784D01*
X139293640Y-102159681D01*
X139293641Y-102159677D01*
X139294868Y-102156715D01*
X139310444Y-102038404D01*
X142930492Y-102038404D01*
X142930697Y-102038901D01*
X142932721Y-102040066D01*
X143007814Y-102059976D01*
X143015765Y-102060728D01*
X143123972Y-102053067D01*
X143131736Y-102051203D01*
X143154292Y-102041652D01*
X143157489Y-102038404D01*
X144592193Y-102038404D01*
X144592398Y-102038901D01*
X144594422Y-102040066D01*
X144669515Y-102059976D01*
X144677466Y-102060728D01*
X144785673Y-102053067D01*
X144793437Y-102051203D01*
X144815993Y-102041652D01*
X144819190Y-102038404D01*
X146253894Y-102038404D01*
X146254099Y-102038901D01*
X146256123Y-102040066D01*
X146331216Y-102059976D01*
X146339167Y-102060728D01*
X146447374Y-102053067D01*
X146455138Y-102051203D01*
X146477694Y-102041652D01*
X146482927Y-102036336D01*
X146482909Y-102034093D01*
X146375431Y-101926615D01*
X146368538Y-101923760D01*
X146361645Y-101926615D01*
X146256749Y-102031511D01*
X146253894Y-102038404D01*
X144819190Y-102038404D01*
X144821226Y-102036336D01*
X144821208Y-102034093D01*
X144713730Y-101926615D01*
X144706837Y-101923760D01*
X144699944Y-101926615D01*
X144595048Y-102031511D01*
X144592193Y-102038404D01*
X143157489Y-102038404D01*
X143159525Y-102036336D01*
X143159507Y-102034093D01*
X143052029Y-101926615D01*
X143045136Y-101923760D01*
X143038243Y-101926615D01*
X142933347Y-102031511D01*
X142930492Y-102038404D01*
X139310444Y-102038404D01*
X139311352Y-102031511D01*
X139315081Y-102003183D01*
X139315500Y-102000000D01*
X139294868Y-101843285D01*
X139293641Y-101840323D01*
X139293640Y-101840319D01*
X139259987Y-101759074D01*
X142694539Y-101759074D01*
X142695788Y-101766963D01*
X142712176Y-101816087D01*
X142717066Y-101821722D01*
X142718454Y-101821820D01*
X142719293Y-101821301D01*
X142826111Y-101714483D01*
X142828966Y-101707590D01*
X143261306Y-101707590D01*
X143264161Y-101714483D01*
X143371671Y-101821993D01*
X143378564Y-101824848D01*
X143379686Y-101824384D01*
X143379877Y-101823853D01*
X143391707Y-101759074D01*
X144356240Y-101759074D01*
X144357489Y-101766963D01*
X144373877Y-101816087D01*
X144378767Y-101821722D01*
X144380155Y-101821820D01*
X144380994Y-101821301D01*
X144487812Y-101714483D01*
X144490667Y-101707590D01*
X144923007Y-101707590D01*
X144925862Y-101714483D01*
X145033372Y-101821993D01*
X145040265Y-101824848D01*
X145041387Y-101824384D01*
X145041578Y-101823853D01*
X145053408Y-101759074D01*
X146017941Y-101759074D01*
X146019190Y-101766963D01*
X146035578Y-101816087D01*
X146040468Y-101821722D01*
X146041856Y-101821820D01*
X146042695Y-101821301D01*
X146149513Y-101714483D01*
X146152368Y-101707590D01*
X146149513Y-101700697D01*
X146045612Y-101596796D01*
X146038719Y-101593941D01*
X146037237Y-101594555D01*
X146036894Y-101595098D01*
X146020167Y-101642731D01*
X146018792Y-101650609D01*
X146017941Y-101759074D01*
X145053408Y-101759074D01*
X145061412Y-101715250D01*
X145061810Y-101711044D01*
X145061820Y-101709710D01*
X145061489Y-101705501D01*
X145043362Y-101596594D01*
X145042495Y-101594062D01*
X145038479Y-101590792D01*
X145035457Y-101591102D01*
X144925862Y-101700697D01*
X144923007Y-101707590D01*
X144490667Y-101707590D01*
X144487812Y-101700697D01*
X144383911Y-101596796D01*
X144377018Y-101593941D01*
X144375536Y-101594555D01*
X144375193Y-101595098D01*
X144358466Y-101642731D01*
X144357091Y-101650609D01*
X144356240Y-101759074D01*
X143391707Y-101759074D01*
X143399711Y-101715250D01*
X143400109Y-101711044D01*
X143400119Y-101709710D01*
X143399788Y-101705501D01*
X143381661Y-101596594D01*
X143380794Y-101594062D01*
X143376778Y-101590792D01*
X143373756Y-101591102D01*
X143264161Y-101700697D01*
X143261306Y-101707590D01*
X142828966Y-101707590D01*
X142826111Y-101700697D01*
X142722210Y-101596796D01*
X142715317Y-101593941D01*
X142713835Y-101594555D01*
X142713492Y-101595098D01*
X142696765Y-101642731D01*
X142695390Y-101650609D01*
X142694539Y-101759074D01*
X139259987Y-101759074D01*
X139235607Y-101700216D01*
X139235605Y-101700213D01*
X139234378Y-101697250D01*
X139138153Y-101571847D01*
X139012750Y-101475622D01*
X139009787Y-101474395D01*
X139009784Y-101474393D01*
X138913036Y-101434319D01*
X138866715Y-101415132D01*
X138863536Y-101414713D01*
X138863534Y-101414713D01*
X138854933Y-101413581D01*
X138822454Y-101394830D01*
X138818146Y-101378753D01*
X142929440Y-101378753D01*
X142930752Y-101381074D01*
X143038243Y-101488565D01*
X143045136Y-101491420D01*
X143052029Y-101488565D01*
X143156644Y-101383950D01*
X143158797Y-101378753D01*
X144591141Y-101378753D01*
X144592453Y-101381074D01*
X144699944Y-101488565D01*
X144706837Y-101491420D01*
X144713730Y-101488565D01*
X144818345Y-101383950D01*
X144821200Y-101377057D01*
X144820295Y-101374872D01*
X144798825Y-101365380D01*
X144791086Y-101363393D01*
X144683019Y-101354034D01*
X144675055Y-101354660D01*
X144597191Y-101374002D01*
X144591189Y-101378435D01*
X144591141Y-101378753D01*
X143158797Y-101378753D01*
X143159499Y-101377057D01*
X143158594Y-101374872D01*
X143137124Y-101365380D01*
X143129385Y-101363393D01*
X143021318Y-101354034D01*
X143013354Y-101354660D01*
X142935490Y-101374002D01*
X142929488Y-101378435D01*
X142929440Y-101378753D01*
X138818146Y-101378753D01*
X138812747Y-101358605D01*
X138831498Y-101326126D01*
X138854933Y-101316419D01*
X138863534Y-101315287D01*
X138863536Y-101315287D01*
X138866715Y-101314868D01*
X138972578Y-101271018D01*
X139009784Y-101255607D01*
X139009787Y-101255605D01*
X139012750Y-101254378D01*
X139088736Y-101196072D01*
X139135604Y-101160109D01*
X139138153Y-101158153D01*
X139234378Y-101032750D01*
X139235607Y-101029784D01*
X139293640Y-100889681D01*
X139293641Y-100889677D01*
X139294868Y-100886715D01*
X139301747Y-100834468D01*
X139315081Y-100733183D01*
X139315500Y-100730000D01*
X139312558Y-100707651D01*
X139295287Y-100576467D01*
X139295287Y-100576466D01*
X139294868Y-100573285D01*
X139293641Y-100570323D01*
X139293640Y-100570319D01*
X139235607Y-100430216D01*
X139235605Y-100430213D01*
X139234378Y-100427250D01*
X139207732Y-100392524D01*
X139949049Y-100392524D01*
X139988135Y-100497344D01*
X139991135Y-100500729D01*
X140059336Y-100577681D01*
X140059339Y-100577683D01*
X140062336Y-100581065D01*
X140161701Y-100632461D01*
X140272906Y-100644640D01*
X140381040Y-100615969D01*
X140433700Y-100577779D01*
X140467940Y-100552948D01*
X140467941Y-100552947D01*
X140471602Y-100550292D01*
X140532449Y-100456417D01*
X140533378Y-100451987D01*
X140535102Y-100447806D01*
X140536747Y-100448484D01*
X140554110Y-100423080D01*
X140590967Y-100416151D01*
X140621929Y-100437313D01*
X140626815Y-100446985D01*
X140638135Y-100477344D01*
X140641135Y-100480729D01*
X140709336Y-100557681D01*
X140709339Y-100557683D01*
X140712336Y-100561065D01*
X140811701Y-100612461D01*
X140922906Y-100624640D01*
X140978683Y-100609851D01*
X141015851Y-100614843D01*
X141038603Y-100644656D01*
X141040237Y-100657770D01*
X141039144Y-100754109D01*
X141039049Y-100762524D01*
X141078135Y-100867344D01*
X141081135Y-100870729D01*
X141149336Y-100947681D01*
X141149339Y-100947683D01*
X141152336Y-100951065D01*
X141251701Y-101002461D01*
X141362906Y-101014640D01*
X141471040Y-100985969D01*
X141499408Y-100965396D01*
X141557940Y-100922948D01*
X141557941Y-100922947D01*
X141561602Y-100920292D01*
X141622449Y-100826417D01*
X141645421Y-100716931D01*
X141645500Y-100710000D01*
X141643276Y-100698056D01*
X141627987Y-100615969D01*
X141627708Y-100614470D01*
X141635474Y-100577779D01*
X141666908Y-100557326D01*
X141681214Y-100556789D01*
X141748408Y-100564148D01*
X141748411Y-100564148D01*
X141752906Y-100564640D01*
X141861040Y-100535969D01*
X141886464Y-100517531D01*
X141947940Y-100472948D01*
X141947941Y-100472947D01*
X141951602Y-100470292D01*
X142012264Y-100376703D01*
X144592193Y-100376703D01*
X144592398Y-100377200D01*
X144594422Y-100378365D01*
X144669515Y-100398275D01*
X144677466Y-100399027D01*
X144785673Y-100391366D01*
X144793437Y-100389502D01*
X144815993Y-100379951D01*
X144821226Y-100374635D01*
X144821208Y-100372392D01*
X144713730Y-100264914D01*
X144706837Y-100262059D01*
X144699944Y-100264914D01*
X144595048Y-100369810D01*
X144592193Y-100376703D01*
X142012264Y-100376703D01*
X142012449Y-100376417D01*
X142027560Y-100304396D01*
X142034929Y-100269277D01*
X142034929Y-100269275D01*
X142035421Y-100266931D01*
X142035500Y-100260000D01*
X142015017Y-100150021D01*
X141982565Y-100097373D01*
X144356240Y-100097373D01*
X144357489Y-100105262D01*
X144373877Y-100154386D01*
X144378767Y-100160021D01*
X144380155Y-100160119D01*
X144380994Y-100159600D01*
X144487812Y-100052782D01*
X144490667Y-100045889D01*
X144487812Y-100038996D01*
X144383911Y-99935095D01*
X144377018Y-99932240D01*
X144375536Y-99932854D01*
X144375193Y-99933397D01*
X144358466Y-99981030D01*
X144357091Y-99988908D01*
X144356240Y-100097373D01*
X141982565Y-100097373D01*
X141956316Y-100054789D01*
X141867267Y-99987075D01*
X141862923Y-99985817D01*
X141862921Y-99985816D01*
X141793146Y-99965611D01*
X141759812Y-99955958D01*
X141755306Y-99956348D01*
X141755304Y-99956348D01*
X141652869Y-99965220D01*
X141652867Y-99965221D01*
X141648359Y-99965611D01*
X141547853Y-100014739D01*
X141544776Y-100018056D01*
X141492196Y-100074739D01*
X141471773Y-100096755D01*
X141470098Y-100100952D01*
X141470098Y-100100953D01*
X141463040Y-100118644D01*
X141430318Y-100200661D01*
X141430060Y-100223438D01*
X141429152Y-100303480D01*
X141429049Y-100312524D01*
X141430628Y-100316760D01*
X141430629Y-100316763D01*
X141441238Y-100345215D01*
X141439896Y-100382694D01*
X141412445Y-100408246D01*
X141381698Y-100409400D01*
X141369812Y-100405958D01*
X141365306Y-100406348D01*
X141365304Y-100406348D01*
X141305778Y-100411504D01*
X141258359Y-100415611D01*
X141257886Y-100415842D01*
X141222561Y-100411504D01*
X141199473Y-100381950D01*
X141198735Y-100358797D01*
X141205421Y-100326931D01*
X141205500Y-100320000D01*
X141185017Y-100210021D01*
X141126316Y-100114789D01*
X141037267Y-100047075D01*
X141032923Y-100045817D01*
X141032921Y-100045816D01*
X140983539Y-100031516D01*
X140929812Y-100015958D01*
X140925306Y-100016348D01*
X140925304Y-100016348D01*
X140822869Y-100025220D01*
X140822867Y-100025221D01*
X140818359Y-100025611D01*
X140717853Y-100074739D01*
X140714776Y-100078056D01*
X140648020Y-100150021D01*
X140641773Y-100156755D01*
X140640099Y-100160951D01*
X140640097Y-100160954D01*
X140624256Y-100200661D01*
X140618748Y-100214468D01*
X140618183Y-100215883D01*
X140592014Y-100242747D01*
X140554514Y-100243238D01*
X140530959Y-100223438D01*
X140519707Y-100205184D01*
X140476316Y-100134789D01*
X140387267Y-100067075D01*
X140382923Y-100065817D01*
X140382921Y-100065816D01*
X140320011Y-100047599D01*
X140279812Y-100035958D01*
X140275306Y-100036348D01*
X140275304Y-100036348D01*
X140172869Y-100045220D01*
X140172867Y-100045221D01*
X140168359Y-100045611D01*
X140067853Y-100094739D01*
X140064776Y-100098056D01*
X140000558Y-100167285D01*
X139991773Y-100176755D01*
X139950318Y-100280661D01*
X139949845Y-100322390D01*
X139949161Y-100382694D01*
X139949049Y-100392524D01*
X139207732Y-100392524D01*
X139167429Y-100340000D01*
X139140109Y-100304396D01*
X139138153Y-100301847D01*
X139130024Y-100295609D01*
X139015299Y-100207578D01*
X139012750Y-100205622D01*
X139009787Y-100204395D01*
X139009784Y-100204393D01*
X138910207Y-100163147D01*
X138866715Y-100145132D01*
X138863536Y-100144713D01*
X138863534Y-100144713D01*
X138857198Y-100143879D01*
X138853185Y-100143351D01*
X138820706Y-100124600D01*
X138810579Y-100094770D01*
X138810579Y-99692524D01*
X141839049Y-99692524D01*
X141878135Y-99797344D01*
X141881135Y-99800729D01*
X141949336Y-99877681D01*
X141949339Y-99877683D01*
X141952336Y-99881065D01*
X142051701Y-99932461D01*
X142162906Y-99944640D01*
X142271040Y-99915969D01*
X142274701Y-99913314D01*
X142357940Y-99852948D01*
X142357941Y-99852947D01*
X142361602Y-99850292D01*
X142422449Y-99756417D01*
X142437509Y-99684640D01*
X142444929Y-99649277D01*
X142444929Y-99649275D01*
X142445421Y-99646931D01*
X142445500Y-99640000D01*
X142425017Y-99530021D01*
X142366316Y-99434789D01*
X142310734Y-99392524D01*
X142529049Y-99392524D01*
X142568135Y-99497344D01*
X142571135Y-99500729D01*
X142639336Y-99577681D01*
X142639339Y-99577683D01*
X142642336Y-99581065D01*
X142741701Y-99632461D01*
X142852906Y-99644640D01*
X142961040Y-99615969D01*
X142970212Y-99609317D01*
X143047940Y-99552948D01*
X143047941Y-99552947D01*
X143051602Y-99550292D01*
X143112449Y-99456417D01*
X143128483Y-99380000D01*
X143134929Y-99349277D01*
X143134929Y-99349275D01*
X143135421Y-99346931D01*
X143135500Y-99340000D01*
X143115017Y-99230021D01*
X143056316Y-99134789D01*
X142967267Y-99067075D01*
X142962923Y-99065817D01*
X142962921Y-99065816D01*
X142893146Y-99045611D01*
X142859812Y-99035958D01*
X142855306Y-99036348D01*
X142855304Y-99036348D01*
X142752869Y-99045220D01*
X142752867Y-99045221D01*
X142748359Y-99045611D01*
X142647853Y-99094739D01*
X142571773Y-99176755D01*
X142530318Y-99280661D01*
X142529985Y-99310000D01*
X142529140Y-99384534D01*
X142529049Y-99392524D01*
X142310734Y-99392524D01*
X142277267Y-99367075D01*
X142272923Y-99365817D01*
X142272921Y-99365816D01*
X142210011Y-99347599D01*
X142169812Y-99335958D01*
X142165306Y-99336348D01*
X142165304Y-99336348D01*
X142062869Y-99345220D01*
X142062867Y-99345221D01*
X142058359Y-99345611D01*
X141957853Y-99394739D01*
X141881773Y-99476755D01*
X141880098Y-99480952D01*
X141880098Y-99480953D01*
X141873559Y-99497344D01*
X141840318Y-99580661D01*
X141839904Y-99617128D01*
X141839152Y-99683480D01*
X141839049Y-99692524D01*
X138810579Y-99692524D01*
X138810578Y-98773524D01*
X140171628Y-98773524D01*
X140210714Y-98878344D01*
X140213714Y-98881729D01*
X140281915Y-98958681D01*
X140281918Y-98958683D01*
X140284915Y-98962065D01*
X140384280Y-99013461D01*
X140495485Y-99025640D01*
X140603619Y-98996969D01*
X140651748Y-98962065D01*
X140690519Y-98933948D01*
X140690520Y-98933947D01*
X140694181Y-98931292D01*
X140755028Y-98837417D01*
X140773642Y-98748701D01*
X140777508Y-98730277D01*
X140777508Y-98730275D01*
X140778000Y-98727931D01*
X140778079Y-98721000D01*
X140757596Y-98611021D01*
X140698895Y-98515789D01*
X140609846Y-98448075D01*
X140605502Y-98446817D01*
X140605500Y-98446816D01*
X140535725Y-98426611D01*
X140502391Y-98416958D01*
X140497885Y-98417348D01*
X140497883Y-98417348D01*
X140395448Y-98426220D01*
X140395446Y-98426221D01*
X140390938Y-98426611D01*
X140290432Y-98475739D01*
X140214352Y-98557755D01*
X140212677Y-98561952D01*
X140212677Y-98561953D01*
X140204186Y-98583237D01*
X140172897Y-98661661D01*
X140172846Y-98666184D01*
X140171750Y-98762791D01*
X140171628Y-98773524D01*
X138810578Y-98773524D01*
X138810578Y-98221919D01*
X139409830Y-98221919D01*
X139411254Y-98225359D01*
X139537849Y-98305080D01*
X139542277Y-98307279D01*
X139718305Y-98373443D01*
X139723078Y-98374704D01*
X139908816Y-98404122D01*
X139913749Y-98404398D01*
X140101613Y-98395867D01*
X140106491Y-98395147D01*
X140288803Y-98349015D01*
X140293441Y-98347326D01*
X140462751Y-98265479D01*
X140466961Y-98262889D01*
X140514401Y-98226618D01*
X140518143Y-98220164D01*
X140516886Y-98215439D01*
X139971472Y-97670025D01*
X139964579Y-97667170D01*
X139957686Y-97670025D01*
X139412685Y-98215026D01*
X139409830Y-98221919D01*
X138810578Y-98221919D01*
X138810578Y-97541709D01*
X139014146Y-97541709D01*
X139014628Y-97546629D01*
X139051796Y-97730961D01*
X139053259Y-97735689D01*
X139126735Y-97908788D01*
X139129117Y-97913121D01*
X139189394Y-98000497D01*
X139195657Y-98004549D01*
X139199783Y-98003664D01*
X139745554Y-97457893D01*
X139748409Y-97451000D01*
X140180749Y-97451000D01*
X140183604Y-97457893D01*
X140729806Y-98004095D01*
X140735767Y-98006564D01*
X140743579Y-98003004D01*
X140746170Y-97999331D01*
X140838488Y-97835493D01*
X140840464Y-97830969D01*
X140897951Y-97651921D01*
X140898978Y-97647086D01*
X140919417Y-97458942D01*
X140919560Y-97456391D01*
X140919575Y-97452275D01*
X140919450Y-97449728D01*
X140900324Y-97261445D01*
X140899330Y-97256600D01*
X140843095Y-97077154D01*
X140841148Y-97072612D01*
X140749979Y-96908139D01*
X140747161Y-96904085D01*
X140742642Y-96898813D01*
X140736980Y-96895940D01*
X140728713Y-96898998D01*
X140183604Y-97444107D01*
X140180749Y-97451000D01*
X139748409Y-97451000D01*
X139745554Y-97444107D01*
X139201914Y-96900467D01*
X139195021Y-96897612D01*
X139191039Y-96899261D01*
X139132363Y-96983058D01*
X139129952Y-96987373D01*
X139055269Y-97159957D01*
X139053774Y-97164666D01*
X139015318Y-97348746D01*
X139014802Y-97353657D01*
X139014146Y-97541709D01*
X138810578Y-97541709D01*
X138810578Y-96680672D01*
X139409391Y-96680672D01*
X139409980Y-96684269D01*
X139957686Y-97231975D01*
X139964579Y-97234830D01*
X139971472Y-97231975D01*
X140515390Y-96688057D01*
X140518245Y-96681164D01*
X140516334Y-96676549D01*
X140472617Y-96642638D01*
X140468423Y-96640017D01*
X140299688Y-96556990D01*
X140295066Y-96555271D01*
X140113079Y-96507867D01*
X140108204Y-96507112D01*
X139920401Y-96497270D01*
X139915477Y-96497511D01*
X139729540Y-96525631D01*
X139724746Y-96526862D01*
X139548268Y-96591794D01*
X139543823Y-96593961D01*
X139413744Y-96674613D01*
X139409391Y-96680672D01*
X138810578Y-96680672D01*
X138810578Y-95004240D01*
X139013639Y-95004240D01*
X139014130Y-95006673D01*
X139014130Y-95006677D01*
X139042238Y-95146075D01*
X139051811Y-95193549D01*
X139052781Y-95195835D01*
X139052782Y-95195837D01*
X139125104Y-95366217D01*
X139127268Y-95371316D01*
X139128677Y-95373359D01*
X139128679Y-95373362D01*
X139199320Y-95475761D01*
X139236929Y-95530279D01*
X139376314Y-95663944D01*
X139539730Y-95766853D01*
X139542054Y-95767727D01*
X139542055Y-95767727D01*
X139717652Y-95833729D01*
X139720501Y-95834800D01*
X139911242Y-95865010D01*
X140104161Y-95856250D01*
X140106564Y-95855642D01*
X140288974Y-95809485D01*
X140288978Y-95809484D01*
X140291379Y-95808876D01*
X140465248Y-95724825D01*
X140618664Y-95607530D01*
X140620288Y-95605662D01*
X140620292Y-95605658D01*
X140687596Y-95528232D01*
X140745361Y-95461781D01*
X140757429Y-95440363D01*
X140786943Y-95417223D01*
X140824174Y-95421729D01*
X140834767Y-95429770D01*
X141854610Y-96449613D01*
X141855274Y-96449996D01*
X141856423Y-96451004D01*
X141870085Y-96464666D01*
X141876318Y-96466336D01*
X141883626Y-96468294D01*
X141895448Y-96473191D01*
X141907589Y-96480201D01*
X141926912Y-96480201D01*
X141928435Y-96480301D01*
X141929175Y-96480499D01*
X142114232Y-96480499D01*
X142148879Y-96494851D01*
X142163231Y-96529499D01*
X142148879Y-96564147D01*
X142131151Y-96575485D01*
X142085715Y-96592202D01*
X142083611Y-96593506D01*
X142083610Y-96593507D01*
X141942234Y-96681164D01*
X141921585Y-96693967D01*
X141796298Y-96812445D01*
X141783672Y-96824386D01*
X141781270Y-96826657D01*
X141779845Y-96828692D01*
X141671927Y-96982814D01*
X141671925Y-96982818D01*
X141670502Y-96984850D01*
X141669516Y-96987129D01*
X141594791Y-97159806D01*
X141594789Y-97159812D01*
X141593805Y-97162086D01*
X141554313Y-97351123D01*
X141554304Y-97353600D01*
X141554304Y-97353603D01*
X141554270Y-97363470D01*
X141553639Y-97544240D01*
X141554130Y-97546673D01*
X141554130Y-97546677D01*
X141586982Y-97709600D01*
X141591811Y-97733549D01*
X141592781Y-97735835D01*
X141592782Y-97735837D01*
X141641935Y-97851634D01*
X141667268Y-97911316D01*
X141668677Y-97913359D01*
X141668679Y-97913362D01*
X141731585Y-98004549D01*
X141776929Y-98070279D01*
X141916314Y-98203944D01*
X142079730Y-98306853D01*
X142082054Y-98307727D01*
X142082055Y-98307727D01*
X142256891Y-98373443D01*
X142260501Y-98374800D01*
X142451242Y-98405010D01*
X142644161Y-98396250D01*
X142672137Y-98389171D01*
X142828974Y-98349485D01*
X142828978Y-98349484D01*
X142831379Y-98348876D01*
X143005248Y-98264825D01*
X143158664Y-98147530D01*
X143161206Y-98144606D01*
X143173782Y-98130140D01*
X143207345Y-98113407D01*
X143245410Y-98127640D01*
X144727087Y-99609317D01*
X144741439Y-99643965D01*
X144727087Y-99678613D01*
X144692439Y-99692965D01*
X144688212Y-99692782D01*
X144683020Y-99692332D01*
X144675055Y-99692959D01*
X144597191Y-99712301D01*
X144591189Y-99716734D01*
X144591141Y-99717052D01*
X144592453Y-99719373D01*
X145033372Y-100160292D01*
X145040265Y-100163147D01*
X145041387Y-100162683D01*
X145041578Y-100162152D01*
X145061599Y-100052525D01*
X145081942Y-100021019D01*
X145118605Y-100013125D01*
X145144450Y-100026680D01*
X146388788Y-101271018D01*
X146403140Y-101305666D01*
X146388788Y-101340314D01*
X146354140Y-101354666D01*
X146349913Y-101354483D01*
X146344721Y-101354033D01*
X146336756Y-101354660D01*
X146258892Y-101374002D01*
X146252890Y-101378435D01*
X146252842Y-101378753D01*
X146254154Y-101381074D01*
X146695073Y-101821993D01*
X146701966Y-101824848D01*
X146703088Y-101824384D01*
X146703279Y-101823853D01*
X146723300Y-101714226D01*
X146743643Y-101682720D01*
X146780306Y-101674826D01*
X146806151Y-101688381D01*
X148050489Y-102932719D01*
X148064841Y-102967367D01*
X148050489Y-103002015D01*
X148015841Y-103016367D01*
X148011614Y-103016184D01*
X148006422Y-103015734D01*
X147998457Y-103016361D01*
X147920593Y-103035703D01*
X147914591Y-103040136D01*
X147914543Y-103040454D01*
X147915855Y-103042775D01*
X148356774Y-103483694D01*
X148363667Y-103486549D01*
X148364789Y-103486085D01*
X148364980Y-103485554D01*
X148385001Y-103375927D01*
X148405344Y-103344421D01*
X148442007Y-103336527D01*
X148467852Y-103350082D01*
X149185148Y-104067378D01*
X149199500Y-104102026D01*
X149199500Y-104373284D01*
X149185148Y-104407932D01*
X149172020Y-104417305D01*
X149157853Y-104424230D01*
X149154776Y-104427547D01*
X149131034Y-104453142D01*
X149081773Y-104506246D01*
X149040318Y-104610152D01*
X149040045Y-104634220D01*
X149039294Y-104700459D01*
X149039049Y-104722015D01*
X149078135Y-104826835D01*
X149081135Y-104830220D01*
X149149336Y-104907172D01*
X149149339Y-104907174D01*
X149152336Y-104910556D01*
X149251701Y-104961952D01*
X149362906Y-104974131D01*
X149471040Y-104945460D01*
X149519169Y-104910556D01*
X149557940Y-104882439D01*
X149557941Y-104882438D01*
X149561602Y-104879783D01*
X149622449Y-104785908D01*
X149645421Y-104676422D01*
X149645500Y-104669491D01*
X149625017Y-104559512D01*
X149566316Y-104464280D01*
X149519841Y-104428940D01*
X149500948Y-104396544D01*
X149500500Y-104389936D01*
X149500500Y-104262524D01*
X150369049Y-104262524D01*
X150408135Y-104367344D01*
X150411135Y-104370729D01*
X150479336Y-104447681D01*
X150479339Y-104447683D01*
X150482336Y-104451065D01*
X150581701Y-104502461D01*
X150692906Y-104514640D01*
X150801040Y-104485969D01*
X150819579Y-104472524D01*
X152839049Y-104472524D01*
X152878135Y-104577344D01*
X152881135Y-104580729D01*
X152949336Y-104657681D01*
X152949339Y-104657683D01*
X152952336Y-104661065D01*
X152963012Y-104666587D01*
X152987193Y-104695253D01*
X152989500Y-104710110D01*
X152989500Y-106168660D01*
X152989698Y-106169400D01*
X152989798Y-106170923D01*
X152989798Y-106190246D01*
X152993023Y-106195831D01*
X152993023Y-106195832D01*
X152996808Y-106202387D01*
X153001705Y-106214209D01*
X153005333Y-106227750D01*
X153018995Y-106241412D01*
X153020003Y-106242561D01*
X153020386Y-106243225D01*
X157203024Y-110425863D01*
X157214287Y-110443390D01*
X157238135Y-110507344D01*
X157241135Y-110510729D01*
X157309336Y-110587681D01*
X157309339Y-110587683D01*
X157312336Y-110591065D01*
X157411701Y-110642461D01*
X157522906Y-110654640D01*
X157631040Y-110625969D01*
X157679169Y-110591065D01*
X157717940Y-110562948D01*
X157717941Y-110562947D01*
X157721602Y-110560292D01*
X157782449Y-110466417D01*
X157805421Y-110356931D01*
X157805500Y-110350000D01*
X157786905Y-110250157D01*
X160337190Y-110250157D01*
X160340593Y-110257809D01*
X160361576Y-110276735D01*
X160364873Y-110279237D01*
X160562067Y-110404138D01*
X160565738Y-110406049D01*
X160781164Y-110495944D01*
X160785096Y-110497206D01*
X161012588Y-110549517D01*
X161016690Y-110550101D01*
X161249735Y-110563334D01*
X161253871Y-110563219D01*
X161485819Y-110536997D01*
X161489880Y-110536186D01*
X161714090Y-110471258D01*
X161717955Y-110469775D01*
X161928021Y-110367998D01*
X161931584Y-110365883D01*
X162084474Y-110256625D01*
X162088422Y-110250295D01*
X162087421Y-110245974D01*
X161219472Y-109378025D01*
X161212579Y-109375170D01*
X161205686Y-109378025D01*
X160339762Y-110243949D01*
X160337190Y-110250157D01*
X157786905Y-110250157D01*
X157785017Y-110240021D01*
X157726316Y-110144789D01*
X157637267Y-110077075D01*
X157632923Y-110075817D01*
X157632921Y-110075816D01*
X157583539Y-110061516D01*
X157529812Y-110045958D01*
X157525306Y-110046348D01*
X157525304Y-110046348D01*
X157422869Y-110055220D01*
X157422867Y-110055221D01*
X157418359Y-110055611D01*
X157342380Y-110092750D01*
X157304951Y-110095072D01*
X157286215Y-110083376D01*
X156465106Y-109262267D01*
X159811554Y-109262267D01*
X159811865Y-109266401D01*
X159848983Y-109496847D01*
X159849985Y-109500866D01*
X159925404Y-109721778D01*
X159927061Y-109725554D01*
X160038628Y-109930605D01*
X160040901Y-109934052D01*
X160116195Y-110029563D01*
X160122703Y-110033208D01*
X160127627Y-110031820D01*
X160993554Y-109165893D01*
X160996409Y-109159000D01*
X161428749Y-109159000D01*
X161431604Y-109165893D01*
X162298190Y-110032479D01*
X162305083Y-110035334D01*
X162309075Y-110033681D01*
X162425692Y-109867443D01*
X162427774Y-109863867D01*
X162527717Y-109652911D01*
X162529162Y-109649044D01*
X162592131Y-109424278D01*
X162592909Y-109420201D01*
X162617200Y-109187121D01*
X162617331Y-109184821D01*
X162617568Y-109160157D01*
X162617481Y-109157849D01*
X162597667Y-108924329D01*
X162596973Y-108920274D01*
X162538327Y-108694319D01*
X162536952Y-108690415D01*
X162441084Y-108477596D01*
X162439069Y-108473976D01*
X162310761Y-108283393D01*
X162306563Y-108281537D01*
X162299243Y-108284468D01*
X161431604Y-109152107D01*
X161428749Y-109159000D01*
X160996409Y-109159000D01*
X160993554Y-109152107D01*
X160129139Y-108287692D01*
X160122246Y-108284837D01*
X160117233Y-108286913D01*
X160055995Y-108361598D01*
X160053657Y-108365000D01*
X159938177Y-108567869D01*
X159936446Y-108571614D01*
X159856797Y-108791043D01*
X159855721Y-108795033D01*
X159814182Y-109024741D01*
X159813794Y-109028847D01*
X159811554Y-109262267D01*
X156465106Y-109262267D01*
X155270248Y-108067409D01*
X160338233Y-108067409D01*
X160341280Y-108075569D01*
X161205686Y-108939975D01*
X161212579Y-108942830D01*
X161219472Y-108939975D01*
X162084586Y-108074861D01*
X162087441Y-108067968D01*
X162085643Y-108063626D01*
X161954613Y-107966137D01*
X161951105Y-107963962D01*
X161743023Y-107858167D01*
X161739193Y-107856612D01*
X161516259Y-107787389D01*
X161512228Y-107786503D01*
X161280817Y-107755832D01*
X161276699Y-107755638D01*
X161043427Y-107764395D01*
X161039321Y-107764899D01*
X160810863Y-107812834D01*
X160806911Y-107814020D01*
X160589801Y-107899761D01*
X160586090Y-107901603D01*
X160386529Y-108022699D01*
X160383194Y-108025131D01*
X160341110Y-108061651D01*
X160338233Y-108067409D01*
X155270248Y-108067409D01*
X154463423Y-107260584D01*
X158179049Y-107260584D01*
X158218135Y-107365404D01*
X158221135Y-107368789D01*
X158289336Y-107445741D01*
X158289339Y-107445743D01*
X158292336Y-107449125D01*
X158391701Y-107500521D01*
X158502906Y-107512700D01*
X158611040Y-107484029D01*
X158632254Y-107468644D01*
X158697940Y-107421008D01*
X158697941Y-107421007D01*
X158701602Y-107418352D01*
X158762449Y-107324477D01*
X158785421Y-107214991D01*
X158785500Y-107208060D01*
X158765017Y-107098081D01*
X158706316Y-107002849D01*
X158617267Y-106935135D01*
X158612923Y-106933877D01*
X158612921Y-106933876D01*
X158550011Y-106915659D01*
X158509812Y-106904018D01*
X158505306Y-106904408D01*
X158505304Y-106904408D01*
X158402869Y-106913280D01*
X158402867Y-106913281D01*
X158398359Y-106913671D01*
X158297853Y-106962799D01*
X158294776Y-106966116D01*
X158232238Y-107033534D01*
X158221773Y-107044815D01*
X158180318Y-107148721D01*
X158180104Y-107167599D01*
X158179115Y-107254789D01*
X158179049Y-107260584D01*
X154463423Y-107260584D01*
X153304852Y-106102013D01*
X153290500Y-106067365D01*
X153290500Y-104982524D01*
X161039049Y-104982524D01*
X161078135Y-105087344D01*
X161081135Y-105090729D01*
X161149336Y-105167681D01*
X161149339Y-105167683D01*
X161152336Y-105171065D01*
X161251701Y-105222461D01*
X161362906Y-105234640D01*
X161471040Y-105205969D01*
X161522561Y-105168605D01*
X161557940Y-105142948D01*
X161557941Y-105142947D01*
X161561602Y-105140292D01*
X161622449Y-105046417D01*
X161643388Y-104946619D01*
X161644929Y-104939277D01*
X161644929Y-104939275D01*
X161645421Y-104936931D01*
X161645500Y-104930000D01*
X161625017Y-104820021D01*
X161566316Y-104724789D01*
X161477267Y-104657075D01*
X161472923Y-104655817D01*
X161472921Y-104655816D01*
X161403146Y-104635611D01*
X161369812Y-104625958D01*
X161365306Y-104626348D01*
X161365304Y-104626348D01*
X161262869Y-104635220D01*
X161262867Y-104635221D01*
X161258359Y-104635611D01*
X161157853Y-104684739D01*
X161154776Y-104688056D01*
X161107361Y-104739171D01*
X161081773Y-104766755D01*
X161080098Y-104770952D01*
X161080098Y-104770953D01*
X161075899Y-104781479D01*
X161040318Y-104870661D01*
X161039775Y-104918500D01*
X161039112Y-104977002D01*
X161039049Y-104982524D01*
X153290500Y-104982524D01*
X153290500Y-104706850D01*
X153304852Y-104672202D01*
X153310733Y-104667183D01*
X153357940Y-104632948D01*
X153357941Y-104632947D01*
X153361602Y-104630292D01*
X153422449Y-104536417D01*
X153437585Y-104464280D01*
X153444929Y-104429277D01*
X153444929Y-104429275D01*
X153445421Y-104426931D01*
X153445500Y-104420000D01*
X153425017Y-104310021D01*
X153366316Y-104214789D01*
X153277267Y-104147075D01*
X153272923Y-104145817D01*
X153272921Y-104145816D01*
X153203146Y-104125611D01*
X153169812Y-104115958D01*
X153165306Y-104116348D01*
X153165304Y-104116348D01*
X153062869Y-104125220D01*
X153062867Y-104125221D01*
X153058359Y-104125611D01*
X152957853Y-104174739D01*
X152881773Y-104256755D01*
X152840318Y-104360661D01*
X152840025Y-104386467D01*
X152839143Y-104464280D01*
X152839049Y-104472524D01*
X150819579Y-104472524D01*
X150849169Y-104451065D01*
X150887940Y-104422948D01*
X150887941Y-104422947D01*
X150891602Y-104420292D01*
X150952449Y-104326417D01*
X150967761Y-104253441D01*
X150974929Y-104219277D01*
X150974929Y-104219275D01*
X150975421Y-104216931D01*
X150975500Y-104210000D01*
X150955017Y-104100021D01*
X150896316Y-104004789D01*
X150807267Y-103937075D01*
X150802923Y-103935817D01*
X150802921Y-103935816D01*
X150733146Y-103915611D01*
X150699812Y-103905958D01*
X150695306Y-103906348D01*
X150695304Y-103906348D01*
X150592869Y-103915220D01*
X150592867Y-103915221D01*
X150588359Y-103915611D01*
X150487853Y-103964739D01*
X150411773Y-104046755D01*
X150370318Y-104150661D01*
X150370045Y-104174739D01*
X150369365Y-104234701D01*
X150369049Y-104262524D01*
X149500500Y-104262524D01*
X149500500Y-104000731D01*
X149500302Y-103999991D01*
X149500202Y-103998468D01*
X149500202Y-103979145D01*
X149493192Y-103967004D01*
X149488295Y-103955182D01*
X149486337Y-103947874D01*
X149484667Y-103941641D01*
X149471005Y-103927979D01*
X149469997Y-103926830D01*
X149469614Y-103926166D01*
X149277596Y-103734148D01*
X149263244Y-103699500D01*
X149277596Y-103664852D01*
X149312244Y-103650500D01*
X149694523Y-103650500D01*
X149695263Y-103650302D01*
X149696786Y-103650202D01*
X149716109Y-103650202D01*
X149728250Y-103643192D01*
X149740072Y-103638295D01*
X149747380Y-103636337D01*
X149753613Y-103634667D01*
X149767275Y-103621005D01*
X149768424Y-103619997D01*
X149769088Y-103619614D01*
X150082193Y-103306509D01*
X150082576Y-103305845D01*
X150083584Y-103304696D01*
X150097246Y-103291034D01*
X150100874Y-103277493D01*
X150105771Y-103265671D01*
X150109556Y-103259116D01*
X150109556Y-103259115D01*
X150112781Y-103253530D01*
X150112781Y-103234207D01*
X150112881Y-103232684D01*
X150113079Y-103231944D01*
X150113079Y-102925850D01*
X150127431Y-102891202D01*
X150133312Y-102886183D01*
X150180519Y-102851948D01*
X150180520Y-102851947D01*
X150184181Y-102849292D01*
X150245028Y-102755417D01*
X150268000Y-102645931D01*
X150268079Y-102639000D01*
X150254190Y-102564424D01*
X153429049Y-102564424D01*
X153468135Y-102669244D01*
X153471135Y-102672629D01*
X153539336Y-102749581D01*
X153539339Y-102749583D01*
X153542336Y-102752965D01*
X153641701Y-102804361D01*
X153752906Y-102816540D01*
X153861040Y-102787869D01*
X153911895Y-102750988D01*
X153947940Y-102724848D01*
X153947941Y-102724847D01*
X153951602Y-102722192D01*
X154012449Y-102628317D01*
X154033999Y-102525607D01*
X154034929Y-102521177D01*
X154034929Y-102521175D01*
X154035421Y-102518831D01*
X154035500Y-102511900D01*
X154015017Y-102401921D01*
X153956316Y-102306689D01*
X153867267Y-102238975D01*
X153862923Y-102237717D01*
X153862921Y-102237716D01*
X153793146Y-102217511D01*
X153759812Y-102207858D01*
X153755306Y-102208248D01*
X153755304Y-102208248D01*
X153652869Y-102217120D01*
X153652867Y-102217121D01*
X153648359Y-102217511D01*
X153547853Y-102266639D01*
X153544776Y-102269956D01*
X153514356Y-102302750D01*
X153471773Y-102348655D01*
X153430318Y-102452561D01*
X153429049Y-102564424D01*
X150254190Y-102564424D01*
X150247596Y-102529021D01*
X150188895Y-102433789D01*
X150099846Y-102366075D01*
X150095502Y-102364817D01*
X150095500Y-102364816D01*
X150025725Y-102344611D01*
X149992391Y-102334958D01*
X149987885Y-102335348D01*
X149987883Y-102335348D01*
X149885448Y-102344220D01*
X149885446Y-102344221D01*
X149880938Y-102344611D01*
X149780432Y-102393739D01*
X149704352Y-102475755D01*
X149662897Y-102579661D01*
X149662710Y-102596126D01*
X149661687Y-102686360D01*
X149661628Y-102691524D01*
X149692960Y-102775549D01*
X149691618Y-102813027D01*
X149664168Y-102838580D01*
X149633419Y-102839734D01*
X149586739Y-102826217D01*
X149586738Y-102826217D01*
X149582391Y-102824958D01*
X149577885Y-102825348D01*
X149577883Y-102825348D01*
X149475448Y-102834220D01*
X149475446Y-102834221D01*
X149470938Y-102834611D01*
X149370432Y-102883739D01*
X149367355Y-102887056D01*
X149297071Y-102962824D01*
X149261147Y-102978500D01*
X149106573Y-102978500D01*
X149071925Y-102964148D01*
X147840925Y-101733148D01*
X147826573Y-101698500D01*
X147840925Y-101663852D01*
X147875573Y-101649500D01*
X148662601Y-101649500D01*
X148699271Y-101665999D01*
X148761915Y-101736681D01*
X148761918Y-101736683D01*
X148764915Y-101740065D01*
X148864280Y-101791461D01*
X148975485Y-101803640D01*
X149083619Y-101774969D01*
X149087280Y-101772314D01*
X149170519Y-101711948D01*
X149170520Y-101711947D01*
X149174181Y-101709292D01*
X149235028Y-101615417D01*
X149258000Y-101505931D01*
X149258079Y-101499000D01*
X149237596Y-101389021D01*
X149178895Y-101293789D01*
X149089846Y-101226075D01*
X149085502Y-101224817D01*
X149085500Y-101224816D01*
X149015725Y-101204611D01*
X148982391Y-101194958D01*
X148977885Y-101195348D01*
X148977883Y-101195348D01*
X148875448Y-101204220D01*
X148875446Y-101204221D01*
X148870938Y-101204611D01*
X148866871Y-101206599D01*
X148813963Y-101232461D01*
X148770432Y-101253739D01*
X148767355Y-101257056D01*
X148697071Y-101332824D01*
X148661147Y-101348500D01*
X147758737Y-101348500D01*
X147724089Y-101334148D01*
X147382465Y-100992524D01*
X148219049Y-100992524D01*
X148258135Y-101097344D01*
X148261135Y-101100729D01*
X148329336Y-101177681D01*
X148329339Y-101177683D01*
X148332336Y-101181065D01*
X148431701Y-101232461D01*
X148542906Y-101244640D01*
X148651040Y-101215969D01*
X148699169Y-101181065D01*
X148737940Y-101152948D01*
X148737941Y-101152947D01*
X148741602Y-101150292D01*
X148802449Y-101056417D01*
X148825421Y-100946931D01*
X148825500Y-100940000D01*
X148805017Y-100830021D01*
X148746316Y-100734789D01*
X148657267Y-100667075D01*
X148652923Y-100665817D01*
X148652921Y-100665816D01*
X148583146Y-100645611D01*
X148549812Y-100635958D01*
X148545306Y-100636348D01*
X148545304Y-100636348D01*
X148442869Y-100645220D01*
X148442867Y-100645221D01*
X148438359Y-100645611D01*
X148337853Y-100694739D01*
X148334776Y-100698056D01*
X148321480Y-100712390D01*
X148261773Y-100776755D01*
X148220318Y-100880661D01*
X148219838Y-100922948D01*
X148219369Y-100964350D01*
X148219049Y-100992524D01*
X147382465Y-100992524D01*
X146442465Y-100052524D01*
X147129049Y-100052524D01*
X147168135Y-100157344D01*
X147171135Y-100160729D01*
X147239336Y-100237681D01*
X147239339Y-100237683D01*
X147242336Y-100241065D01*
X147341701Y-100292461D01*
X147452906Y-100304640D01*
X147561040Y-100275969D01*
X147570268Y-100269277D01*
X147647940Y-100212948D01*
X147647941Y-100212947D01*
X147651602Y-100210292D01*
X147712449Y-100116417D01*
X147725855Y-100052524D01*
X147734929Y-100009277D01*
X147734929Y-100009275D01*
X147735421Y-100006931D01*
X147735500Y-100000000D01*
X147715017Y-99890021D01*
X147656316Y-99794789D01*
X147567267Y-99727075D01*
X147562923Y-99725817D01*
X147562921Y-99725816D01*
X147493146Y-99705611D01*
X147459812Y-99695958D01*
X147455306Y-99696348D01*
X147455304Y-99696348D01*
X147352869Y-99705220D01*
X147352867Y-99705221D01*
X147348359Y-99705611D01*
X147247853Y-99754739D01*
X147244776Y-99758056D01*
X147205192Y-99800729D01*
X147171773Y-99836755D01*
X147170098Y-99840952D01*
X147170098Y-99840953D01*
X147159060Y-99868620D01*
X147130318Y-99940661D01*
X147129771Y-99988908D01*
X147129223Y-100037217D01*
X147129049Y-100052524D01*
X146442465Y-100052524D01*
X145822465Y-99432524D01*
X147719049Y-99432524D01*
X147758135Y-99537344D01*
X147761135Y-99540729D01*
X147829336Y-99617681D01*
X147829339Y-99617683D01*
X147832336Y-99621065D01*
X147931701Y-99672461D01*
X148042906Y-99684640D01*
X148151040Y-99655969D01*
X148160268Y-99649277D01*
X148237940Y-99592948D01*
X148237941Y-99592947D01*
X148241602Y-99590292D01*
X148302449Y-99496417D01*
X148315855Y-99432524D01*
X148324929Y-99389277D01*
X148324929Y-99389275D01*
X148325421Y-99386931D01*
X148325500Y-99380000D01*
X148305017Y-99270021D01*
X148246316Y-99174789D01*
X148231540Y-99163553D01*
X149145714Y-99163553D01*
X149145714Y-99456447D01*
X149145953Y-99458146D01*
X149145953Y-99458149D01*
X149149158Y-99480953D01*
X149186477Y-99746490D01*
X149267209Y-100028037D01*
X149267901Y-100029591D01*
X149267902Y-100029594D01*
X149299673Y-100100953D01*
X149386340Y-100295609D01*
X149387248Y-100297062D01*
X149387249Y-100297064D01*
X149540639Y-100542539D01*
X149540643Y-100542545D01*
X149541550Y-100543996D01*
X149600997Y-100614843D01*
X149728718Y-100767056D01*
X149728724Y-100767062D01*
X149729818Y-100768366D01*
X149731092Y-100769513D01*
X149932726Y-100951065D01*
X149947480Y-100964350D01*
X149948898Y-100965307D01*
X149948900Y-100965308D01*
X149989250Y-100992524D01*
X150190300Y-101128134D01*
X150453551Y-101256530D01*
X150455165Y-101257055D01*
X150455169Y-101257056D01*
X150730486Y-101346512D01*
X150730491Y-101346513D01*
X150732109Y-101347039D01*
X150733789Y-101347335D01*
X150733788Y-101347335D01*
X151018872Y-101397603D01*
X151018878Y-101397604D01*
X151020553Y-101397899D01*
X151022259Y-101397959D01*
X151022263Y-101397959D01*
X151138402Y-101402014D01*
X151313268Y-101408121D01*
X151494991Y-101389021D01*
X151602855Y-101377684D01*
X151602857Y-101377684D01*
X151604557Y-101377505D01*
X151696894Y-101354483D01*
X151887095Y-101307061D01*
X151887100Y-101307059D01*
X151888750Y-101306648D01*
X152091291Y-101224816D01*
X152158730Y-101197569D01*
X152158733Y-101197568D01*
X152160316Y-101196928D01*
X152163729Y-101194958D01*
X152260449Y-101139116D01*
X152413970Y-101050481D01*
X152440461Y-101029784D01*
X152603347Y-100902524D01*
X153259049Y-100902524D01*
X153298135Y-101007344D01*
X153301135Y-101010729D01*
X153369336Y-101087681D01*
X153369339Y-101087683D01*
X153372336Y-101091065D01*
X153471701Y-101142461D01*
X153582906Y-101154640D01*
X153691040Y-101125969D01*
X153694701Y-101123314D01*
X153777940Y-101062948D01*
X153777941Y-101062947D01*
X153781602Y-101060292D01*
X153842449Y-100966417D01*
X153859493Y-100885184D01*
X153864929Y-100859277D01*
X153864929Y-100859275D01*
X153865421Y-100856931D01*
X153865500Y-100850000D01*
X153845017Y-100740021D01*
X153786316Y-100644789D01*
X153697267Y-100577075D01*
X153692923Y-100575817D01*
X153692921Y-100575816D01*
X153641980Y-100561065D01*
X153589812Y-100545958D01*
X153585306Y-100546348D01*
X153585304Y-100546348D01*
X153482869Y-100555220D01*
X153482867Y-100555221D01*
X153478359Y-100555611D01*
X153377853Y-100604739D01*
X153374776Y-100608056D01*
X153321197Y-100665816D01*
X153301773Y-100686755D01*
X153260318Y-100790661D01*
X153259869Y-100830215D01*
X153259195Y-100889681D01*
X153259049Y-100902524D01*
X152603347Y-100902524D01*
X152643422Y-100871214D01*
X152643426Y-100871210D01*
X152644773Y-100870158D01*
X152848234Y-100659468D01*
X153020392Y-100422513D01*
X153023141Y-100417344D01*
X153151063Y-100176755D01*
X153157897Y-100163903D01*
X153158478Y-100162307D01*
X153158481Y-100162300D01*
X153257489Y-99890278D01*
X153257490Y-99890276D01*
X153258073Y-99888673D01*
X153258606Y-99886168D01*
X153318612Y-99603859D01*
X153318969Y-99602180D01*
X153339400Y-99310000D01*
X153318969Y-99017820D01*
X153299770Y-98927496D01*
X153258429Y-98733000D01*
X153258427Y-98732995D01*
X153258073Y-98731327D01*
X153228293Y-98649507D01*
X153158481Y-98457700D01*
X153158478Y-98457693D01*
X153157897Y-98456097D01*
X153100520Y-98348187D01*
X153021200Y-98199006D01*
X153021198Y-98199002D01*
X153020392Y-98197487D01*
X152848234Y-97960532D01*
X152644773Y-97749842D01*
X152643426Y-97748790D01*
X152643422Y-97748786D01*
X152415313Y-97570568D01*
X152415311Y-97570566D01*
X152413970Y-97569519D01*
X152227125Y-97461644D01*
X152161799Y-97423928D01*
X152161797Y-97423927D01*
X152160316Y-97423072D01*
X152158733Y-97422432D01*
X152158730Y-97422431D01*
X152011494Y-97362944D01*
X151888750Y-97313352D01*
X151887100Y-97312941D01*
X151887095Y-97312939D01*
X151668321Y-97258393D01*
X151604557Y-97242495D01*
X151602857Y-97242316D01*
X151602855Y-97242316D01*
X151409952Y-97222041D01*
X151313268Y-97211879D01*
X151138402Y-97217986D01*
X151022263Y-97222041D01*
X151022259Y-97222041D01*
X151020553Y-97222101D01*
X151018878Y-97222396D01*
X151018872Y-97222397D01*
X150797420Y-97261445D01*
X150732109Y-97272961D01*
X150730491Y-97273487D01*
X150730486Y-97273488D01*
X150455169Y-97362944D01*
X150455165Y-97362945D01*
X150453551Y-97363470D01*
X150190300Y-97491866D01*
X150109039Y-97546677D01*
X149960177Y-97647086D01*
X149947480Y-97655650D01*
X149946207Y-97656796D01*
X149946206Y-97656797D01*
X149858588Y-97735689D01*
X149729818Y-97851634D01*
X149728724Y-97852938D01*
X149728718Y-97852944D01*
X149609821Y-97994642D01*
X149541550Y-98076004D01*
X149540643Y-98077455D01*
X149540639Y-98077461D01*
X149423561Y-98264825D01*
X149386340Y-98324391D01*
X149318955Y-98475739D01*
X149276817Y-98570384D01*
X149267209Y-98591963D01*
X149186477Y-98873510D01*
X149163646Y-99035958D01*
X149149757Y-99134789D01*
X149145714Y-99163553D01*
X148231540Y-99163553D01*
X148157267Y-99107075D01*
X148152923Y-99105817D01*
X148152921Y-99105816D01*
X148083146Y-99085611D01*
X148049812Y-99075958D01*
X148045306Y-99076348D01*
X148045304Y-99076348D01*
X147942869Y-99085220D01*
X147942867Y-99085221D01*
X147938359Y-99085611D01*
X147837853Y-99134739D01*
X147834776Y-99138056D01*
X147770328Y-99207533D01*
X147761773Y-99216755D01*
X147760098Y-99220952D01*
X147760098Y-99220953D01*
X147756480Y-99230021D01*
X147720318Y-99320661D01*
X147719049Y-99432524D01*
X145822465Y-99432524D01*
X145397287Y-99007346D01*
X145382935Y-98972698D01*
X145397287Y-98938050D01*
X145419374Y-98925336D01*
X145444988Y-98918545D01*
X145469916Y-98900467D01*
X145531888Y-98855524D01*
X145531889Y-98855523D01*
X145535550Y-98852868D01*
X145596397Y-98758993D01*
X145619369Y-98649507D01*
X145619448Y-98642576D01*
X145598965Y-98532597D01*
X145540264Y-98437365D01*
X145451215Y-98369651D01*
X145446871Y-98368393D01*
X145446869Y-98368392D01*
X145383959Y-98350175D01*
X145343760Y-98338534D01*
X145339254Y-98338924D01*
X145339252Y-98338924D01*
X145236817Y-98347796D01*
X145236815Y-98347797D01*
X145232307Y-98348187D01*
X145131801Y-98397315D01*
X145128724Y-98400632D01*
X145065571Y-98468713D01*
X145055721Y-98479331D01*
X145054047Y-98483527D01*
X145054045Y-98483530D01*
X145041175Y-98515789D01*
X145032696Y-98537044D01*
X145030112Y-98543520D01*
X145003943Y-98570384D01*
X144966443Y-98570875D01*
X144949952Y-98560011D01*
X144361465Y-97971524D01*
X145141628Y-97971524D01*
X145180714Y-98076344D01*
X145183714Y-98079729D01*
X145251915Y-98156681D01*
X145251918Y-98156683D01*
X145254915Y-98160065D01*
X145354280Y-98211461D01*
X145465485Y-98223640D01*
X145573619Y-98194969D01*
X145621748Y-98160065D01*
X145660519Y-98131948D01*
X145660520Y-98131947D01*
X145664181Y-98129292D01*
X145725028Y-98035417D01*
X145748000Y-97925931D01*
X145748079Y-97919000D01*
X145727596Y-97809021D01*
X145668895Y-97713789D01*
X145579846Y-97646075D01*
X145575502Y-97644817D01*
X145575500Y-97644816D01*
X145505725Y-97624611D01*
X145472391Y-97614958D01*
X145467885Y-97615348D01*
X145467883Y-97615348D01*
X145365448Y-97624220D01*
X145365446Y-97624221D01*
X145360938Y-97624611D01*
X145260432Y-97673739D01*
X145257355Y-97677056D01*
X145190817Y-97748786D01*
X145184352Y-97755755D01*
X145142897Y-97859661D01*
X145142340Y-97908788D01*
X145141753Y-97960532D01*
X145141628Y-97971524D01*
X144361465Y-97971524D01*
X144113893Y-97723952D01*
X144099541Y-97689304D01*
X144099540Y-96901241D01*
X144099540Y-96898951D01*
X144099341Y-96898209D01*
X144099241Y-96896679D01*
X144099241Y-96877364D01*
X144096015Y-96871776D01*
X144092230Y-96865219D01*
X144087336Y-96853404D01*
X144085691Y-96847264D01*
X146201928Y-96847264D01*
X146235019Y-97063515D01*
X146247654Y-97100419D01*
X146302786Y-97261445D01*
X146305882Y-97270489D01*
X146354810Y-97358396D01*
X146406353Y-97451000D01*
X146412277Y-97461644D01*
X146550841Y-97630936D01*
X146552500Y-97632353D01*
X146552501Y-97632354D01*
X146706708Y-97764058D01*
X146717195Y-97773015D01*
X146906079Y-97883390D01*
X147111523Y-97958572D01*
X147113670Y-97958947D01*
X147113671Y-97958947D01*
X147182834Y-97971017D01*
X147327034Y-97996184D01*
X147329214Y-97996173D01*
X147329219Y-97996173D01*
X147436417Y-97995611D01*
X147545800Y-97995039D01*
X147547940Y-97994642D01*
X147547944Y-97994642D01*
X147758761Y-97955570D01*
X147758766Y-97955569D01*
X147760906Y-97955172D01*
X147965552Y-97877842D01*
X148117032Y-97787183D01*
X148151394Y-97766618D01*
X148151396Y-97766617D01*
X148153270Y-97765495D01*
X148318126Y-97621682D01*
X148322505Y-97616217D01*
X148387333Y-97535298D01*
X148454910Y-97450948D01*
X148455950Y-97449032D01*
X148455953Y-97449028D01*
X148558260Y-97260601D01*
X148558262Y-97260596D01*
X148559297Y-97258690D01*
X148609771Y-97106071D01*
X148627304Y-97053058D01*
X148627305Y-97053055D01*
X148627989Y-97050986D01*
X148629609Y-97039607D01*
X148653494Y-96871776D01*
X148658814Y-96834399D01*
X148660500Y-96770000D01*
X148643140Y-96575485D01*
X148641247Y-96554268D01*
X148641247Y-96554265D01*
X148641053Y-96552097D01*
X148583325Y-96341082D01*
X148521453Y-96211365D01*
X148490080Y-96145589D01*
X148490079Y-96145587D01*
X148489143Y-96143625D01*
X148378481Y-95989622D01*
X148362752Y-95967733D01*
X148362750Y-95967731D01*
X148361482Y-95965966D01*
X148268125Y-95875496D01*
X148205947Y-95815241D01*
X148205944Y-95815238D01*
X148204379Y-95813722D01*
X148202570Y-95812506D01*
X148202567Y-95812504D01*
X148073126Y-95725524D01*
X150331628Y-95725524D01*
X150370714Y-95830344D01*
X150373714Y-95833729D01*
X150441915Y-95910681D01*
X150441918Y-95910683D01*
X150444915Y-95914065D01*
X150544280Y-95965461D01*
X150655485Y-95977640D01*
X150763619Y-95948969D01*
X150793111Y-95927581D01*
X150850519Y-95885948D01*
X150850520Y-95885947D01*
X150854181Y-95883292D01*
X150915028Y-95789417D01*
X150928434Y-95725524D01*
X150929273Y-95721524D01*
X151651628Y-95721524D01*
X151690714Y-95826344D01*
X151693714Y-95829729D01*
X151761915Y-95906681D01*
X151761918Y-95906683D01*
X151764915Y-95910065D01*
X151864280Y-95961461D01*
X151975485Y-95973640D01*
X152083619Y-95944969D01*
X152087280Y-95942314D01*
X152170519Y-95881948D01*
X152170520Y-95881947D01*
X152174181Y-95879292D01*
X152235028Y-95785417D01*
X152254563Y-95692314D01*
X152257508Y-95678277D01*
X152257508Y-95678275D01*
X152258000Y-95675931D01*
X152258079Y-95669000D01*
X152237596Y-95559021D01*
X152178895Y-95463789D01*
X152089846Y-95396075D01*
X152085502Y-95394817D01*
X152085500Y-95394816D01*
X152015725Y-95374611D01*
X151982391Y-95364958D01*
X151977885Y-95365348D01*
X151977883Y-95365348D01*
X151875448Y-95374220D01*
X151875446Y-95374221D01*
X151870938Y-95374611D01*
X151770432Y-95423739D01*
X151767355Y-95427056D01*
X151764838Y-95429770D01*
X151694352Y-95505755D01*
X151652897Y-95609661D01*
X151652658Y-95630716D01*
X151651737Y-95711953D01*
X151651628Y-95721524D01*
X150929273Y-95721524D01*
X150937508Y-95682277D01*
X150937508Y-95682275D01*
X150938000Y-95679931D01*
X150938079Y-95673000D01*
X150917596Y-95563021D01*
X150858895Y-95467789D01*
X150769846Y-95400075D01*
X150765502Y-95398817D01*
X150765500Y-95398816D01*
X150695725Y-95378611D01*
X150662391Y-95368958D01*
X150657885Y-95369348D01*
X150657883Y-95369348D01*
X150555448Y-95378220D01*
X150555446Y-95378221D01*
X150550938Y-95378611D01*
X150450432Y-95427739D01*
X150447355Y-95431056D01*
X150381137Y-95502441D01*
X150374352Y-95509755D01*
X150332897Y-95613661D01*
X150332571Y-95642369D01*
X150331725Y-95717002D01*
X150331628Y-95725524D01*
X148073126Y-95725524D01*
X148024609Y-95692922D01*
X148024610Y-95692922D01*
X148022798Y-95691705D01*
X147822479Y-95603771D01*
X147820351Y-95603260D01*
X147611876Y-95553209D01*
X147611874Y-95553209D01*
X147609755Y-95552700D01*
X147391349Y-95540107D01*
X147266891Y-95555168D01*
X147176327Y-95566127D01*
X147176323Y-95566128D01*
X147174165Y-95566389D01*
X147172086Y-95567029D01*
X147172084Y-95567029D01*
X146967153Y-95630074D01*
X146967150Y-95630075D01*
X146965067Y-95630716D01*
X146770665Y-95731054D01*
X146751943Y-95745420D01*
X146607362Y-95856362D01*
X146597104Y-95864233D01*
X146595636Y-95865846D01*
X146595633Y-95865849D01*
X146491782Y-95979980D01*
X146449870Y-96026041D01*
X146448714Y-96027883D01*
X146448713Y-96027885D01*
X146377218Y-96141858D01*
X146333616Y-96211365D01*
X146332804Y-96213386D01*
X146332802Y-96213389D01*
X146281470Y-96341082D01*
X146252018Y-96414346D01*
X146251575Y-96416487D01*
X146251574Y-96416489D01*
X146234796Y-96497511D01*
X146207655Y-96628570D01*
X146201928Y-96847264D01*
X144085691Y-96847264D01*
X144085377Y-96846093D01*
X144083707Y-96839861D01*
X144070045Y-96826199D01*
X144069037Y-96825050D01*
X144068654Y-96824386D01*
X143024336Y-95780068D01*
X143009984Y-95745420D01*
X143024336Y-95710772D01*
X143029216Y-95706500D01*
X143158664Y-95607530D01*
X143160288Y-95605662D01*
X143160292Y-95605658D01*
X143276892Y-95471524D01*
X144997628Y-95471524D01*
X145036714Y-95576344D01*
X145039714Y-95579729D01*
X145107915Y-95656681D01*
X145107918Y-95656683D01*
X145110915Y-95660065D01*
X145210280Y-95711461D01*
X145321485Y-95723640D01*
X145429619Y-95694969D01*
X145454373Y-95677017D01*
X145516519Y-95631948D01*
X145516520Y-95631947D01*
X145520181Y-95629292D01*
X145581028Y-95535417D01*
X145594434Y-95471524D01*
X145603508Y-95428277D01*
X145603508Y-95428275D01*
X145604000Y-95425931D01*
X145604079Y-95419000D01*
X145583596Y-95309021D01*
X145524895Y-95213789D01*
X145435846Y-95146075D01*
X145431502Y-95144817D01*
X145431500Y-95144816D01*
X145361725Y-95124611D01*
X145328391Y-95114958D01*
X145323885Y-95115348D01*
X145323883Y-95115348D01*
X145221448Y-95124220D01*
X145221446Y-95124221D01*
X145216938Y-95124611D01*
X145116432Y-95173739D01*
X145113355Y-95177056D01*
X145048304Y-95247183D01*
X145040352Y-95255755D01*
X144998897Y-95359661D01*
X144998398Y-95403681D01*
X144997716Y-95463789D01*
X144997628Y-95471524D01*
X143276892Y-95471524D01*
X143283735Y-95463652D01*
X143283737Y-95463649D01*
X143285361Y-95461781D01*
X143302674Y-95431056D01*
X143378945Y-95295698D01*
X143378946Y-95295695D01*
X143380164Y-95293534D01*
X143395046Y-95247183D01*
X143438440Y-95112025D01*
X143438441Y-95112022D01*
X143439199Y-95109660D01*
X143460056Y-94917671D01*
X143460068Y-94914326D01*
X143460075Y-94912275D01*
X143460075Y-94912267D01*
X143460079Y-94911000D01*
X143440563Y-94718870D01*
X143382813Y-94534589D01*
X143289187Y-94365683D01*
X143239116Y-94307264D01*
X152551928Y-94307264D01*
X152585019Y-94523515D01*
X152597654Y-94560419D01*
X152652497Y-94720601D01*
X152655882Y-94730489D01*
X152704810Y-94818396D01*
X152760066Y-94917671D01*
X152762277Y-94921644D01*
X152900841Y-95090936D01*
X152902500Y-95092353D01*
X152902501Y-95092354D01*
X153056708Y-95224058D01*
X153067195Y-95233015D01*
X153256079Y-95343390D01*
X153461523Y-95418572D01*
X153463670Y-95418947D01*
X153463671Y-95418947D01*
X153517131Y-95428277D01*
X153677034Y-95456184D01*
X153679214Y-95456173D01*
X153679219Y-95456173D01*
X153786417Y-95455611D01*
X153895800Y-95455039D01*
X153897940Y-95454642D01*
X153897944Y-95454642D01*
X154108761Y-95415570D01*
X154108766Y-95415569D01*
X154110906Y-95415172D01*
X154315552Y-95337842D01*
X154467032Y-95247183D01*
X154501394Y-95226618D01*
X154501396Y-95226617D01*
X154503270Y-95225495D01*
X154668126Y-95081682D01*
X154804910Y-94910948D01*
X154805950Y-94909032D01*
X154805953Y-94909028D01*
X154908260Y-94720601D01*
X154908262Y-94720596D01*
X154909297Y-94718690D01*
X154959771Y-94566071D01*
X154977304Y-94513058D01*
X154977305Y-94513055D01*
X154977989Y-94510986D01*
X154979609Y-94499607D01*
X155008615Y-94295795D01*
X155008814Y-94294399D01*
X155010500Y-94230000D01*
X154995072Y-94057128D01*
X154991247Y-94014268D01*
X154991247Y-94014265D01*
X154991053Y-94012097D01*
X154933325Y-93801082D01*
X154925432Y-93784534D01*
X154840080Y-93605589D01*
X154840079Y-93605587D01*
X154839143Y-93603625D01*
X154728481Y-93449622D01*
X154712752Y-93427733D01*
X154712750Y-93427731D01*
X154711482Y-93425966D01*
X154607187Y-93324897D01*
X154555947Y-93275241D01*
X154555944Y-93275238D01*
X154554379Y-93273722D01*
X154552570Y-93272506D01*
X154552567Y-93272504D01*
X154374609Y-93152922D01*
X154374610Y-93152922D01*
X154372798Y-93151705D01*
X154172479Y-93063771D01*
X154170351Y-93063260D01*
X153961876Y-93013209D01*
X153961874Y-93013209D01*
X153959755Y-93012700D01*
X153741349Y-93000107D01*
X153614559Y-93015450D01*
X153526327Y-93026127D01*
X153526323Y-93026128D01*
X153524165Y-93026389D01*
X153522086Y-93027029D01*
X153522084Y-93027029D01*
X153317153Y-93090074D01*
X153317150Y-93090075D01*
X153315067Y-93090716D01*
X153120665Y-93191054D01*
X153118932Y-93192384D01*
X152957362Y-93316362D01*
X152947104Y-93324233D01*
X152945636Y-93325846D01*
X152945633Y-93325849D01*
X152854534Y-93425966D01*
X152799870Y-93486041D01*
X152798714Y-93487883D01*
X152798713Y-93487885D01*
X152713600Y-93623566D01*
X152683616Y-93671365D01*
X152682804Y-93673386D01*
X152682802Y-93673389D01*
X152631470Y-93801082D01*
X152602018Y-93874346D01*
X152601575Y-93876487D01*
X152601574Y-93876489D01*
X152588972Y-93937344D01*
X152557655Y-94088570D01*
X152551928Y-94307264D01*
X143239116Y-94307264D01*
X143228089Y-94294399D01*
X143165126Y-94220939D01*
X143165124Y-94220937D01*
X143163510Y-94219054D01*
X143053449Y-94133681D01*
X143012874Y-94102208D01*
X143010917Y-94100690D01*
X142837640Y-94015427D01*
X142833191Y-94014268D01*
X142751341Y-93992948D01*
X142650757Y-93966748D01*
X142648285Y-93966618D01*
X142648282Y-93966618D01*
X142568651Y-93962445D01*
X142457903Y-93956641D01*
X142266956Y-93985519D01*
X142264628Y-93986375D01*
X142264626Y-93986376D01*
X142253983Y-93990292D01*
X142085715Y-94052202D01*
X142083611Y-94053506D01*
X142083610Y-94053507D01*
X141954303Y-94133681D01*
X141921585Y-94153967D01*
X141781270Y-94286657D01*
X141779845Y-94288692D01*
X141671927Y-94442814D01*
X141671925Y-94442818D01*
X141670502Y-94444850D01*
X141669516Y-94447129D01*
X141594791Y-94619806D01*
X141594789Y-94619812D01*
X141593805Y-94622086D01*
X141554313Y-94811123D01*
X141554304Y-94813600D01*
X141554304Y-94813603D01*
X141553971Y-94909028D01*
X141553639Y-95004240D01*
X141554130Y-95006673D01*
X141554130Y-95006677D01*
X141582238Y-95146075D01*
X141591811Y-95193549D01*
X141592781Y-95195835D01*
X141592782Y-95195837D01*
X141665104Y-95366217D01*
X141667268Y-95371316D01*
X141668677Y-95373359D01*
X141668679Y-95373362D01*
X141768826Y-95518533D01*
X141776687Y-95555202D01*
X141756316Y-95586691D01*
X141719647Y-95594552D01*
X141693844Y-95581005D01*
X141464852Y-95352013D01*
X141450500Y-95317365D01*
X141450500Y-93832524D01*
X146809049Y-93832524D01*
X146848135Y-93937344D01*
X146851135Y-93940729D01*
X146919336Y-94017681D01*
X146919339Y-94017683D01*
X146922336Y-94021065D01*
X147021701Y-94072461D01*
X147132906Y-94084640D01*
X147241040Y-94055969D01*
X147289169Y-94021065D01*
X147327940Y-93992948D01*
X147327941Y-93992947D01*
X147331602Y-93990292D01*
X147392449Y-93896417D01*
X147415421Y-93786931D01*
X147415500Y-93780000D01*
X147395017Y-93670021D01*
X147336316Y-93574789D01*
X147247267Y-93507075D01*
X147242923Y-93505817D01*
X147242921Y-93505816D01*
X147173146Y-93485611D01*
X147139812Y-93475958D01*
X147135306Y-93476348D01*
X147135304Y-93476348D01*
X147032869Y-93485220D01*
X147032867Y-93485221D01*
X147028359Y-93485611D01*
X146927853Y-93534739D01*
X146924776Y-93538056D01*
X146909378Y-93554656D01*
X146851773Y-93616755D01*
X146810318Y-93720661D01*
X146810267Y-93725184D01*
X146809256Y-93814319D01*
X146809049Y-93832524D01*
X141450500Y-93832524D01*
X141450500Y-93658214D01*
X141464852Y-93623566D01*
X141918206Y-93170212D01*
X141952854Y-93155860D01*
X141978964Y-93163397D01*
X142012991Y-93184825D01*
X142077627Y-93225529D01*
X142077630Y-93225530D01*
X142079730Y-93226853D01*
X142082054Y-93227727D01*
X142082055Y-93227727D01*
X142245834Y-93289287D01*
X142260501Y-93294800D01*
X142451242Y-93325010D01*
X142644161Y-93316250D01*
X142672137Y-93309171D01*
X142828974Y-93269485D01*
X142828978Y-93269484D01*
X142831379Y-93268876D01*
X143005248Y-93184825D01*
X143158664Y-93067530D01*
X143160288Y-93065662D01*
X143160292Y-93065658D01*
X143283735Y-92923652D01*
X143283737Y-92923649D01*
X143285361Y-92921781D01*
X143336336Y-92831316D01*
X143378945Y-92755698D01*
X143378946Y-92755695D01*
X143380164Y-92753534D01*
X143395046Y-92707183D01*
X143438440Y-92572025D01*
X143438441Y-92572022D01*
X143439199Y-92569660D01*
X143460056Y-92377671D01*
X143460079Y-92371000D01*
X143440563Y-92178870D01*
X143382813Y-91994589D01*
X143307990Y-91859604D01*
X143290390Y-91827853D01*
X143290389Y-91827852D01*
X143289187Y-91825683D01*
X143210420Y-91733784D01*
X143165126Y-91680939D01*
X143165124Y-91680937D01*
X143163510Y-91679054D01*
X143140911Y-91661524D01*
X152871628Y-91661524D01*
X152910714Y-91766344D01*
X152913714Y-91769729D01*
X152981915Y-91846681D01*
X152981918Y-91846683D01*
X152984915Y-91850065D01*
X153084280Y-91901461D01*
X153195485Y-91913640D01*
X153303619Y-91884969D01*
X153351748Y-91850065D01*
X153390519Y-91821948D01*
X153390520Y-91821947D01*
X153394181Y-91819292D01*
X153455028Y-91725417D01*
X153468434Y-91661524D01*
X155157628Y-91661524D01*
X155196714Y-91766344D01*
X155199714Y-91769729D01*
X155267915Y-91846681D01*
X155267918Y-91846683D01*
X155270915Y-91850065D01*
X155370280Y-91901461D01*
X155481485Y-91913640D01*
X155589619Y-91884969D01*
X155637748Y-91850065D01*
X155676519Y-91821948D01*
X155676520Y-91821947D01*
X155680181Y-91819292D01*
X155741028Y-91725417D01*
X155764000Y-91615931D01*
X155764079Y-91609000D01*
X155743596Y-91499021D01*
X155684895Y-91403789D01*
X155595846Y-91336075D01*
X155591502Y-91334817D01*
X155591500Y-91334816D01*
X155521725Y-91314611D01*
X155488391Y-91304958D01*
X155483885Y-91305348D01*
X155483883Y-91305348D01*
X155381448Y-91314220D01*
X155381446Y-91314221D01*
X155376938Y-91314611D01*
X155276432Y-91363739D01*
X155273355Y-91367056D01*
X155208304Y-91437183D01*
X155200352Y-91445755D01*
X155158897Y-91549661D01*
X155157628Y-91661524D01*
X153468434Y-91661524D01*
X153478000Y-91615931D01*
X153478079Y-91609000D01*
X153457596Y-91499021D01*
X153398895Y-91403789D01*
X153309846Y-91336075D01*
X153305502Y-91334817D01*
X153305500Y-91334816D01*
X153235725Y-91314611D01*
X153202391Y-91304958D01*
X153197885Y-91305348D01*
X153197883Y-91305348D01*
X153095448Y-91314220D01*
X153095446Y-91314221D01*
X153090938Y-91314611D01*
X152990432Y-91363739D01*
X152987355Y-91367056D01*
X152922304Y-91437183D01*
X152914352Y-91445755D01*
X152872897Y-91549661D01*
X152871628Y-91661524D01*
X143140911Y-91661524D01*
X143073198Y-91609000D01*
X143012874Y-91562208D01*
X143010917Y-91560690D01*
X142837640Y-91475427D01*
X142650757Y-91426748D01*
X142648285Y-91426618D01*
X142648282Y-91426618D01*
X142568651Y-91422445D01*
X142457903Y-91416641D01*
X142266956Y-91445519D01*
X142264628Y-91446375D01*
X142264626Y-91446376D01*
X142205774Y-91468029D01*
X142085715Y-91512202D01*
X142083611Y-91513506D01*
X142083610Y-91513507D01*
X141954303Y-91593681D01*
X141921585Y-91613967D01*
X141781270Y-91746657D01*
X141779845Y-91748692D01*
X141671927Y-91902814D01*
X141671925Y-91902818D01*
X141670502Y-91904850D01*
X141669516Y-91907129D01*
X141594791Y-92079806D01*
X141594789Y-92079812D01*
X141593805Y-92082086D01*
X141554313Y-92271123D01*
X141554304Y-92273600D01*
X141554304Y-92273603D01*
X141553971Y-92369132D01*
X141553639Y-92464240D01*
X141554130Y-92466673D01*
X141554130Y-92466677D01*
X141591319Y-92651109D01*
X141591811Y-92653549D01*
X141667268Y-92831316D01*
X141668677Y-92833359D01*
X141668679Y-92833362D01*
X141711100Y-92894854D01*
X141718961Y-92931523D01*
X141705414Y-92957326D01*
X141180386Y-93482354D01*
X141180003Y-93483018D01*
X141178995Y-93484167D01*
X141165333Y-93497829D01*
X141163663Y-93504062D01*
X141161705Y-93511370D01*
X141156808Y-93523192D01*
X141149798Y-93535333D01*
X141149798Y-93554656D01*
X141149698Y-93556179D01*
X141149500Y-93556919D01*
X141149500Y-95200529D01*
X141135148Y-95235177D01*
X141100500Y-95249529D01*
X141065852Y-95235177D01*
X140919831Y-95089156D01*
X140905479Y-95054508D01*
X140905766Y-95049216D01*
X140919917Y-94918946D01*
X140920056Y-94917671D01*
X140920068Y-94914326D01*
X140920075Y-94912275D01*
X140920075Y-94912267D01*
X140920079Y-94911000D01*
X140900563Y-94718870D01*
X140842813Y-94534589D01*
X140749187Y-94365683D01*
X140688089Y-94294399D01*
X140625126Y-94220939D01*
X140625124Y-94220937D01*
X140623510Y-94219054D01*
X140513449Y-94133681D01*
X140472874Y-94102208D01*
X140470917Y-94100690D01*
X140297640Y-94015427D01*
X140293191Y-94014268D01*
X140211341Y-93992948D01*
X140110757Y-93966748D01*
X140108285Y-93966618D01*
X140108282Y-93966618D01*
X140028651Y-93962445D01*
X139917903Y-93956641D01*
X139726956Y-93985519D01*
X139724628Y-93986375D01*
X139724626Y-93986376D01*
X139713983Y-93990292D01*
X139545715Y-94052202D01*
X139543611Y-94053506D01*
X139543610Y-94053507D01*
X139414303Y-94133681D01*
X139381585Y-94153967D01*
X139241270Y-94286657D01*
X139239845Y-94288692D01*
X139131927Y-94442814D01*
X139131925Y-94442818D01*
X139130502Y-94444850D01*
X139129516Y-94447129D01*
X139054791Y-94619806D01*
X139054789Y-94619812D01*
X139053805Y-94622086D01*
X139014313Y-94811123D01*
X139014304Y-94813600D01*
X139014304Y-94813603D01*
X139013971Y-94909028D01*
X139013639Y-95004240D01*
X138810578Y-95004240D01*
X138810578Y-92464240D01*
X139013639Y-92464240D01*
X139014130Y-92466673D01*
X139014130Y-92466677D01*
X139051319Y-92651109D01*
X139051811Y-92653549D01*
X139127268Y-92831316D01*
X139236929Y-92990279D01*
X139376314Y-93123944D01*
X139539730Y-93226853D01*
X139542054Y-93227727D01*
X139542055Y-93227727D01*
X139705834Y-93289287D01*
X139720501Y-93294800D01*
X139911242Y-93325010D01*
X140104161Y-93316250D01*
X140132137Y-93309171D01*
X140288974Y-93269485D01*
X140288978Y-93269484D01*
X140291379Y-93268876D01*
X140465248Y-93184825D01*
X140618664Y-93067530D01*
X140620288Y-93065662D01*
X140620292Y-93065658D01*
X140743735Y-92923652D01*
X140743737Y-92923649D01*
X140745361Y-92921781D01*
X140796336Y-92831316D01*
X140838945Y-92755698D01*
X140838946Y-92755695D01*
X140840164Y-92753534D01*
X140855046Y-92707183D01*
X140898440Y-92572025D01*
X140898441Y-92572022D01*
X140899199Y-92569660D01*
X140920056Y-92377671D01*
X140920079Y-92371000D01*
X140900563Y-92178870D01*
X140842813Y-91994589D01*
X140767990Y-91859604D01*
X140750390Y-91827853D01*
X140750389Y-91827852D01*
X140749187Y-91825683D01*
X140670420Y-91733784D01*
X140625126Y-91680939D01*
X140625124Y-91680937D01*
X140623510Y-91679054D01*
X140533198Y-91609000D01*
X140472874Y-91562208D01*
X140470917Y-91560690D01*
X140297640Y-91475427D01*
X140110757Y-91426748D01*
X140108285Y-91426618D01*
X140108282Y-91426618D01*
X140028651Y-91422445D01*
X139917903Y-91416641D01*
X139726956Y-91445519D01*
X139724628Y-91446375D01*
X139724626Y-91446376D01*
X139665774Y-91468029D01*
X139545715Y-91512202D01*
X139543611Y-91513506D01*
X139543610Y-91513507D01*
X139414303Y-91593681D01*
X139381585Y-91613967D01*
X139241270Y-91746657D01*
X139239845Y-91748692D01*
X139131927Y-91902814D01*
X139131925Y-91902818D01*
X139130502Y-91904850D01*
X139129516Y-91907129D01*
X139054791Y-92079806D01*
X139054789Y-92079812D01*
X139053805Y-92082086D01*
X139014313Y-92271123D01*
X139014304Y-92273600D01*
X139014304Y-92273603D01*
X139013971Y-92369132D01*
X139013639Y-92464240D01*
X138810578Y-92464240D01*
X138810577Y-90651524D01*
X145091628Y-90651524D01*
X145130714Y-90756344D01*
X145133714Y-90759729D01*
X145201915Y-90836681D01*
X145201918Y-90836683D01*
X145204915Y-90840065D01*
X145304280Y-90891461D01*
X145415485Y-90903640D01*
X145523619Y-90874969D01*
X145535553Y-90866314D01*
X145610519Y-90811948D01*
X145610520Y-90811947D01*
X145614181Y-90809292D01*
X145675028Y-90715417D01*
X145686336Y-90661524D01*
X148851628Y-90661524D01*
X148890714Y-90766344D01*
X148893714Y-90769729D01*
X148961915Y-90846681D01*
X148961918Y-90846683D01*
X148964915Y-90850065D01*
X149064280Y-90901461D01*
X149175485Y-90913640D01*
X149283619Y-90884969D01*
X149309342Y-90866314D01*
X149370519Y-90821948D01*
X149370520Y-90821947D01*
X149374181Y-90819292D01*
X149435028Y-90725417D01*
X149450088Y-90653640D01*
X149451791Y-90645524D01*
X149569628Y-90645524D01*
X149608714Y-90750344D01*
X149611714Y-90753729D01*
X149679915Y-90830681D01*
X149679918Y-90830683D01*
X149682915Y-90834065D01*
X149782280Y-90885461D01*
X149893485Y-90897640D01*
X150001619Y-90868969D01*
X150027686Y-90850065D01*
X150088519Y-90805948D01*
X150088520Y-90805947D01*
X150092181Y-90803292D01*
X150153028Y-90709417D01*
X150156782Y-90691524D01*
X151681628Y-90691524D01*
X151720714Y-90796344D01*
X151723714Y-90799729D01*
X151791915Y-90876681D01*
X151791918Y-90876683D01*
X151794915Y-90880065D01*
X151894280Y-90931461D01*
X152005485Y-90943640D01*
X152113619Y-90914969D01*
X152134916Y-90899524D01*
X155157628Y-90899524D01*
X155196714Y-91004344D01*
X155199714Y-91007729D01*
X155267915Y-91084681D01*
X155267918Y-91084683D01*
X155270915Y-91088065D01*
X155370280Y-91139461D01*
X155481485Y-91151640D01*
X155589619Y-91122969D01*
X155637748Y-91088065D01*
X155676519Y-91059948D01*
X155676520Y-91059947D01*
X155680181Y-91057292D01*
X155741028Y-90963417D01*
X155757281Y-90885953D01*
X155763508Y-90856277D01*
X155763508Y-90856275D01*
X155764000Y-90853931D01*
X155764079Y-90847000D01*
X155743596Y-90737021D01*
X155684895Y-90641789D01*
X155595846Y-90574075D01*
X155591502Y-90572817D01*
X155591500Y-90572816D01*
X155521725Y-90552611D01*
X155488391Y-90542958D01*
X155483885Y-90543348D01*
X155483883Y-90543348D01*
X155381448Y-90552220D01*
X155381446Y-90552221D01*
X155376938Y-90552611D01*
X155327424Y-90576814D01*
X155296066Y-90592142D01*
X155276432Y-90601739D01*
X155273355Y-90605056D01*
X155239129Y-90641953D01*
X155200352Y-90683755D01*
X155198677Y-90687952D01*
X155198677Y-90687953D01*
X155198017Y-90689607D01*
X155158897Y-90787661D01*
X155158581Y-90815496D01*
X155157788Y-90885461D01*
X155157628Y-90899524D01*
X152134916Y-90899524D01*
X152138194Y-90897147D01*
X152200519Y-90851948D01*
X152200520Y-90851947D01*
X152204181Y-90849292D01*
X152265028Y-90755417D01*
X152286626Y-90652480D01*
X152287508Y-90648277D01*
X152287508Y-90648275D01*
X152288000Y-90645931D01*
X152288005Y-90645524D01*
X152871628Y-90645524D01*
X152910714Y-90750344D01*
X152913714Y-90753729D01*
X152981915Y-90830681D01*
X152981918Y-90830683D01*
X152984915Y-90834065D01*
X153084280Y-90885461D01*
X153195485Y-90897640D01*
X153303619Y-90868969D01*
X153329686Y-90850065D01*
X153390519Y-90805948D01*
X153390520Y-90805947D01*
X153394181Y-90803292D01*
X153455028Y-90709417D01*
X153469183Y-90641953D01*
X153477508Y-90602277D01*
X153477508Y-90602275D01*
X153478000Y-90599931D01*
X153478079Y-90593000D01*
X153457596Y-90483021D01*
X153398895Y-90387789D01*
X153309846Y-90320075D01*
X153305502Y-90318817D01*
X153305500Y-90318816D01*
X153235725Y-90298611D01*
X153202391Y-90288958D01*
X153197885Y-90289348D01*
X153197883Y-90289348D01*
X153095448Y-90298220D01*
X153095446Y-90298221D01*
X153090938Y-90298611D01*
X152990432Y-90347739D01*
X152987355Y-90351056D01*
X152950257Y-90391049D01*
X152914352Y-90429755D01*
X152912677Y-90433952D01*
X152912677Y-90433953D01*
X152906294Y-90449953D01*
X152872897Y-90533661D01*
X152872375Y-90579661D01*
X152871698Y-90639383D01*
X152871628Y-90645524D01*
X152288005Y-90645524D01*
X152288079Y-90639000D01*
X152267596Y-90529021D01*
X152208895Y-90433789D01*
X152119846Y-90366075D01*
X152115502Y-90364817D01*
X152115500Y-90364816D01*
X152066118Y-90350516D01*
X152012391Y-90334958D01*
X152007885Y-90335348D01*
X152007883Y-90335348D01*
X151905448Y-90344220D01*
X151905446Y-90344221D01*
X151900938Y-90344611D01*
X151896871Y-90346599D01*
X151812605Y-90387789D01*
X151800432Y-90393739D01*
X151797355Y-90397056D01*
X151728524Y-90471258D01*
X151724352Y-90475755D01*
X151722677Y-90479952D01*
X151722677Y-90479953D01*
X151719679Y-90487468D01*
X151682897Y-90579661D01*
X151682564Y-90609000D01*
X151681754Y-90680441D01*
X151681628Y-90691524D01*
X150156782Y-90691524D01*
X150167183Y-90641953D01*
X150175508Y-90602277D01*
X150175508Y-90602275D01*
X150176000Y-90599931D01*
X150176079Y-90593000D01*
X150155596Y-90483021D01*
X150105361Y-90401524D01*
X150731628Y-90401524D01*
X150770714Y-90506344D01*
X150773714Y-90509729D01*
X150841915Y-90586681D01*
X150841918Y-90586683D01*
X150844915Y-90590065D01*
X150944280Y-90641461D01*
X151055485Y-90653640D01*
X151163619Y-90624969D01*
X151172847Y-90618277D01*
X151250519Y-90561948D01*
X151250520Y-90561947D01*
X151254181Y-90559292D01*
X151315028Y-90465417D01*
X151328434Y-90401524D01*
X151337508Y-90358277D01*
X151337508Y-90358275D01*
X151338000Y-90355931D01*
X151338079Y-90349000D01*
X151317596Y-90239021D01*
X151258895Y-90143789D01*
X151169846Y-90076075D01*
X151165502Y-90074817D01*
X151165500Y-90074816D01*
X151095725Y-90054611D01*
X151062391Y-90044958D01*
X151057885Y-90045348D01*
X151057883Y-90045348D01*
X150955448Y-90054220D01*
X150955446Y-90054221D01*
X150950938Y-90054611D01*
X150850432Y-90103739D01*
X150774352Y-90185755D01*
X150732897Y-90289661D01*
X150732369Y-90336217D01*
X150731716Y-90393789D01*
X150731628Y-90401524D01*
X150105361Y-90401524D01*
X150096895Y-90387789D01*
X150007846Y-90320075D01*
X150003502Y-90318817D01*
X150003500Y-90318816D01*
X149933725Y-90298611D01*
X149900391Y-90288958D01*
X149895885Y-90289348D01*
X149895883Y-90289348D01*
X149793448Y-90298220D01*
X149793446Y-90298221D01*
X149788938Y-90298611D01*
X149688432Y-90347739D01*
X149685355Y-90351056D01*
X149648257Y-90391049D01*
X149612352Y-90429755D01*
X149610677Y-90433952D01*
X149610677Y-90433953D01*
X149604294Y-90449953D01*
X149570897Y-90533661D01*
X149570375Y-90579661D01*
X149569698Y-90639383D01*
X149569628Y-90645524D01*
X149451791Y-90645524D01*
X149457508Y-90618277D01*
X149457508Y-90618275D01*
X149458000Y-90615931D01*
X149458079Y-90609000D01*
X149437596Y-90499021D01*
X149378895Y-90403789D01*
X149289846Y-90336075D01*
X149285502Y-90334817D01*
X149285500Y-90334816D01*
X149230246Y-90318816D01*
X149182391Y-90304958D01*
X149177885Y-90305348D01*
X149177883Y-90305348D01*
X149075448Y-90314220D01*
X149075446Y-90314221D01*
X149070938Y-90314611D01*
X148970432Y-90363739D01*
X148967355Y-90367056D01*
X148945099Y-90391049D01*
X148894352Y-90445755D01*
X148892677Y-90449952D01*
X148892677Y-90449953D01*
X148885976Y-90466750D01*
X148852897Y-90549661D01*
X148852589Y-90576814D01*
X148851731Y-90652480D01*
X148851628Y-90661524D01*
X145686336Y-90661524D01*
X145691062Y-90639000D01*
X145697508Y-90608277D01*
X145697508Y-90608275D01*
X145698000Y-90605931D01*
X145698079Y-90599000D01*
X145677596Y-90489021D01*
X145618895Y-90393789D01*
X145529846Y-90326075D01*
X145525502Y-90324817D01*
X145525500Y-90324816D01*
X145458270Y-90305348D01*
X145422391Y-90294958D01*
X145417885Y-90295348D01*
X145417883Y-90295348D01*
X145315448Y-90304220D01*
X145315446Y-90304221D01*
X145310938Y-90304611D01*
X145210432Y-90353739D01*
X145134352Y-90435755D01*
X145132677Y-90439952D01*
X145132677Y-90439953D01*
X145130362Y-90445755D01*
X145092897Y-90539661D01*
X145092521Y-90572816D01*
X145091695Y-90645644D01*
X145091628Y-90651524D01*
X138810577Y-90651524D01*
X138810577Y-90250157D01*
X140337190Y-90250157D01*
X140340593Y-90257809D01*
X140361576Y-90276735D01*
X140364873Y-90279237D01*
X140562067Y-90404138D01*
X140565738Y-90406049D01*
X140781164Y-90495944D01*
X140785096Y-90497206D01*
X141012588Y-90549517D01*
X141016690Y-90550101D01*
X141249735Y-90563334D01*
X141253871Y-90563219D01*
X141485819Y-90536997D01*
X141489880Y-90536186D01*
X141714090Y-90471258D01*
X141717955Y-90469775D01*
X141928021Y-90367998D01*
X141931584Y-90365883D01*
X142084474Y-90256625D01*
X142088422Y-90250295D01*
X142087421Y-90245974D01*
X141219472Y-89378025D01*
X141212579Y-89375170D01*
X141205686Y-89378025D01*
X140339762Y-90243949D01*
X140337190Y-90250157D01*
X138810577Y-90250157D01*
X138810577Y-89262267D01*
X139811554Y-89262267D01*
X139811865Y-89266401D01*
X139848983Y-89496847D01*
X139849985Y-89500866D01*
X139925404Y-89721778D01*
X139927061Y-89725554D01*
X140038628Y-89930605D01*
X140040901Y-89934052D01*
X140116195Y-90029563D01*
X140122703Y-90033208D01*
X140127627Y-90031820D01*
X140993554Y-89165893D01*
X140996409Y-89159000D01*
X141428749Y-89159000D01*
X141431604Y-89165893D01*
X142298190Y-90032479D01*
X142305083Y-90035334D01*
X142309075Y-90033681D01*
X142425692Y-89867443D01*
X142427774Y-89863867D01*
X142527717Y-89652911D01*
X142529162Y-89649044D01*
X142592131Y-89424278D01*
X142592909Y-89420201D01*
X142617200Y-89187121D01*
X142617331Y-89184821D01*
X142617568Y-89160157D01*
X142617481Y-89157849D01*
X142597667Y-88924329D01*
X142596973Y-88920274D01*
X142538327Y-88694319D01*
X142536954Y-88690421D01*
X142441084Y-88477596D01*
X142439069Y-88473976D01*
X142332880Y-88316247D01*
X145072579Y-88316247D01*
X145072579Y-88592879D01*
X145072788Y-88596064D01*
X145087775Y-88709904D01*
X145089422Y-88716052D01*
X145147405Y-88856033D01*
X145150590Y-88861549D01*
X145242823Y-88981751D01*
X145247328Y-88986256D01*
X145367530Y-89078489D01*
X145373046Y-89081674D01*
X145513029Y-89139657D01*
X145514508Y-89140054D01*
X145520121Y-89138549D01*
X145522579Y-89134292D01*
X145522579Y-88316247D01*
X145822579Y-88316247D01*
X145822579Y-89132005D01*
X145825434Y-89138897D01*
X145829178Y-89140448D01*
X145832129Y-89139657D01*
X145972112Y-89081674D01*
X145977628Y-89078489D01*
X146097830Y-88986256D01*
X146102335Y-88981751D01*
X146194568Y-88861549D01*
X146197753Y-88856033D01*
X146255736Y-88716052D01*
X146257383Y-88709904D01*
X146272370Y-88596064D01*
X146272579Y-88592879D01*
X146272579Y-88316247D01*
X146269724Y-88309355D01*
X146262832Y-88306500D01*
X145832326Y-88306500D01*
X145825434Y-88309355D01*
X145822579Y-88316247D01*
X145522579Y-88316247D01*
X145519724Y-88309355D01*
X145512832Y-88306500D01*
X145082326Y-88306500D01*
X145075434Y-88309355D01*
X145072579Y-88316247D01*
X142332880Y-88316247D01*
X142310761Y-88283393D01*
X142306563Y-88281537D01*
X142299243Y-88284468D01*
X141431604Y-89152107D01*
X141428749Y-89159000D01*
X140996409Y-89159000D01*
X140993554Y-89152107D01*
X140129139Y-88287692D01*
X140122246Y-88284837D01*
X140117233Y-88286913D01*
X140055995Y-88361598D01*
X140053657Y-88365000D01*
X139938177Y-88567869D01*
X139936446Y-88571614D01*
X139856797Y-88791043D01*
X139855721Y-88795033D01*
X139814182Y-89024741D01*
X139813794Y-89028847D01*
X139811554Y-89262267D01*
X138810577Y-89262267D01*
X138810577Y-88067409D01*
X140338233Y-88067409D01*
X140341280Y-88075569D01*
X141205686Y-88939975D01*
X141212579Y-88942830D01*
X141219472Y-88939975D01*
X142084586Y-88074861D01*
X142087441Y-88067968D01*
X142085643Y-88063626D01*
X141954613Y-87966137D01*
X141951105Y-87963962D01*
X141743023Y-87858167D01*
X141739193Y-87856612D01*
X141516259Y-87787389D01*
X141512228Y-87786503D01*
X141280817Y-87755832D01*
X141276699Y-87755638D01*
X141043427Y-87764395D01*
X141039321Y-87764899D01*
X140810863Y-87812834D01*
X140806911Y-87814020D01*
X140589801Y-87899761D01*
X140586090Y-87901603D01*
X140386529Y-88022699D01*
X140383194Y-88025131D01*
X140341110Y-88061651D01*
X140338233Y-88067409D01*
X138810577Y-88067409D01*
X138810577Y-87720121D01*
X145072579Y-87720121D01*
X145072579Y-87996753D01*
X145075434Y-88003645D01*
X145082326Y-88006500D01*
X145512832Y-88006500D01*
X145519724Y-88003645D01*
X145522579Y-87996753D01*
X145522579Y-87180995D01*
X145521632Y-87178708D01*
X145822579Y-87178708D01*
X145822579Y-87996753D01*
X145825434Y-88003645D01*
X145832326Y-88006500D01*
X146262832Y-88006500D01*
X146269724Y-88003645D01*
X146272579Y-87996753D01*
X146272579Y-87720121D01*
X146272370Y-87716936D01*
X146257383Y-87603096D01*
X146255736Y-87596948D01*
X146197753Y-87456967D01*
X146194568Y-87451451D01*
X146102335Y-87331249D01*
X146097830Y-87326744D01*
X145977628Y-87234511D01*
X145972112Y-87231326D01*
X145832129Y-87173343D01*
X145830650Y-87172946D01*
X145825037Y-87174451D01*
X145822579Y-87178708D01*
X145521632Y-87178708D01*
X145519724Y-87174103D01*
X145515980Y-87172552D01*
X145513029Y-87173343D01*
X145373046Y-87231326D01*
X145367530Y-87234511D01*
X145247328Y-87326744D01*
X145242823Y-87331249D01*
X145150590Y-87451451D01*
X145147405Y-87456967D01*
X145089422Y-87596948D01*
X145087775Y-87603096D01*
X145072788Y-87716936D01*
X145072579Y-87720121D01*
X138810577Y-87720121D01*
X138810577Y-87682150D01*
X138812975Y-87667008D01*
X138814465Y-87662424D01*
X138814467Y-87662415D01*
X138815577Y-87659000D01*
X138815734Y-87651461D01*
X138817310Y-87575344D01*
X138818241Y-87566800D01*
X138849127Y-87411524D01*
X144231628Y-87411524D01*
X144270714Y-87516344D01*
X144273714Y-87519729D01*
X144341915Y-87596681D01*
X144341918Y-87596683D01*
X144344915Y-87600065D01*
X144444280Y-87651461D01*
X144555485Y-87663640D01*
X144663619Y-87634969D01*
X144716046Y-87596948D01*
X144750519Y-87571948D01*
X144750520Y-87571947D01*
X144754181Y-87569292D01*
X144815028Y-87475417D01*
X144838000Y-87365931D01*
X144838079Y-87359000D01*
X144817596Y-87249021D01*
X144758895Y-87153789D01*
X144669846Y-87086075D01*
X144665502Y-87084817D01*
X144665500Y-87084816D01*
X144595725Y-87064611D01*
X144562391Y-87054958D01*
X144557885Y-87055348D01*
X144557883Y-87055348D01*
X144455448Y-87064220D01*
X144455446Y-87064221D01*
X144450938Y-87064611D01*
X144350432Y-87113739D01*
X144274352Y-87195755D01*
X144232897Y-87299661D01*
X144232846Y-87304184D01*
X144231827Y-87394013D01*
X144231628Y-87411524D01*
X138849127Y-87411524D01*
X138850782Y-87403206D01*
X138853570Y-87394013D01*
X138869046Y-87356651D01*
X138917209Y-87240376D01*
X138921735Y-87231909D01*
X138943088Y-87199953D01*
X139014122Y-87093643D01*
X139020216Y-87086218D01*
X139137797Y-86968638D01*
X139145222Y-86962544D01*
X139155666Y-86955566D01*
X139283493Y-86870154D01*
X139291955Y-86865632D01*
X139445593Y-86801994D01*
X139454773Y-86799208D01*
X139618381Y-86766665D01*
X139626917Y-86765735D01*
X139700836Y-86764205D01*
X139700837Y-86764205D01*
X139710580Y-86764003D01*
X139710580Y-86761601D01*
X139722969Y-86759003D01*
X141790548Y-86759000D01*
X143661366Y-86758997D01*
X143672576Y-86761151D01*
X143672576Y-86763997D01*
X143697038Y-86763359D01*
X143779038Y-86761220D01*
X143779043Y-86761219D01*
X143781129Y-86761165D01*
X143783174Y-86760758D01*
X143783176Y-86760758D01*
X143991709Y-86719279D01*
X143991711Y-86719278D01*
X143994066Y-86718810D01*
X144194648Y-86635727D01*
X144196648Y-86634390D01*
X144196651Y-86634389D01*
X144373166Y-86516446D01*
X144375167Y-86515109D01*
X144528686Y-86361591D01*
X144649306Y-86181072D01*
X144732390Y-85980490D01*
X144732862Y-85978121D01*
X144774338Y-85769603D01*
X144774746Y-85767554D01*
X144777579Y-85659000D01*
X144776288Y-85655028D01*
X144776288Y-85655025D01*
X144774952Y-85650915D01*
X144772553Y-85635825D01*
X144772225Y-85340054D01*
X144771087Y-84316247D01*
X145072579Y-84316247D01*
X145072579Y-84792879D01*
X145072788Y-84796064D01*
X145087775Y-84909904D01*
X145089422Y-84916052D01*
X145147405Y-85056033D01*
X145150590Y-85061549D01*
X145242823Y-85181751D01*
X145247328Y-85186256D01*
X145367530Y-85278489D01*
X145373046Y-85281674D01*
X145513029Y-85339657D01*
X145514508Y-85340054D01*
X145520121Y-85338549D01*
X145522579Y-85334292D01*
X145522579Y-84316247D01*
X145822579Y-84316247D01*
X145822579Y-85332005D01*
X145825434Y-85338897D01*
X145829178Y-85340448D01*
X145832129Y-85339657D01*
X145972112Y-85281674D01*
X145977628Y-85278489D01*
X146097830Y-85186256D01*
X146102335Y-85181751D01*
X146194568Y-85061549D01*
X146197753Y-85056033D01*
X146255736Y-84916052D01*
X146257383Y-84909904D01*
X146272370Y-84796064D01*
X146272579Y-84792879D01*
X146272579Y-84316247D01*
X146269724Y-84309355D01*
X146262832Y-84306500D01*
X145832326Y-84306500D01*
X145825434Y-84309355D01*
X145822579Y-84316247D01*
X145522579Y-84316247D01*
X145519724Y-84309355D01*
X145512832Y-84306500D01*
X145082326Y-84306500D01*
X145075434Y-84309355D01*
X145072579Y-84316247D01*
X144771087Y-84316247D01*
X144770202Y-83520121D01*
X145072579Y-83520121D01*
X145072579Y-83996753D01*
X145075434Y-84003645D01*
X145082326Y-84006500D01*
X145512832Y-84006500D01*
X145519724Y-84003645D01*
X145522579Y-83996753D01*
X145522579Y-82980995D01*
X145521632Y-82978708D01*
X145822579Y-82978708D01*
X145822579Y-83996753D01*
X145825434Y-84003645D01*
X145832326Y-84006500D01*
X146262832Y-84006500D01*
X146269724Y-84003645D01*
X146272579Y-83996753D01*
X146272579Y-83520121D01*
X146272370Y-83516936D01*
X146257383Y-83403096D01*
X146255736Y-83396948D01*
X146197753Y-83256967D01*
X146194568Y-83251451D01*
X146102335Y-83131249D01*
X146097830Y-83126744D01*
X145977628Y-83034511D01*
X145972112Y-83031326D01*
X145832129Y-82973343D01*
X145830650Y-82972946D01*
X145825037Y-82974451D01*
X145822579Y-82978708D01*
X145521632Y-82978708D01*
X145519724Y-82974103D01*
X145515980Y-82972552D01*
X145513029Y-82973343D01*
X145373046Y-83031326D01*
X145367530Y-83034511D01*
X145247328Y-83126744D01*
X145242823Y-83131249D01*
X145150590Y-83251451D01*
X145147405Y-83256967D01*
X145089422Y-83396948D01*
X145087775Y-83403096D01*
X145072788Y-83516936D01*
X145072579Y-83520121D01*
X144770202Y-83520121D01*
X144769904Y-83251451D01*
X144769713Y-83079222D01*
X144772111Y-83064026D01*
X144773572Y-83059530D01*
X144773573Y-83059526D01*
X144774684Y-83056106D01*
X144775132Y-83034511D01*
X144776417Y-82972450D01*
X144777348Y-82963906D01*
X144809889Y-82800312D01*
X144812677Y-82791119D01*
X144876316Y-82637482D01*
X144880842Y-82629015D01*
X144973229Y-82490749D01*
X144979323Y-82483324D01*
X145096904Y-82365744D01*
X145104329Y-82359650D01*
X145114773Y-82352672D01*
X145242600Y-82267260D01*
X145251062Y-82262738D01*
X145404700Y-82199100D01*
X145413880Y-82196314D01*
X145577488Y-82163771D01*
X145586024Y-82162841D01*
X145659943Y-82161311D01*
X145659944Y-82161311D01*
X145669687Y-82161109D01*
X145669687Y-82158712D01*
X145682086Y-82156115D01*
X146343602Y-82156429D01*
X146378244Y-82170797D01*
X146392579Y-82205429D01*
X146392579Y-88871888D01*
X146392671Y-88872172D01*
X146392718Y-88872766D01*
X146392718Y-88888947D01*
X146397279Y-88895225D01*
X146397280Y-88895227D01*
X146397933Y-88896126D01*
X146404890Y-88909780D01*
X146405233Y-88910834D01*
X146407632Y-88918217D01*
X146413910Y-88922778D01*
X146413911Y-88922779D01*
X146414805Y-88923428D01*
X146425650Y-88934273D01*
X146430862Y-88941447D01*
X146438245Y-88943846D01*
X146439299Y-88944189D01*
X146452953Y-88951146D01*
X146453852Y-88951799D01*
X146453854Y-88951800D01*
X146460132Y-88956361D01*
X146476313Y-88956361D01*
X146476907Y-88956408D01*
X146477191Y-88956500D01*
X156107967Y-88956500D01*
X156108251Y-88956408D01*
X156108845Y-88956361D01*
X156125026Y-88956361D01*
X156131304Y-88951800D01*
X156131306Y-88951799D01*
X156132205Y-88951146D01*
X156145859Y-88944189D01*
X156146913Y-88943846D01*
X156154296Y-88941447D01*
X156159508Y-88934273D01*
X156170353Y-88923428D01*
X156171247Y-88922779D01*
X156171248Y-88922778D01*
X156177526Y-88918217D01*
X156179925Y-88910834D01*
X156180268Y-88909780D01*
X156187225Y-88896126D01*
X156187878Y-88895227D01*
X156187879Y-88895225D01*
X156192440Y-88888947D01*
X156192440Y-88872766D01*
X156192487Y-88872172D01*
X156192579Y-88871888D01*
X156192579Y-88316247D01*
X156312579Y-88316247D01*
X156312579Y-88592879D01*
X156312788Y-88596064D01*
X156327775Y-88709904D01*
X156329422Y-88716052D01*
X156387405Y-88856033D01*
X156390590Y-88861549D01*
X156482823Y-88981751D01*
X156487328Y-88986256D01*
X156607530Y-89078489D01*
X156613046Y-89081674D01*
X156753029Y-89139657D01*
X156754508Y-89140054D01*
X156760121Y-89138549D01*
X156762579Y-89134292D01*
X156762579Y-88316247D01*
X157062579Y-88316247D01*
X157062579Y-89132005D01*
X157065434Y-89138897D01*
X157069178Y-89140448D01*
X157072129Y-89139657D01*
X157212112Y-89081674D01*
X157217628Y-89078489D01*
X157337830Y-88986256D01*
X157342335Y-88981751D01*
X157434568Y-88861549D01*
X157437753Y-88856033D01*
X157495736Y-88716052D01*
X157497383Y-88709904D01*
X157512370Y-88596064D01*
X157512579Y-88592879D01*
X157512579Y-88316247D01*
X157509724Y-88309355D01*
X157502832Y-88306500D01*
X157072326Y-88306500D01*
X157065434Y-88309355D01*
X157062579Y-88316247D01*
X156762579Y-88316247D01*
X156759724Y-88309355D01*
X156752832Y-88306500D01*
X156322326Y-88306500D01*
X156315434Y-88309355D01*
X156312579Y-88316247D01*
X156192579Y-88316247D01*
X156192579Y-87720121D01*
X156312579Y-87720121D01*
X156312579Y-87996753D01*
X156315434Y-88003645D01*
X156322326Y-88006500D01*
X156752832Y-88006500D01*
X156759724Y-88003645D01*
X156762579Y-87996753D01*
X156762579Y-87180995D01*
X156761632Y-87178708D01*
X157062579Y-87178708D01*
X157062579Y-87996753D01*
X157065434Y-88003645D01*
X157072326Y-88006500D01*
X157502832Y-88006500D01*
X157509724Y-88003645D01*
X157512579Y-87996753D01*
X157512579Y-87720121D01*
X157512370Y-87716936D01*
X157497383Y-87603096D01*
X157495736Y-87596948D01*
X157437753Y-87456967D01*
X157434568Y-87451451D01*
X157342335Y-87331249D01*
X157337830Y-87326744D01*
X157217628Y-87234511D01*
X157212112Y-87231326D01*
X157072129Y-87173343D01*
X157070650Y-87172946D01*
X157065037Y-87174451D01*
X157062579Y-87178708D01*
X156761632Y-87178708D01*
X156759724Y-87174103D01*
X156755980Y-87172552D01*
X156753029Y-87173343D01*
X156613046Y-87231326D01*
X156607530Y-87234511D01*
X156487328Y-87326744D01*
X156482823Y-87331249D01*
X156390590Y-87451451D01*
X156387405Y-87456967D01*
X156329422Y-87596948D01*
X156327775Y-87603096D01*
X156312788Y-87716936D01*
X156312579Y-87720121D01*
X156192579Y-87720121D01*
X156192579Y-84316247D01*
X156312579Y-84316247D01*
X156312579Y-84792879D01*
X156312788Y-84796064D01*
X156327775Y-84909904D01*
X156329422Y-84916052D01*
X156387405Y-85056033D01*
X156390590Y-85061549D01*
X156482823Y-85181751D01*
X156487328Y-85186256D01*
X156607530Y-85278489D01*
X156613046Y-85281674D01*
X156753029Y-85339657D01*
X156754508Y-85340054D01*
X156760121Y-85338549D01*
X156762579Y-85334292D01*
X156762579Y-84316247D01*
X157062579Y-84316247D01*
X157062579Y-85332005D01*
X157065434Y-85338897D01*
X157069178Y-85340448D01*
X157072129Y-85339657D01*
X157212112Y-85281674D01*
X157217628Y-85278489D01*
X157337830Y-85186256D01*
X157342335Y-85181751D01*
X157434568Y-85061549D01*
X157437753Y-85056033D01*
X157495736Y-84916052D01*
X157497383Y-84909904D01*
X157512370Y-84796064D01*
X157512579Y-84792879D01*
X157512579Y-84316247D01*
X157509724Y-84309355D01*
X157502832Y-84306500D01*
X157072326Y-84306500D01*
X157065434Y-84309355D01*
X157062579Y-84316247D01*
X156762579Y-84316247D01*
X156759724Y-84309355D01*
X156752832Y-84306500D01*
X156322326Y-84306500D01*
X156315434Y-84309355D01*
X156312579Y-84316247D01*
X156192579Y-84316247D01*
X156192579Y-83520121D01*
X156312579Y-83520121D01*
X156312579Y-83996753D01*
X156315434Y-84003645D01*
X156322326Y-84006500D01*
X156752832Y-84006500D01*
X156759724Y-84003645D01*
X156762579Y-83996753D01*
X156762579Y-82980995D01*
X156761632Y-82978708D01*
X157062579Y-82978708D01*
X157062579Y-83996753D01*
X157065434Y-84003645D01*
X157072326Y-84006500D01*
X157502832Y-84006500D01*
X157509724Y-84003645D01*
X157512579Y-83996753D01*
X157512579Y-83520121D01*
X157512370Y-83516936D01*
X157497383Y-83403096D01*
X157495736Y-83396948D01*
X157437753Y-83256967D01*
X157434568Y-83251451D01*
X157342335Y-83131249D01*
X157337830Y-83126744D01*
X157217628Y-83034511D01*
X157212112Y-83031326D01*
X157072129Y-82973343D01*
X157070650Y-82972946D01*
X157065037Y-82974451D01*
X157062579Y-82978708D01*
X156761632Y-82978708D01*
X156759724Y-82974103D01*
X156755980Y-82972552D01*
X156753029Y-82973343D01*
X156613046Y-83031326D01*
X156607530Y-83034511D01*
X156487328Y-83126744D01*
X156482823Y-83131249D01*
X156390590Y-83251451D01*
X156387405Y-83256967D01*
X156329422Y-83396948D01*
X156327775Y-83403096D01*
X156312788Y-83516936D01*
X156312579Y-83520121D01*
X156192579Y-83520121D01*
X156192579Y-82205429D01*
X156206931Y-82170781D01*
X156241556Y-82156429D01*
X156812380Y-82156158D01*
X156902746Y-82156115D01*
X156915471Y-82158712D01*
G37*
%TD.AperFunction*%
%TD*%
M02*
