%TF.GenerationSoftware,KiCad,Pcbnew,(5.99.0-11145-g173c9a974c)*%
%TF.CreationDate,2021-06-27T16:32:02+02:00*%
%TF.ProjectId,micro,6d696372-6f2e-46b6-9963-61645f706362,rev1.0*%
%TF.SameCoordinates,Original*%
%TF.FileFunction,Profile,NP*%
%FSLAX46Y46*%
G04 Gerber Fmt 4.6, Leading zero omitted, Abs format (unit mm)*
G04 Created by KiCad (PCBNEW (5.99.0-11145-g173c9a974c)) date 2021-06-27 16:32:02*
%MOMM*%
%LPD*%
G01*
G04 APERTURE LIST*
%TA.AperFunction,Profile*%
%ADD10C,0.100000*%
%TD*%
%TA.AperFunction,Profile*%
%ADD11C,0.150000*%
%TD*%
G04 APERTURE END LIST*
D10*
X138666666Y-113440000D02*
G75*
G03*
X138666666Y-113440000I-1666666J0D01*
G01*
X134500000Y-113440000D02*
X139500000Y-113440000D01*
X137000000Y-110940000D02*
X137000000Y-115940000D01*
D11*
X162874579Y-111658987D02*
X139710578Y-111659002D01*
X138710577Y-87659000D02*
G75*
G02*
X139710580Y-86659003I1000000J-3D01*
G01*
X138710577Y-87659000D02*
X138710581Y-110658999D01*
X157915474Y-83056106D02*
X157912582Y-85658997D01*
X156915471Y-82056109D02*
X156092579Y-82056500D01*
X157912582Y-85658997D02*
G75*
G03*
X158912585Y-86658994I1000000J3D01*
G01*
X144669684Y-83056106D02*
G75*
G02*
X145669687Y-82056109I1000000J-3D01*
G01*
X162874581Y-86658988D02*
G75*
G02*
X163874578Y-87658991I-3J-1000000D01*
G01*
X145669687Y-82056109D02*
X146492579Y-82056500D01*
X139710578Y-111659002D02*
G75*
G02*
X138710581Y-110658999I3J1000000D01*
G01*
X144672579Y-85659000D02*
G75*
G02*
X143672576Y-86658997I-1000000J3D01*
G01*
X139710580Y-86659003D02*
X143672576Y-86658997D01*
X163874578Y-87658991D02*
X163874582Y-110658990D01*
X157915474Y-83056106D02*
G75*
G03*
X156915471Y-82056109I-1000000J-3D01*
G01*
X158912585Y-86658994D02*
X162874581Y-86658988D01*
X144669687Y-83056109D02*
X144672579Y-85659000D01*
X163874582Y-110658990D02*
G75*
G02*
X162874579Y-111658987I-1000000J3D01*
G01*
%TO.C,J1*%
X156092579Y-88856500D02*
X156092579Y-82056500D01*
X156092579Y-88856500D02*
X146492579Y-88856500D01*
X146492579Y-88856500D02*
X146492579Y-82056500D01*
%TD*%
M02*
