%TF.GenerationSoftware,KiCad,Pcbnew,(5.99.0-11145-g173c9a974c)*%
%TF.CreationDate,2021-06-27T16:32:02+02:00*%
%TF.ProjectId,micro,6d696372-6f2e-46b6-9963-61645f706362,rev1.0*%
%TF.SameCoordinates,Original*%
%TF.FileFunction,Soldermask,Top*%
%TF.FilePolarity,Negative*%
%FSLAX46Y46*%
G04 Gerber Fmt 4.6, Leading zero omitted, Abs format (unit mm)*
G04 Created by KiCad (PCBNEW (5.99.0-11145-g173c9a974c)) date 2021-06-27 16:32:02*
%MOMM*%
%LPD*%
G01*
G04 APERTURE LIST*
%ADD10C,3.987800*%
%ADD11C,2.250000*%
%ADD12C,0.700000*%
%ADD13R,0.700000X0.700000*%
%ADD14C,1.000000*%
%ADD15C,3.800000*%
%ADD16C,2.600000*%
%ADD17C,1.700000*%
%ADD18O,1.000000X2.200000*%
%ADD19O,1.000000X1.800000*%
G04 APERTURE END LIST*
D10*
%TO.C,MX1*%
X151240000Y-99310000D03*
D11*
X147430000Y-96770000D03*
X153780000Y-94230000D03*
D12*
X149970000Y-104390000D03*
D13*
X152510000Y-104390000D03*
%TD*%
D14*
%TO.C,J7*%
X163872579Y-88894000D03*
X163872579Y-90164000D03*
X163872579Y-91434000D03*
X163872579Y-92704000D03*
X163872579Y-93974000D03*
X163872579Y-95244000D03*
X163872579Y-96514000D03*
X163872579Y-97784000D03*
X163872579Y-99054000D03*
X163872579Y-100324000D03*
X163872579Y-101594000D03*
X163872579Y-102864000D03*
X163872579Y-104134000D03*
X163872579Y-105404000D03*
X163872579Y-106674000D03*
X163872579Y-107944000D03*
%TD*%
%TO.C,J3*%
X154455000Y-111660000D03*
X153185000Y-111660000D03*
%TD*%
%TO.C,J4*%
X149230000Y-111660000D03*
X150500000Y-111660000D03*
X151770000Y-111660000D03*
%TD*%
%TO.C,J5*%
X147090000Y-111670000D03*
X145820000Y-111670000D03*
X144550000Y-111670000D03*
X143280000Y-111670000D03*
%TD*%
%TO.C,J6*%
X138710000Y-105810000D03*
X138710000Y-104540000D03*
X138710000Y-103270000D03*
X138710000Y-102000000D03*
X138710000Y-100730000D03*
%TD*%
D15*
%TO.C,H2*%
X161212579Y-109159000D03*
D16*
X161212579Y-109159000D03*
%TD*%
D15*
%TO.C,H1*%
X141212579Y-89159000D03*
D16*
X141212579Y-89159000D03*
%TD*%
D17*
%TO.C,J2*%
X142504579Y-92371000D03*
X139964579Y-92371000D03*
X142504579Y-94911000D03*
X139964579Y-94911000D03*
X142504579Y-97451000D03*
X139964579Y-97451000D03*
%TD*%
D18*
%TO.C,J1*%
X156912579Y-84156500D03*
D19*
X156912579Y-88156500D03*
D18*
X145672579Y-84156500D03*
D19*
X145672579Y-88156500D03*
%TD*%
M02*
