%TF.GenerationSoftware,KiCad,Pcbnew,6.0.0*%
%TF.CreationDate,2022-01-08T01:14:49+01:00*%
%TF.ProjectId,micro,6d696372-6f2e-46b6-9963-61645f706362,rev1.0*%
%TF.SameCoordinates,Original*%
%TF.FileFunction,Copper,L1,Top*%
%TF.FilePolarity,Positive*%
%FSLAX46Y46*%
G04 Gerber Fmt 4.6, Leading zero omitted, Abs format (unit mm)*
G04 Created by KiCad (PCBNEW 6.0.0) date 2022-01-08 01:14:49*
%MOMM*%
%LPD*%
G01*
G04 APERTURE LIST*
%TA.AperFunction,ConnectorPad*%
%ADD10C,2.400000*%
%TD*%
%TA.AperFunction,ComponentPad*%
%ADD11C,2.350000*%
%TD*%
%TA.AperFunction,ComponentPad*%
%ADD12C,1.000000*%
%TD*%
%TA.AperFunction,ComponentPad*%
%ADD13C,2.250000*%
%TD*%
%TA.AperFunction,SMDPad,CuDef*%
%ADD14C,0.700000*%
%TD*%
%TA.AperFunction,SMDPad,CuDef*%
%ADD15R,0.700000X0.700000*%
%TD*%
%TA.AperFunction,ComponentPad*%
%ADD16C,1.700000*%
%TD*%
%TA.AperFunction,ComponentPad*%
%ADD17C,0.500000*%
%TD*%
%TA.AperFunction,ComponentPad*%
%ADD18O,1.000000X2.200000*%
%TD*%
%TA.AperFunction,ComponentPad*%
%ADD19O,1.000000X1.800000*%
%TD*%
%TA.AperFunction,ViaPad*%
%ADD20C,0.400000*%
%TD*%
%TA.AperFunction,Conductor*%
%ADD21C,0.250000*%
%TD*%
%TA.AperFunction,Conductor*%
%ADD22C,0.100000*%
%TD*%
G04 APERTURE END LIST*
D10*
%TO.P,H2,1,1*%
%TO.N,GND*%
X162161000Y-110028000D03*
D11*
X162161000Y-110028000D03*
%TD*%
D12*
%TO.P,J3,1,Pin_1*%
%TO.N,BLD*%
X154455000Y-111660000D03*
%TO.P,J3,2,Pin_2*%
%TO.N,VCC*%
X153185000Y-111660000D03*
%TD*%
D11*
%TO.P,H1,1,1*%
%TO.N,GND*%
X140425000Y-88293000D03*
D10*
X140425000Y-88293000D03*
%TD*%
D13*
%TO.P,MX1,1,COL*%
%TO.N,COL0*%
X147580000Y-96620000D03*
%TO.P,MX1,2,ROW*%
%TO.N,Net-(D1-Pad2)*%
X153930000Y-94080000D03*
D14*
%TO.P,MX1,3,LED*%
%TO.N,VCC*%
X150120000Y-104240000D03*
D15*
%TO.P,MX1,4,LEDGND*%
%TO.N,Net-(MX1-Pad4)*%
X152660000Y-104240000D03*
%TD*%
D12*
%TO.P,J5,1,Pin_1*%
%TO.N,SDA*%
X147090000Y-111670000D03*
%TO.P,J5,2,Pin_2*%
%TO.N,SCK*%
X145820000Y-111670000D03*
%TO.P,J5,3,Pin_3*%
%TO.N,VCC*%
X144550000Y-111670000D03*
%TO.P,J5,4,Pin_4*%
%TO.N,GND*%
X143280000Y-111670000D03*
%TD*%
%TO.P,J4,1,Pin_1*%
%TO.N,GND*%
X149230000Y-111660000D03*
%TO.P,J4,2,Pin_2*%
%TO.N,RGBO*%
X150500000Y-111660000D03*
%TO.P,J4,3,Pin_3*%
%TO.N,VCC*%
X151770000Y-111660000D03*
%TD*%
D16*
%TO.P,J2,1,MISO*%
%TO.N,ROW3*%
X142504579Y-92371000D03*
%TO.P,J2,2,VCC*%
%TO.N,VCC*%
X139964579Y-92371000D03*
%TO.P,J2,3,SCK*%
%TO.N,ROW1*%
X142504579Y-94911000D03*
%TO.P,J2,4,MOSI*%
%TO.N,ROW2*%
X139964579Y-94911000D03*
%TO.P,J2,5,~{RST}*%
%TO.N,RST*%
X142504579Y-97451000D03*
%TO.P,J2,6,GND*%
%TO.N,GND*%
X139964579Y-97451000D03*
%TD*%
D17*
%TO.P,U2,45,EP*%
%TO.N,GND*%
X144706837Y-101707590D03*
X141383435Y-103369291D03*
X148030239Y-103369291D03*
X146368538Y-101707590D03*
X143045136Y-105030992D03*
X144706837Y-100045889D03*
X144706837Y-103369291D03*
X144706837Y-105030992D03*
X143045136Y-101707590D03*
X146368538Y-105030992D03*
X143045136Y-103369291D03*
X144706837Y-106692693D03*
X146368538Y-103369291D03*
%TD*%
D12*
%TO.P,J6,1,Pin_1*%
%TO.N,COL0*%
X138790000Y-105807000D03*
%TO.P,J6,2,Pin_2*%
%TO.N,COL1*%
X138790000Y-104537000D03*
%TO.P,J6,3,Pin_3*%
%TO.N,COL2*%
X138790000Y-103267000D03*
%TO.P,J6,4,Pin_4*%
%TO.N,COL3*%
X138790000Y-101997000D03*
%TO.P,J6,5,Pin_5*%
%TO.N,COL4*%
X138790000Y-100727000D03*
%TD*%
%TO.P,J7,1,Pin_1*%
%TO.N,ROW0*%
X163792000Y-88894000D03*
%TO.P,J7,2,Pin_2*%
%TO.N,ROW1*%
X163792000Y-90164000D03*
%TO.P,J7,3,Pin_3*%
%TO.N,ROW2*%
X163792000Y-91434000D03*
%TO.P,J7,4,Pin_4*%
%TO.N,ROW3*%
X163792000Y-92704000D03*
%TO.P,J7,5,Pin_5*%
%TO.N,ROW4*%
X163792000Y-93974000D03*
%TO.P,J7,6,Pin_6*%
%TO.N,ROW5*%
X163792000Y-95244000D03*
%TO.P,J7,7,Pin_7*%
%TO.N,ROW6*%
X163792000Y-96514000D03*
%TO.P,J7,8,Pin_8*%
%TO.N,ROW7*%
X163792000Y-97784000D03*
%TO.P,J7,9,Pin_9*%
%TO.N,ROW8*%
X163792000Y-99054000D03*
%TO.P,J7,10,Pin_10*%
%TO.N,ROW9*%
X163792000Y-100324000D03*
%TO.P,J7,11,Pin_11*%
%TO.N,ROW10*%
X163792000Y-101594000D03*
%TO.P,J7,12,Pin_12*%
%TO.N,ROW11*%
X163792000Y-102864000D03*
%TO.P,J7,13,Pin_13*%
%TO.N,ROW12*%
X163792000Y-104134000D03*
%TO.P,J7,14,Pin_14*%
%TO.N,ROW13*%
X163792000Y-105404000D03*
%TO.P,J7,15,Pin_15*%
%TO.N,ROW14*%
X163792000Y-106674000D03*
%TO.P,J7,16,Pin_16*%
%TO.N,ROW15*%
X163792000Y-107944000D03*
%TD*%
D18*
%TO.P,J1,S1,SHIELD*%
%TO.N,GND*%
X156912579Y-84156500D03*
D19*
X156912579Y-88156500D03*
D18*
X145672579Y-84156500D03*
D19*
X145672579Y-88156500D03*
%TD*%
D20*
%TO.N,Net-(C1-Pad1)*%
X153172579Y-91609000D03*
X149152579Y-90609000D03*
%TO.N,GND*%
X146490000Y-98900000D03*
X158490000Y-104080000D03*
X158372579Y-96879000D03*
X143370000Y-98860000D03*
X140790000Y-108660000D03*
X153220000Y-96590000D03*
X149680000Y-92840000D03*
X152840000Y-101290000D03*
X145360000Y-93820000D03*
X151740000Y-104360000D03*
X155822579Y-89339000D03*
X148810000Y-99640000D03*
X154040000Y-104370000D03*
X146802579Y-89589000D03*
X140280000Y-103370000D03*
X153372579Y-108789000D03*
%TO.N,VCC*%
X140472579Y-98721000D03*
X142140000Y-108490000D03*
X145442579Y-97919000D03*
X148020000Y-99380000D03*
X145298579Y-95419000D03*
X150886000Y-104238000D03*
X147110000Y-93780000D03*
X145392579Y-90599000D03*
X143270000Y-89030000D03*
X161340000Y-104930000D03*
%TO.N,Net-(C9-Pad1)*%
X147430000Y-100000000D03*
X153560000Y-100850000D03*
%TO.N,Net-(D1-Pad2)*%
X151952579Y-95669000D03*
%TO.N,RGB*%
X153730000Y-102511900D03*
X145313948Y-98642576D03*
%TO.N,RGBO*%
X158480000Y-107208060D03*
%TO.N,Net-(J1-PadA5)*%
X155458579Y-91609000D03*
X149870579Y-90593000D03*
%TO.N,Net-(J1-PadA6)*%
X151982579Y-90639000D03*
X151032579Y-90349000D03*
%TO.N,Net-(J1-PadB5)*%
X153172579Y-90593000D03*
X155458579Y-90847000D03*
%TO.N,RST*%
X149511069Y-104465955D03*
%TO.N,ROW0*%
X150632579Y-95673000D03*
X148520000Y-100940000D03*
%TO.N,ROW3*%
X149552579Y-103129000D03*
%TO.N,ROW2*%
X149962579Y-102639000D03*
%TO.N,ROW1*%
X148952579Y-101499000D03*
%TO.N,COL0*%
X142140000Y-99640000D03*
%TO.N,ROW9*%
X141712579Y-106349000D03*
%TO.N,ROW10*%
X141772579Y-106999000D03*
%TO.N,ROW12*%
X142530000Y-107670000D03*
%TO.N,ROW11*%
X142452579Y-107029000D03*
%TO.N,ROW13*%
X146670000Y-107460000D03*
%TO.N,ROW14*%
X146242579Y-107979000D03*
%TO.N,ROW4*%
X142830000Y-99340000D03*
%TO.N,ROW5*%
X140322579Y-104929000D03*
%TO.N,ROW6*%
X140292579Y-105669000D03*
%TO.N,ROW7*%
X141012579Y-105629000D03*
%TO.N,ROW8*%
X141052579Y-106349000D03*
%TO.N,COL1*%
X141730000Y-100260000D03*
%TO.N,COL2*%
X141340000Y-100710000D03*
%TO.N,COL3*%
X140900000Y-100320000D03*
%TO.N,COL4*%
X140250000Y-100340000D03*
%TO.N,ROW15*%
X145840000Y-108450000D03*
%TO.N,Net-(MX1-Pad4)*%
X153384000Y-104259000D03*
X157500000Y-110350000D03*
%TD*%
D21*
%TO.N,Net-(C1-Pad1)*%
X153112579Y-91549000D02*
X150092579Y-91549000D01*
X153172579Y-91609000D02*
X153112579Y-91549000D01*
X150092579Y-91549000D02*
X149152579Y-90609000D01*
%TO.N,VCC*%
X150886000Y-104238000D02*
X150122000Y-104238000D01*
X146179000Y-97919000D02*
X145442579Y-97919000D01*
X147640000Y-99380000D02*
X146179000Y-97919000D01*
X148020000Y-99380000D02*
X147640000Y-99380000D01*
D22*
%TO.N,Net-(C9-Pad1)*%
X153709991Y-100999991D02*
X153709991Y-102010009D01*
X153257640Y-102462360D02*
X151128852Y-102462360D01*
X153709991Y-102010009D02*
X153257640Y-102462360D01*
X151128852Y-102462360D02*
X148666492Y-100000000D01*
X148666492Y-100000000D02*
X147430000Y-100000000D01*
X153560000Y-100850000D02*
X153709991Y-100999991D01*
%TO.N,Net-(D1-Pad2)*%
X151952579Y-95669000D02*
X152332579Y-95669000D01*
X152332579Y-95669000D02*
X153762579Y-94239000D01*
%TO.N,RGB*%
X151046208Y-102661880D02*
X153580020Y-102661880D01*
X145313948Y-98642576D02*
X147261861Y-100590489D01*
X148974817Y-100590489D02*
X151046208Y-102661880D01*
X147261861Y-100590489D02*
X148974817Y-100590489D01*
X153580020Y-102661880D02*
X153730000Y-102511900D01*
%TO.N,RGBO*%
X147300000Y-107975907D02*
X147300000Y-108420000D01*
X158330020Y-107058080D02*
X148217827Y-107058080D01*
X147300000Y-108420000D02*
X150488975Y-111608975D01*
X158480000Y-107208060D02*
X158330020Y-107058080D01*
X148217827Y-107058080D02*
X147300000Y-107975907D01*
%TO.N,Net-(J1-PadA5)*%
X154950579Y-91101000D02*
X155458579Y-91609000D01*
X150378579Y-91101000D02*
X154950579Y-91101000D01*
X149870579Y-90593000D02*
X150378579Y-91101000D01*
%TO.N,Net-(J1-PadA6)*%
X151692579Y-90349000D02*
X151032579Y-90349000D01*
X151982579Y-90639000D02*
X151692579Y-90349000D01*
%TO.N,Net-(J1-PadB5)*%
X153172579Y-90593000D02*
X155204579Y-90593000D01*
X155204579Y-90593000D02*
X155458579Y-90847000D01*
%TO.N,ROW0*%
X155792579Y-101701159D02*
X162264988Y-95228750D01*
X154632338Y-102861400D02*
X154573784Y-102861400D01*
X149042164Y-100940000D02*
X150963564Y-102861400D01*
X151019000Y-95673000D02*
X150632579Y-95673000D01*
X154573784Y-102861400D02*
X153909511Y-102197127D01*
X150963564Y-102861400D02*
X154632338Y-102861400D01*
X162664028Y-92807749D02*
X162664028Y-90054530D01*
X148520000Y-100940000D02*
X149042164Y-100940000D01*
X162264988Y-95228750D02*
X162264988Y-93206789D01*
X162664028Y-90054530D02*
X163824558Y-88894000D01*
X153909511Y-98563511D02*
X151019000Y-95673000D01*
X154632338Y-102861400D02*
X155792579Y-101701159D01*
X162264988Y-93206789D02*
X162664028Y-92807749D01*
X153909511Y-102197127D02*
X153909511Y-98563511D01*
%TO.N,ROW3*%
X154880270Y-103459960D02*
X162863548Y-95476682D01*
X162863548Y-95476682D02*
X162863548Y-93501010D01*
X149552579Y-103129000D02*
X149883539Y-103459960D01*
X149883539Y-103459960D02*
X154880270Y-103459960D01*
X162863548Y-93501010D02*
X163660558Y-92704000D01*
%TO.N,ROW2*%
X150584019Y-103260440D02*
X154797626Y-103260440D01*
X162664028Y-95394038D02*
X162664028Y-93372077D01*
X149962579Y-102639000D02*
X150584019Y-103260440D01*
X163063068Y-92973037D02*
X163063068Y-92031490D01*
X154797626Y-103260440D02*
X162664028Y-95394038D01*
X162664028Y-93372077D02*
X163063068Y-92973037D01*
X163063068Y-92031490D02*
X163660558Y-91434000D01*
%TO.N,ROW1*%
X162863548Y-90911010D02*
X162863548Y-92890393D01*
X149319000Y-101499000D02*
X148952579Y-101499000D01*
X162464508Y-93289433D02*
X162464508Y-95311394D01*
X162863548Y-92890393D02*
X162464508Y-93289433D01*
X162464508Y-95311394D02*
X154714982Y-103060920D01*
X150880920Y-103060920D02*
X149319000Y-101499000D01*
X154714982Y-103060920D02*
X150880920Y-103060920D01*
X163635558Y-90139000D02*
X162863548Y-90911010D01*
%TO.N,COL0*%
X140857461Y-101259031D02*
X139838550Y-102277942D01*
X142140000Y-99535716D02*
X143110480Y-98565236D01*
X142140000Y-99640000D02*
X142079511Y-99700489D01*
X142079511Y-99700489D02*
X142079511Y-100746936D01*
X142079511Y-100746936D02*
X141567416Y-101259031D01*
X141567416Y-101259031D02*
X140857461Y-101259031D01*
X139838550Y-102431325D02*
X139639031Y-102630844D01*
X143110480Y-98565236D02*
X143124764Y-98565236D01*
X139838550Y-102277942D02*
X139838550Y-102431325D01*
X139639031Y-105007992D02*
X138840023Y-105807000D01*
X144911000Y-96779000D02*
X147412579Y-96779000D01*
X143124764Y-98565236D02*
X144911000Y-96779000D01*
X139639031Y-102630844D02*
X139639031Y-105007992D01*
X142140000Y-99640000D02*
X142140000Y-99535716D01*
%TO.N,ROW9*%
X162464511Y-104483555D02*
X162739960Y-104208106D01*
X162008560Y-105661440D02*
X162464508Y-105205492D01*
X142400139Y-105661440D02*
X162008560Y-105661440D01*
X162739960Y-104208106D02*
X162739960Y-102232435D01*
X162739960Y-102232435D02*
X163142489Y-101829906D01*
X163142489Y-101829906D02*
X163142489Y-100842069D01*
X141712579Y-106349000D02*
X142400139Y-105661440D01*
X163142489Y-100842069D02*
X163660558Y-100324000D01*
X162464508Y-105205492D02*
X162464511Y-104483555D01*
%TO.N,ROW10*%
X162939480Y-104290750D02*
X162939480Y-102315078D01*
X142910619Y-105860960D02*
X162091204Y-105860960D01*
X162091204Y-105860960D02*
X162664027Y-105288137D01*
X162939480Y-102315078D02*
X163660558Y-101594000D01*
X162664030Y-104566200D02*
X162939480Y-104290750D01*
X141772579Y-106999000D02*
X142910619Y-105860960D01*
X162664027Y-105288137D02*
X162664030Y-104566200D01*
%TO.N,ROW12*%
X163063068Y-104731490D02*
X163660558Y-104134000D01*
X163063067Y-105453425D02*
X163063068Y-104731490D01*
X143940000Y-106260000D02*
X162256492Y-106260000D01*
X142530000Y-107670000D02*
X143940000Y-106260000D01*
X162256492Y-106260000D02*
X163063067Y-105453425D01*
%TO.N,ROW11*%
X162863547Y-105370781D02*
X162863549Y-104648845D01*
X142452579Y-107029000D02*
X143421099Y-106060480D01*
X163139000Y-103385558D02*
X163660558Y-102864000D01*
X143421099Y-106060480D02*
X162173848Y-106060480D01*
X162863549Y-104648845D02*
X163139000Y-104373394D01*
X162173848Y-106060480D02*
X162863547Y-105370781D01*
X163139000Y-104373394D02*
X163139000Y-103385558D01*
%TO.N,ROW13*%
X146670000Y-107460000D02*
X146969415Y-107460000D01*
X163394656Y-105404000D02*
X163660558Y-105404000D01*
X147969895Y-106459520D02*
X162339137Y-106459519D01*
X162339137Y-106459519D02*
X163394656Y-105404000D01*
X146969415Y-107460000D02*
X147969895Y-106459520D01*
%TO.N,ROW14*%
X148052539Y-106659040D02*
X162741201Y-106659038D01*
X163645598Y-106659040D02*
X163660558Y-106674000D01*
X146732579Y-107979000D02*
X148052539Y-106659040D01*
X162741201Y-106659038D02*
X162741203Y-106659040D01*
X162741203Y-106659040D02*
X163645598Y-106659040D01*
X146242579Y-107979000D02*
X146732579Y-107979000D01*
%TO.N,ROW4*%
X163063068Y-95559326D02*
X163063068Y-94571490D01*
X154962914Y-103659480D02*
X163063068Y-95559326D01*
X149588775Y-103659480D02*
X154962914Y-103659480D01*
X145729000Y-99340000D02*
X149203068Y-102814068D01*
X163063068Y-94571490D02*
X163660558Y-93974000D01*
X149203068Y-103273773D02*
X149588775Y-103659480D01*
X142830000Y-99340000D02*
X145729000Y-99340000D01*
X149203068Y-102814068D02*
X149203068Y-103273773D01*
%TO.N,ROW5*%
X148312165Y-104327838D02*
X148803799Y-104819471D01*
X148995696Y-104819471D02*
X154085087Y-104819471D01*
X148803799Y-104819471D02*
X148995696Y-104819471D01*
X140322579Y-104929000D02*
X140368579Y-104883000D01*
X154085087Y-104819471D02*
X163660558Y-95244000D01*
X142196868Y-104210961D02*
X148195290Y-104210962D01*
X141194251Y-104883000D02*
X141866294Y-104210960D01*
X148195290Y-104210962D02*
X148312165Y-104327838D01*
X141866294Y-104210960D02*
X142196868Y-104210961D01*
X140368579Y-104883000D02*
X141194251Y-104883000D01*
%TO.N,ROW6*%
X140292579Y-105669000D02*
X140871579Y-105090000D01*
X141269415Y-105090000D02*
X141948936Y-104410480D01*
X142114224Y-104410481D02*
X148112645Y-104410481D01*
X140871579Y-105090000D02*
X141269415Y-105090000D01*
X148721155Y-105018991D02*
X154167731Y-105018991D01*
X162980423Y-96206299D02*
X163352857Y-96206299D01*
X163352857Y-96206299D02*
X163660558Y-96514000D01*
X141948936Y-104410480D02*
X142114224Y-104410481D01*
X148112645Y-104410481D02*
X148721155Y-105018991D01*
X154167731Y-105018991D02*
X162980423Y-96206299D01*
%TO.N,ROW7*%
X163660558Y-97360558D02*
X163660558Y-97784000D01*
X148638512Y-105218511D02*
X154250374Y-105218511D01*
X162778885Y-96690000D02*
X162990000Y-96690000D01*
X154250374Y-105218511D02*
X162778885Y-96690000D01*
X148030000Y-104610000D02*
X148638512Y-105218511D01*
X141012579Y-105629000D02*
X142031579Y-104610000D01*
X142031579Y-104610000D02*
X148030000Y-104610000D01*
X162990000Y-96690000D02*
X163660558Y-97360558D01*
%TO.N,ROW8*%
X162942969Y-99771589D02*
X163660558Y-99054000D01*
X162942969Y-101747262D02*
X162942969Y-99771589D01*
X162540440Y-102149791D02*
X162942969Y-101747262D01*
X161925916Y-105461920D02*
X162264989Y-105122847D01*
X162540440Y-104125462D02*
X162540440Y-102149791D01*
X141939659Y-105461920D02*
X161925916Y-105461920D01*
X141052579Y-106349000D02*
X141939659Y-105461920D01*
X162264992Y-104400910D02*
X162540440Y-104125462D01*
X162264989Y-105122847D02*
X162264992Y-104400910D01*
%TO.N,COL1*%
X140774817Y-101059511D02*
X139639031Y-102195297D01*
X141730000Y-100260000D02*
X141730000Y-100814284D01*
X139639031Y-102195297D02*
X139639030Y-102348682D01*
X139439511Y-103937512D02*
X138840023Y-104537000D01*
X139639030Y-102348682D02*
X139439511Y-102548201D01*
X141484773Y-101059511D02*
X140774817Y-101059511D01*
X141730000Y-100814284D02*
X141484773Y-101059511D01*
X139439511Y-102548201D02*
X139439511Y-103937512D01*
%TO.N,COL2*%
X141340000Y-100710000D02*
X140842164Y-100710000D01*
X139110000Y-102836000D02*
X138840023Y-103105977D01*
X139439511Y-102266037D02*
X139110000Y-102595548D01*
X139439511Y-102112653D02*
X139439511Y-102266037D01*
X138840023Y-103105977D02*
X138840023Y-103267000D01*
X140842164Y-100710000D02*
X139439511Y-102112653D01*
X139110000Y-102595548D02*
X139110000Y-102836000D01*
%TO.N,COL3*%
X140900000Y-100370000D02*
X139270000Y-102000000D01*
X140900000Y-100320000D02*
X140900000Y-100370000D01*
X139270000Y-102000000D02*
X138760599Y-102000000D01*
%TO.N,COL4*%
X139727836Y-101260000D02*
X139290599Y-101260000D01*
X139290599Y-101260000D02*
X138760599Y-100730000D01*
X140250000Y-100737836D02*
X139727836Y-101260000D01*
X140250000Y-100340000D02*
X140250000Y-100737836D01*
%TO.N,ROW15*%
X163660558Y-107650558D02*
X163660558Y-107944000D01*
X148135183Y-106858560D02*
X162658559Y-106858560D01*
X162658559Y-106858560D02*
X162659520Y-106859520D01*
X146543743Y-108450000D02*
X148135183Y-106858560D01*
X145840000Y-108450000D02*
X146543743Y-108450000D01*
X162869520Y-106859520D02*
X163660558Y-107650558D01*
X162659520Y-106859520D02*
X162869520Y-106859520D01*
%TO.N,Net-(MX1-Pad4)*%
X153384000Y-104259000D02*
X153365000Y-104240000D01*
X153365000Y-104240000D02*
X152660000Y-104240000D01*
%TD*%
%TA.AperFunction,Conductor*%
%TO.N,GND*%
G36*
X139962212Y-105103917D02*
G01*
X139992777Y-105163905D01*
X139992780Y-105163908D01*
X139994529Y-105167342D01*
X140082002Y-105254815D01*
X140096354Y-105289463D01*
X140082002Y-105324111D01*
X140069600Y-105333122D01*
X140054237Y-105340950D01*
X139964529Y-105430658D01*
X139906933Y-105543696D01*
X139906330Y-105547501D01*
X139906330Y-105547502D01*
X139900427Y-105584773D01*
X139887087Y-105669000D01*
X139906933Y-105794304D01*
X139922389Y-105824637D01*
X139959809Y-105898078D01*
X139964529Y-105907342D01*
X140054237Y-105997050D01*
X140057670Y-105998799D01*
X140057671Y-105998800D01*
X140101143Y-106020950D01*
X140167275Y-106054646D01*
X140171080Y-106055249D01*
X140171081Y-106055249D01*
X140288772Y-106073889D01*
X140292579Y-106074492D01*
X140296386Y-106073889D01*
X140414077Y-106055249D01*
X140414078Y-106055249D01*
X140417883Y-106054646D01*
X140484015Y-106020950D01*
X140527487Y-105998800D01*
X140527488Y-105998799D01*
X140530921Y-105997050D01*
X140620629Y-105907342D01*
X140625083Y-105898601D01*
X140653602Y-105874247D01*
X140690990Y-105877192D01*
X140703389Y-105886202D01*
X140774237Y-105957050D01*
X140777670Y-105958799D01*
X140782978Y-105961504D01*
X140807332Y-105990023D01*
X140804387Y-106027411D01*
X140795377Y-106039810D01*
X140724529Y-106110658D01*
X140666933Y-106223696D01*
X140647087Y-106349000D01*
X140647690Y-106352807D01*
X140655863Y-106404407D01*
X140666933Y-106474304D01*
X140724529Y-106587342D01*
X140814237Y-106677050D01*
X140817670Y-106678799D01*
X140817671Y-106678800D01*
X140867129Y-106704000D01*
X140927275Y-106734646D01*
X140931080Y-106735249D01*
X140931081Y-106735249D01*
X141048772Y-106753889D01*
X141052579Y-106754492D01*
X141056386Y-106753889D01*
X141174077Y-106735249D01*
X141174078Y-106735249D01*
X141177883Y-106734646D01*
X141238029Y-106704000D01*
X141287487Y-106678800D01*
X141287488Y-106678799D01*
X141290921Y-106677050D01*
X141347931Y-106620040D01*
X141382579Y-106605688D01*
X141417227Y-106620040D01*
X141466539Y-106669352D01*
X141480891Y-106704000D01*
X141466539Y-106738648D01*
X141444529Y-106760658D01*
X141386933Y-106873696D01*
X141367087Y-106999000D01*
X141367690Y-107002807D01*
X141384821Y-107110967D01*
X141386933Y-107124304D01*
X141408038Y-107165725D01*
X141436538Y-107221658D01*
X141444529Y-107237342D01*
X141534237Y-107327050D01*
X141537670Y-107328799D01*
X141537671Y-107328800D01*
X141586271Y-107353563D01*
X141647275Y-107384646D01*
X141651080Y-107385249D01*
X141651081Y-107385249D01*
X141768772Y-107403889D01*
X141772579Y-107404492D01*
X141776386Y-107403889D01*
X141894077Y-107385249D01*
X141894078Y-107385249D01*
X141897883Y-107384646D01*
X141958887Y-107353563D01*
X142007487Y-107328800D01*
X142007488Y-107328799D01*
X142010921Y-107327050D01*
X142062931Y-107275040D01*
X142097579Y-107260688D01*
X142132227Y-107275040D01*
X142210750Y-107353563D01*
X142225102Y-107388211D01*
X142210749Y-107422859D01*
X142201950Y-107431658D01*
X142200201Y-107435091D01*
X142200200Y-107435092D01*
X142189449Y-107456193D01*
X142144354Y-107544696D01*
X142143751Y-107548501D01*
X142143751Y-107548502D01*
X142136869Y-107591956D01*
X142124508Y-107670000D01*
X142144354Y-107795304D01*
X142201950Y-107908342D01*
X142291658Y-107998050D01*
X142295091Y-107999799D01*
X142295092Y-107999800D01*
X142348177Y-108026848D01*
X142404696Y-108055646D01*
X142408501Y-108056249D01*
X142408502Y-108056249D01*
X142526193Y-108074889D01*
X142530000Y-108075492D01*
X142533807Y-108074889D01*
X142651498Y-108056249D01*
X142651499Y-108056249D01*
X142655304Y-108055646D01*
X142711823Y-108026848D01*
X142764908Y-107999800D01*
X142764909Y-107999799D01*
X142768342Y-107998050D01*
X142858050Y-107908342D01*
X142915646Y-107795304D01*
X142935492Y-107670000D01*
X142934889Y-107666191D01*
X142932393Y-107650430D01*
X142941149Y-107613964D01*
X142946142Y-107608118D01*
X143529740Y-107024520D01*
X144591180Y-107024520D01*
X144592259Y-107027127D01*
X144593895Y-107027961D01*
X144601143Y-107030315D01*
X144703030Y-107046453D01*
X144710644Y-107046453D01*
X144812531Y-107030315D01*
X144818269Y-107028451D01*
X144822692Y-107023272D01*
X144822471Y-107020459D01*
X144713730Y-106911718D01*
X144706837Y-106908863D01*
X144699944Y-106911718D01*
X144594035Y-107017627D01*
X144591180Y-107024520D01*
X143529740Y-107024520D01*
X144029408Y-106524852D01*
X144064056Y-106510500D01*
X144326894Y-106510500D01*
X144361542Y-106524852D01*
X144375894Y-106559500D01*
X144371974Y-106575831D01*
X144372760Y-106576086D01*
X144369215Y-106586995D01*
X144353077Y-106688886D01*
X144353077Y-106696500D01*
X144369215Y-106798387D01*
X144371079Y-106804125D01*
X144376258Y-106808548D01*
X144379071Y-106808327D01*
X144662546Y-106524852D01*
X144697194Y-106510500D01*
X144716480Y-106510500D01*
X144751128Y-106524852D01*
X145031771Y-106805495D01*
X145038664Y-106808350D01*
X145041271Y-106807271D01*
X145042105Y-106805635D01*
X145044459Y-106798387D01*
X145060597Y-106696500D01*
X145060597Y-106688886D01*
X145044459Y-106586995D01*
X145040914Y-106576086D01*
X145042630Y-106575528D01*
X145040180Y-106544352D01*
X145064540Y-106515838D01*
X145086780Y-106510500D01*
X147446359Y-106510500D01*
X147481007Y-106524852D01*
X147495359Y-106559500D01*
X147481007Y-106594148D01*
X146956611Y-107118545D01*
X146921963Y-107132897D01*
X146899720Y-107127557D01*
X146795304Y-107074354D01*
X146791499Y-107073751D01*
X146791498Y-107073751D01*
X146673807Y-107055111D01*
X146670000Y-107054508D01*
X146666193Y-107055111D01*
X146548502Y-107073751D01*
X146548501Y-107073751D01*
X146544696Y-107074354D01*
X146488177Y-107103152D01*
X146435092Y-107130200D01*
X146435091Y-107130201D01*
X146431658Y-107131950D01*
X146341950Y-107221658D01*
X146340201Y-107225091D01*
X146340200Y-107225092D01*
X146318673Y-107267342D01*
X146284354Y-107334696D01*
X146283751Y-107338501D01*
X146283751Y-107338502D01*
X146270390Y-107422861D01*
X146264508Y-107460000D01*
X146265111Y-107463807D01*
X146273844Y-107518945D01*
X146265089Y-107555411D01*
X146233112Y-107575007D01*
X146121081Y-107592751D01*
X146121080Y-107592751D01*
X146117275Y-107593354D01*
X146076826Y-107613964D01*
X146007671Y-107649200D01*
X146007670Y-107649201D01*
X146004237Y-107650950D01*
X145914529Y-107740658D01*
X145856933Y-107853696D01*
X145837087Y-107979000D01*
X145837690Y-107982807D01*
X145837690Y-107982809D01*
X145839614Y-107994959D01*
X145830858Y-108031426D01*
X145798882Y-108051020D01*
X145718502Y-108063751D01*
X145718501Y-108063751D01*
X145714696Y-108064354D01*
X145694020Y-108074889D01*
X145605092Y-108120200D01*
X145605091Y-108120201D01*
X145601658Y-108121950D01*
X145511950Y-108211658D01*
X145454354Y-108324696D01*
X145453751Y-108328501D01*
X145453751Y-108328502D01*
X145439259Y-108420000D01*
X145434508Y-108450000D01*
X145454354Y-108575304D01*
X145511950Y-108688342D01*
X145601658Y-108778050D01*
X145605091Y-108779799D01*
X145605092Y-108779800D01*
X145647051Y-108801179D01*
X145714696Y-108835646D01*
X145718501Y-108836249D01*
X145718502Y-108836249D01*
X145836193Y-108854889D01*
X145840000Y-108855492D01*
X145843807Y-108854889D01*
X145961498Y-108836249D01*
X145961499Y-108836249D01*
X145965304Y-108835646D01*
X146032949Y-108801179D01*
X146074908Y-108779800D01*
X146074909Y-108779799D01*
X146078342Y-108778050D01*
X146141540Y-108714852D01*
X146176188Y-108700500D01*
X146514246Y-108700500D01*
X146523803Y-108701442D01*
X146543743Y-108705408D01*
X146641484Y-108685966D01*
X146681555Y-108659191D01*
X146724344Y-108630601D01*
X146735642Y-108613692D01*
X146741736Y-108606267D01*
X146961886Y-108386117D01*
X146996534Y-108371765D01*
X147031182Y-108386117D01*
X147044795Y-108418980D01*
X147044592Y-108420000D01*
X147064034Y-108517741D01*
X147073393Y-108531747D01*
X147119399Y-108600601D01*
X147123410Y-108603281D01*
X147136308Y-108611899D01*
X147143733Y-108617993D01*
X149578706Y-111052967D01*
X149593058Y-111087615D01*
X149578706Y-111122263D01*
X149544058Y-111136615D01*
X149525307Y-111132885D01*
X149389600Y-111076674D01*
X149383447Y-111075025D01*
X149233183Y-111055242D01*
X149226817Y-111055242D01*
X149076553Y-111075025D01*
X149070400Y-111076674D01*
X148930382Y-111134671D01*
X148929019Y-111135458D01*
X148926108Y-111140499D01*
X148927380Y-111145248D01*
X149157479Y-111375347D01*
X149171831Y-111409995D01*
X149157479Y-111444643D01*
X149122831Y-111458995D01*
X148837159Y-111458995D01*
X148802511Y-111444643D01*
X148716866Y-111358998D01*
X148709973Y-111356143D01*
X148706221Y-111357697D01*
X148704671Y-111360382D01*
X148676354Y-111428746D01*
X148649836Y-111455265D01*
X148631084Y-111458995D01*
X147793013Y-111458995D01*
X147758365Y-111444643D01*
X147747176Y-111427315D01*
X147716390Y-111345842D01*
X147716389Y-111345841D01*
X147715345Y-111343077D01*
X147636075Y-111227739D01*
X147620987Y-111205786D01*
X147619312Y-111203349D01*
X147617107Y-111201384D01*
X147617104Y-111201381D01*
X147494930Y-111092528D01*
X147494929Y-111092527D01*
X147492721Y-111090560D01*
X147342881Y-111011224D01*
X147340023Y-111010506D01*
X147340020Y-111010505D01*
X147231728Y-110983304D01*
X147178441Y-110969919D01*
X147092311Y-110969468D01*
X147011848Y-110969046D01*
X147011844Y-110969046D01*
X147008895Y-110969031D01*
X147006026Y-110969720D01*
X147006024Y-110969720D01*
X146949445Y-110983304D01*
X146844032Y-111008612D01*
X146836298Y-111012604D01*
X146712744Y-111076375D01*
X146693369Y-111086375D01*
X146565604Y-111197831D01*
X146563906Y-111200246D01*
X146563905Y-111200248D01*
X146494871Y-111298474D01*
X146463207Y-111318569D01*
X146426607Y-111310388D01*
X146414402Y-111298055D01*
X146349312Y-111203349D01*
X146347107Y-111201384D01*
X146347104Y-111201381D01*
X146224930Y-111092528D01*
X146224929Y-111092527D01*
X146222721Y-111090560D01*
X146072881Y-111011224D01*
X146070023Y-111010506D01*
X146070020Y-111010505D01*
X145961728Y-110983304D01*
X145908441Y-110969919D01*
X145822311Y-110969468D01*
X145741848Y-110969046D01*
X145741844Y-110969046D01*
X145738895Y-110969031D01*
X145736026Y-110969720D01*
X145736024Y-110969720D01*
X145679445Y-110983304D01*
X145574032Y-111008612D01*
X145566298Y-111012604D01*
X145442744Y-111076375D01*
X145423369Y-111086375D01*
X145295604Y-111197831D01*
X145293906Y-111200246D01*
X145293905Y-111200248D01*
X145224871Y-111298474D01*
X145193207Y-111318569D01*
X145156607Y-111310388D01*
X145144402Y-111298055D01*
X145079312Y-111203349D01*
X145077107Y-111201384D01*
X145077104Y-111201381D01*
X144954930Y-111092528D01*
X144954929Y-111092527D01*
X144952721Y-111090560D01*
X144802881Y-111011224D01*
X144800023Y-111010506D01*
X144800020Y-111010505D01*
X144691728Y-110983304D01*
X144638441Y-110969919D01*
X144552311Y-110969468D01*
X144471848Y-110969046D01*
X144471844Y-110969046D01*
X144468895Y-110969031D01*
X144466026Y-110969720D01*
X144466024Y-110969720D01*
X144409445Y-110983304D01*
X144304032Y-111008612D01*
X144296298Y-111012604D01*
X144172744Y-111076375D01*
X144153369Y-111086375D01*
X144025604Y-111197831D01*
X144023906Y-111200246D01*
X144023905Y-111200248D01*
X143985551Y-111254821D01*
X143928113Y-111336547D01*
X143909958Y-111383111D01*
X143906060Y-111393109D01*
X143880102Y-111420177D01*
X143842607Y-111420962D01*
X143815137Y-111394060D01*
X143805330Y-111370383D01*
X143804543Y-111369019D01*
X143799501Y-111366108D01*
X143794752Y-111367380D01*
X143717489Y-111444643D01*
X143682841Y-111458995D01*
X143397169Y-111458995D01*
X143362521Y-111444643D01*
X143348169Y-111409995D01*
X143362521Y-111375347D01*
X143581002Y-111156866D01*
X143583857Y-111149973D01*
X143582303Y-111146221D01*
X143579617Y-111144670D01*
X143439600Y-111086674D01*
X143433447Y-111085025D01*
X143283183Y-111065242D01*
X143276817Y-111065242D01*
X143126553Y-111085025D01*
X143120400Y-111086674D01*
X142980382Y-111144671D01*
X142979019Y-111145458D01*
X142976108Y-111150499D01*
X142977380Y-111155248D01*
X143197479Y-111375347D01*
X143211831Y-111409995D01*
X143197479Y-111444643D01*
X143162831Y-111458995D01*
X142877159Y-111458995D01*
X142842511Y-111444643D01*
X142766866Y-111368998D01*
X142759973Y-111366143D01*
X142756221Y-111367697D01*
X142754671Y-111370380D01*
X142730495Y-111428747D01*
X142703976Y-111455265D01*
X142685225Y-111458995D01*
X139831570Y-111458996D01*
X139818287Y-111458996D01*
X139807306Y-111457750D01*
X139795736Y-111455089D01*
X139795734Y-111455089D01*
X139790359Y-111453853D01*
X139782144Y-111455712D01*
X139766526Y-111456684D01*
X139766090Y-111456641D01*
X139644265Y-111444642D01*
X139638732Y-111444097D01*
X139629311Y-111442223D01*
X139488474Y-111399500D01*
X139479599Y-111395824D01*
X139349799Y-111326444D01*
X139341813Y-111321107D01*
X139228051Y-111227744D01*
X139221258Y-111220952D01*
X139127888Y-111107180D01*
X139122552Y-111099193D01*
X139053174Y-110969396D01*
X139049498Y-110960522D01*
X139015151Y-110847294D01*
X139006776Y-110819684D01*
X139004902Y-110810264D01*
X138999448Y-110754889D01*
X138992356Y-110682876D01*
X138993367Y-110667093D01*
X138993911Y-110664729D01*
X138993911Y-110664727D01*
X138995147Y-110659352D01*
X138991212Y-110641961D01*
X138990004Y-110631148D01*
X138990004Y-108575304D01*
X138990004Y-108490000D01*
X141734508Y-108490000D01*
X141735111Y-108493807D01*
X141752826Y-108605654D01*
X141754354Y-108615304D01*
X141756104Y-108618738D01*
X141799785Y-108704466D01*
X141811950Y-108728342D01*
X141901658Y-108818050D01*
X141905091Y-108819799D01*
X141905092Y-108819800D01*
X141932757Y-108833896D01*
X142014696Y-108875646D01*
X142018501Y-108876249D01*
X142018502Y-108876249D01*
X142136193Y-108894889D01*
X142140000Y-108895492D01*
X142143807Y-108894889D01*
X142261498Y-108876249D01*
X142261499Y-108876249D01*
X142265304Y-108875646D01*
X142347243Y-108833896D01*
X142374908Y-108819800D01*
X142374909Y-108819799D01*
X142378342Y-108818050D01*
X142468050Y-108728342D01*
X142480216Y-108704466D01*
X142523896Y-108618738D01*
X142525646Y-108615304D01*
X142527175Y-108605654D01*
X142544889Y-108493807D01*
X142545492Y-108490000D01*
X142532043Y-108405083D01*
X142526249Y-108368502D01*
X142526249Y-108368501D01*
X142525646Y-108364696D01*
X142484502Y-108283947D01*
X142469800Y-108255092D01*
X142469799Y-108255091D01*
X142468050Y-108251658D01*
X142378342Y-108161950D01*
X142374909Y-108160201D01*
X142374908Y-108160200D01*
X142296403Y-108120200D01*
X142265304Y-108104354D01*
X142261499Y-108103751D01*
X142261498Y-108103751D01*
X142143807Y-108085111D01*
X142140000Y-108084508D01*
X142136193Y-108085111D01*
X142018502Y-108103751D01*
X142018501Y-108103751D01*
X142014696Y-108104354D01*
X141983597Y-108120200D01*
X141905092Y-108160200D01*
X141905091Y-108160201D01*
X141901658Y-108161950D01*
X141811950Y-108251658D01*
X141810201Y-108255091D01*
X141810200Y-108255092D01*
X141795498Y-108283947D01*
X141754354Y-108364696D01*
X141753751Y-108368501D01*
X141753751Y-108368502D01*
X141747957Y-108405083D01*
X141734508Y-108490000D01*
X138990004Y-108490000D01*
X138990003Y-106518912D01*
X139004355Y-106484264D01*
X139023719Y-106473553D01*
X139023371Y-106472587D01*
X139026145Y-106471589D01*
X139029029Y-106470928D01*
X139031670Y-106469600D01*
X139031672Y-106469599D01*
X139107057Y-106431684D01*
X139180498Y-106394747D01*
X139278576Y-106310980D01*
X139307179Y-106286551D01*
X139307181Y-106286549D01*
X139309423Y-106284634D01*
X139408361Y-106146947D01*
X139471601Y-105989634D01*
X139472887Y-105980603D01*
X139487293Y-105879377D01*
X139495490Y-105821778D01*
X139495645Y-105807000D01*
X139478945Y-105669000D01*
X139475631Y-105641611D01*
X139475630Y-105641609D01*
X139475276Y-105638680D01*
X139471618Y-105629000D01*
X139455560Y-105586502D01*
X139456738Y-105549018D01*
X139466749Y-105534534D01*
X139795298Y-105205985D01*
X139802723Y-105199891D01*
X139815621Y-105191273D01*
X139819632Y-105188593D01*
X139863074Y-105123577D01*
X139874997Y-105105733D01*
X139875006Y-105105688D01*
X139899801Y-105080892D01*
X139937304Y-105080892D01*
X139962212Y-105103917D01*
G37*
%TD.AperFunction*%
%TA.AperFunction,Conductor*%
G36*
X162630031Y-107109539D02*
G01*
X162630053Y-107109310D01*
X162630186Y-107109323D01*
X162634690Y-107109989D01*
X162634846Y-107110020D01*
X162634900Y-107110020D01*
X162634951Y-107110028D01*
X162659653Y-107114928D01*
X162664386Y-107113984D01*
X162664388Y-107113984D01*
X162679512Y-107110967D01*
X162689097Y-107110020D01*
X162745464Y-107110020D01*
X162780112Y-107124372D01*
X163180682Y-107524943D01*
X163195034Y-107559591D01*
X163186124Y-107587765D01*
X163170113Y-107610547D01*
X163169042Y-107613295D01*
X163169040Y-107613298D01*
X163148418Y-107666191D01*
X163108524Y-107768513D01*
X163086394Y-107936611D01*
X163104999Y-108105135D01*
X163126788Y-108164676D01*
X163162251Y-108261584D01*
X163162253Y-108261588D01*
X163163266Y-108264356D01*
X163257830Y-108405083D01*
X163383233Y-108519191D01*
X163385826Y-108520599D01*
X163385829Y-108520601D01*
X163406358Y-108531747D01*
X163532235Y-108600092D01*
X163553437Y-108605654D01*
X163583310Y-108628327D01*
X163590004Y-108653050D01*
X163590004Y-110630710D01*
X163588758Y-110641691D01*
X163584861Y-110658638D01*
X163586720Y-110666853D01*
X163587692Y-110682471D01*
X163575105Y-110810265D01*
X163573231Y-110819686D01*
X163530508Y-110960523D01*
X163526832Y-110969398D01*
X163457452Y-111099198D01*
X163452115Y-111107184D01*
X163358752Y-111220946D01*
X163351960Y-111227739D01*
X163238188Y-111321109D01*
X163230201Y-111326445D01*
X163100404Y-111395823D01*
X163091530Y-111399499D01*
X162995115Y-111428746D01*
X162950693Y-111442221D01*
X162941273Y-111444095D01*
X162813884Y-111456641D01*
X162798101Y-111455630D01*
X162795737Y-111455086D01*
X162795735Y-111455086D01*
X162790360Y-111453850D01*
X162772970Y-111457785D01*
X162762156Y-111458993D01*
X161704430Y-111458993D01*
X155161791Y-111458994D01*
X155127143Y-111444642D01*
X155115954Y-111427314D01*
X155081390Y-111335842D01*
X155081389Y-111335841D01*
X155080345Y-111333077D01*
X154984312Y-111193349D01*
X154982107Y-111191384D01*
X154982104Y-111191381D01*
X154859930Y-111082528D01*
X154859929Y-111082527D01*
X154857721Y-111080560D01*
X154797705Y-111048783D01*
X161356387Y-111048783D01*
X161358036Y-111052765D01*
X161506766Y-111156908D01*
X161510453Y-111159037D01*
X161712737Y-111253363D01*
X161716742Y-111254821D01*
X161932323Y-111312586D01*
X161936527Y-111313328D01*
X162158874Y-111332780D01*
X162163126Y-111332780D01*
X162385473Y-111313328D01*
X162389677Y-111312586D01*
X162605258Y-111254821D01*
X162609263Y-111253363D01*
X162811547Y-111159037D01*
X162815234Y-111156908D01*
X162961665Y-111054375D01*
X162965675Y-111048081D01*
X162964742Y-111043874D01*
X162167893Y-110247025D01*
X162161000Y-110244170D01*
X162154107Y-110247025D01*
X161359242Y-111041890D01*
X161356387Y-111048783D01*
X154797705Y-111048783D01*
X154707881Y-111001224D01*
X154705023Y-111000506D01*
X154705020Y-111000505D01*
X154625133Y-110980439D01*
X154543441Y-110959919D01*
X154457311Y-110959468D01*
X154376848Y-110959046D01*
X154376844Y-110959046D01*
X154373895Y-110959031D01*
X154371026Y-110959720D01*
X154371024Y-110959720D01*
X154328544Y-110969919D01*
X154209032Y-110998612D01*
X154190994Y-111007922D01*
X154079939Y-111065242D01*
X154058369Y-111076375D01*
X153930604Y-111187831D01*
X153928906Y-111190246D01*
X153928905Y-111190248D01*
X153859871Y-111288474D01*
X153828207Y-111308569D01*
X153791607Y-111300388D01*
X153779402Y-111288055D01*
X153714312Y-111193349D01*
X153712107Y-111191384D01*
X153712104Y-111191381D01*
X153589930Y-111082528D01*
X153589929Y-111082527D01*
X153587721Y-111080560D01*
X153437881Y-111001224D01*
X153435023Y-111000506D01*
X153435020Y-111000505D01*
X153355133Y-110980439D01*
X153273441Y-110959919D01*
X153187311Y-110959468D01*
X153106848Y-110959046D01*
X153106844Y-110959046D01*
X153103895Y-110959031D01*
X153101026Y-110959720D01*
X153101024Y-110959720D01*
X153058544Y-110969919D01*
X152939032Y-110998612D01*
X152920994Y-111007922D01*
X152809939Y-111065242D01*
X152788369Y-111076375D01*
X152660604Y-111187831D01*
X152563113Y-111326547D01*
X152562040Y-111329299D01*
X152523638Y-111427793D01*
X152497680Y-111454862D01*
X152477985Y-111458994D01*
X152476791Y-111458994D01*
X152442143Y-111444642D01*
X152430954Y-111427314D01*
X152396390Y-111335842D01*
X152396389Y-111335841D01*
X152395345Y-111333077D01*
X152299312Y-111193349D01*
X152297107Y-111191384D01*
X152297104Y-111191381D01*
X152174930Y-111082528D01*
X152174929Y-111082527D01*
X152172721Y-111080560D01*
X152022881Y-111001224D01*
X152020023Y-111000506D01*
X152020020Y-111000505D01*
X151940133Y-110980439D01*
X151858441Y-110959919D01*
X151772311Y-110959468D01*
X151691848Y-110959046D01*
X151691844Y-110959046D01*
X151688895Y-110959031D01*
X151686026Y-110959720D01*
X151686024Y-110959720D01*
X151643544Y-110969919D01*
X151524032Y-110998612D01*
X151505994Y-111007922D01*
X151394939Y-111065242D01*
X151373369Y-111076375D01*
X151245604Y-111187831D01*
X151243906Y-111190246D01*
X151243905Y-111190248D01*
X151174871Y-111288474D01*
X151143207Y-111308569D01*
X151106607Y-111300388D01*
X151094402Y-111288055D01*
X151029312Y-111193349D01*
X151027107Y-111191384D01*
X151027104Y-111191381D01*
X150904930Y-111082528D01*
X150904929Y-111082527D01*
X150902721Y-111080560D01*
X150752881Y-111001224D01*
X150750023Y-111000506D01*
X150750020Y-111000505D01*
X150670133Y-110980439D01*
X150588441Y-110959919D01*
X150502311Y-110959468D01*
X150421848Y-110959046D01*
X150421844Y-110959046D01*
X150418895Y-110959031D01*
X150416026Y-110959720D01*
X150416024Y-110959720D01*
X150263652Y-110996302D01*
X150226611Y-110990435D01*
X150217565Y-110983304D01*
X149584261Y-110350000D01*
X157094508Y-110350000D01*
X157114354Y-110475304D01*
X157171950Y-110588342D01*
X157261658Y-110678050D01*
X157265091Y-110679799D01*
X157265092Y-110679800D01*
X157271135Y-110682879D01*
X157374696Y-110735646D01*
X157378501Y-110736249D01*
X157378502Y-110736249D01*
X157496193Y-110754889D01*
X157500000Y-110755492D01*
X157503807Y-110754889D01*
X157621498Y-110736249D01*
X157621499Y-110736249D01*
X157625304Y-110735646D01*
X157728865Y-110682879D01*
X157734908Y-110679800D01*
X157734909Y-110679799D01*
X157738342Y-110678050D01*
X157828050Y-110588342D01*
X157885646Y-110475304D01*
X157905492Y-110350000D01*
X157890711Y-110256677D01*
X157886249Y-110228502D01*
X157886249Y-110228501D01*
X157885646Y-110224696D01*
X157828050Y-110111658D01*
X157746518Y-110030126D01*
X160856220Y-110030126D01*
X160875672Y-110252473D01*
X160876414Y-110256677D01*
X160934179Y-110472258D01*
X160935637Y-110476263D01*
X161029963Y-110678547D01*
X161032092Y-110682234D01*
X161134625Y-110828665D01*
X161140919Y-110832675D01*
X161145126Y-110831742D01*
X161941975Y-110034893D01*
X161944830Y-110028000D01*
X162377170Y-110028000D01*
X162380025Y-110034893D01*
X163174890Y-110829758D01*
X163181783Y-110832613D01*
X163185765Y-110830964D01*
X163289908Y-110682234D01*
X163292037Y-110678547D01*
X163386363Y-110476263D01*
X163387821Y-110472258D01*
X163445586Y-110256677D01*
X163446328Y-110252473D01*
X163465780Y-110030126D01*
X163465780Y-110025874D01*
X163446328Y-109803527D01*
X163445586Y-109799323D01*
X163387821Y-109583742D01*
X163386363Y-109579737D01*
X163292037Y-109377453D01*
X163289908Y-109373766D01*
X163187375Y-109227335D01*
X163181081Y-109223325D01*
X163176874Y-109224258D01*
X162380025Y-110021107D01*
X162377170Y-110028000D01*
X161944830Y-110028000D01*
X161941975Y-110021107D01*
X161147110Y-109226242D01*
X161140217Y-109223387D01*
X161136235Y-109225036D01*
X161032092Y-109373766D01*
X161029963Y-109377453D01*
X160935637Y-109579737D01*
X160934179Y-109583742D01*
X160876414Y-109799323D01*
X160875672Y-109803527D01*
X160856220Y-110025874D01*
X160856220Y-110030126D01*
X157746518Y-110030126D01*
X157738342Y-110021950D01*
X157734909Y-110020201D01*
X157734908Y-110020200D01*
X157681823Y-109993152D01*
X157625304Y-109964354D01*
X157621499Y-109963751D01*
X157621498Y-109963751D01*
X157503807Y-109945111D01*
X157500000Y-109944508D01*
X157496193Y-109945111D01*
X157378502Y-109963751D01*
X157378501Y-109963751D01*
X157374696Y-109964354D01*
X157318177Y-109993152D01*
X157265092Y-110020200D01*
X157265091Y-110020201D01*
X157261658Y-110021950D01*
X157171950Y-110111658D01*
X157114354Y-110224696D01*
X157113751Y-110228501D01*
X157113751Y-110228502D01*
X157109289Y-110256677D01*
X157094508Y-110350000D01*
X149584261Y-110350000D01*
X148242179Y-109007919D01*
X161356325Y-109007919D01*
X161357258Y-109012126D01*
X162154107Y-109808975D01*
X162161000Y-109811830D01*
X162167893Y-109808975D01*
X162962758Y-109014110D01*
X162965613Y-109007217D01*
X162963964Y-109003235D01*
X162815234Y-108899092D01*
X162811547Y-108896963D01*
X162609263Y-108802637D01*
X162605258Y-108801179D01*
X162389677Y-108743414D01*
X162385473Y-108742672D01*
X162163126Y-108723220D01*
X162158874Y-108723220D01*
X161936527Y-108742672D01*
X161932323Y-108743414D01*
X161716742Y-108801179D01*
X161712737Y-108802637D01*
X161510453Y-108896963D01*
X161506766Y-108899092D01*
X161360335Y-109001625D01*
X161356325Y-109007919D01*
X148242179Y-109007919D01*
X147564852Y-108330592D01*
X147550500Y-108295944D01*
X147550500Y-108099963D01*
X147564852Y-108065315D01*
X148307235Y-107322932D01*
X148341883Y-107308580D01*
X158051699Y-107308580D01*
X158086347Y-107322932D01*
X158095358Y-107335334D01*
X158144438Y-107431658D01*
X158151950Y-107446402D01*
X158241658Y-107536110D01*
X158245091Y-107537859D01*
X158245092Y-107537860D01*
X158276902Y-107554068D01*
X158354696Y-107593706D01*
X158358501Y-107594309D01*
X158358502Y-107594309D01*
X158476193Y-107612949D01*
X158480000Y-107613552D01*
X158483807Y-107612949D01*
X158601498Y-107594309D01*
X158601499Y-107594309D01*
X158605304Y-107593706D01*
X158683098Y-107554068D01*
X158714908Y-107537860D01*
X158714909Y-107537859D01*
X158718342Y-107536110D01*
X158808050Y-107446402D01*
X158815563Y-107431658D01*
X158863896Y-107336798D01*
X158865646Y-107333364D01*
X158869572Y-107308580D01*
X158884889Y-107211867D01*
X158885492Y-107208060D01*
X158878787Y-107165725D01*
X158887542Y-107129258D01*
X158919519Y-107109663D01*
X158927184Y-107109060D01*
X162625196Y-107109060D01*
X162630031Y-107109539D01*
G37*
%TD.AperFunction*%
%TA.AperFunction,Conductor*%
G36*
X162919091Y-96973351D02*
G01*
X163234338Y-97288598D01*
X163248690Y-97323246D01*
X163239780Y-97351420D01*
X163170113Y-97450547D01*
X163169042Y-97453295D01*
X163169040Y-97453298D01*
X163137145Y-97535104D01*
X163108524Y-97608513D01*
X163101264Y-97663662D01*
X163086843Y-97773204D01*
X163086394Y-97776611D01*
X163104999Y-97945135D01*
X163131568Y-98017738D01*
X163162251Y-98101584D01*
X163162253Y-98101588D01*
X163163266Y-98104356D01*
X163257830Y-98245083D01*
X163383233Y-98359191D01*
X163385827Y-98360599D01*
X163385832Y-98360603D01*
X163412797Y-98375243D01*
X163436399Y-98404388D01*
X163432479Y-98441685D01*
X163411892Y-98461847D01*
X163395369Y-98470375D01*
X163267604Y-98581831D01*
X163265906Y-98584246D01*
X163265905Y-98584248D01*
X163241875Y-98618440D01*
X163170113Y-98720547D01*
X163169042Y-98723295D01*
X163169040Y-98723298D01*
X163142258Y-98791990D01*
X163108524Y-98878513D01*
X163086394Y-99046611D01*
X163104999Y-99215135D01*
X163106015Y-99217912D01*
X163106689Y-99220786D01*
X163104783Y-99221233D01*
X163103398Y-99252728D01*
X163093643Y-99266655D01*
X162786702Y-99573596D01*
X162779277Y-99579690D01*
X162762368Y-99590988D01*
X162733992Y-99633457D01*
X162707003Y-99673848D01*
X162687561Y-99771589D01*
X162690019Y-99783943D01*
X162691527Y-99791526D01*
X162692469Y-99801086D01*
X162692469Y-101623206D01*
X162678117Y-101657854D01*
X162384173Y-101951798D01*
X162376748Y-101957892D01*
X162359839Y-101969190D01*
X162328211Y-102016526D01*
X162304474Y-102052050D01*
X162285032Y-102149791D01*
X162285974Y-102154526D01*
X162288998Y-102169728D01*
X162289940Y-102179288D01*
X162289940Y-104001406D01*
X162275588Y-104036054D01*
X162108726Y-104202916D01*
X162101300Y-104209011D01*
X162084392Y-104220308D01*
X162081712Y-104224319D01*
X162061083Y-104255193D01*
X162029026Y-104303169D01*
X162017421Y-104361513D01*
X162009584Y-104400910D01*
X162010526Y-104405644D01*
X162013550Y-104420847D01*
X162014492Y-104430407D01*
X162014491Y-104529611D01*
X162014489Y-104998790D01*
X162000137Y-105033438D01*
X161836508Y-105197068D01*
X161801860Y-105211420D01*
X161726061Y-105211420D01*
X161691413Y-105197068D01*
X161677061Y-105162420D01*
X161682402Y-105140174D01*
X161683828Y-105137377D01*
X161725646Y-105055304D01*
X161733140Y-105007992D01*
X161744889Y-104933807D01*
X161745492Y-104930000D01*
X161734484Y-104860500D01*
X161726249Y-104808502D01*
X161726249Y-104808501D01*
X161725646Y-104804696D01*
X161668050Y-104691658D01*
X161578342Y-104601950D01*
X161574909Y-104600201D01*
X161574908Y-104600200D01*
X161512434Y-104568368D01*
X161465304Y-104544354D01*
X161461499Y-104543751D01*
X161461498Y-104543751D01*
X161343807Y-104525111D01*
X161340000Y-104524508D01*
X161336193Y-104525111D01*
X161218502Y-104543751D01*
X161218501Y-104543751D01*
X161214696Y-104544354D01*
X161167566Y-104568368D01*
X161105092Y-104600200D01*
X161105091Y-104600201D01*
X161101658Y-104601950D01*
X161011950Y-104691658D01*
X160954354Y-104804696D01*
X160953751Y-104808501D01*
X160953751Y-104808502D01*
X160945516Y-104860500D01*
X160934508Y-104930000D01*
X160935111Y-104933807D01*
X160946861Y-105007992D01*
X160954354Y-105055304D01*
X160996173Y-105137377D01*
X160997598Y-105140174D01*
X161000541Y-105177562D01*
X160976185Y-105206079D01*
X160953939Y-105211420D01*
X154730021Y-105211420D01*
X154695373Y-105197068D01*
X154681021Y-105162420D01*
X154695373Y-105127772D01*
X162849795Y-96973351D01*
X162884443Y-96958999D01*
X162919091Y-96973351D01*
G37*
%TD.AperFunction*%
%TA.AperFunction,Conductor*%
G36*
X145639592Y-99604852D02*
G01*
X148938216Y-102903476D01*
X148952568Y-102938124D01*
X148952568Y-103244276D01*
X148951626Y-103253833D01*
X148947660Y-103273773D01*
X148967102Y-103371514D01*
X148976486Y-103385558D01*
X149022467Y-103454374D01*
X149026478Y-103457054D01*
X149039376Y-103465672D01*
X149046801Y-103471766D01*
X149390782Y-103815747D01*
X149396876Y-103823172D01*
X149408174Y-103840081D01*
X149461239Y-103875537D01*
X149491034Y-103895446D01*
X149495768Y-103896388D01*
X149495769Y-103896388D01*
X149581375Y-103913416D01*
X149588775Y-103914888D01*
X149588727Y-103915131D01*
X149620514Y-103928298D01*
X149634866Y-103962946D01*
X149631136Y-103981696D01*
X149609318Y-104034372D01*
X149607910Y-104037771D01*
X149581392Y-104064290D01*
X149554975Y-104067417D01*
X149514876Y-104061066D01*
X149511069Y-104060463D01*
X149507262Y-104061066D01*
X149389571Y-104079706D01*
X149389570Y-104079706D01*
X149385765Y-104080309D01*
X149329246Y-104109107D01*
X149276161Y-104136155D01*
X149276160Y-104136156D01*
X149272727Y-104137905D01*
X149183019Y-104227613D01*
X149181270Y-104231046D01*
X149181269Y-104231047D01*
X149175787Y-104241807D01*
X149125423Y-104340651D01*
X149105577Y-104465955D01*
X149106180Y-104469762D01*
X149112918Y-104512306D01*
X149104163Y-104548773D01*
X149072186Y-104568368D01*
X149064521Y-104568971D01*
X148927855Y-104568971D01*
X148893207Y-104554619D01*
X148471848Y-104133260D01*
X148471846Y-104133259D01*
X148393283Y-104054695D01*
X148387188Y-104047269D01*
X148378571Y-104034372D01*
X148375891Y-104030361D01*
X148307392Y-103984592D01*
X148293032Y-103974997D01*
X148293031Y-103974997D01*
X148293030Y-103974996D01*
X148219964Y-103960462D01*
X148219954Y-103960460D01*
X148200027Y-103956496D01*
X148195291Y-103955554D01*
X148175351Y-103959520D01*
X148165794Y-103960462D01*
X142221543Y-103960461D01*
X141895792Y-103960460D01*
X141886232Y-103959518D01*
X141871030Y-103956494D01*
X141866294Y-103955552D01*
X141861558Y-103956494D01*
X141773289Y-103974052D01*
X141773288Y-103974052D01*
X141768554Y-103974994D01*
X141706611Y-104016382D01*
X141689710Y-104027674D01*
X141689708Y-104027676D01*
X141685694Y-104030358D01*
X141674394Y-104047269D01*
X141668305Y-104054687D01*
X141104842Y-104618148D01*
X141070194Y-104632500D01*
X140612767Y-104632500D01*
X140578119Y-104618148D01*
X140560921Y-104600950D01*
X140557488Y-104599201D01*
X140557487Y-104599200D01*
X140498159Y-104568971D01*
X140447883Y-104543354D01*
X140444078Y-104542751D01*
X140444077Y-104542751D01*
X140326386Y-104524111D01*
X140322579Y-104523508D01*
X140318772Y-104524111D01*
X140201081Y-104542751D01*
X140201080Y-104542751D01*
X140197275Y-104543354D01*
X140146999Y-104568971D01*
X140087671Y-104599200D01*
X140087670Y-104599201D01*
X140084237Y-104600950D01*
X139994529Y-104690658D01*
X139992780Y-104694092D01*
X139992777Y-104694095D01*
X139982190Y-104714874D01*
X139953673Y-104739231D01*
X139916286Y-104736288D01*
X139891929Y-104707771D01*
X139889531Y-104692629D01*
X139889531Y-103701118D01*
X141267778Y-103701118D01*
X141268857Y-103703725D01*
X141270493Y-103704559D01*
X141277741Y-103706913D01*
X141379628Y-103723051D01*
X141387242Y-103723051D01*
X141489129Y-103706913D01*
X141494867Y-103705049D01*
X141498224Y-103701118D01*
X142929479Y-103701118D01*
X142930558Y-103703725D01*
X142932194Y-103704559D01*
X142939442Y-103706913D01*
X143041329Y-103723051D01*
X143048943Y-103723051D01*
X143150830Y-103706913D01*
X143156568Y-103705049D01*
X143159925Y-103701118D01*
X144591180Y-103701118D01*
X144592259Y-103703725D01*
X144593895Y-103704559D01*
X144601143Y-103706913D01*
X144703030Y-103723051D01*
X144710644Y-103723051D01*
X144812531Y-103706913D01*
X144818269Y-103705049D01*
X144821626Y-103701118D01*
X146252881Y-103701118D01*
X146253960Y-103703725D01*
X146255596Y-103704559D01*
X146262844Y-103706913D01*
X146364731Y-103723051D01*
X146372345Y-103723051D01*
X146474232Y-103706913D01*
X146479970Y-103705049D01*
X146483327Y-103701118D01*
X147914582Y-103701118D01*
X147915661Y-103703725D01*
X147917297Y-103704559D01*
X147924545Y-103706913D01*
X148026432Y-103723051D01*
X148034046Y-103723051D01*
X148135933Y-103706913D01*
X148141671Y-103705049D01*
X148146094Y-103699870D01*
X148145873Y-103697057D01*
X148037132Y-103588316D01*
X148030239Y-103585461D01*
X148023346Y-103588316D01*
X147917437Y-103694225D01*
X147914582Y-103701118D01*
X146483327Y-103701118D01*
X146484393Y-103699870D01*
X146484172Y-103697057D01*
X146375431Y-103588316D01*
X146368538Y-103585461D01*
X146361645Y-103588316D01*
X146255736Y-103694225D01*
X146252881Y-103701118D01*
X144821626Y-103701118D01*
X144822692Y-103699870D01*
X144822471Y-103697057D01*
X144713730Y-103588316D01*
X144706837Y-103585461D01*
X144699944Y-103588316D01*
X144594035Y-103694225D01*
X144591180Y-103701118D01*
X143159925Y-103701118D01*
X143160991Y-103699870D01*
X143160770Y-103697057D01*
X143052029Y-103588316D01*
X143045136Y-103585461D01*
X143038243Y-103588316D01*
X142932334Y-103694225D01*
X142929479Y-103701118D01*
X141498224Y-103701118D01*
X141499290Y-103699870D01*
X141499069Y-103697057D01*
X141390328Y-103588316D01*
X141383435Y-103585461D01*
X141376542Y-103588316D01*
X141270633Y-103694225D01*
X141267778Y-103701118D01*
X139889531Y-103701118D01*
X139889531Y-103373098D01*
X141029675Y-103373098D01*
X141045813Y-103474985D01*
X141047677Y-103480723D01*
X141052856Y-103485146D01*
X141055669Y-103484925D01*
X141164410Y-103376184D01*
X141167265Y-103369291D01*
X141599605Y-103369291D01*
X141602460Y-103376184D01*
X141708369Y-103482093D01*
X141715262Y-103484948D01*
X141717869Y-103483869D01*
X141718703Y-103482233D01*
X141721057Y-103474985D01*
X141737195Y-103373098D01*
X142691376Y-103373098D01*
X142707514Y-103474985D01*
X142709378Y-103480723D01*
X142714557Y-103485146D01*
X142717370Y-103484925D01*
X142826111Y-103376184D01*
X142828966Y-103369291D01*
X143261306Y-103369291D01*
X143264161Y-103376184D01*
X143370070Y-103482093D01*
X143376963Y-103484948D01*
X143379570Y-103483869D01*
X143380404Y-103482233D01*
X143382758Y-103474985D01*
X143398896Y-103373098D01*
X144353077Y-103373098D01*
X144369215Y-103474985D01*
X144371079Y-103480723D01*
X144376258Y-103485146D01*
X144379071Y-103484925D01*
X144487812Y-103376184D01*
X144490667Y-103369291D01*
X144923007Y-103369291D01*
X144925862Y-103376184D01*
X145031771Y-103482093D01*
X145038664Y-103484948D01*
X145041271Y-103483869D01*
X145042105Y-103482233D01*
X145044459Y-103474985D01*
X145060597Y-103373098D01*
X146014778Y-103373098D01*
X146030916Y-103474985D01*
X146032780Y-103480723D01*
X146037959Y-103485146D01*
X146040772Y-103484925D01*
X146149513Y-103376184D01*
X146152368Y-103369291D01*
X146584708Y-103369291D01*
X146587563Y-103376184D01*
X146693472Y-103482093D01*
X146700365Y-103484948D01*
X146702972Y-103483869D01*
X146703806Y-103482233D01*
X146706160Y-103474985D01*
X146722298Y-103373098D01*
X147676479Y-103373098D01*
X147692617Y-103474985D01*
X147694481Y-103480723D01*
X147699660Y-103485146D01*
X147702473Y-103484925D01*
X147811214Y-103376184D01*
X147814069Y-103369291D01*
X148246409Y-103369291D01*
X148249264Y-103376184D01*
X148355173Y-103482093D01*
X148362066Y-103484948D01*
X148364673Y-103483869D01*
X148365507Y-103482233D01*
X148367861Y-103474985D01*
X148383999Y-103373098D01*
X148383999Y-103365484D01*
X148367861Y-103263597D01*
X148365997Y-103257859D01*
X148360818Y-103253436D01*
X148358005Y-103253657D01*
X148249264Y-103362398D01*
X148246409Y-103369291D01*
X147814069Y-103369291D01*
X147811214Y-103362398D01*
X147705305Y-103256489D01*
X147698412Y-103253634D01*
X147695805Y-103254713D01*
X147694971Y-103256349D01*
X147692617Y-103263597D01*
X147676479Y-103365484D01*
X147676479Y-103373098D01*
X146722298Y-103373098D01*
X146722298Y-103365484D01*
X146706160Y-103263597D01*
X146704296Y-103257859D01*
X146699117Y-103253436D01*
X146696304Y-103253657D01*
X146587563Y-103362398D01*
X146584708Y-103369291D01*
X146152368Y-103369291D01*
X146149513Y-103362398D01*
X146043604Y-103256489D01*
X146036711Y-103253634D01*
X146034104Y-103254713D01*
X146033270Y-103256349D01*
X146030916Y-103263597D01*
X146014778Y-103365484D01*
X146014778Y-103373098D01*
X145060597Y-103373098D01*
X145060597Y-103365484D01*
X145044459Y-103263597D01*
X145042595Y-103257859D01*
X145037416Y-103253436D01*
X145034603Y-103253657D01*
X144925862Y-103362398D01*
X144923007Y-103369291D01*
X144490667Y-103369291D01*
X144487812Y-103362398D01*
X144381903Y-103256489D01*
X144375010Y-103253634D01*
X144372403Y-103254713D01*
X144371569Y-103256349D01*
X144369215Y-103263597D01*
X144353077Y-103365484D01*
X144353077Y-103373098D01*
X143398896Y-103373098D01*
X143398896Y-103365484D01*
X143382758Y-103263597D01*
X143380894Y-103257859D01*
X143375715Y-103253436D01*
X143372902Y-103253657D01*
X143264161Y-103362398D01*
X143261306Y-103369291D01*
X142828966Y-103369291D01*
X142826111Y-103362398D01*
X142720202Y-103256489D01*
X142713309Y-103253634D01*
X142710702Y-103254713D01*
X142709868Y-103256349D01*
X142707514Y-103263597D01*
X142691376Y-103365484D01*
X142691376Y-103373098D01*
X141737195Y-103373098D01*
X141737195Y-103365484D01*
X141721057Y-103263597D01*
X141719193Y-103257859D01*
X141714014Y-103253436D01*
X141711201Y-103253657D01*
X141602460Y-103362398D01*
X141599605Y-103369291D01*
X141167265Y-103369291D01*
X141164410Y-103362398D01*
X141058501Y-103256489D01*
X141051608Y-103253634D01*
X141049001Y-103254713D01*
X141048167Y-103256349D01*
X141045813Y-103263597D01*
X141029675Y-103365484D01*
X141029675Y-103373098D01*
X139889531Y-103373098D01*
X139889531Y-103038712D01*
X141267580Y-103038712D01*
X141267801Y-103041525D01*
X141376542Y-103150266D01*
X141383435Y-103153121D01*
X141390328Y-103150266D01*
X141496237Y-103044357D01*
X141498575Y-103038712D01*
X142929281Y-103038712D01*
X142929502Y-103041525D01*
X143038243Y-103150266D01*
X143045136Y-103153121D01*
X143052029Y-103150266D01*
X143157938Y-103044357D01*
X143160276Y-103038712D01*
X144590982Y-103038712D01*
X144591203Y-103041525D01*
X144699944Y-103150266D01*
X144706837Y-103153121D01*
X144713730Y-103150266D01*
X144819639Y-103044357D01*
X144821977Y-103038712D01*
X146252683Y-103038712D01*
X146252904Y-103041525D01*
X146361645Y-103150266D01*
X146368538Y-103153121D01*
X146375431Y-103150266D01*
X146481340Y-103044357D01*
X146483678Y-103038712D01*
X147914384Y-103038712D01*
X147914605Y-103041525D01*
X148023346Y-103150266D01*
X148030239Y-103153121D01*
X148037132Y-103150266D01*
X148143041Y-103044357D01*
X148145896Y-103037464D01*
X148144817Y-103034857D01*
X148143181Y-103034023D01*
X148135933Y-103031669D01*
X148034046Y-103015531D01*
X148026432Y-103015531D01*
X147924545Y-103031669D01*
X147918807Y-103033533D01*
X147914384Y-103038712D01*
X146483678Y-103038712D01*
X146484195Y-103037464D01*
X146483116Y-103034857D01*
X146481480Y-103034023D01*
X146474232Y-103031669D01*
X146372345Y-103015531D01*
X146364731Y-103015531D01*
X146262844Y-103031669D01*
X146257106Y-103033533D01*
X146252683Y-103038712D01*
X144821977Y-103038712D01*
X144822494Y-103037464D01*
X144821415Y-103034857D01*
X144819779Y-103034023D01*
X144812531Y-103031669D01*
X144710644Y-103015531D01*
X144703030Y-103015531D01*
X144601143Y-103031669D01*
X144595405Y-103033533D01*
X144590982Y-103038712D01*
X143160276Y-103038712D01*
X143160793Y-103037464D01*
X143159714Y-103034857D01*
X143158078Y-103034023D01*
X143150830Y-103031669D01*
X143048943Y-103015531D01*
X143041329Y-103015531D01*
X142939442Y-103031669D01*
X142933704Y-103033533D01*
X142929281Y-103038712D01*
X141498575Y-103038712D01*
X141499092Y-103037464D01*
X141498013Y-103034857D01*
X141496377Y-103034023D01*
X141489129Y-103031669D01*
X141387242Y-103015531D01*
X141379628Y-103015531D01*
X141277741Y-103031669D01*
X141272003Y-103033533D01*
X141267580Y-103038712D01*
X139889531Y-103038712D01*
X139889531Y-102754900D01*
X139903883Y-102720252D01*
X139994817Y-102629318D01*
X140002242Y-102623224D01*
X140015140Y-102614606D01*
X140019151Y-102611926D01*
X140074516Y-102529065D01*
X140089050Y-102455999D01*
X140089050Y-102455998D01*
X140093958Y-102431325D01*
X140090020Y-102411530D01*
X140097335Y-102374748D01*
X140103430Y-102367322D01*
X140431335Y-102039417D01*
X142929479Y-102039417D01*
X142930558Y-102042024D01*
X142932194Y-102042858D01*
X142939442Y-102045212D01*
X143041329Y-102061350D01*
X143048943Y-102061350D01*
X143150830Y-102045212D01*
X143156568Y-102043348D01*
X143159925Y-102039417D01*
X144591180Y-102039417D01*
X144592259Y-102042024D01*
X144593895Y-102042858D01*
X144601143Y-102045212D01*
X144703030Y-102061350D01*
X144710644Y-102061350D01*
X144812531Y-102045212D01*
X144818269Y-102043348D01*
X144821626Y-102039417D01*
X146252881Y-102039417D01*
X146253960Y-102042024D01*
X146255596Y-102042858D01*
X146262844Y-102045212D01*
X146364731Y-102061350D01*
X146372345Y-102061350D01*
X146474232Y-102045212D01*
X146479970Y-102043348D01*
X146484393Y-102038169D01*
X146484172Y-102035356D01*
X146375431Y-101926615D01*
X146368538Y-101923760D01*
X146361645Y-101926615D01*
X146255736Y-102032524D01*
X146252881Y-102039417D01*
X144821626Y-102039417D01*
X144822692Y-102038169D01*
X144822471Y-102035356D01*
X144713730Y-101926615D01*
X144706837Y-101923760D01*
X144699944Y-101926615D01*
X144594035Y-102032524D01*
X144591180Y-102039417D01*
X143159925Y-102039417D01*
X143160991Y-102038169D01*
X143160770Y-102035356D01*
X143052029Y-101926615D01*
X143045136Y-101923760D01*
X143038243Y-101926615D01*
X142932334Y-102032524D01*
X142929479Y-102039417D01*
X140431335Y-102039417D01*
X140759356Y-101711397D01*
X142691376Y-101711397D01*
X142707514Y-101813284D01*
X142709378Y-101819022D01*
X142714557Y-101823445D01*
X142717370Y-101823224D01*
X142826111Y-101714483D01*
X142828966Y-101707590D01*
X143261306Y-101707590D01*
X143264161Y-101714483D01*
X143370070Y-101820392D01*
X143376963Y-101823247D01*
X143379570Y-101822168D01*
X143380404Y-101820532D01*
X143382758Y-101813284D01*
X143398896Y-101711397D01*
X144353077Y-101711397D01*
X144369215Y-101813284D01*
X144371079Y-101819022D01*
X144376258Y-101823445D01*
X144379071Y-101823224D01*
X144487812Y-101714483D01*
X144490667Y-101707590D01*
X144923007Y-101707590D01*
X144925862Y-101714483D01*
X145031771Y-101820392D01*
X145038664Y-101823247D01*
X145041271Y-101822168D01*
X145042105Y-101820532D01*
X145044459Y-101813284D01*
X145060597Y-101711397D01*
X146014778Y-101711397D01*
X146030916Y-101813284D01*
X146032780Y-101819022D01*
X146037959Y-101823445D01*
X146040772Y-101823224D01*
X146149513Y-101714483D01*
X146152368Y-101707590D01*
X146584708Y-101707590D01*
X146587563Y-101714483D01*
X146693472Y-101820392D01*
X146700365Y-101823247D01*
X146702972Y-101822168D01*
X146703806Y-101820532D01*
X146706160Y-101813284D01*
X146722298Y-101711397D01*
X146722298Y-101703783D01*
X146706160Y-101601896D01*
X146704296Y-101596158D01*
X146699117Y-101591735D01*
X146696304Y-101591956D01*
X146587563Y-101700697D01*
X146584708Y-101707590D01*
X146152368Y-101707590D01*
X146149513Y-101700697D01*
X146043604Y-101594788D01*
X146036711Y-101591933D01*
X146034104Y-101593012D01*
X146033270Y-101594648D01*
X146030916Y-101601896D01*
X146014778Y-101703783D01*
X146014778Y-101711397D01*
X145060597Y-101711397D01*
X145060597Y-101703783D01*
X145044459Y-101601896D01*
X145042595Y-101596158D01*
X145037416Y-101591735D01*
X145034603Y-101591956D01*
X144925862Y-101700697D01*
X144923007Y-101707590D01*
X144490667Y-101707590D01*
X144487812Y-101700697D01*
X144381903Y-101594788D01*
X144375010Y-101591933D01*
X144372403Y-101593012D01*
X144371569Y-101594648D01*
X144369215Y-101601896D01*
X144353077Y-101703783D01*
X144353077Y-101711397D01*
X143398896Y-101711397D01*
X143398896Y-101703783D01*
X143382758Y-101601896D01*
X143380894Y-101596158D01*
X143375715Y-101591735D01*
X143372902Y-101591956D01*
X143264161Y-101700697D01*
X143261306Y-101707590D01*
X142828966Y-101707590D01*
X142826111Y-101700697D01*
X142720202Y-101594788D01*
X142713309Y-101591933D01*
X142710702Y-101593012D01*
X142709868Y-101594648D01*
X142707514Y-101601896D01*
X142691376Y-101703783D01*
X142691376Y-101711397D01*
X140759356Y-101711397D01*
X140946870Y-101523883D01*
X140981518Y-101509531D01*
X141537919Y-101509531D01*
X141547476Y-101510473D01*
X141567416Y-101514439D01*
X141572152Y-101513497D01*
X141660422Y-101495939D01*
X141660423Y-101495939D01*
X141665157Y-101494997D01*
X141694952Y-101475088D01*
X141748017Y-101439632D01*
X141759315Y-101422723D01*
X141765409Y-101415298D01*
X141803696Y-101377011D01*
X142929281Y-101377011D01*
X142929502Y-101379824D01*
X143038243Y-101488565D01*
X143045136Y-101491420D01*
X143052029Y-101488565D01*
X143157938Y-101382656D01*
X143160276Y-101377011D01*
X144590982Y-101377011D01*
X144591203Y-101379824D01*
X144699944Y-101488565D01*
X144706837Y-101491420D01*
X144713730Y-101488565D01*
X144819639Y-101382656D01*
X144821977Y-101377011D01*
X146252683Y-101377011D01*
X146252904Y-101379824D01*
X146361645Y-101488565D01*
X146368538Y-101491420D01*
X146375431Y-101488565D01*
X146481340Y-101382656D01*
X146484195Y-101375763D01*
X146483116Y-101373156D01*
X146481480Y-101372322D01*
X146474232Y-101369968D01*
X146372345Y-101353830D01*
X146364731Y-101353830D01*
X146262844Y-101369968D01*
X146257106Y-101371832D01*
X146252683Y-101377011D01*
X144821977Y-101377011D01*
X144822494Y-101375763D01*
X144821415Y-101373156D01*
X144819779Y-101372322D01*
X144812531Y-101369968D01*
X144710644Y-101353830D01*
X144703030Y-101353830D01*
X144601143Y-101369968D01*
X144595405Y-101371832D01*
X144590982Y-101377011D01*
X143160276Y-101377011D01*
X143160793Y-101375763D01*
X143159714Y-101373156D01*
X143158078Y-101372322D01*
X143150830Y-101369968D01*
X143048943Y-101353830D01*
X143041329Y-101353830D01*
X142939442Y-101369968D01*
X142933704Y-101371832D01*
X142929281Y-101377011D01*
X141803696Y-101377011D01*
X142235781Y-100944927D01*
X142243206Y-100938833D01*
X142256101Y-100930217D01*
X142260112Y-100927537D01*
X142277008Y-100902251D01*
X142315477Y-100844676D01*
X142334920Y-100746936D01*
X142330953Y-100726993D01*
X142330011Y-100717434D01*
X142330011Y-100377716D01*
X144591180Y-100377716D01*
X144592259Y-100380323D01*
X144593895Y-100381157D01*
X144601143Y-100383511D01*
X144703030Y-100399649D01*
X144710644Y-100399649D01*
X144812531Y-100383511D01*
X144818269Y-100381647D01*
X144822692Y-100376468D01*
X144822471Y-100373655D01*
X144713730Y-100264914D01*
X144706837Y-100262059D01*
X144699944Y-100264914D01*
X144594035Y-100370823D01*
X144591180Y-100377716D01*
X142330011Y-100377716D01*
X142330011Y-100049696D01*
X144353077Y-100049696D01*
X144369215Y-100151583D01*
X144371079Y-100157321D01*
X144376258Y-100161744D01*
X144379071Y-100161523D01*
X144487812Y-100052782D01*
X144490667Y-100045889D01*
X144923007Y-100045889D01*
X144925862Y-100052782D01*
X145031771Y-100158691D01*
X145038664Y-100161546D01*
X145041271Y-100160467D01*
X145042105Y-100158831D01*
X145044459Y-100151583D01*
X145060597Y-100049696D01*
X145060597Y-100042082D01*
X145044459Y-99940195D01*
X145042595Y-99934457D01*
X145037416Y-99930034D01*
X145034603Y-99930255D01*
X144925862Y-100038996D01*
X144923007Y-100045889D01*
X144490667Y-100045889D01*
X144487812Y-100038996D01*
X144381903Y-99933087D01*
X144375010Y-99930232D01*
X144372403Y-99931311D01*
X144371569Y-99932947D01*
X144369215Y-99940195D01*
X144353077Y-100042082D01*
X144353077Y-100049696D01*
X142330011Y-100049696D01*
X142330011Y-100022703D01*
X142344363Y-99988055D01*
X142356766Y-99979044D01*
X142374905Y-99969802D01*
X142374908Y-99969799D01*
X142378342Y-99968050D01*
X142468050Y-99878342D01*
X142470390Y-99873751D01*
X142507414Y-99801086D01*
X142525646Y-99765304D01*
X142528932Y-99744560D01*
X142534278Y-99710802D01*
X142553873Y-99678825D01*
X142590340Y-99670070D01*
X142604922Y-99674808D01*
X142704696Y-99725646D01*
X142708501Y-99726249D01*
X142708502Y-99726249D01*
X142826193Y-99744889D01*
X142830000Y-99745492D01*
X142833807Y-99744889D01*
X142951498Y-99726249D01*
X142951499Y-99726249D01*
X142955304Y-99725646D01*
X142975589Y-99715310D01*
X144590982Y-99715310D01*
X144591203Y-99718123D01*
X144699944Y-99826864D01*
X144706837Y-99829719D01*
X144713730Y-99826864D01*
X144819639Y-99720955D01*
X144822494Y-99714062D01*
X144821415Y-99711455D01*
X144819779Y-99710621D01*
X144812531Y-99708267D01*
X144710644Y-99692129D01*
X144703030Y-99692129D01*
X144601143Y-99708267D01*
X144595405Y-99710131D01*
X144590982Y-99715310D01*
X142975589Y-99715310D01*
X143021218Y-99692061D01*
X143064908Y-99669800D01*
X143064909Y-99669799D01*
X143068342Y-99668050D01*
X143131540Y-99604852D01*
X143166188Y-99590500D01*
X145604944Y-99590500D01*
X145639592Y-99604852D01*
G37*
%TD.AperFunction*%
%TA.AperFunction,Conductor*%
G36*
X154556670Y-103924332D02*
G01*
X154571022Y-103958980D01*
X154556670Y-103993628D01*
X153995679Y-104554619D01*
X153961031Y-104568971D01*
X153755431Y-104568971D01*
X153720783Y-104554619D01*
X153706431Y-104519971D01*
X153713533Y-104498097D01*
X153712050Y-104497342D01*
X153726103Y-104469762D01*
X153769646Y-104384304D01*
X153789492Y-104259000D01*
X153772035Y-104148778D01*
X153770249Y-104137502D01*
X153770249Y-104137501D01*
X153769646Y-104133696D01*
X153716994Y-104030361D01*
X153713800Y-104024092D01*
X153713799Y-104024091D01*
X153712050Y-104020658D01*
X153685020Y-103993628D01*
X153670668Y-103958980D01*
X153685020Y-103924332D01*
X153719668Y-103909980D01*
X154522022Y-103909980D01*
X154556670Y-103924332D01*
G37*
%TD.AperFunction*%
%TA.AperFunction,Conductor*%
G36*
X152095148Y-103924332D02*
G01*
X152109500Y-103958980D01*
X152109500Y-104519971D01*
X152095148Y-104554619D01*
X152060500Y-104568971D01*
X151239717Y-104568971D01*
X151205069Y-104554619D01*
X151190717Y-104519971D01*
X151205069Y-104485323D01*
X151214050Y-104476342D01*
X151219343Y-104465955D01*
X151269896Y-104366738D01*
X151271646Y-104363304D01*
X151291492Y-104238000D01*
X151277361Y-104148778D01*
X151272249Y-104116502D01*
X151272249Y-104116501D01*
X151271646Y-104112696D01*
X151229693Y-104030358D01*
X151215800Y-104003092D01*
X151215799Y-104003091D01*
X151214050Y-103999658D01*
X151208020Y-103993628D01*
X151193668Y-103958980D01*
X151208020Y-103924332D01*
X151242668Y-103909980D01*
X152060500Y-103909980D01*
X152095148Y-103924332D01*
G37*
%TD.AperFunction*%
%TA.AperFunction,Conductor*%
G36*
X146243602Y-82256382D02*
G01*
X146278244Y-82270750D01*
X146292579Y-82305382D01*
X146292579Y-83239099D01*
X146278227Y-83273747D01*
X146243579Y-83288099D01*
X146208931Y-83273747D01*
X146199517Y-83259659D01*
X146199513Y-83259661D01*
X146199476Y-83259597D01*
X146198308Y-83257849D01*
X146197905Y-83256876D01*
X146194722Y-83251363D01*
X146102460Y-83131124D01*
X146097955Y-83126619D01*
X145977717Y-83034357D01*
X145972200Y-83031172D01*
X145832179Y-82973174D01*
X145830661Y-82972767D01*
X145825037Y-82974274D01*
X145822579Y-82978531D01*
X145822579Y-85332182D01*
X145825434Y-85339074D01*
X145829186Y-85340628D01*
X145832179Y-85339826D01*
X145972199Y-85281828D01*
X145977716Y-85278643D01*
X146097955Y-85186381D01*
X146102460Y-85181876D01*
X146194722Y-85061637D01*
X146197905Y-85056124D01*
X146198308Y-85055151D01*
X146198684Y-85054775D01*
X146199513Y-85053339D01*
X146199898Y-85053561D01*
X146224826Y-85028632D01*
X146262329Y-85028630D01*
X146288848Y-85055148D01*
X146292579Y-85073901D01*
X146292579Y-87439099D01*
X146278227Y-87473747D01*
X146243579Y-87488099D01*
X146208931Y-87473747D01*
X146199517Y-87459659D01*
X146199513Y-87459661D01*
X146199476Y-87459597D01*
X146198308Y-87457849D01*
X146197905Y-87456876D01*
X146194722Y-87451363D01*
X146102460Y-87331124D01*
X146097955Y-87326619D01*
X145977717Y-87234357D01*
X145972200Y-87231172D01*
X145832179Y-87173174D01*
X145830661Y-87172767D01*
X145825037Y-87174274D01*
X145822579Y-87178531D01*
X145822579Y-89132182D01*
X145825434Y-89139074D01*
X145829186Y-89140628D01*
X145832179Y-89139826D01*
X145972199Y-89081828D01*
X145977716Y-89078643D01*
X146097955Y-88986381D01*
X146102460Y-88981876D01*
X146194722Y-88861637D01*
X146197907Y-88856120D01*
X146198291Y-88855194D01*
X146198648Y-88854837D01*
X146199513Y-88853339D01*
X146199915Y-88853571D01*
X146224813Y-88828679D01*
X146262316Y-88828683D01*
X146288831Y-88855205D01*
X146292559Y-88873993D01*
X146292534Y-88901949D01*
X146294923Y-88906923D01*
X146294923Y-88906925D01*
X146300192Y-88917898D01*
X146303794Y-88928211D01*
X146307729Y-88945462D01*
X146311168Y-88949777D01*
X146311169Y-88949780D01*
X146318618Y-88959128D01*
X146324468Y-88968453D01*
X146332032Y-88984205D01*
X146345856Y-88995260D01*
X146353568Y-89002986D01*
X146364594Y-89016823D01*
X146380332Y-89024414D01*
X146389643Y-89030277D01*
X146403294Y-89041194D01*
X146408670Y-89042430D01*
X146408672Y-89042431D01*
X146416186Y-89044158D01*
X146420541Y-89045160D01*
X146430843Y-89048777D01*
X146446781Y-89056465D01*
X146452297Y-89056470D01*
X146452298Y-89056470D01*
X146469769Y-89056485D01*
X146469800Y-89056487D01*
X146469856Y-89056500D01*
X146486702Y-89056500D01*
X146537783Y-89056545D01*
X146538028Y-89056545D01*
X146538103Y-89056509D01*
X146538184Y-89056500D01*
X156086702Y-89056500D01*
X156138028Y-89056545D01*
X156143002Y-89054156D01*
X156143004Y-89054156D01*
X156153977Y-89048887D01*
X156164290Y-89045285D01*
X156169848Y-89044017D01*
X156181541Y-89041350D01*
X156185856Y-89037911D01*
X156185859Y-89037910D01*
X156195207Y-89030461D01*
X156204532Y-89024611D01*
X156215307Y-89019437D01*
X156220284Y-89017047D01*
X156231339Y-89003223D01*
X156239065Y-88995511D01*
X156252902Y-88984485D01*
X156260493Y-88968746D01*
X156266356Y-88959436D01*
X156277273Y-88945785D01*
X156278585Y-88940082D01*
X156281238Y-88928540D01*
X156284856Y-88918236D01*
X156292544Y-88902298D01*
X156292564Y-88879310D01*
X156292566Y-88879279D01*
X156292579Y-88879223D01*
X156292579Y-88873901D01*
X156306931Y-88839253D01*
X156341579Y-88824901D01*
X156376227Y-88839253D01*
X156385641Y-88853341D01*
X156385645Y-88853339D01*
X156385682Y-88853403D01*
X156386850Y-88855151D01*
X156387253Y-88856124D01*
X156390436Y-88861637D01*
X156482698Y-88981876D01*
X156487203Y-88986381D01*
X156607441Y-89078643D01*
X156612958Y-89081828D01*
X156752979Y-89139826D01*
X156754497Y-89140233D01*
X156760121Y-89138726D01*
X156762579Y-89134469D01*
X156762579Y-89132182D01*
X157062579Y-89132182D01*
X157065434Y-89139074D01*
X157069186Y-89140628D01*
X157072179Y-89139826D01*
X157212199Y-89081828D01*
X157217716Y-89078643D01*
X157337955Y-88986381D01*
X157342460Y-88981876D01*
X157434722Y-88861637D01*
X157437907Y-88856120D01*
X157495905Y-88716100D01*
X157497554Y-88709947D01*
X157512370Y-88597408D01*
X157512579Y-88594223D01*
X157512579Y-88316247D01*
X157509724Y-88309355D01*
X157502832Y-88306500D01*
X157072326Y-88306500D01*
X157065434Y-88309355D01*
X157062579Y-88316247D01*
X157062579Y-89132182D01*
X156762579Y-89132182D01*
X156762579Y-87996753D01*
X157062579Y-87996753D01*
X157065434Y-88003645D01*
X157072326Y-88006500D01*
X157502832Y-88006500D01*
X157509724Y-88003645D01*
X157512579Y-87996753D01*
X157512579Y-87718777D01*
X157512370Y-87715592D01*
X157497554Y-87603053D01*
X157495905Y-87596900D01*
X157437907Y-87456880D01*
X157434722Y-87451363D01*
X157342460Y-87331124D01*
X157337955Y-87326619D01*
X157217717Y-87234357D01*
X157212200Y-87231172D01*
X157072179Y-87173174D01*
X157070661Y-87172767D01*
X157065037Y-87174274D01*
X157062579Y-87178531D01*
X157062579Y-87996753D01*
X156762579Y-87996753D01*
X156762579Y-87180818D01*
X156759724Y-87173926D01*
X156755972Y-87172372D01*
X156752979Y-87173174D01*
X156612959Y-87231172D01*
X156607442Y-87234357D01*
X156487203Y-87326619D01*
X156482698Y-87331124D01*
X156390436Y-87451363D01*
X156387253Y-87456876D01*
X156386850Y-87457849D01*
X156386474Y-87458225D01*
X156385645Y-87459661D01*
X156385260Y-87459439D01*
X156360332Y-87484368D01*
X156322829Y-87484370D01*
X156296310Y-87457852D01*
X156292579Y-87439099D01*
X156292579Y-85073901D01*
X156306931Y-85039253D01*
X156341579Y-85024901D01*
X156376227Y-85039253D01*
X156385641Y-85053341D01*
X156385645Y-85053339D01*
X156385682Y-85053403D01*
X156386850Y-85055151D01*
X156387253Y-85056124D01*
X156390436Y-85061637D01*
X156482698Y-85181876D01*
X156487203Y-85186381D01*
X156607441Y-85278643D01*
X156612958Y-85281828D01*
X156752979Y-85339826D01*
X156754497Y-85340233D01*
X156760121Y-85338726D01*
X156762579Y-85334469D01*
X156762579Y-85332182D01*
X157062579Y-85332182D01*
X157065434Y-85339074D01*
X157069186Y-85340628D01*
X157072179Y-85339826D01*
X157212199Y-85281828D01*
X157217716Y-85278643D01*
X157337955Y-85186381D01*
X157342460Y-85181876D01*
X157434722Y-85061637D01*
X157437907Y-85056120D01*
X157495905Y-84916100D01*
X157497554Y-84909947D01*
X157512370Y-84797408D01*
X157512579Y-84794223D01*
X157512579Y-84316247D01*
X157509724Y-84309355D01*
X157502832Y-84306500D01*
X157072326Y-84306500D01*
X157065434Y-84309355D01*
X157062579Y-84316247D01*
X157062579Y-85332182D01*
X156762579Y-85332182D01*
X156762579Y-83996753D01*
X157062579Y-83996753D01*
X157065434Y-84003645D01*
X157072326Y-84006500D01*
X157502832Y-84006500D01*
X157509724Y-84003645D01*
X157512579Y-83996753D01*
X157512579Y-83518777D01*
X157512370Y-83515592D01*
X157497554Y-83403053D01*
X157495905Y-83396900D01*
X157437907Y-83256880D01*
X157434722Y-83251363D01*
X157342460Y-83131124D01*
X157337955Y-83126619D01*
X157217717Y-83034357D01*
X157212200Y-83031172D01*
X157072179Y-82973174D01*
X157070661Y-82972767D01*
X157065037Y-82974274D01*
X157062579Y-82978531D01*
X157062579Y-83996753D01*
X156762579Y-83996753D01*
X156762579Y-82980818D01*
X156759724Y-82973926D01*
X156755972Y-82972372D01*
X156752979Y-82973174D01*
X156612959Y-83031172D01*
X156607442Y-83034357D01*
X156487203Y-83126619D01*
X156482698Y-83131124D01*
X156390436Y-83251363D01*
X156387253Y-83256876D01*
X156386850Y-83257849D01*
X156386474Y-83258225D01*
X156385645Y-83259661D01*
X156385260Y-83259439D01*
X156360332Y-83284368D01*
X156322829Y-83284370D01*
X156296310Y-83257852D01*
X156292579Y-83239099D01*
X156292579Y-82305382D01*
X156306931Y-82270734D01*
X156341556Y-82256382D01*
X156887222Y-82256123D01*
X156898224Y-82257369D01*
X156909735Y-82260016D01*
X156909738Y-82260016D01*
X156915114Y-82261252D01*
X156922768Y-82259520D01*
X156923330Y-82259393D01*
X156938947Y-82258421D01*
X157025093Y-82266905D01*
X157066743Y-82271007D01*
X157076163Y-82272881D01*
X157217000Y-82315603D01*
X157225874Y-82319279D01*
X157355671Y-82388657D01*
X157363658Y-82393993D01*
X157477430Y-82487363D01*
X157484222Y-82494156D01*
X157577585Y-82607918D01*
X157582922Y-82615904D01*
X157652302Y-82745704D01*
X157655978Y-82754579D01*
X157698701Y-82895416D01*
X157700575Y-82904837D01*
X157713121Y-83032221D01*
X157712111Y-83048002D01*
X157711567Y-83050367D01*
X157711567Y-83050373D01*
X157710331Y-83055748D01*
X157714235Y-83073000D01*
X157715443Y-83083868D01*
X157714421Y-84003645D01*
X157712613Y-85630409D01*
X157711348Y-85641418D01*
X157707440Y-85658281D01*
X157707439Y-85658997D01*
X157708054Y-85661693D01*
X157708830Y-85665095D01*
X157709905Y-85672143D01*
X157723539Y-85845374D01*
X157723540Y-85845380D01*
X157723691Y-85847299D01*
X157767786Y-86030965D01*
X157768520Y-86032738D01*
X157768522Y-86032743D01*
X157797811Y-86103452D01*
X157840069Y-86205471D01*
X157841078Y-86207117D01*
X157937756Y-86364882D01*
X157937758Y-86364885D01*
X157938761Y-86366521D01*
X157940005Y-86367978D01*
X157940009Y-86367983D01*
X158027229Y-86470103D01*
X158061432Y-86510149D01*
X158205061Y-86632819D01*
X158366112Y-86731510D01*
X158367894Y-86732248D01*
X158538840Y-86803057D01*
X158538845Y-86803059D01*
X158540618Y-86803793D01*
X158724284Y-86847886D01*
X158841153Y-86857083D01*
X158898505Y-86861597D01*
X158905718Y-86862710D01*
X158911870Y-86864136D01*
X158912586Y-86864137D01*
X158929753Y-86860221D01*
X158940651Y-86858994D01*
X162761717Y-86858994D01*
X162772698Y-86860240D01*
X162784268Y-86862901D01*
X162784270Y-86862901D01*
X162789645Y-86864137D01*
X162797860Y-86862278D01*
X162813478Y-86861306D01*
X162829885Y-86862922D01*
X162941272Y-86873893D01*
X162950693Y-86875767D01*
X163091530Y-86918490D01*
X163100405Y-86922166D01*
X163230205Y-86991546D01*
X163238191Y-86996883D01*
X163351953Y-87090246D01*
X163358746Y-87097038D01*
X163452116Y-87210810D01*
X163457452Y-87218797D01*
X163526830Y-87348594D01*
X163530506Y-87357468D01*
X163573228Y-87498305D01*
X163575102Y-87507725D01*
X163584491Y-87603053D01*
X163587648Y-87635111D01*
X163586637Y-87650897D01*
X163584857Y-87658638D01*
X163588792Y-87676028D01*
X163590000Y-87686842D01*
X163590000Y-88183428D01*
X163575648Y-88218076D01*
X163552438Y-88231074D01*
X163548908Y-88231921D01*
X163548904Y-88231922D01*
X163546032Y-88232612D01*
X163493836Y-88259552D01*
X163402877Y-88306500D01*
X163395369Y-88310375D01*
X163267604Y-88421831D01*
X163170113Y-88560547D01*
X163108524Y-88718513D01*
X163086394Y-88886611D01*
X163104999Y-89055135D01*
X163136285Y-89140628D01*
X163148948Y-89175231D01*
X163147377Y-89212701D01*
X163137580Y-89226718D01*
X162507761Y-89856537D01*
X162500336Y-89862631D01*
X162483427Y-89873929D01*
X162447971Y-89926994D01*
X162428062Y-89956789D01*
X162427120Y-89961523D01*
X162427120Y-89961524D01*
X162414757Y-90023676D01*
X162408620Y-90054530D01*
X162409562Y-90059265D01*
X162412586Y-90074467D01*
X162413528Y-90084027D01*
X162413528Y-92683692D01*
X162399176Y-92718340D01*
X162108721Y-93008796D01*
X162101296Y-93014890D01*
X162084387Y-93026188D01*
X162059686Y-93063157D01*
X162029022Y-93109048D01*
X162009580Y-93206789D01*
X162010522Y-93211524D01*
X162013546Y-93226726D01*
X162014488Y-93236286D01*
X162014488Y-95104693D01*
X162000136Y-95139341D01*
X158815743Y-98323735D01*
X155632899Y-101506579D01*
X155632896Y-101506581D01*
X155122952Y-102016526D01*
X154637709Y-102501769D01*
X154603061Y-102516121D01*
X154568413Y-102501769D01*
X154174363Y-102107719D01*
X154160011Y-102073071D01*
X154160011Y-98593008D01*
X154160953Y-98583448D01*
X154163977Y-98568246D01*
X154164919Y-98563511D01*
X154160052Y-98539043D01*
X154146419Y-98470506D01*
X154146419Y-98470505D01*
X154145477Y-98465771D01*
X154104089Y-98403828D01*
X154104088Y-98403827D01*
X154090112Y-98382910D01*
X154073206Y-98371614D01*
X154065781Y-98365520D01*
X152962601Y-97262340D01*
X151847923Y-96147663D01*
X151833571Y-96113015D01*
X151847923Y-96078367D01*
X151882571Y-96064015D01*
X151890237Y-96064618D01*
X151952579Y-96074492D01*
X151956386Y-96073889D01*
X152074077Y-96055249D01*
X152074078Y-96055249D01*
X152077883Y-96054646D01*
X152134402Y-96025848D01*
X152187487Y-95998800D01*
X152187488Y-95998799D01*
X152190921Y-95997050D01*
X152254119Y-95933852D01*
X152288767Y-95919500D01*
X152303082Y-95919500D01*
X152312639Y-95920442D01*
X152332579Y-95924408D01*
X152430320Y-95904966D01*
X152468046Y-95879758D01*
X152513180Y-95849601D01*
X152524478Y-95832692D01*
X152530572Y-95825267D01*
X153152608Y-95203231D01*
X153187256Y-95188879D01*
X153215359Y-95197739D01*
X153264718Y-95232301D01*
X153266652Y-95233203D01*
X153266654Y-95233204D01*
X153321498Y-95258778D01*
X153474921Y-95330320D01*
X153476987Y-95330873D01*
X153476988Y-95330874D01*
X153696878Y-95389794D01*
X153696880Y-95389794D01*
X153698950Y-95390349D01*
X153701077Y-95390535D01*
X153701082Y-95390536D01*
X153927874Y-95410377D01*
X153930000Y-95410563D01*
X153932126Y-95410377D01*
X154158918Y-95390536D01*
X154158923Y-95390535D01*
X154161050Y-95390349D01*
X154163120Y-95389794D01*
X154163122Y-95389794D01*
X154383012Y-95330874D01*
X154383013Y-95330873D01*
X154385079Y-95330320D01*
X154538502Y-95258778D01*
X154593346Y-95233204D01*
X154593348Y-95233203D01*
X154595282Y-95232301D01*
X154664131Y-95184092D01*
X154783510Y-95100502D01*
X154783512Y-95100500D01*
X154785269Y-95099270D01*
X154949270Y-94935269D01*
X154965304Y-94912371D01*
X155081075Y-94747032D01*
X155081075Y-94747031D01*
X155082301Y-94745281D01*
X155180320Y-94535079D01*
X155187941Y-94506637D01*
X155239794Y-94313122D01*
X155239794Y-94313120D01*
X155240349Y-94311050D01*
X155253859Y-94156634D01*
X155260377Y-94082126D01*
X155260563Y-94080000D01*
X155252582Y-93988778D01*
X155240536Y-93851082D01*
X155240535Y-93851077D01*
X155240349Y-93848950D01*
X155180320Y-93624921D01*
X155087725Y-93426351D01*
X155083204Y-93416655D01*
X155083203Y-93416653D01*
X155082301Y-93414719D01*
X155039833Y-93354068D01*
X154950502Y-93226490D01*
X154950500Y-93226488D01*
X154949270Y-93224731D01*
X154785269Y-93060730D01*
X154735939Y-93026188D01*
X154597033Y-92928925D01*
X154597032Y-92928925D01*
X154595282Y-92927699D01*
X154588195Y-92924394D01*
X154503321Y-92884817D01*
X154385079Y-92829680D01*
X154383013Y-92829127D01*
X154383012Y-92829126D01*
X154163122Y-92770206D01*
X154163120Y-92770206D01*
X154161050Y-92769651D01*
X154158923Y-92769465D01*
X154158918Y-92769464D01*
X153932126Y-92749623D01*
X153930000Y-92749437D01*
X153927874Y-92749623D01*
X153701082Y-92769464D01*
X153701077Y-92769465D01*
X153698950Y-92769651D01*
X153696880Y-92770206D01*
X153696878Y-92770206D01*
X153476988Y-92829126D01*
X153476987Y-92829127D01*
X153474921Y-92829680D01*
X153356463Y-92884918D01*
X153271807Y-92924394D01*
X153264719Y-92927699D01*
X153262969Y-92928925D01*
X153262968Y-92928925D01*
X153098700Y-93043947D01*
X153074731Y-93060730D01*
X152910730Y-93224731D01*
X152909500Y-93226488D01*
X152909498Y-93226490D01*
X152820167Y-93354068D01*
X152777699Y-93414719D01*
X152776797Y-93416653D01*
X152776796Y-93416655D01*
X152772275Y-93426351D01*
X152679680Y-93624921D01*
X152619651Y-93848950D01*
X152619465Y-93851077D01*
X152619464Y-93851082D01*
X152607418Y-93988778D01*
X152599437Y-94080000D01*
X152599623Y-94082126D01*
X152606142Y-94156634D01*
X152619651Y-94311050D01*
X152620206Y-94313120D01*
X152620206Y-94313122D01*
X152672059Y-94506637D01*
X152679680Y-94535079D01*
X152777699Y-94745281D01*
X152778924Y-94747030D01*
X152778926Y-94747034D01*
X152805323Y-94784732D01*
X152813441Y-94821346D01*
X152799833Y-94847486D01*
X152283293Y-95364026D01*
X152248645Y-95378378D01*
X152213997Y-95364026D01*
X152190921Y-95340950D01*
X152187488Y-95339201D01*
X152187487Y-95339200D01*
X152130583Y-95310206D01*
X152077883Y-95283354D01*
X152074078Y-95282751D01*
X152074077Y-95282751D01*
X151956386Y-95264111D01*
X151952579Y-95263508D01*
X151948772Y-95264111D01*
X151831081Y-95282751D01*
X151831080Y-95282751D01*
X151827275Y-95283354D01*
X151774575Y-95310206D01*
X151717671Y-95339200D01*
X151717670Y-95339201D01*
X151714237Y-95340950D01*
X151624529Y-95430658D01*
X151622780Y-95434091D01*
X151622779Y-95434092D01*
X151605031Y-95468925D01*
X151566933Y-95543696D01*
X151566330Y-95547501D01*
X151566330Y-95547502D01*
X151560558Y-95583947D01*
X151547087Y-95669000D01*
X151548338Y-95676900D01*
X151556961Y-95731343D01*
X151548206Y-95767810D01*
X151516229Y-95787405D01*
X151479762Y-95778650D01*
X151473916Y-95773656D01*
X151216993Y-95516733D01*
X151210899Y-95509308D01*
X151202284Y-95496414D01*
X151202283Y-95496413D01*
X151199601Y-95492399D01*
X151146536Y-95456943D01*
X151116741Y-95437034D01*
X151112007Y-95436092D01*
X151112006Y-95436092D01*
X151023736Y-95418534D01*
X151019000Y-95417592D01*
X150999060Y-95421558D01*
X150989503Y-95422500D01*
X150968767Y-95422500D01*
X150934119Y-95408148D01*
X150870921Y-95344950D01*
X150867488Y-95343201D01*
X150867487Y-95343200D01*
X150786072Y-95301717D01*
X150757883Y-95287354D01*
X150754078Y-95286751D01*
X150754077Y-95286751D01*
X150636386Y-95268111D01*
X150632579Y-95267508D01*
X150628772Y-95268111D01*
X150511081Y-95286751D01*
X150511080Y-95286751D01*
X150507275Y-95287354D01*
X150479086Y-95301717D01*
X150397671Y-95343200D01*
X150397670Y-95343201D01*
X150394237Y-95344950D01*
X150304529Y-95434658D01*
X150302780Y-95438091D01*
X150302779Y-95438092D01*
X150289378Y-95464394D01*
X150246933Y-95547696D01*
X150227087Y-95673000D01*
X150227690Y-95676807D01*
X150241616Y-95764731D01*
X150246933Y-95798304D01*
X150262411Y-95828681D01*
X150299914Y-95902284D01*
X150304529Y-95911342D01*
X150394237Y-96001050D01*
X150397670Y-96002799D01*
X150397671Y-96002800D01*
X150450756Y-96029848D01*
X150507275Y-96058646D01*
X150511080Y-96059249D01*
X150511081Y-96059249D01*
X150628772Y-96077889D01*
X150632579Y-96078492D01*
X150636386Y-96077889D01*
X150754077Y-96059249D01*
X150754078Y-96059249D01*
X150757883Y-96058646D01*
X150814402Y-96029848D01*
X150867487Y-96002800D01*
X150867488Y-96002799D01*
X150870921Y-96001050D01*
X150897207Y-95974764D01*
X150931855Y-95960412D01*
X150966503Y-95974764D01*
X151488416Y-96496676D01*
X151925352Y-96933612D01*
X151939704Y-96968260D01*
X151925352Y-97002908D01*
X151890704Y-97017260D01*
X151879851Y-97016043D01*
X151878805Y-97015805D01*
X151877254Y-97015343D01*
X151875656Y-97015090D01*
X151875652Y-97015089D01*
X151590677Y-96969953D01*
X151590668Y-96969952D01*
X151589329Y-96969740D01*
X151587972Y-96969678D01*
X151587968Y-96969678D01*
X151498712Y-96965625D01*
X151498697Y-96965625D01*
X151498154Y-96965600D01*
X151316062Y-96965600D01*
X151315256Y-96965654D01*
X151315242Y-96965654D01*
X151199770Y-96973324D01*
X151099127Y-96980009D01*
X151097527Y-96980332D01*
X151097524Y-96980332D01*
X150814964Y-97037306D01*
X150814959Y-97037307D01*
X150813364Y-97037629D01*
X150811829Y-97038158D01*
X150811820Y-97038160D01*
X150539271Y-97132006D01*
X150539265Y-97132008D01*
X150537733Y-97132536D01*
X150277074Y-97263064D01*
X150035969Y-97426919D01*
X149849658Y-97593500D01*
X149824852Y-97615680D01*
X149818652Y-97621223D01*
X149628943Y-97842561D01*
X149628058Y-97843924D01*
X149511883Y-98022818D01*
X149470173Y-98087045D01*
X149469479Y-98088507D01*
X149469476Y-98088512D01*
X149377304Y-98282626D01*
X149345132Y-98350380D01*
X149344634Y-98351931D01*
X149259068Y-98618440D01*
X149256018Y-98627939D01*
X149255732Y-98629527D01*
X149255731Y-98629532D01*
X149228425Y-98781292D01*
X149204395Y-98914845D01*
X149204322Y-98916464D01*
X149204321Y-98916468D01*
X149191244Y-99204446D01*
X149191171Y-99206059D01*
X149200282Y-99310200D01*
X149216069Y-99490640D01*
X149216578Y-99496463D01*
X149216933Y-99498049D01*
X149216933Y-99498052D01*
X149221504Y-99518502D01*
X149280170Y-99780957D01*
X149280729Y-99782477D01*
X149280731Y-99782483D01*
X149380182Y-100052782D01*
X149380829Y-100054540D01*
X149381582Y-100055969D01*
X149381586Y-100055977D01*
X149474897Y-100232955D01*
X149516788Y-100312408D01*
X149517733Y-100313738D01*
X149517735Y-100313741D01*
X149629786Y-100471412D01*
X149638159Y-100507969D01*
X149618230Y-100539738D01*
X149581673Y-100548111D01*
X149555197Y-100534445D01*
X148864485Y-99843733D01*
X148858391Y-99836308D01*
X148849776Y-99823414D01*
X148849775Y-99823413D01*
X148847093Y-99819399D01*
X148794028Y-99783943D01*
X148764233Y-99764034D01*
X148759499Y-99763092D01*
X148759498Y-99763092D01*
X148671228Y-99745534D01*
X148666492Y-99744592D01*
X148646552Y-99748558D01*
X148636995Y-99749500D01*
X148335188Y-99749500D01*
X148300540Y-99735148D01*
X148286188Y-99700500D01*
X148300540Y-99665852D01*
X148348050Y-99618342D01*
X148350910Y-99612730D01*
X148392230Y-99531634D01*
X148405646Y-99505304D01*
X148425492Y-99380000D01*
X148405646Y-99254696D01*
X148348050Y-99141658D01*
X148258342Y-99051950D01*
X148254909Y-99050201D01*
X148254908Y-99050200D01*
X148179838Y-99011950D01*
X148145304Y-98994354D01*
X148141499Y-98993751D01*
X148141498Y-98993751D01*
X148023807Y-98975111D01*
X148020000Y-98974508D01*
X148016193Y-98975111D01*
X147898502Y-98993751D01*
X147898501Y-98993751D01*
X147894696Y-98994354D01*
X147891260Y-98996105D01*
X147891259Y-98996105D01*
X147807162Y-99038954D01*
X147769775Y-99041897D01*
X147750269Y-99029943D01*
X146420730Y-97700404D01*
X146417842Y-97697252D01*
X146394214Y-97669093D01*
X146394211Y-97669090D01*
X146391455Y-97665806D01*
X146355908Y-97645284D01*
X146352303Y-97642987D01*
X146322197Y-97621906D01*
X146318684Y-97619446D01*
X146310864Y-97617351D01*
X146299052Y-97612457D01*
X146295762Y-97610558D01*
X146292045Y-97608412D01*
X146287822Y-97607667D01*
X146287821Y-97607667D01*
X146268432Y-97604249D01*
X146251623Y-97601285D01*
X146247458Y-97600361D01*
X146221854Y-97593500D01*
X146211946Y-97590845D01*
X146211945Y-97590845D01*
X146207807Y-97589736D01*
X146203542Y-97590109D01*
X146203540Y-97590109D01*
X146166912Y-97593314D01*
X146162641Y-97593500D01*
X145697689Y-97593500D01*
X145675443Y-97588159D01*
X145567883Y-97533354D01*
X145564078Y-97532751D01*
X145564077Y-97532751D01*
X145446386Y-97514111D01*
X145442579Y-97513508D01*
X145438772Y-97514111D01*
X145321081Y-97532751D01*
X145321080Y-97532751D01*
X145317275Y-97533354D01*
X145260756Y-97562152D01*
X145207671Y-97589200D01*
X145207670Y-97589201D01*
X145204237Y-97590950D01*
X145114529Y-97680658D01*
X145056933Y-97793696D01*
X145056330Y-97797501D01*
X145056330Y-97797502D01*
X145050290Y-97835638D01*
X145037087Y-97919000D01*
X145038914Y-97930536D01*
X145050913Y-98006292D01*
X145056933Y-98044304D01*
X145058683Y-98047738D01*
X145088780Y-98106806D01*
X145114529Y-98157342D01*
X145157830Y-98200643D01*
X145172182Y-98235291D01*
X145157830Y-98269939D01*
X145145427Y-98278950D01*
X145079043Y-98312774D01*
X145079040Y-98312777D01*
X145075606Y-98314526D01*
X144985898Y-98404234D01*
X144984149Y-98407667D01*
X144984148Y-98407668D01*
X144970148Y-98435145D01*
X144928302Y-98517272D01*
X144927699Y-98521077D01*
X144927699Y-98521078D01*
X144918384Y-98579890D01*
X144908456Y-98642576D01*
X144909059Y-98646383D01*
X144925236Y-98748519D01*
X144928302Y-98767880D01*
X144985898Y-98880918D01*
X145075606Y-98970626D01*
X145079040Y-98972375D01*
X145079043Y-98972378D01*
X145127055Y-98996841D01*
X145151412Y-99025358D01*
X145148469Y-99062745D01*
X145119952Y-99087102D01*
X145104810Y-99089500D01*
X143166188Y-99089500D01*
X143131540Y-99075148D01*
X143077832Y-99021440D01*
X143063480Y-98986792D01*
X143077832Y-98952144D01*
X143237986Y-98791990D01*
X143245410Y-98785897D01*
X143252300Y-98781293D01*
X143252301Y-98781292D01*
X143278071Y-98764074D01*
X143305365Y-98745837D01*
X143316663Y-98728928D01*
X143322757Y-98721503D01*
X145000408Y-97043852D01*
X145035056Y-97029500D01*
X146279868Y-97029500D01*
X146314516Y-97043852D01*
X146327197Y-97065814D01*
X146329680Y-97075079D01*
X146427699Y-97285281D01*
X146428925Y-97287031D01*
X146428925Y-97287032D01*
X146545346Y-97453298D01*
X146560730Y-97475269D01*
X146724731Y-97639270D01*
X146726488Y-97640500D01*
X146726490Y-97640502D01*
X146783839Y-97680658D01*
X146914718Y-97772301D01*
X146916652Y-97773203D01*
X146916654Y-97773204D01*
X146960600Y-97793696D01*
X147124921Y-97870320D01*
X147126987Y-97870873D01*
X147126988Y-97870874D01*
X147346878Y-97929794D01*
X147346880Y-97929794D01*
X147348950Y-97930349D01*
X147351077Y-97930535D01*
X147351082Y-97930536D01*
X147577874Y-97950377D01*
X147580000Y-97950563D01*
X147582126Y-97950377D01*
X147808918Y-97930536D01*
X147808923Y-97930535D01*
X147811050Y-97930349D01*
X147813120Y-97929794D01*
X147813122Y-97929794D01*
X148033012Y-97870874D01*
X148033013Y-97870873D01*
X148035079Y-97870320D01*
X148199400Y-97793696D01*
X148243346Y-97773204D01*
X148243348Y-97773203D01*
X148245282Y-97772301D01*
X148376161Y-97680658D01*
X148433510Y-97640502D01*
X148433512Y-97640500D01*
X148435269Y-97639270D01*
X148599270Y-97475269D01*
X148614655Y-97453298D01*
X148731075Y-97287032D01*
X148731075Y-97287031D01*
X148732301Y-97285281D01*
X148830320Y-97075079D01*
X148840355Y-97037629D01*
X148889794Y-96853122D01*
X148889794Y-96853120D01*
X148890349Y-96851050D01*
X148903859Y-96696634D01*
X148910377Y-96622126D01*
X148910563Y-96620000D01*
X148904064Y-96545714D01*
X148890536Y-96391082D01*
X148890535Y-96391077D01*
X148890349Y-96388950D01*
X148830320Y-96164921D01*
X148752856Y-95998800D01*
X148733204Y-95956655D01*
X148733203Y-95956653D01*
X148732301Y-95954719D01*
X148711077Y-95924408D01*
X148600502Y-95766490D01*
X148600500Y-95766488D01*
X148599270Y-95764731D01*
X148435269Y-95600730D01*
X148364965Y-95551502D01*
X148247033Y-95468925D01*
X148247032Y-95468925D01*
X148245282Y-95467699D01*
X148238195Y-95464394D01*
X148079404Y-95390349D01*
X148035079Y-95369680D01*
X148033013Y-95369127D01*
X148033012Y-95369126D01*
X147813122Y-95310206D01*
X147813120Y-95310206D01*
X147811050Y-95309651D01*
X147808923Y-95309465D01*
X147808918Y-95309464D01*
X147582126Y-95289623D01*
X147580000Y-95289437D01*
X147577874Y-95289623D01*
X147351082Y-95309464D01*
X147351077Y-95309465D01*
X147348950Y-95309651D01*
X147346880Y-95310206D01*
X147346878Y-95310206D01*
X147126988Y-95369126D01*
X147126987Y-95369127D01*
X147124921Y-95369680D01*
X147011648Y-95422500D01*
X146921807Y-95464394D01*
X146914719Y-95467699D01*
X146912969Y-95468925D01*
X146912968Y-95468925D01*
X146748700Y-95583947D01*
X146724731Y-95600730D01*
X146560730Y-95764731D01*
X146559500Y-95766488D01*
X146559498Y-95766490D01*
X146448923Y-95924408D01*
X146427699Y-95954719D01*
X146426797Y-95956653D01*
X146426796Y-95956655D01*
X146407144Y-95998800D01*
X146329680Y-96164921D01*
X146269651Y-96388950D01*
X146269465Y-96391077D01*
X146269464Y-96391082D01*
X146261355Y-96483771D01*
X146244037Y-96517036D01*
X146212541Y-96528500D01*
X144940497Y-96528500D01*
X144930940Y-96527558D01*
X144911000Y-96523592D01*
X144906264Y-96524534D01*
X144817994Y-96542092D01*
X144817993Y-96542092D01*
X144813259Y-96543034D01*
X144783464Y-96562943D01*
X144730399Y-96598399D01*
X144727717Y-96602413D01*
X144727716Y-96602414D01*
X144719101Y-96615308D01*
X144713007Y-96622733D01*
X143618219Y-97717521D01*
X143583571Y-97731873D01*
X143548923Y-97717521D01*
X143534571Y-97682873D01*
X143534957Y-97676732D01*
X143539111Y-97643854D01*
X143559750Y-97480474D01*
X143560162Y-97451000D01*
X143540059Y-97245970D01*
X143535012Y-97229251D01*
X143492154Y-97087303D01*
X143480514Y-97048749D01*
X143450146Y-96991634D01*
X143384921Y-96868962D01*
X143384918Y-96868958D01*
X143383797Y-96866849D01*
X143253590Y-96707200D01*
X143094854Y-96575882D01*
X142913634Y-96477897D01*
X142716833Y-96416977D01*
X142714458Y-96416727D01*
X142714456Y-96416727D01*
X142514331Y-96395693D01*
X142514326Y-96395693D01*
X142511948Y-96395443D01*
X142509563Y-96395660D01*
X142509558Y-96395660D01*
X142409365Y-96404778D01*
X142306782Y-96414114D01*
X142165823Y-96455600D01*
X142111454Y-96471602D01*
X142111452Y-96471603D01*
X142109151Y-96472280D01*
X142107025Y-96473391D01*
X142107026Y-96473391D01*
X141968686Y-96545714D01*
X141926581Y-96567726D01*
X141883438Y-96602414D01*
X141767891Y-96695315D01*
X141767888Y-96695318D01*
X141766026Y-96696815D01*
X141764487Y-96698649D01*
X141764486Y-96698650D01*
X141715730Y-96756755D01*
X141633603Y-96854630D01*
X141632448Y-96856731D01*
X141537468Y-97029500D01*
X141534355Y-97035162D01*
X141533631Y-97037443D01*
X141533631Y-97037444D01*
X141524968Y-97064755D01*
X141472063Y-97231532D01*
X141449099Y-97436262D01*
X141449299Y-97438644D01*
X141449299Y-97438648D01*
X141452925Y-97481828D01*
X141466338Y-97641553D01*
X141492237Y-97731873D01*
X141511422Y-97798778D01*
X141523123Y-97839586D01*
X141617291Y-98022818D01*
X141618777Y-98024693D01*
X141618779Y-98024696D01*
X141669359Y-98088512D01*
X141745256Y-98184270D01*
X141747082Y-98185824D01*
X141747083Y-98185825D01*
X141898307Y-98314526D01*
X141902143Y-98317791D01*
X142081977Y-98418297D01*
X142085378Y-98419402D01*
X142275626Y-98481218D01*
X142275630Y-98481219D01*
X142277908Y-98481959D01*
X142482473Y-98506351D01*
X142687879Y-98490546D01*
X142703832Y-98486092D01*
X142706418Y-98485370D01*
X142743650Y-98489876D01*
X142766790Y-98519388D01*
X142762284Y-98556620D01*
X142754243Y-98567213D01*
X142088223Y-99233233D01*
X142061240Y-99246982D01*
X142018502Y-99253751D01*
X142018501Y-99253751D01*
X142014696Y-99254354D01*
X141990554Y-99266655D01*
X141905092Y-99310200D01*
X141905091Y-99310201D01*
X141901658Y-99311950D01*
X141811950Y-99401658D01*
X141754354Y-99514696D01*
X141753751Y-99518501D01*
X141753751Y-99518502D01*
X141744060Y-99579690D01*
X141734508Y-99640000D01*
X141735111Y-99643807D01*
X141751121Y-99744889D01*
X141754354Y-99765304D01*
X141759969Y-99776324D01*
X141763975Y-99784186D01*
X141766917Y-99821574D01*
X141742560Y-99850091D01*
X141727980Y-99854828D01*
X141697524Y-99859652D01*
X141608502Y-99873751D01*
X141608501Y-99873751D01*
X141604696Y-99874354D01*
X141548177Y-99903152D01*
X141495092Y-99930200D01*
X141495091Y-99930201D01*
X141491658Y-99931950D01*
X141401950Y-100021658D01*
X141400201Y-100025091D01*
X141400200Y-100025092D01*
X141362577Y-100098932D01*
X141344354Y-100134696D01*
X141343044Y-100134029D01*
X141322175Y-100158461D01*
X141284787Y-100161402D01*
X141256272Y-100137046D01*
X141229802Y-100085095D01*
X141229799Y-100085092D01*
X141228050Y-100081658D01*
X141138342Y-99991950D01*
X141134909Y-99990201D01*
X141134908Y-99990200D01*
X141070367Y-99957315D01*
X141025304Y-99934354D01*
X141021499Y-99933751D01*
X141021498Y-99933751D01*
X140903807Y-99915111D01*
X140900000Y-99914508D01*
X140896193Y-99915111D01*
X140778502Y-99933751D01*
X140778501Y-99933751D01*
X140774696Y-99934354D01*
X140729633Y-99957315D01*
X140665092Y-99990200D01*
X140665091Y-99990201D01*
X140661658Y-99991950D01*
X140599648Y-100053960D01*
X140565000Y-100068312D01*
X140530352Y-100053960D01*
X140488342Y-100011950D01*
X140484909Y-100010201D01*
X140484908Y-100010200D01*
X140402221Y-99968069D01*
X140375304Y-99954354D01*
X140371499Y-99953751D01*
X140371498Y-99953751D01*
X140253807Y-99935111D01*
X140250000Y-99934508D01*
X140246193Y-99935111D01*
X140128502Y-99953751D01*
X140128501Y-99953751D01*
X140124696Y-99954354D01*
X140097779Y-99968069D01*
X140015092Y-100010200D01*
X140015091Y-100010201D01*
X140011658Y-100011950D01*
X139921950Y-100101658D01*
X139864354Y-100214696D01*
X139863751Y-100218501D01*
X139863751Y-100218502D01*
X139856737Y-100262786D01*
X139844508Y-100340000D01*
X139845111Y-100343807D01*
X139862123Y-100451215D01*
X139864354Y-100465304D01*
X139866104Y-100468738D01*
X139913427Y-100561614D01*
X139921950Y-100578342D01*
X139953944Y-100610336D01*
X139968296Y-100644984D01*
X139953944Y-100679632D01*
X139638428Y-100995148D01*
X139603780Y-101009500D01*
X139503964Y-101009500D01*
X139469316Y-100995148D01*
X139454964Y-100960500D01*
X139458500Y-100942224D01*
X139470500Y-100912373D01*
X139470500Y-100912372D01*
X139471601Y-100909634D01*
X139495490Y-100741778D01*
X139495645Y-100727000D01*
X139475276Y-100558680D01*
X139456114Y-100507969D01*
X139416390Y-100402842D01*
X139416389Y-100402841D01*
X139415345Y-100400077D01*
X139350558Y-100305812D01*
X139320987Y-100262786D01*
X139319312Y-100260349D01*
X139317107Y-100258384D01*
X139317104Y-100258381D01*
X139194930Y-100149528D01*
X139194929Y-100149527D01*
X139192721Y-100147560D01*
X139042881Y-100068224D01*
X139032482Y-100065612D01*
X139027064Y-100064251D01*
X138996956Y-100041890D01*
X138990002Y-100016727D01*
X138990002Y-98222484D01*
X139409265Y-98222484D01*
X139411463Y-98227791D01*
X139417952Y-98233313D01*
X139421872Y-98236037D01*
X139580314Y-98324587D01*
X139584685Y-98326497D01*
X139757311Y-98382587D01*
X139761978Y-98383612D01*
X139942208Y-98405104D01*
X139946972Y-98405204D01*
X140112834Y-98392442D01*
X140148481Y-98404094D01*
X140165449Y-98437539D01*
X140151241Y-98475946D01*
X140144529Y-98482658D01*
X140142780Y-98486091D01*
X140142779Y-98486092D01*
X140132457Y-98506351D01*
X140086933Y-98595696D01*
X140067087Y-98721000D01*
X140068343Y-98728928D01*
X140086250Y-98841989D01*
X140086933Y-98846304D01*
X140104570Y-98880918D01*
X140122684Y-98916468D01*
X140144529Y-98959342D01*
X140234237Y-99049050D01*
X140237670Y-99050799D01*
X140237671Y-99050800D01*
X140261115Y-99062745D01*
X140347275Y-99106646D01*
X140351080Y-99107249D01*
X140351081Y-99107249D01*
X140468772Y-99125889D01*
X140472579Y-99126492D01*
X140476386Y-99125889D01*
X140594077Y-99107249D01*
X140594078Y-99107249D01*
X140597883Y-99106646D01*
X140684043Y-99062745D01*
X140707487Y-99050800D01*
X140707488Y-99050799D01*
X140710921Y-99049050D01*
X140800629Y-98959342D01*
X140822475Y-98916468D01*
X140840588Y-98880918D01*
X140858225Y-98846304D01*
X140858909Y-98841989D01*
X140876815Y-98728928D01*
X140878071Y-98721000D01*
X140858225Y-98595696D01*
X140812701Y-98506351D01*
X140802379Y-98486092D01*
X140802378Y-98486091D01*
X140800629Y-98482658D01*
X140710921Y-98392950D01*
X140707488Y-98391201D01*
X140707487Y-98391200D01*
X140647437Y-98360603D01*
X140597883Y-98335354D01*
X140594078Y-98334751D01*
X140594077Y-98334751D01*
X140565517Y-98330228D01*
X140524520Y-98323735D01*
X140492544Y-98304140D01*
X140483789Y-98267673D01*
X140502018Y-98236726D01*
X140514634Y-98226869D01*
X140518308Y-98220377D01*
X140516958Y-98215511D01*
X139971472Y-97670025D01*
X139964579Y-97667170D01*
X139957686Y-97670025D01*
X139412120Y-98215591D01*
X139409265Y-98222484D01*
X138990002Y-98222484D01*
X138990002Y-97835638D01*
X139004354Y-97800990D01*
X139039002Y-97786638D01*
X139073650Y-97800990D01*
X139082583Y-97813240D01*
X139161081Y-97965981D01*
X139163665Y-97969991D01*
X139188469Y-98001285D01*
X139194987Y-98004914D01*
X139199946Y-98003501D01*
X139745554Y-97457893D01*
X139748409Y-97451000D01*
X140180749Y-97451000D01*
X140183604Y-97457893D01*
X140729553Y-98003842D01*
X140735466Y-98006292D01*
X140743327Y-98002693D01*
X140745808Y-97999175D01*
X140835462Y-97841356D01*
X140837404Y-97836995D01*
X140894698Y-97664762D01*
X140895754Y-97660116D01*
X140918633Y-97479008D01*
X140918823Y-97476284D01*
X140919157Y-97452371D01*
X140919042Y-97449636D01*
X140901229Y-97267965D01*
X140900305Y-97263296D01*
X140847840Y-97089524D01*
X140846021Y-97085112D01*
X140760811Y-96924856D01*
X140758166Y-96920874D01*
X140741268Y-96900156D01*
X140734700Y-96896619D01*
X140729545Y-96898166D01*
X140183604Y-97444107D01*
X140180749Y-97451000D01*
X139748409Y-97451000D01*
X139745554Y-97444107D01*
X139200339Y-96898892D01*
X139193446Y-96896037D01*
X139188253Y-96898188D01*
X139178469Y-96909848D01*
X139175773Y-96913785D01*
X139088327Y-97072848D01*
X139086453Y-97077221D01*
X139085707Y-97079573D01*
X139061549Y-97108259D01*
X139024183Y-97111461D01*
X138995497Y-97087303D01*
X138990001Y-97064755D01*
X138990001Y-96681161D01*
X139410449Y-96681161D01*
X139411927Y-96686216D01*
X139957686Y-97231975D01*
X139964579Y-97234830D01*
X139971472Y-97231975D01*
X140516369Y-96687078D01*
X140519224Y-96680185D01*
X140517120Y-96675104D01*
X140500230Y-96661131D01*
X140496276Y-96658464D01*
X140336605Y-96572130D01*
X140332215Y-96570285D01*
X140158811Y-96516607D01*
X140154150Y-96515650D01*
X139973626Y-96496676D01*
X139968853Y-96496643D01*
X139788095Y-96513094D01*
X139783403Y-96513990D01*
X139609280Y-96565237D01*
X139604858Y-96567023D01*
X139444002Y-96651116D01*
X139440009Y-96653729D01*
X139414032Y-96674616D01*
X139410449Y-96681161D01*
X138990001Y-96681161D01*
X138990001Y-95513394D01*
X139004353Y-95478746D01*
X139039001Y-95464394D01*
X139073649Y-95478746D01*
X139077402Y-95482958D01*
X139205256Y-95644270D01*
X139207082Y-95645824D01*
X139207083Y-95645825D01*
X139346798Y-95764731D01*
X139362143Y-95777791D01*
X139541977Y-95878297D01*
X139590515Y-95894068D01*
X139735626Y-95941218D01*
X139735630Y-95941219D01*
X139737908Y-95941959D01*
X139942473Y-95966351D01*
X140147879Y-95950546D01*
X140346304Y-95895145D01*
X140348433Y-95894070D01*
X140348437Y-95894068D01*
X140469940Y-95832692D01*
X140530189Y-95802258D01*
X140692530Y-95675424D01*
X140694098Y-95673608D01*
X140825572Y-95521293D01*
X140825576Y-95521288D01*
X140827143Y-95519472D01*
X140928902Y-95340344D01*
X140939175Y-95309464D01*
X140965251Y-95231075D01*
X140993930Y-95144863D01*
X140999882Y-95097752D01*
X141019579Y-94941828D01*
X141019579Y-94941827D01*
X141019750Y-94940474D01*
X141020162Y-94911000D01*
X141018717Y-94896262D01*
X141449099Y-94896262D01*
X141449299Y-94898644D01*
X141449299Y-94898648D01*
X141452925Y-94941828D01*
X141466338Y-95101553D01*
X141487157Y-95174158D01*
X141519616Y-95287354D01*
X141523123Y-95299586D01*
X141524217Y-95301715D01*
X141524218Y-95301717D01*
X141528296Y-95309651D01*
X141617291Y-95482818D01*
X141618777Y-95484693D01*
X141618779Y-95484696D01*
X141668746Y-95547738D01*
X141745256Y-95644270D01*
X141747082Y-95645824D01*
X141747083Y-95645825D01*
X141886798Y-95764731D01*
X141902143Y-95777791D01*
X142081977Y-95878297D01*
X142130515Y-95894068D01*
X142275626Y-95941218D01*
X142275630Y-95941219D01*
X142277908Y-95941959D01*
X142482473Y-95966351D01*
X142687879Y-95950546D01*
X142886304Y-95895145D01*
X142888433Y-95894070D01*
X142888437Y-95894068D01*
X143009940Y-95832692D01*
X143070189Y-95802258D01*
X143232530Y-95675424D01*
X143234098Y-95673608D01*
X143365572Y-95521293D01*
X143365576Y-95521288D01*
X143367143Y-95519472D01*
X143424219Y-95419000D01*
X144893087Y-95419000D01*
X144893690Y-95422807D01*
X144908026Y-95513319D01*
X144912933Y-95544304D01*
X144914683Y-95547738D01*
X144962911Y-95642390D01*
X144970529Y-95657342D01*
X145060237Y-95747050D01*
X145063670Y-95748799D01*
X145063671Y-95748800D01*
X145112454Y-95773656D01*
X145173275Y-95804646D01*
X145177080Y-95805249D01*
X145177081Y-95805249D01*
X145294772Y-95823889D01*
X145298579Y-95824492D01*
X145302386Y-95823889D01*
X145420077Y-95805249D01*
X145420078Y-95805249D01*
X145423883Y-95804646D01*
X145484704Y-95773656D01*
X145533487Y-95748800D01*
X145533488Y-95748799D01*
X145536921Y-95747050D01*
X145626629Y-95657342D01*
X145634248Y-95642390D01*
X145682475Y-95547738D01*
X145684225Y-95544304D01*
X145689133Y-95513319D01*
X145703468Y-95422807D01*
X145704071Y-95419000D01*
X145690026Y-95330320D01*
X145684828Y-95297502D01*
X145684828Y-95297501D01*
X145684225Y-95293696D01*
X145626629Y-95180658D01*
X145536921Y-95090950D01*
X145533488Y-95089201D01*
X145533487Y-95089200D01*
X145480402Y-95062152D01*
X145423883Y-95033354D01*
X145420078Y-95032751D01*
X145420077Y-95032751D01*
X145302386Y-95014111D01*
X145298579Y-95013508D01*
X145294772Y-95014111D01*
X145177081Y-95032751D01*
X145177080Y-95032751D01*
X145173275Y-95033354D01*
X145116756Y-95062152D01*
X145063671Y-95089200D01*
X145063670Y-95089201D01*
X145060237Y-95090950D01*
X144970529Y-95180658D01*
X144912933Y-95293696D01*
X144912330Y-95297501D01*
X144912330Y-95297502D01*
X144907132Y-95330320D01*
X144893087Y-95419000D01*
X143424219Y-95419000D01*
X143468902Y-95340344D01*
X143479175Y-95309464D01*
X143505251Y-95231075D01*
X143533930Y-95144863D01*
X143539882Y-95097752D01*
X143559579Y-94941828D01*
X143559579Y-94941827D01*
X143559750Y-94940474D01*
X143560162Y-94911000D01*
X143540059Y-94705970D01*
X143535012Y-94689251D01*
X143496515Y-94561747D01*
X143480514Y-94508749D01*
X143398860Y-94355178D01*
X143384921Y-94328962D01*
X143384918Y-94328958D01*
X143383797Y-94326849D01*
X143253590Y-94167200D01*
X143094854Y-94035882D01*
X142913634Y-93937897D01*
X142716833Y-93876977D01*
X142714458Y-93876727D01*
X142714456Y-93876727D01*
X142514331Y-93855693D01*
X142514326Y-93855693D01*
X142511948Y-93855443D01*
X142509563Y-93855660D01*
X142509558Y-93855660D01*
X142409365Y-93864779D01*
X142306782Y-93874114D01*
X142200808Y-93905304D01*
X142111454Y-93931602D01*
X142111452Y-93931603D01*
X142109151Y-93932280D01*
X142107025Y-93933391D01*
X142107026Y-93933391D01*
X141944531Y-94018342D01*
X141926581Y-94027726D01*
X141864209Y-94077874D01*
X141767891Y-94155315D01*
X141767888Y-94155318D01*
X141766026Y-94156815D01*
X141764487Y-94158649D01*
X141764486Y-94158650D01*
X141742469Y-94184889D01*
X141633603Y-94314630D01*
X141632448Y-94316731D01*
X141558285Y-94451634D01*
X141534355Y-94495162D01*
X141533631Y-94497443D01*
X141533631Y-94497444D01*
X141522348Y-94533012D01*
X141472063Y-94691532D01*
X141449099Y-94896262D01*
X141018717Y-94896262D01*
X141000059Y-94705970D01*
X140995012Y-94689251D01*
X140956515Y-94561747D01*
X140940514Y-94508749D01*
X140858860Y-94355178D01*
X140844921Y-94328962D01*
X140844918Y-94328958D01*
X140843797Y-94326849D01*
X140713590Y-94167200D01*
X140554854Y-94035882D01*
X140373634Y-93937897D01*
X140176833Y-93876977D01*
X140174458Y-93876727D01*
X140174456Y-93876727D01*
X139974331Y-93855693D01*
X139974326Y-93855693D01*
X139971948Y-93855443D01*
X139969563Y-93855660D01*
X139969558Y-93855660D01*
X139869365Y-93864779D01*
X139766782Y-93874114D01*
X139660808Y-93905304D01*
X139571454Y-93931602D01*
X139571452Y-93931603D01*
X139569151Y-93932280D01*
X139567025Y-93933391D01*
X139567026Y-93933391D01*
X139404531Y-94018342D01*
X139386581Y-94027726D01*
X139324209Y-94077874D01*
X139227891Y-94155315D01*
X139227888Y-94155318D01*
X139226026Y-94156815D01*
X139224487Y-94158649D01*
X139224486Y-94158650D01*
X139202469Y-94184889D01*
X139093603Y-94314630D01*
X139092448Y-94316731D01*
X139081940Y-94335845D01*
X139052672Y-94359293D01*
X139015395Y-94355178D01*
X138991947Y-94325910D01*
X138990001Y-94312239D01*
X138990001Y-93780000D01*
X146704508Y-93780000D01*
X146724354Y-93905304D01*
X146726104Y-93908738D01*
X146759357Y-93974000D01*
X146781950Y-94018342D01*
X146871658Y-94108050D01*
X146875091Y-94109799D01*
X146875092Y-94109800D01*
X146928177Y-94136848D01*
X146984696Y-94165646D01*
X146988501Y-94166249D01*
X146988502Y-94166249D01*
X147106193Y-94184889D01*
X147110000Y-94185492D01*
X147113807Y-94184889D01*
X147231498Y-94166249D01*
X147231499Y-94166249D01*
X147235304Y-94165646D01*
X147291823Y-94136848D01*
X147344908Y-94109800D01*
X147344909Y-94109799D01*
X147348342Y-94108050D01*
X147438050Y-94018342D01*
X147460644Y-93974000D01*
X147493896Y-93908738D01*
X147495646Y-93905304D01*
X147515492Y-93780000D01*
X147495646Y-93654696D01*
X147438050Y-93541658D01*
X147348342Y-93451950D01*
X147344909Y-93450201D01*
X147344908Y-93450200D01*
X147271836Y-93412968D01*
X147235304Y-93394354D01*
X147231499Y-93393751D01*
X147231498Y-93393751D01*
X147113807Y-93375111D01*
X147110000Y-93374508D01*
X147106193Y-93375111D01*
X146988502Y-93393751D01*
X146988501Y-93393751D01*
X146984696Y-93394354D01*
X146948164Y-93412968D01*
X146875092Y-93450200D01*
X146875091Y-93450201D01*
X146871658Y-93451950D01*
X146781950Y-93541658D01*
X146724354Y-93654696D01*
X146704508Y-93780000D01*
X138990001Y-93780000D01*
X138990001Y-92973394D01*
X139004353Y-92938746D01*
X139039001Y-92924394D01*
X139073649Y-92938746D01*
X139077402Y-92942958D01*
X139205256Y-93104270D01*
X139207082Y-93105824D01*
X139207083Y-93105825D01*
X139354708Y-93231463D01*
X139362143Y-93237791D01*
X139541977Y-93338297D01*
X139545378Y-93339402D01*
X139735626Y-93401218D01*
X139735630Y-93401219D01*
X139737908Y-93401959D01*
X139942473Y-93426351D01*
X140147879Y-93410546D01*
X140346304Y-93355145D01*
X140348433Y-93354070D01*
X140348437Y-93354068D01*
X140457381Y-93299036D01*
X140530189Y-93262258D01*
X140692530Y-93135424D01*
X140694098Y-93133608D01*
X140825572Y-92981293D01*
X140825576Y-92981288D01*
X140827143Y-92979472D01*
X140928902Y-92800344D01*
X140938009Y-92772969D01*
X140993174Y-92607135D01*
X140993930Y-92604863D01*
X141019750Y-92400474D01*
X141020162Y-92371000D01*
X141018717Y-92356262D01*
X141449099Y-92356262D01*
X141449299Y-92358644D01*
X141449299Y-92358648D01*
X141452925Y-92401828D01*
X141466338Y-92561553D01*
X141494730Y-92660569D01*
X141511422Y-92718778D01*
X141523123Y-92759586D01*
X141524217Y-92761715D01*
X141524218Y-92761717D01*
X141528296Y-92769651D01*
X141617291Y-92942818D01*
X141618777Y-92944693D01*
X141618779Y-92944696D01*
X141697445Y-93043947D01*
X141745256Y-93104270D01*
X141747082Y-93105824D01*
X141747083Y-93105825D01*
X141894708Y-93231463D01*
X141902143Y-93237791D01*
X142081977Y-93338297D01*
X142085378Y-93339402D01*
X142275626Y-93401218D01*
X142275630Y-93401219D01*
X142277908Y-93401959D01*
X142482473Y-93426351D01*
X142687879Y-93410546D01*
X142886304Y-93355145D01*
X142888433Y-93354070D01*
X142888437Y-93354068D01*
X142997381Y-93299036D01*
X143070189Y-93262258D01*
X143232530Y-93135424D01*
X143234098Y-93133608D01*
X143365572Y-92981293D01*
X143365576Y-92981288D01*
X143367143Y-92979472D01*
X143468902Y-92800344D01*
X143478009Y-92772969D01*
X143533174Y-92607135D01*
X143533930Y-92604863D01*
X143559750Y-92400474D01*
X143560162Y-92371000D01*
X143540059Y-92165970D01*
X143535012Y-92149251D01*
X143494325Y-92014492D01*
X143480514Y-91968749D01*
X143450146Y-91911634D01*
X143384921Y-91788962D01*
X143384918Y-91788958D01*
X143383797Y-91786849D01*
X143253590Y-91627200D01*
X143094854Y-91495882D01*
X142980405Y-91434000D01*
X142915739Y-91399035D01*
X142915738Y-91399034D01*
X142913634Y-91397897D01*
X142716833Y-91336977D01*
X142714458Y-91336727D01*
X142714456Y-91336727D01*
X142514331Y-91315693D01*
X142514326Y-91315693D01*
X142511948Y-91315443D01*
X142509563Y-91315660D01*
X142509558Y-91315660D01*
X142409365Y-91324778D01*
X142306782Y-91334114D01*
X142165823Y-91375600D01*
X142111454Y-91391602D01*
X142111452Y-91391603D01*
X142109151Y-91392280D01*
X142107025Y-91393391D01*
X142107026Y-91393391D01*
X141934290Y-91483696D01*
X141926581Y-91487726D01*
X141852712Y-91547118D01*
X141767891Y-91615315D01*
X141767888Y-91615318D01*
X141766026Y-91616815D01*
X141764487Y-91618649D01*
X141764486Y-91618650D01*
X141715730Y-91676755D01*
X141633603Y-91774630D01*
X141632448Y-91776731D01*
X141558285Y-91911634D01*
X141534355Y-91955162D01*
X141533631Y-91957443D01*
X141533631Y-91957444D01*
X141522385Y-91992896D01*
X141472063Y-92151532D01*
X141449099Y-92356262D01*
X141018717Y-92356262D01*
X141000059Y-92165970D01*
X140995012Y-92149251D01*
X140954325Y-92014492D01*
X140940514Y-91968749D01*
X140910146Y-91911634D01*
X140844921Y-91788962D01*
X140844918Y-91788958D01*
X140843797Y-91786849D01*
X140713590Y-91627200D01*
X140554854Y-91495882D01*
X140440405Y-91434000D01*
X140375739Y-91399035D01*
X140375738Y-91399034D01*
X140373634Y-91397897D01*
X140176833Y-91336977D01*
X140174458Y-91336727D01*
X140174456Y-91336727D01*
X139974331Y-91315693D01*
X139974326Y-91315693D01*
X139971948Y-91315443D01*
X139969563Y-91315660D01*
X139969558Y-91315660D01*
X139869365Y-91324778D01*
X139766782Y-91334114D01*
X139625823Y-91375600D01*
X139571454Y-91391602D01*
X139571452Y-91391603D01*
X139569151Y-91392280D01*
X139567025Y-91393391D01*
X139567026Y-91393391D01*
X139394290Y-91483696D01*
X139386581Y-91487726D01*
X139312712Y-91547118D01*
X139227891Y-91615315D01*
X139227888Y-91615318D01*
X139226026Y-91616815D01*
X139224487Y-91618649D01*
X139224486Y-91618650D01*
X139175730Y-91676755D01*
X139093603Y-91774630D01*
X139092448Y-91776731D01*
X139081940Y-91795845D01*
X139052672Y-91819293D01*
X139015395Y-91815178D01*
X138991947Y-91785910D01*
X138990001Y-91772239D01*
X138990001Y-90599000D01*
X144987087Y-90599000D01*
X145006933Y-90724304D01*
X145025375Y-90760498D01*
X145046267Y-90801500D01*
X145064529Y-90837342D01*
X145154237Y-90927050D01*
X145157670Y-90928799D01*
X145157671Y-90928800D01*
X145210756Y-90955848D01*
X145267275Y-90984646D01*
X145271080Y-90985249D01*
X145271081Y-90985249D01*
X145388772Y-91003889D01*
X145392579Y-91004492D01*
X145396386Y-91003889D01*
X145514077Y-90985249D01*
X145514078Y-90985249D01*
X145517883Y-90984646D01*
X145574402Y-90955848D01*
X145627487Y-90928800D01*
X145627488Y-90928799D01*
X145630921Y-90927050D01*
X145720629Y-90837342D01*
X145738892Y-90801500D01*
X145759783Y-90760498D01*
X145778225Y-90724304D01*
X145796487Y-90609000D01*
X148747087Y-90609000D01*
X148766933Y-90734304D01*
X148778998Y-90757983D01*
X148820823Y-90840068D01*
X148824529Y-90847342D01*
X148914237Y-90937050D01*
X148917670Y-90938799D01*
X148917671Y-90938800D01*
X148962872Y-90961831D01*
X149027275Y-90994646D01*
X149031080Y-90995249D01*
X149031081Y-90995249D01*
X149044053Y-90997303D01*
X149071702Y-91001683D01*
X149098684Y-91015431D01*
X149850849Y-91767596D01*
X149853737Y-91770748D01*
X149877365Y-91798907D01*
X149877368Y-91798910D01*
X149880124Y-91802194D01*
X149909741Y-91819293D01*
X149915670Y-91822716D01*
X149919274Y-91825012D01*
X149952895Y-91848554D01*
X149960715Y-91850649D01*
X149972527Y-91855543D01*
X149975817Y-91857442D01*
X149979534Y-91859588D01*
X149983757Y-91860333D01*
X149983758Y-91860333D01*
X150003147Y-91863751D01*
X150019956Y-91866715D01*
X150024121Y-91867639D01*
X150047932Y-91874020D01*
X150050420Y-91874686D01*
X150063772Y-91878264D01*
X150068037Y-91877891D01*
X150068039Y-91877891D01*
X150104671Y-91874686D01*
X150108941Y-91874500D01*
X152851391Y-91874500D01*
X152886039Y-91888852D01*
X152934237Y-91937050D01*
X152937670Y-91938799D01*
X152937671Y-91938800D01*
X152974262Y-91957444D01*
X153047275Y-91994646D01*
X153051080Y-91995249D01*
X153051081Y-91995249D01*
X153168772Y-92013889D01*
X153172579Y-92014492D01*
X153176386Y-92013889D01*
X153294077Y-91995249D01*
X153294078Y-91995249D01*
X153297883Y-91994646D01*
X153370896Y-91957444D01*
X153407487Y-91938800D01*
X153407488Y-91938799D01*
X153410921Y-91937050D01*
X153500629Y-91847342D01*
X153517018Y-91815178D01*
X153556475Y-91737738D01*
X153558225Y-91734304D01*
X153578071Y-91609000D01*
X153558225Y-91483696D01*
X153527169Y-91422745D01*
X153524226Y-91385358D01*
X153548582Y-91356841D01*
X153570828Y-91351500D01*
X154826523Y-91351500D01*
X154861171Y-91365852D01*
X155042437Y-91547118D01*
X155056789Y-91581766D01*
X155056186Y-91589430D01*
X155053690Y-91605191D01*
X155053087Y-91609000D01*
X155072933Y-91734304D01*
X155074683Y-91737738D01*
X155114141Y-91815178D01*
X155130529Y-91847342D01*
X155220237Y-91937050D01*
X155223670Y-91938799D01*
X155223671Y-91938800D01*
X155260262Y-91957444D01*
X155333275Y-91994646D01*
X155337080Y-91995249D01*
X155337081Y-91995249D01*
X155454772Y-92013889D01*
X155458579Y-92014492D01*
X155462386Y-92013889D01*
X155580077Y-91995249D01*
X155580078Y-91995249D01*
X155583883Y-91994646D01*
X155656896Y-91957444D01*
X155693487Y-91938800D01*
X155693488Y-91938799D01*
X155696921Y-91937050D01*
X155786629Y-91847342D01*
X155803018Y-91815178D01*
X155842475Y-91737738D01*
X155844225Y-91734304D01*
X155864071Y-91609000D01*
X155844225Y-91483696D01*
X155786629Y-91370658D01*
X155696921Y-91280950D01*
X155678686Y-91271659D01*
X155654330Y-91243142D01*
X155657272Y-91205755D01*
X155678686Y-91184341D01*
X155696921Y-91175050D01*
X155786629Y-91085342D01*
X155844225Y-90972304D01*
X155849532Y-90938800D01*
X155863468Y-90850807D01*
X155864071Y-90847000D01*
X155844225Y-90721696D01*
X155800149Y-90635193D01*
X155788379Y-90612092D01*
X155788378Y-90612091D01*
X155786629Y-90608658D01*
X155696921Y-90518950D01*
X155693488Y-90517201D01*
X155693487Y-90517200D01*
X155615575Y-90477502D01*
X155583883Y-90461354D01*
X155580078Y-90460751D01*
X155580077Y-90460751D01*
X155462386Y-90442111D01*
X155458579Y-90441508D01*
X155454772Y-90442111D01*
X155440773Y-90444328D01*
X155404306Y-90435573D01*
X155392366Y-90423153D01*
X155387862Y-90416412D01*
X155387860Y-90416410D01*
X155385180Y-90412399D01*
X155379974Y-90408921D01*
X155322710Y-90370658D01*
X155306334Y-90359715D01*
X155306329Y-90359713D01*
X155302320Y-90357034D01*
X155297586Y-90356092D01*
X155297585Y-90356092D01*
X155209315Y-90338534D01*
X155204579Y-90337592D01*
X155184639Y-90341558D01*
X155175082Y-90342500D01*
X153508767Y-90342500D01*
X153474119Y-90328148D01*
X153410921Y-90264950D01*
X153407488Y-90263201D01*
X153407487Y-90263200D01*
X153329956Y-90223696D01*
X153297883Y-90207354D01*
X153294078Y-90206751D01*
X153294077Y-90206751D01*
X153176386Y-90188111D01*
X153172579Y-90187508D01*
X153168772Y-90188111D01*
X153051081Y-90206751D01*
X153051080Y-90206751D01*
X153047275Y-90207354D01*
X153015202Y-90223696D01*
X152937671Y-90263200D01*
X152937670Y-90263201D01*
X152934237Y-90264950D01*
X152844529Y-90354658D01*
X152842780Y-90358091D01*
X152842779Y-90358092D01*
X152834627Y-90374092D01*
X152786933Y-90467696D01*
X152786330Y-90471501D01*
X152786330Y-90471502D01*
X152778815Y-90518950D01*
X152767087Y-90593000D01*
X152786933Y-90718304D01*
X152810372Y-90764304D01*
X152817989Y-90779254D01*
X152820932Y-90816642D01*
X152796576Y-90845159D01*
X152774330Y-90850500D01*
X152404267Y-90850500D01*
X152369619Y-90836148D01*
X152355267Y-90801500D01*
X152360607Y-90779255D01*
X152366476Y-90767736D01*
X152368225Y-90764304D01*
X152372977Y-90734304D01*
X152387468Y-90642807D01*
X152388071Y-90639000D01*
X152368225Y-90513696D01*
X152332880Y-90444328D01*
X152312379Y-90404092D01*
X152312378Y-90404091D01*
X152310629Y-90400658D01*
X152220921Y-90310950D01*
X152217488Y-90309201D01*
X152217487Y-90309200D01*
X152130641Y-90264950D01*
X152107883Y-90253354D01*
X152104078Y-90252751D01*
X152104077Y-90252751D01*
X152004997Y-90237059D01*
X151982579Y-90233508D01*
X151978772Y-90234111D01*
X151978770Y-90234111D01*
X151963009Y-90236607D01*
X151926543Y-90227851D01*
X151920697Y-90222858D01*
X151890572Y-90192733D01*
X151884478Y-90185308D01*
X151875863Y-90172414D01*
X151875862Y-90172413D01*
X151873180Y-90168399D01*
X151820115Y-90132943D01*
X151790320Y-90113034D01*
X151785586Y-90112092D01*
X151785585Y-90112092D01*
X151697315Y-90094534D01*
X151692579Y-90093592D01*
X151672639Y-90097558D01*
X151663082Y-90098500D01*
X151368767Y-90098500D01*
X151334119Y-90084148D01*
X151270921Y-90020950D01*
X151267488Y-90019201D01*
X151267487Y-90019200D01*
X151207260Y-89988513D01*
X151157883Y-89963354D01*
X151154078Y-89962751D01*
X151154077Y-89962751D01*
X151036386Y-89944111D01*
X151032579Y-89943508D01*
X151028772Y-89944111D01*
X150911081Y-89962751D01*
X150911080Y-89962751D01*
X150907275Y-89963354D01*
X150857898Y-89988513D01*
X150797671Y-90019200D01*
X150797670Y-90019201D01*
X150794237Y-90020950D01*
X150704529Y-90110658D01*
X150702780Y-90114091D01*
X150702779Y-90114092D01*
X150687572Y-90143938D01*
X150646933Y-90223696D01*
X150646330Y-90227501D01*
X150646330Y-90227502D01*
X150640676Y-90263200D01*
X150627087Y-90349000D01*
X150627690Y-90352807D01*
X150645343Y-90464262D01*
X150646933Y-90474304D01*
X150704529Y-90587342D01*
X150794237Y-90677050D01*
X150797670Y-90678799D01*
X150797671Y-90678800D01*
X150850756Y-90705848D01*
X150907275Y-90734646D01*
X150911080Y-90735249D01*
X150911081Y-90735249D01*
X151023809Y-90753103D01*
X151031772Y-90757983D01*
X151041349Y-90753103D01*
X151154077Y-90735249D01*
X151154078Y-90735249D01*
X151157883Y-90734646D01*
X151214402Y-90705848D01*
X151267487Y-90678800D01*
X151267488Y-90678799D01*
X151270921Y-90677050D01*
X151334119Y-90613852D01*
X151368767Y-90599500D01*
X151528981Y-90599500D01*
X151563629Y-90613852D01*
X151577377Y-90640834D01*
X151583391Y-90678800D01*
X151592182Y-90734304D01*
X151596933Y-90764304D01*
X151598682Y-90767736D01*
X151604551Y-90779255D01*
X151607492Y-90816643D01*
X151583136Y-90845160D01*
X151560891Y-90850500D01*
X151049014Y-90850500D01*
X151034565Y-90844515D01*
X151016144Y-90850500D01*
X150502635Y-90850500D01*
X150467987Y-90836148D01*
X150286721Y-90654882D01*
X150272369Y-90620234D01*
X150272972Y-90612570D01*
X150275468Y-90596809D01*
X150275468Y-90596807D01*
X150276071Y-90593000D01*
X150264343Y-90518950D01*
X150256828Y-90471502D01*
X150256828Y-90471501D01*
X150256225Y-90467696D01*
X150208531Y-90374092D01*
X150200379Y-90358092D01*
X150200378Y-90358091D01*
X150198629Y-90354658D01*
X150108921Y-90264950D01*
X150105488Y-90263201D01*
X150105487Y-90263200D01*
X150027956Y-90223696D01*
X149995883Y-90207354D01*
X149992078Y-90206751D01*
X149992077Y-90206751D01*
X149874386Y-90188111D01*
X149870579Y-90187508D01*
X149866772Y-90188111D01*
X149749081Y-90206751D01*
X149749080Y-90206751D01*
X149745275Y-90207354D01*
X149713202Y-90223696D01*
X149635671Y-90263200D01*
X149635670Y-90263201D01*
X149632237Y-90264950D01*
X149542529Y-90354658D01*
X149542516Y-90354645D01*
X149511921Y-90373390D01*
X149475455Y-90364632D01*
X149469612Y-90359641D01*
X149390921Y-90280950D01*
X149387488Y-90279201D01*
X149387487Y-90279200D01*
X149303893Y-90236607D01*
X149277883Y-90223354D01*
X149274078Y-90222751D01*
X149274077Y-90222751D01*
X149156386Y-90204111D01*
X149152579Y-90203508D01*
X149148772Y-90204111D01*
X149031081Y-90222751D01*
X149031080Y-90222751D01*
X149027275Y-90223354D01*
X149001265Y-90236607D01*
X148917671Y-90279200D01*
X148917670Y-90279201D01*
X148914237Y-90280950D01*
X148824529Y-90370658D01*
X148766933Y-90483696D01*
X148766330Y-90487501D01*
X148766330Y-90487502D01*
X148751061Y-90583908D01*
X148747087Y-90609000D01*
X145796487Y-90609000D01*
X145798071Y-90599000D01*
X145785824Y-90521676D01*
X145778828Y-90477502D01*
X145778828Y-90477501D01*
X145778225Y-90473696D01*
X145749037Y-90416412D01*
X145722379Y-90364092D01*
X145722378Y-90364091D01*
X145720629Y-90360658D01*
X145630921Y-90270950D01*
X145627488Y-90269201D01*
X145627487Y-90269200D01*
X145545650Y-90227502D01*
X145517883Y-90213354D01*
X145514078Y-90212751D01*
X145514077Y-90212751D01*
X145396386Y-90194111D01*
X145392579Y-90193508D01*
X145388772Y-90194111D01*
X145271081Y-90212751D01*
X145271080Y-90212751D01*
X145267275Y-90213354D01*
X145239508Y-90227502D01*
X145157671Y-90269200D01*
X145157670Y-90269201D01*
X145154237Y-90270950D01*
X145064529Y-90360658D01*
X145062780Y-90364091D01*
X145062779Y-90364092D01*
X145036121Y-90416412D01*
X145006933Y-90473696D01*
X145006330Y-90477501D01*
X145006330Y-90477502D01*
X144999334Y-90521676D01*
X144987087Y-90599000D01*
X138990001Y-90599000D01*
X138990000Y-89313783D01*
X139620387Y-89313783D01*
X139622036Y-89317765D01*
X139770766Y-89421908D01*
X139774453Y-89424037D01*
X139976737Y-89518363D01*
X139980742Y-89519821D01*
X140196323Y-89577586D01*
X140200527Y-89578328D01*
X140422874Y-89597780D01*
X140427126Y-89597780D01*
X140649473Y-89578328D01*
X140653677Y-89577586D01*
X140869258Y-89519821D01*
X140873263Y-89518363D01*
X141075547Y-89424037D01*
X141079234Y-89421908D01*
X141225665Y-89319375D01*
X141229675Y-89313081D01*
X141228742Y-89308874D01*
X140431893Y-88512025D01*
X140425000Y-88509170D01*
X140418107Y-88512025D01*
X139623242Y-89306890D01*
X139620387Y-89313783D01*
X138990000Y-89313783D01*
X138990000Y-88295126D01*
X139120220Y-88295126D01*
X139139672Y-88517473D01*
X139140414Y-88521677D01*
X139198179Y-88737258D01*
X139199637Y-88741263D01*
X139293963Y-88943547D01*
X139296092Y-88947234D01*
X139398625Y-89093665D01*
X139404919Y-89097675D01*
X139409126Y-89096742D01*
X140205975Y-88299893D01*
X140208830Y-88293000D01*
X140641170Y-88293000D01*
X140644025Y-88299893D01*
X141438890Y-89094758D01*
X141445783Y-89097613D01*
X141449765Y-89095964D01*
X141495954Y-89030000D01*
X142864508Y-89030000D01*
X142865111Y-89033807D01*
X142882030Y-89140628D01*
X142884354Y-89155304D01*
X142941950Y-89268342D01*
X143031658Y-89358050D01*
X143035091Y-89359799D01*
X143035092Y-89359800D01*
X143058318Y-89371634D01*
X143144696Y-89415646D01*
X143148501Y-89416249D01*
X143148502Y-89416249D01*
X143266193Y-89434889D01*
X143270000Y-89435492D01*
X143273807Y-89434889D01*
X143391498Y-89416249D01*
X143391499Y-89416249D01*
X143395304Y-89415646D01*
X143481682Y-89371634D01*
X143504908Y-89359800D01*
X143504909Y-89359799D01*
X143508342Y-89358050D01*
X143598050Y-89268342D01*
X143655646Y-89155304D01*
X143657971Y-89140628D01*
X143674889Y-89033807D01*
X143675492Y-89030000D01*
X143661251Y-88940082D01*
X143656249Y-88908502D01*
X143656249Y-88908501D01*
X143655646Y-88904696D01*
X143607931Y-88811051D01*
X143599800Y-88795092D01*
X143599799Y-88795091D01*
X143598050Y-88791658D01*
X143508342Y-88701950D01*
X143504909Y-88700201D01*
X143504908Y-88700200D01*
X143451823Y-88673152D01*
X143395304Y-88644354D01*
X143391499Y-88643751D01*
X143391498Y-88643751D01*
X143273807Y-88625111D01*
X143270000Y-88624508D01*
X143266193Y-88625111D01*
X143148502Y-88643751D01*
X143148501Y-88643751D01*
X143144696Y-88644354D01*
X143088177Y-88673152D01*
X143035092Y-88700200D01*
X143035091Y-88700201D01*
X143031658Y-88701950D01*
X142941950Y-88791658D01*
X142940201Y-88795091D01*
X142940200Y-88795092D01*
X142932069Y-88811051D01*
X142884354Y-88904696D01*
X142883751Y-88908501D01*
X142883751Y-88908502D01*
X142878749Y-88940082D01*
X142864508Y-89030000D01*
X141495954Y-89030000D01*
X141553908Y-88947234D01*
X141556037Y-88943547D01*
X141650363Y-88741263D01*
X141651821Y-88737258D01*
X141690147Y-88594223D01*
X145072579Y-88594223D01*
X145072788Y-88597408D01*
X145087604Y-88709947D01*
X145089253Y-88716100D01*
X145147251Y-88856120D01*
X145150436Y-88861637D01*
X145242698Y-88981876D01*
X145247203Y-88986381D01*
X145367441Y-89078643D01*
X145372958Y-89081828D01*
X145512979Y-89139826D01*
X145514497Y-89140233D01*
X145520121Y-89138726D01*
X145522579Y-89134469D01*
X145522579Y-88316247D01*
X145519724Y-88309355D01*
X145512832Y-88306500D01*
X145082326Y-88306500D01*
X145075434Y-88309355D01*
X145072579Y-88316247D01*
X145072579Y-88594223D01*
X141690147Y-88594223D01*
X141709586Y-88521677D01*
X141710328Y-88517473D01*
X141729780Y-88295126D01*
X141729780Y-88290874D01*
X141710328Y-88068527D01*
X141709586Y-88064323D01*
X141691481Y-87996753D01*
X145072579Y-87996753D01*
X145075434Y-88003645D01*
X145082326Y-88006500D01*
X145512832Y-88006500D01*
X145519724Y-88003645D01*
X145522579Y-87996753D01*
X145522579Y-87180818D01*
X145519724Y-87173926D01*
X145515972Y-87172372D01*
X145512979Y-87173174D01*
X145372959Y-87231172D01*
X145367442Y-87234357D01*
X145247203Y-87326619D01*
X145242698Y-87331124D01*
X145150436Y-87451363D01*
X145147251Y-87456880D01*
X145089253Y-87596900D01*
X145087604Y-87603053D01*
X145072788Y-87715592D01*
X145072579Y-87718777D01*
X145072579Y-87996753D01*
X141691481Y-87996753D01*
X141651821Y-87848742D01*
X141650363Y-87844737D01*
X141556037Y-87642453D01*
X141553908Y-87638766D01*
X141451375Y-87492335D01*
X141445081Y-87488325D01*
X141440874Y-87489258D01*
X140644025Y-88286107D01*
X140641170Y-88293000D01*
X140208830Y-88293000D01*
X140205975Y-88286107D01*
X139411110Y-87491242D01*
X139404217Y-87488387D01*
X139400235Y-87490036D01*
X139296092Y-87638766D01*
X139293963Y-87642453D01*
X139199637Y-87844737D01*
X139198179Y-87848742D01*
X139140414Y-88064323D01*
X139139672Y-88068527D01*
X139120220Y-88290874D01*
X139120220Y-88295126D01*
X138990000Y-88295126D01*
X138990000Y-87687280D01*
X138991246Y-87676299D01*
X138993907Y-87664729D01*
X138993907Y-87664727D01*
X138995143Y-87659352D01*
X138993284Y-87651137D01*
X138992312Y-87635519D01*
X139004899Y-87507725D01*
X139006773Y-87498304D01*
X139049496Y-87357467D01*
X139053172Y-87348592D01*
X139093620Y-87272919D01*
X139620325Y-87272919D01*
X139621258Y-87277126D01*
X140418107Y-88073975D01*
X140425000Y-88076830D01*
X140431893Y-88073975D01*
X141226758Y-87279110D01*
X141229613Y-87272217D01*
X141227964Y-87268235D01*
X141079234Y-87164092D01*
X141075547Y-87161963D01*
X140873263Y-87067637D01*
X140869258Y-87066179D01*
X140653677Y-87008414D01*
X140649473Y-87007672D01*
X140427126Y-86988220D01*
X140422874Y-86988220D01*
X140200527Y-87007672D01*
X140196323Y-87008414D01*
X139980742Y-87066179D01*
X139976737Y-87067637D01*
X139774453Y-87161963D01*
X139770766Y-87164092D01*
X139624335Y-87266625D01*
X139620325Y-87272919D01*
X139093620Y-87272919D01*
X139122552Y-87218792D01*
X139127889Y-87210806D01*
X139221252Y-87097044D01*
X139228044Y-87090251D01*
X139341816Y-86996881D01*
X139349803Y-86991545D01*
X139479600Y-86922167D01*
X139488474Y-86918491D01*
X139629311Y-86875769D01*
X139638731Y-86873895D01*
X139766120Y-86861349D01*
X139781903Y-86862360D01*
X139784267Y-86862904D01*
X139784269Y-86862904D01*
X139789644Y-86864140D01*
X139807035Y-86860205D01*
X139817848Y-86858997D01*
X143644073Y-86858997D01*
X143655137Y-86860263D01*
X143671859Y-86864139D01*
X143672575Y-86864140D01*
X143678675Y-86862749D01*
X143685716Y-86861674D01*
X143860877Y-86847889D01*
X144044543Y-86803796D01*
X144046316Y-86803062D01*
X144046321Y-86803060D01*
X144161182Y-86755483D01*
X144219049Y-86731513D01*
X144380100Y-86632822D01*
X144381563Y-86631573D01*
X144522269Y-86511399D01*
X144522272Y-86511396D01*
X144523729Y-86510152D01*
X144557933Y-86470105D01*
X144645152Y-86367986D01*
X144645156Y-86367981D01*
X144646400Y-86366524D01*
X144647401Y-86364890D01*
X144647405Y-86364885D01*
X144744083Y-86207120D01*
X144744085Y-86207117D01*
X144745092Y-86205474D01*
X144817375Y-86030968D01*
X144861470Y-85847302D01*
X144875182Y-85673080D01*
X144876296Y-85665862D01*
X144877095Y-85662416D01*
X144877721Y-85659716D01*
X144877722Y-85659000D01*
X144873775Y-85641696D01*
X144872548Y-85630853D01*
X144871618Y-84794223D01*
X145072579Y-84794223D01*
X145072788Y-84797408D01*
X145087604Y-84909947D01*
X145089253Y-84916100D01*
X145147251Y-85056120D01*
X145150436Y-85061637D01*
X145242698Y-85181876D01*
X145247203Y-85186381D01*
X145367441Y-85278643D01*
X145372958Y-85281828D01*
X145512979Y-85339826D01*
X145514497Y-85340233D01*
X145520121Y-85338726D01*
X145522579Y-85334469D01*
X145522579Y-84316247D01*
X145519724Y-84309355D01*
X145512832Y-84306500D01*
X145082326Y-84306500D01*
X145075434Y-84309355D01*
X145072579Y-84316247D01*
X145072579Y-84794223D01*
X144871618Y-84794223D01*
X144870732Y-83996753D01*
X145072579Y-83996753D01*
X145075434Y-84003645D01*
X145082326Y-84006500D01*
X145512832Y-84006500D01*
X145519724Y-84003645D01*
X145522579Y-83996753D01*
X145522579Y-82980818D01*
X145519724Y-82973926D01*
X145515972Y-82972372D01*
X145512979Y-82973174D01*
X145372959Y-83031172D01*
X145367442Y-83034357D01*
X145247203Y-83126619D01*
X145242698Y-83131124D01*
X145150436Y-83251363D01*
X145147251Y-83256880D01*
X145089253Y-83396900D01*
X145087604Y-83403053D01*
X145072788Y-83515592D01*
X145072579Y-83518777D01*
X145072579Y-83996753D01*
X144870732Y-83996753D01*
X144870072Y-83403053D01*
X144869718Y-83084295D01*
X144870965Y-83073261D01*
X144873591Y-83061844D01*
X144873591Y-83061839D01*
X144874827Y-83056464D01*
X144872968Y-83048249D01*
X144871996Y-83032631D01*
X144884583Y-82904837D01*
X144886457Y-82895416D01*
X144929180Y-82754579D01*
X144932856Y-82745704D01*
X145002236Y-82615904D01*
X145007573Y-82607918D01*
X145100936Y-82494156D01*
X145107728Y-82487363D01*
X145221500Y-82393993D01*
X145229487Y-82388657D01*
X145359284Y-82319279D01*
X145368158Y-82315603D01*
X145508995Y-82272881D01*
X145518415Y-82271007D01*
X145645804Y-82258461D01*
X145661587Y-82259472D01*
X145663951Y-82260016D01*
X145663953Y-82260016D01*
X145669328Y-82261252D01*
X145681838Y-82258421D01*
X145686660Y-82257330D01*
X145697498Y-82256122D01*
X146243602Y-82256382D01*
G37*
%TD.AperFunction*%
%TA.AperFunction,Conductor*%
G36*
X153650247Y-99462675D02*
G01*
X153659011Y-99490640D01*
X153659011Y-100402818D01*
X153644659Y-100437466D01*
X153610011Y-100451818D01*
X153602346Y-100451215D01*
X153563807Y-100445111D01*
X153560000Y-100444508D01*
X153556193Y-100445111D01*
X153438502Y-100463751D01*
X153438501Y-100463751D01*
X153434696Y-100464354D01*
X153406594Y-100478673D01*
X153325092Y-100520200D01*
X153325091Y-100520201D01*
X153321658Y-100521950D01*
X153231950Y-100611658D01*
X153174354Y-100724696D01*
X153173751Y-100728501D01*
X153173751Y-100728502D01*
X153168251Y-100763229D01*
X153154508Y-100850000D01*
X153155111Y-100853807D01*
X153168578Y-100938833D01*
X153174354Y-100975304D01*
X153231950Y-101088342D01*
X153321658Y-101178050D01*
X153325091Y-101179799D01*
X153325092Y-101179800D01*
X153432737Y-101234648D01*
X153457093Y-101263165D01*
X153459491Y-101278307D01*
X153459491Y-101885953D01*
X153445139Y-101920601D01*
X153168232Y-102197508D01*
X153133584Y-102211860D01*
X151252908Y-102211860D01*
X151218260Y-102197508D01*
X150030229Y-101009477D01*
X150015877Y-100974829D01*
X150030229Y-100940181D01*
X150064877Y-100925829D01*
X150095979Y-100936965D01*
X150109731Y-100948261D01*
X150152581Y-100974829D01*
X150340055Y-101091068D01*
X150357486Y-101101876D01*
X150623382Y-101221375D01*
X150902746Y-101304657D01*
X150951300Y-101312347D01*
X151189323Y-101350047D01*
X151189332Y-101350048D01*
X151190671Y-101350260D01*
X151192028Y-101350322D01*
X151192032Y-101350322D01*
X151281288Y-101354375D01*
X151281303Y-101354375D01*
X151281846Y-101354400D01*
X151463938Y-101354400D01*
X151464744Y-101354346D01*
X151464758Y-101354346D01*
X151580230Y-101346676D01*
X151680873Y-101339991D01*
X151682473Y-101339668D01*
X151682476Y-101339668D01*
X151965036Y-101282694D01*
X151965041Y-101282693D01*
X151966636Y-101282371D01*
X151968171Y-101281842D01*
X151968180Y-101281840D01*
X152240729Y-101187994D01*
X152240735Y-101187992D01*
X152242267Y-101187464D01*
X152261067Y-101178050D01*
X152434766Y-101091068D01*
X152502926Y-101056936D01*
X152744031Y-100893081D01*
X152961348Y-100698777D01*
X153151057Y-100477439D01*
X153242783Y-100336193D01*
X153308944Y-100234315D01*
X153308945Y-100234313D01*
X153309827Y-100232955D01*
X153345091Y-100158691D01*
X153434169Y-99971092D01*
X153434868Y-99969620D01*
X153438819Y-99957315D01*
X153523486Y-99693607D01*
X153523487Y-99693602D01*
X153523982Y-99692061D01*
X153524461Y-99689402D01*
X153561785Y-99481963D01*
X153582046Y-99450404D01*
X153618688Y-99442414D01*
X153650247Y-99462675D01*
G37*
%TD.AperFunction*%
%TA.AperFunction,Conductor*%
G36*
X146058526Y-98258852D02*
G01*
X147331154Y-99531480D01*
X147345506Y-99566128D01*
X147331154Y-99600776D01*
X147311648Y-99612730D01*
X147308508Y-99613750D01*
X147304696Y-99614354D01*
X147301258Y-99616106D01*
X147301257Y-99616106D01*
X147195092Y-99670200D01*
X147195091Y-99670201D01*
X147191658Y-99671950D01*
X147101950Y-99761658D01*
X147100201Y-99765091D01*
X147100200Y-99765092D01*
X147090471Y-99784186D01*
X147044354Y-99874696D01*
X147043751Y-99878503D01*
X147039706Y-99904045D01*
X147020111Y-99936022D01*
X146983645Y-99944778D01*
X146956661Y-99931029D01*
X145730090Y-98704458D01*
X145715738Y-98669810D01*
X145716341Y-98662146D01*
X145718837Y-98646385D01*
X145718837Y-98646383D01*
X145719440Y-98642576D01*
X145709512Y-98579890D01*
X145700197Y-98521078D01*
X145700197Y-98521077D01*
X145699594Y-98517272D01*
X145657748Y-98435145D01*
X145643748Y-98407668D01*
X145643747Y-98407667D01*
X145641998Y-98404234D01*
X145598697Y-98360933D01*
X145584345Y-98326285D01*
X145598697Y-98291637D01*
X145611099Y-98282626D01*
X145675443Y-98249841D01*
X145697689Y-98244500D01*
X146023878Y-98244500D01*
X146058526Y-98258852D01*
G37*
%TD.AperFunction*%
%TD*%
M02*
