M48
; DRILL file {KiCad 6.0.0} date Sat 08 Jan 2022 01:14:46 AM CET
; FORMAT={-:-/ absolute / metric / decimal}
; #@! TF.CreationDate,2022-01-08T01:14:46+01:00
; #@! TF.GenerationSoftware,Kicad,Pcbnew,6.0.0
; #@! TF.FileFunction,MixedPlating,1,4
FMAT,2
METRIC
; #@! TA.AperFunction,Plated,PTH,ViaDrill
T1C0.200
; #@! TA.AperFunction,Plated,PTH,ComponentDrill
T2C0.300
; #@! TA.AperFunction,Plated,PTH,ComponentDrill
T3C0.600
; #@! TA.AperFunction,Plated,PTH,ComponentDrill
T4C0.650
; #@! TA.AperFunction,Plated,PTH,ComponentDrill
T5C1.000
; #@! TA.AperFunction,Plated,PTH,ComponentDrill
T6C1.470
; #@! TA.AperFunction,Plated,PTH,ComponentDrill
T7C2.200
; #@! TA.AperFunction,NonPlated,NPTH,ComponentDrill
T8C3.988
%
G90
G05
T1
X140.25Y-100.34
X140.28Y-103.37
X140.293Y-105.669
X140.323Y-104.929
X140.473Y-98.721
X140.79Y-108.66
X140.9Y-100.32
X141.013Y-105.629
X141.053Y-106.349
X141.34Y-100.71
X141.713Y-106.349
X141.73Y-100.26
X141.773Y-106.999
X142.14Y-99.64
X142.14Y-108.49
X142.453Y-107.029
X142.53Y-107.67
X142.83Y-99.34
X143.27Y-89.03
X143.37Y-98.86
X145.299Y-95.419
X145.314Y-98.643
X145.36Y-93.82
X145.393Y-90.599
X145.443Y-97.919
X145.84Y-108.45
X146.243Y-107.979
X146.49Y-98.9
X146.67Y-107.46
X146.803Y-89.589
X147.11Y-93.78
X147.43Y-100.0
X148.02Y-99.38
X148.52Y-100.94
X148.81Y-99.64
X148.953Y-101.499
X149.153Y-90.609
X149.511Y-104.466
X149.553Y-103.129
X149.68Y-92.84
X149.871Y-90.593
X149.963Y-102.639
X150.633Y-95.673
X150.886Y-104.238
X151.033Y-90.349
X151.74Y-104.36
X151.953Y-95.669
X151.983Y-90.639
X152.84Y-101.29
X153.173Y-90.593
X153.173Y-91.609
X153.22Y-96.59
X153.373Y-108.789
X153.384Y-104.259
X153.56Y-100.85
X153.73Y-102.512
X154.04Y-104.37
X155.459Y-90.847
X155.459Y-91.609
X155.823Y-89.339
X157.5Y-110.35
X158.373Y-96.879
X158.48Y-107.208
X158.49Y-104.08
X161.34Y-104.93
T2
X141.383Y-103.369
X143.045Y-101.708
X143.045Y-103.369
X143.045Y-105.031
X144.707Y-100.046
X144.707Y-101.708
X144.707Y-103.369
X144.707Y-105.031
X144.707Y-106.693
X146.369Y-101.708
X146.369Y-103.369
X146.369Y-105.031
X148.03Y-103.369
T4
X138.79Y-100.727
X138.79Y-101.997
X138.79Y-103.267
X138.79Y-104.537
X138.79Y-105.807
X143.28Y-111.67
X144.55Y-111.67
X145.82Y-111.67
X147.09Y-111.67
X149.23Y-111.66
X150.5Y-111.66
X151.77Y-111.66
X153.185Y-111.66
X154.455Y-111.66
X163.792Y-88.894
X163.792Y-90.164
X163.792Y-91.434
X163.792Y-92.704
X163.792Y-93.974
X163.792Y-95.244
X163.792Y-96.514
X163.792Y-97.784
X163.792Y-99.054
X163.792Y-100.324
X163.792Y-101.594
X163.792Y-102.864
X163.792Y-104.134
X163.792Y-105.404
X163.792Y-106.674
X163.792Y-107.944
T5
X139.965Y-92.371
X139.965Y-94.911
X139.965Y-97.451
X142.505Y-92.371
X142.505Y-94.911
X142.505Y-97.451
T6
X147.58Y-96.62
X153.93Y-94.08
T7
X140.425Y-88.293
X162.161Y-110.028
T8
X151.39Y-99.16
T3
G00X145.673Y-83.556
M15
G01X145.673Y-84.757
M16
G05
G00X145.673Y-87.757
M15
G01X145.673Y-88.556
M16
G05
G00X156.913Y-83.556
M15
G01X156.913Y-84.757
M16
G05
G00X156.913Y-87.757
M15
G01X156.913Y-88.556
M16
G05
T0
M30
