%TF.GenerationSoftware,KiCad,Pcbnew,6.0.0*%
%TF.CreationDate,2022-01-08T01:14:50+01:00*%
%TF.ProjectId,micro,6d696372-6f2e-46b6-9963-61645f706362,rev1.0*%
%TF.SameCoordinates,Original*%
%TF.FileFunction,Soldermask,Top*%
%TF.FilePolarity,Negative*%
%FSLAX46Y46*%
G04 Gerber Fmt 4.6, Leading zero omitted, Abs format (unit mm)*
G04 Created by KiCad (PCBNEW 6.0.0) date 2022-01-08 01:14:50*
%MOMM*%
%LPD*%
G01*
G04 APERTURE LIST*
%ADD10C,2.400000*%
%ADD11C,2.350000*%
%ADD12C,1.000000*%
%ADD13C,3.987800*%
%ADD14C,2.250000*%
%ADD15C,0.700000*%
%ADD16R,0.700000X0.700000*%
%ADD17C,1.700000*%
%ADD18O,1.000000X2.200000*%
%ADD19O,1.000000X1.800000*%
G04 APERTURE END LIST*
D10*
%TO.C,H2*%
X162161000Y-110028000D03*
D11*
X162161000Y-110028000D03*
%TD*%
D12*
%TO.C,J3*%
X154455000Y-111660000D03*
X153185000Y-111660000D03*
%TD*%
D11*
%TO.C,H1*%
X140425000Y-88293000D03*
D10*
X140425000Y-88293000D03*
%TD*%
D13*
%TO.C,MX1*%
X151390000Y-99160000D03*
D14*
X147580000Y-96620000D03*
X153930000Y-94080000D03*
D15*
X150120000Y-104240000D03*
D16*
X152660000Y-104240000D03*
%TD*%
D12*
%TO.C,J5*%
X147090000Y-111670000D03*
X145820000Y-111670000D03*
X144550000Y-111670000D03*
X143280000Y-111670000D03*
%TD*%
%TO.C,J4*%
X149230000Y-111660000D03*
X150500000Y-111660000D03*
X151770000Y-111660000D03*
%TD*%
D17*
%TO.C,J2*%
X142504579Y-92371000D03*
X139964579Y-92371000D03*
X142504579Y-94911000D03*
X139964579Y-94911000D03*
X142504579Y-97451000D03*
X139964579Y-97451000D03*
%TD*%
D12*
%TO.C,J6*%
X138790000Y-105807000D03*
X138790000Y-104537000D03*
X138790000Y-103267000D03*
X138790000Y-101997000D03*
X138790000Y-100727000D03*
%TD*%
%TO.C,J7*%
X163792000Y-88894000D03*
X163792000Y-90164000D03*
X163792000Y-91434000D03*
X163792000Y-92704000D03*
X163792000Y-93974000D03*
X163792000Y-95244000D03*
X163792000Y-96514000D03*
X163792000Y-97784000D03*
X163792000Y-99054000D03*
X163792000Y-100324000D03*
X163792000Y-101594000D03*
X163792000Y-102864000D03*
X163792000Y-104134000D03*
X163792000Y-105404000D03*
X163792000Y-106674000D03*
X163792000Y-107944000D03*
%TD*%
D18*
%TO.C,J1*%
X156912579Y-84156500D03*
D19*
X156912579Y-88156500D03*
D18*
X145672579Y-84156500D03*
D19*
X145672579Y-88156500D03*
%TD*%
M02*
