%TF.GenerationSoftware,KiCad,Pcbnew,6.0.0*%
%TF.CreationDate,2022-01-08T01:14:50+01:00*%
%TF.ProjectId,micro,6d696372-6f2e-46b6-9963-61645f706362,rev1.0*%
%TF.SameCoordinates,Original*%
%TF.FileFunction,Legend,Top*%
%TF.FilePolarity,Positive*%
%FSLAX46Y46*%
G04 Gerber Fmt 4.6, Leading zero omitted, Abs format (unit mm)*
G04 Created by KiCad (PCBNEW 6.0.0) date 2022-01-08 01:14:50*
%MOMM*%
%LPD*%
G01*
G04 APERTURE LIST*
%ADD10C,0.010000*%
%ADD11C,2.400000*%
%ADD12C,2.350000*%
%ADD13C,1.000000*%
%ADD14C,3.987800*%
%ADD15C,2.250000*%
%ADD16C,0.700000*%
%ADD17R,0.700000X0.700000*%
%ADD18C,1.700000*%
%ADD19O,1.000000X2.200000*%
%ADD20O,1.000000X1.800000*%
G04 APERTURE END LIST*
D10*
%TO.C,REF\u002A\u002A*%
X141546093Y-110127780D02*
X141592672Y-110154723D01*
X141592672Y-110154723D02*
X141625057Y-110181466D01*
X141625057Y-110181466D02*
X141648742Y-110209484D01*
X141648742Y-110209484D02*
X141665059Y-110243748D01*
X141665059Y-110243748D02*
X141675339Y-110289227D01*
X141675339Y-110289227D02*
X141680914Y-110350892D01*
X141680914Y-110350892D02*
X141683116Y-110433711D01*
X141683116Y-110433711D02*
X141683371Y-110493246D01*
X141683371Y-110493246D02*
X141683371Y-110712391D01*
X141683371Y-110712391D02*
X141621686Y-110740044D01*
X141621686Y-110740044D02*
X141560000Y-110767697D01*
X141560000Y-110767697D02*
X141552743Y-110527670D01*
X141552743Y-110527670D02*
X141549744Y-110438028D01*
X141549744Y-110438028D02*
X141546598Y-110372962D01*
X141546598Y-110372962D02*
X141542701Y-110328026D01*
X141542701Y-110328026D02*
X141537447Y-110298770D01*
X141537447Y-110298770D02*
X141530231Y-110280748D01*
X141530231Y-110280748D02*
X141520450Y-110269511D01*
X141520450Y-110269511D02*
X141517312Y-110267079D01*
X141517312Y-110267079D02*
X141469761Y-110248083D01*
X141469761Y-110248083D02*
X141421697Y-110255600D01*
X141421697Y-110255600D02*
X141393086Y-110275543D01*
X141393086Y-110275543D02*
X141381447Y-110289675D01*
X141381447Y-110289675D02*
X141373391Y-110308220D01*
X141373391Y-110308220D02*
X141368271Y-110336334D01*
X141368271Y-110336334D02*
X141365441Y-110379173D01*
X141365441Y-110379173D02*
X141364256Y-110441895D01*
X141364256Y-110441895D02*
X141364057Y-110507261D01*
X141364057Y-110507261D02*
X141364018Y-110589268D01*
X141364018Y-110589268D02*
X141362614Y-110647316D01*
X141362614Y-110647316D02*
X141357914Y-110686465D01*
X141357914Y-110686465D02*
X141347987Y-110711780D01*
X141347987Y-110711780D02*
X141330903Y-110728323D01*
X141330903Y-110728323D02*
X141304732Y-110741156D01*
X141304732Y-110741156D02*
X141269775Y-110754491D01*
X141269775Y-110754491D02*
X141231596Y-110769007D01*
X141231596Y-110769007D02*
X141236141Y-110511389D01*
X141236141Y-110511389D02*
X141237971Y-110418519D01*
X141237971Y-110418519D02*
X141240112Y-110349889D01*
X141240112Y-110349889D02*
X141243181Y-110300711D01*
X141243181Y-110300711D02*
X141247794Y-110266198D01*
X141247794Y-110266198D02*
X141254568Y-110241562D01*
X141254568Y-110241562D02*
X141264119Y-110222016D01*
X141264119Y-110222016D02*
X141275634Y-110204770D01*
X141275634Y-110204770D02*
X141331190Y-110149680D01*
X141331190Y-110149680D02*
X141398980Y-110117822D01*
X141398980Y-110117822D02*
X141472713Y-110110191D01*
X141472713Y-110110191D02*
X141546093Y-110127780D01*
X141546093Y-110127780D02*
X141546093Y-110127780D01*
G36*
X141546093Y-110127780D02*
G01*
X141592672Y-110154723D01*
X141625057Y-110181466D01*
X141648742Y-110209484D01*
X141665059Y-110243748D01*
X141675339Y-110289227D01*
X141680914Y-110350892D01*
X141683116Y-110433711D01*
X141683371Y-110493246D01*
X141683371Y-110712391D01*
X141621686Y-110740044D01*
X141560000Y-110767697D01*
X141552743Y-110527670D01*
X141549744Y-110438028D01*
X141546598Y-110372962D01*
X141542701Y-110328026D01*
X141537447Y-110298770D01*
X141530231Y-110280748D01*
X141520450Y-110269511D01*
X141517312Y-110267079D01*
X141469761Y-110248083D01*
X141421697Y-110255600D01*
X141393086Y-110275543D01*
X141381447Y-110289675D01*
X141373391Y-110308220D01*
X141368271Y-110336334D01*
X141365441Y-110379173D01*
X141364256Y-110441895D01*
X141364057Y-110507261D01*
X141364018Y-110589268D01*
X141362614Y-110647316D01*
X141357914Y-110686465D01*
X141347987Y-110711780D01*
X141330903Y-110728323D01*
X141304732Y-110741156D01*
X141269775Y-110754491D01*
X141231596Y-110769007D01*
X141236141Y-110511389D01*
X141237971Y-110418519D01*
X141240112Y-110349889D01*
X141243181Y-110300711D01*
X141247794Y-110266198D01*
X141254568Y-110241562D01*
X141264119Y-110222016D01*
X141275634Y-110204770D01*
X141331190Y-110149680D01*
X141398980Y-110117822D01*
X141472713Y-110110191D01*
X141546093Y-110127780D01*
G37*
X141546093Y-110127780D02*
X141592672Y-110154723D01*
X141625057Y-110181466D01*
X141648742Y-110209484D01*
X141665059Y-110243748D01*
X141675339Y-110289227D01*
X141680914Y-110350892D01*
X141683116Y-110433711D01*
X141683371Y-110493246D01*
X141683371Y-110712391D01*
X141621686Y-110740044D01*
X141560000Y-110767697D01*
X141552743Y-110527670D01*
X141549744Y-110438028D01*
X141546598Y-110372962D01*
X141542701Y-110328026D01*
X141537447Y-110298770D01*
X141530231Y-110280748D01*
X141520450Y-110269511D01*
X141517312Y-110267079D01*
X141469761Y-110248083D01*
X141421697Y-110255600D01*
X141393086Y-110275543D01*
X141381447Y-110289675D01*
X141373391Y-110308220D01*
X141368271Y-110336334D01*
X141365441Y-110379173D01*
X141364256Y-110441895D01*
X141364057Y-110507261D01*
X141364018Y-110589268D01*
X141362614Y-110647316D01*
X141357914Y-110686465D01*
X141347987Y-110711780D01*
X141330903Y-110728323D01*
X141304732Y-110741156D01*
X141269775Y-110754491D01*
X141231596Y-110769007D01*
X141236141Y-110511389D01*
X141237971Y-110418519D01*
X141240112Y-110349889D01*
X141243181Y-110300711D01*
X141247794Y-110266198D01*
X141254568Y-110241562D01*
X141264119Y-110222016D01*
X141275634Y-110204770D01*
X141331190Y-110149680D01*
X141398980Y-110117822D01*
X141472713Y-110110191D01*
X141546093Y-110127780D01*
X142869744Y-110150968D02*
X142926616Y-110172087D01*
X142926616Y-110172087D02*
X142927267Y-110172493D01*
X142927267Y-110172493D02*
X142962440Y-110198380D01*
X142962440Y-110198380D02*
X142988407Y-110228633D01*
X142988407Y-110228633D02*
X143006670Y-110268058D01*
X143006670Y-110268058D02*
X143018732Y-110321462D01*
X143018732Y-110321462D02*
X143026096Y-110393651D01*
X143026096Y-110393651D02*
X143030264Y-110489432D01*
X143030264Y-110489432D02*
X143030629Y-110503078D01*
X143030629Y-110503078D02*
X143035876Y-110708842D01*
X143035876Y-110708842D02*
X142991716Y-110731678D01*
X142991716Y-110731678D02*
X142959763Y-110747110D01*
X142959763Y-110747110D02*
X142940470Y-110754423D01*
X142940470Y-110754423D02*
X142939578Y-110754514D01*
X142939578Y-110754514D02*
X142936239Y-110741022D01*
X142936239Y-110741022D02*
X142933587Y-110704626D01*
X142933587Y-110704626D02*
X142931956Y-110651452D01*
X142931956Y-110651452D02*
X142931600Y-110608393D01*
X142931600Y-110608393D02*
X142931592Y-110538641D01*
X142931592Y-110538641D02*
X142928403Y-110494837D01*
X142928403Y-110494837D02*
X142917288Y-110473944D01*
X142917288Y-110473944D02*
X142893501Y-110472925D01*
X142893501Y-110472925D02*
X142852296Y-110488741D01*
X142852296Y-110488741D02*
X142790086Y-110517815D01*
X142790086Y-110517815D02*
X142744341Y-110541963D01*
X142744341Y-110541963D02*
X142720813Y-110562913D01*
X142720813Y-110562913D02*
X142713896Y-110585747D01*
X142713896Y-110585747D02*
X142713886Y-110586877D01*
X142713886Y-110586877D02*
X142725299Y-110626212D01*
X142725299Y-110626212D02*
X142759092Y-110647462D01*
X142759092Y-110647462D02*
X142810809Y-110650539D01*
X142810809Y-110650539D02*
X142848061Y-110650006D01*
X142848061Y-110650006D02*
X142867703Y-110660735D01*
X142867703Y-110660735D02*
X142879952Y-110686505D01*
X142879952Y-110686505D02*
X142887002Y-110719337D01*
X142887002Y-110719337D02*
X142876842Y-110737966D01*
X142876842Y-110737966D02*
X142873017Y-110740632D01*
X142873017Y-110740632D02*
X142837001Y-110751340D01*
X142837001Y-110751340D02*
X142786566Y-110752856D01*
X142786566Y-110752856D02*
X142734626Y-110745759D01*
X142734626Y-110745759D02*
X142697822Y-110732788D01*
X142697822Y-110732788D02*
X142646938Y-110689585D01*
X142646938Y-110689585D02*
X142618014Y-110629446D01*
X142618014Y-110629446D02*
X142612286Y-110582462D01*
X142612286Y-110582462D02*
X142616657Y-110540082D01*
X142616657Y-110540082D02*
X142632475Y-110505488D01*
X142632475Y-110505488D02*
X142663797Y-110474763D01*
X142663797Y-110474763D02*
X142714678Y-110443990D01*
X142714678Y-110443990D02*
X142789176Y-110409252D01*
X142789176Y-110409252D02*
X142793714Y-110407288D01*
X142793714Y-110407288D02*
X142860821Y-110376287D01*
X142860821Y-110376287D02*
X142902232Y-110350862D01*
X142902232Y-110350862D02*
X142919981Y-110328014D01*
X142919981Y-110328014D02*
X142916107Y-110304745D01*
X142916107Y-110304745D02*
X142892643Y-110278056D01*
X142892643Y-110278056D02*
X142885627Y-110271914D01*
X142885627Y-110271914D02*
X142838630Y-110248100D01*
X142838630Y-110248100D02*
X142789933Y-110249103D01*
X142789933Y-110249103D02*
X142747522Y-110272451D01*
X142747522Y-110272451D02*
X142719384Y-110315675D01*
X142719384Y-110315675D02*
X142716769Y-110324160D01*
X142716769Y-110324160D02*
X142691308Y-110365308D01*
X142691308Y-110365308D02*
X142659001Y-110385128D01*
X142659001Y-110385128D02*
X142612286Y-110404770D01*
X142612286Y-110404770D02*
X142612286Y-110353950D01*
X142612286Y-110353950D02*
X142626496Y-110280082D01*
X142626496Y-110280082D02*
X142668675Y-110212327D01*
X142668675Y-110212327D02*
X142690624Y-110189661D01*
X142690624Y-110189661D02*
X142740517Y-110160569D01*
X142740517Y-110160569D02*
X142803967Y-110147400D01*
X142803967Y-110147400D02*
X142869744Y-110150968D01*
X142869744Y-110150968D02*
X142869744Y-110150968D01*
G36*
X142869744Y-110150968D02*
G01*
X142926616Y-110172087D01*
X142927267Y-110172493D01*
X142962440Y-110198380D01*
X142988407Y-110228633D01*
X143006670Y-110268058D01*
X143018732Y-110321462D01*
X143026096Y-110393651D01*
X143030264Y-110489432D01*
X143030629Y-110503078D01*
X143035876Y-110708842D01*
X142991716Y-110731678D01*
X142959763Y-110747110D01*
X142940470Y-110754423D01*
X142939578Y-110754514D01*
X142936239Y-110741022D01*
X142933587Y-110704626D01*
X142931956Y-110651452D01*
X142931600Y-110608393D01*
X142931592Y-110538641D01*
X142928403Y-110494837D01*
X142917288Y-110473944D01*
X142893501Y-110472925D01*
X142852296Y-110488741D01*
X142790086Y-110517815D01*
X142744341Y-110541963D01*
X142720813Y-110562913D01*
X142713896Y-110585747D01*
X142713886Y-110586877D01*
X142725299Y-110626212D01*
X142759092Y-110647462D01*
X142810809Y-110650539D01*
X142848061Y-110650006D01*
X142867703Y-110660735D01*
X142879952Y-110686505D01*
X142887002Y-110719337D01*
X142876842Y-110737966D01*
X142873017Y-110740632D01*
X142837001Y-110751340D01*
X142786566Y-110752856D01*
X142734626Y-110745759D01*
X142697822Y-110732788D01*
X142646938Y-110689585D01*
X142618014Y-110629446D01*
X142612286Y-110582462D01*
X142616657Y-110540082D01*
X142632475Y-110505488D01*
X142663797Y-110474763D01*
X142714678Y-110443990D01*
X142789176Y-110409252D01*
X142793714Y-110407288D01*
X142860821Y-110376287D01*
X142902232Y-110350862D01*
X142919981Y-110328014D01*
X142916107Y-110304745D01*
X142892643Y-110278056D01*
X142885627Y-110271914D01*
X142838630Y-110248100D01*
X142789933Y-110249103D01*
X142747522Y-110272451D01*
X142719384Y-110315675D01*
X142716769Y-110324160D01*
X142691308Y-110365308D01*
X142659001Y-110385128D01*
X142612286Y-110404770D01*
X142612286Y-110353950D01*
X142626496Y-110280082D01*
X142668675Y-110212327D01*
X142690624Y-110189661D01*
X142740517Y-110160569D01*
X142803967Y-110147400D01*
X142869744Y-110150968D01*
G37*
X142869744Y-110150968D02*
X142926616Y-110172087D01*
X142927267Y-110172493D01*
X142962440Y-110198380D01*
X142988407Y-110228633D01*
X143006670Y-110268058D01*
X143018732Y-110321462D01*
X143026096Y-110393651D01*
X143030264Y-110489432D01*
X143030629Y-110503078D01*
X143035876Y-110708842D01*
X142991716Y-110731678D01*
X142959763Y-110747110D01*
X142940470Y-110754423D01*
X142939578Y-110754514D01*
X142936239Y-110741022D01*
X142933587Y-110704626D01*
X142931956Y-110651452D01*
X142931600Y-110608393D01*
X142931592Y-110538641D01*
X142928403Y-110494837D01*
X142917288Y-110473944D01*
X142893501Y-110472925D01*
X142852296Y-110488741D01*
X142790086Y-110517815D01*
X142744341Y-110541963D01*
X142720813Y-110562913D01*
X142713896Y-110585747D01*
X142713886Y-110586877D01*
X142725299Y-110626212D01*
X142759092Y-110647462D01*
X142810809Y-110650539D01*
X142848061Y-110650006D01*
X142867703Y-110660735D01*
X142879952Y-110686505D01*
X142887002Y-110719337D01*
X142876842Y-110737966D01*
X142873017Y-110740632D01*
X142837001Y-110751340D01*
X142786566Y-110752856D01*
X142734626Y-110745759D01*
X142697822Y-110732788D01*
X142646938Y-110689585D01*
X142618014Y-110629446D01*
X142612286Y-110582462D01*
X142616657Y-110540082D01*
X142632475Y-110505488D01*
X142663797Y-110474763D01*
X142714678Y-110443990D01*
X142789176Y-110409252D01*
X142793714Y-110407288D01*
X142860821Y-110376287D01*
X142902232Y-110350862D01*
X142919981Y-110328014D01*
X142916107Y-110304745D01*
X142892643Y-110278056D01*
X142885627Y-110271914D01*
X142838630Y-110248100D01*
X142789933Y-110249103D01*
X142747522Y-110272451D01*
X142719384Y-110315675D01*
X142716769Y-110324160D01*
X142691308Y-110365308D01*
X142659001Y-110385128D01*
X142612286Y-110404770D01*
X142612286Y-110353950D01*
X142626496Y-110280082D01*
X142668675Y-110212327D01*
X142690624Y-110189661D01*
X142740517Y-110160569D01*
X142803967Y-110147400D01*
X142869744Y-110150968D01*
X144974876Y-110156335D02*
X145016667Y-110175344D01*
X145016667Y-110175344D02*
X145049469Y-110198378D01*
X145049469Y-110198378D02*
X145073503Y-110224133D01*
X145073503Y-110224133D02*
X145090097Y-110257358D01*
X145090097Y-110257358D02*
X145100577Y-110302800D01*
X145100577Y-110302800D02*
X145106271Y-110365207D01*
X145106271Y-110365207D02*
X145108507Y-110449327D01*
X145108507Y-110449327D02*
X145108743Y-110504721D01*
X145108743Y-110504721D02*
X145108743Y-110720826D01*
X145108743Y-110720826D02*
X145071774Y-110737670D01*
X145071774Y-110737670D02*
X145042656Y-110749981D01*
X145042656Y-110749981D02*
X145028231Y-110754514D01*
X145028231Y-110754514D02*
X145025472Y-110741025D01*
X145025472Y-110741025D02*
X145023282Y-110704653D01*
X145023282Y-110704653D02*
X145021942Y-110651542D01*
X145021942Y-110651542D02*
X145021657Y-110609372D01*
X145021657Y-110609372D02*
X145020434Y-110548447D01*
X145020434Y-110548447D02*
X145017136Y-110500115D01*
X145017136Y-110500115D02*
X145012321Y-110470518D01*
X145012321Y-110470518D02*
X145008496Y-110464229D01*
X145008496Y-110464229D02*
X144982783Y-110470652D01*
X144982783Y-110470652D02*
X144942418Y-110487125D01*
X144942418Y-110487125D02*
X144895679Y-110509458D01*
X144895679Y-110509458D02*
X144850845Y-110533457D01*
X144850845Y-110533457D02*
X144816193Y-110554930D01*
X144816193Y-110554930D02*
X144800002Y-110569685D01*
X144800002Y-110569685D02*
X144799938Y-110569845D01*
X144799938Y-110569845D02*
X144801330Y-110597152D01*
X144801330Y-110597152D02*
X144813818Y-110623219D01*
X144813818Y-110623219D02*
X144835743Y-110644392D01*
X144835743Y-110644392D02*
X144867743Y-110651474D01*
X144867743Y-110651474D02*
X144895092Y-110650649D01*
X144895092Y-110650649D02*
X144933826Y-110650042D01*
X144933826Y-110650042D02*
X144954158Y-110659116D01*
X144954158Y-110659116D02*
X144966369Y-110683092D01*
X144966369Y-110683092D02*
X144967909Y-110687613D01*
X144967909Y-110687613D02*
X144973203Y-110721806D01*
X144973203Y-110721806D02*
X144959047Y-110742568D01*
X144959047Y-110742568D02*
X144922148Y-110752462D01*
X144922148Y-110752462D02*
X144882289Y-110754292D01*
X144882289Y-110754292D02*
X144810562Y-110740727D01*
X144810562Y-110740727D02*
X144773432Y-110721355D01*
X144773432Y-110721355D02*
X144727576Y-110675845D01*
X144727576Y-110675845D02*
X144703256Y-110619983D01*
X144703256Y-110619983D02*
X144701073Y-110560957D01*
X144701073Y-110560957D02*
X144721629Y-110505953D01*
X144721629Y-110505953D02*
X144752549Y-110471486D01*
X144752549Y-110471486D02*
X144783420Y-110452189D01*
X144783420Y-110452189D02*
X144831942Y-110427759D01*
X144831942Y-110427759D02*
X144888485Y-110402985D01*
X144888485Y-110402985D02*
X144897910Y-110399199D01*
X144897910Y-110399199D02*
X144960019Y-110371791D01*
X144960019Y-110371791D02*
X144995822Y-110347634D01*
X144995822Y-110347634D02*
X145007337Y-110323619D01*
X145007337Y-110323619D02*
X144996580Y-110296635D01*
X144996580Y-110296635D02*
X144978114Y-110275543D01*
X144978114Y-110275543D02*
X144934469Y-110249572D01*
X144934469Y-110249572D02*
X144886446Y-110247624D01*
X144886446Y-110247624D02*
X144842406Y-110267637D01*
X144842406Y-110267637D02*
X144810709Y-110307551D01*
X144810709Y-110307551D02*
X144806549Y-110317848D01*
X144806549Y-110317848D02*
X144782327Y-110355724D01*
X144782327Y-110355724D02*
X144746965Y-110383842D01*
X144746965Y-110383842D02*
X144702343Y-110406917D01*
X144702343Y-110406917D02*
X144702343Y-110341485D01*
X144702343Y-110341485D02*
X144704969Y-110301506D01*
X144704969Y-110301506D02*
X144716230Y-110269997D01*
X144716230Y-110269997D02*
X144741199Y-110236378D01*
X144741199Y-110236378D02*
X144765169Y-110210484D01*
X144765169Y-110210484D02*
X144802441Y-110173817D01*
X144802441Y-110173817D02*
X144831401Y-110154121D01*
X144831401Y-110154121D02*
X144862505Y-110146220D01*
X144862505Y-110146220D02*
X144897713Y-110144914D01*
X144897713Y-110144914D02*
X144974876Y-110156335D01*
X144974876Y-110156335D02*
X144974876Y-110156335D01*
G36*
X144974876Y-110156335D02*
G01*
X145016667Y-110175344D01*
X145049469Y-110198378D01*
X145073503Y-110224133D01*
X145090097Y-110257358D01*
X145100577Y-110302800D01*
X145106271Y-110365207D01*
X145108507Y-110449327D01*
X145108743Y-110504721D01*
X145108743Y-110720826D01*
X145071774Y-110737670D01*
X145042656Y-110749981D01*
X145028231Y-110754514D01*
X145025472Y-110741025D01*
X145023282Y-110704653D01*
X145021942Y-110651542D01*
X145021657Y-110609372D01*
X145020434Y-110548447D01*
X145017136Y-110500115D01*
X145012321Y-110470518D01*
X145008496Y-110464229D01*
X144982783Y-110470652D01*
X144942418Y-110487125D01*
X144895679Y-110509458D01*
X144850845Y-110533457D01*
X144816193Y-110554930D01*
X144800002Y-110569685D01*
X144799938Y-110569845D01*
X144801330Y-110597152D01*
X144813818Y-110623219D01*
X144835743Y-110644392D01*
X144867743Y-110651474D01*
X144895092Y-110650649D01*
X144933826Y-110650042D01*
X144954158Y-110659116D01*
X144966369Y-110683092D01*
X144967909Y-110687613D01*
X144973203Y-110721806D01*
X144959047Y-110742568D01*
X144922148Y-110752462D01*
X144882289Y-110754292D01*
X144810562Y-110740727D01*
X144773432Y-110721355D01*
X144727576Y-110675845D01*
X144703256Y-110619983D01*
X144701073Y-110560957D01*
X144721629Y-110505953D01*
X144752549Y-110471486D01*
X144783420Y-110452189D01*
X144831942Y-110427759D01*
X144888485Y-110402985D01*
X144897910Y-110399199D01*
X144960019Y-110371791D01*
X144995822Y-110347634D01*
X145007337Y-110323619D01*
X144996580Y-110296635D01*
X144978114Y-110275543D01*
X144934469Y-110249572D01*
X144886446Y-110247624D01*
X144842406Y-110267637D01*
X144810709Y-110307551D01*
X144806549Y-110317848D01*
X144782327Y-110355724D01*
X144746965Y-110383842D01*
X144702343Y-110406917D01*
X144702343Y-110341485D01*
X144704969Y-110301506D01*
X144716230Y-110269997D01*
X144741199Y-110236378D01*
X144765169Y-110210484D01*
X144802441Y-110173817D01*
X144831401Y-110154121D01*
X144862505Y-110146220D01*
X144897713Y-110144914D01*
X144974876Y-110156335D01*
G37*
X144974876Y-110156335D02*
X145016667Y-110175344D01*
X145049469Y-110198378D01*
X145073503Y-110224133D01*
X145090097Y-110257358D01*
X145100577Y-110302800D01*
X145106271Y-110365207D01*
X145108507Y-110449327D01*
X145108743Y-110504721D01*
X145108743Y-110720826D01*
X145071774Y-110737670D01*
X145042656Y-110749981D01*
X145028231Y-110754514D01*
X145025472Y-110741025D01*
X145023282Y-110704653D01*
X145021942Y-110651542D01*
X145021657Y-110609372D01*
X145020434Y-110548447D01*
X145017136Y-110500115D01*
X145012321Y-110470518D01*
X145008496Y-110464229D01*
X144982783Y-110470652D01*
X144942418Y-110487125D01*
X144895679Y-110509458D01*
X144850845Y-110533457D01*
X144816193Y-110554930D01*
X144800002Y-110569685D01*
X144799938Y-110569845D01*
X144801330Y-110597152D01*
X144813818Y-110623219D01*
X144835743Y-110644392D01*
X144867743Y-110651474D01*
X144895092Y-110650649D01*
X144933826Y-110650042D01*
X144954158Y-110659116D01*
X144966369Y-110683092D01*
X144967909Y-110687613D01*
X144973203Y-110721806D01*
X144959047Y-110742568D01*
X144922148Y-110752462D01*
X144882289Y-110754292D01*
X144810562Y-110740727D01*
X144773432Y-110721355D01*
X144727576Y-110675845D01*
X144703256Y-110619983D01*
X144701073Y-110560957D01*
X144721629Y-110505953D01*
X144752549Y-110471486D01*
X144783420Y-110452189D01*
X144831942Y-110427759D01*
X144888485Y-110402985D01*
X144897910Y-110399199D01*
X144960019Y-110371791D01*
X144995822Y-110347634D01*
X145007337Y-110323619D01*
X144996580Y-110296635D01*
X144978114Y-110275543D01*
X144934469Y-110249572D01*
X144886446Y-110247624D01*
X144842406Y-110267637D01*
X144810709Y-110307551D01*
X144806549Y-110317848D01*
X144782327Y-110355724D01*
X144746965Y-110383842D01*
X144702343Y-110406917D01*
X144702343Y-110341485D01*
X144704969Y-110301506D01*
X144716230Y-110269997D01*
X144741199Y-110236378D01*
X144765169Y-110210484D01*
X144802441Y-110173817D01*
X144831401Y-110154121D01*
X144862505Y-110146220D01*
X144897713Y-110144914D01*
X144974876Y-110156335D01*
X145983595Y-110166966D02*
X146041021Y-110204497D01*
X146041021Y-110204497D02*
X146068719Y-110238096D01*
X146068719Y-110238096D02*
X146090662Y-110299064D01*
X146090662Y-110299064D02*
X146092405Y-110347308D01*
X146092405Y-110347308D02*
X146088457Y-110411816D01*
X146088457Y-110411816D02*
X145939686Y-110476934D01*
X145939686Y-110476934D02*
X145867349Y-110510202D01*
X145867349Y-110510202D02*
X145820084Y-110536964D01*
X145820084Y-110536964D02*
X145795507Y-110560144D01*
X145795507Y-110560144D02*
X145791237Y-110582667D01*
X145791237Y-110582667D02*
X145804889Y-110607455D01*
X145804889Y-110607455D02*
X145819943Y-110623886D01*
X145819943Y-110623886D02*
X145863746Y-110650235D01*
X145863746Y-110650235D02*
X145911389Y-110652081D01*
X145911389Y-110652081D02*
X145955145Y-110631546D01*
X145955145Y-110631546D02*
X145987289Y-110590752D01*
X145987289Y-110590752D02*
X145993038Y-110576347D01*
X145993038Y-110576347D02*
X146020576Y-110531356D01*
X146020576Y-110531356D02*
X146052258Y-110512182D01*
X146052258Y-110512182D02*
X146095714Y-110495779D01*
X146095714Y-110495779D02*
X146095714Y-110557966D01*
X146095714Y-110557966D02*
X146091872Y-110600283D01*
X146091872Y-110600283D02*
X146076823Y-110635969D01*
X146076823Y-110635969D02*
X146045280Y-110676943D01*
X146045280Y-110676943D02*
X146040592Y-110682267D01*
X146040592Y-110682267D02*
X146005506Y-110718720D01*
X146005506Y-110718720D02*
X145975347Y-110738283D01*
X145975347Y-110738283D02*
X145937615Y-110747283D01*
X145937615Y-110747283D02*
X145906335Y-110750230D01*
X145906335Y-110750230D02*
X145850385Y-110750965D01*
X145850385Y-110750965D02*
X145810555Y-110741660D01*
X145810555Y-110741660D02*
X145785708Y-110727846D01*
X145785708Y-110727846D02*
X145746656Y-110697467D01*
X145746656Y-110697467D02*
X145719625Y-110664613D01*
X145719625Y-110664613D02*
X145702517Y-110623294D01*
X145702517Y-110623294D02*
X145693238Y-110567521D01*
X145693238Y-110567521D02*
X145689693Y-110491305D01*
X145689693Y-110491305D02*
X145689410Y-110452622D01*
X145689410Y-110452622D02*
X145690372Y-110406247D01*
X145690372Y-110406247D02*
X145778007Y-110406247D01*
X145778007Y-110406247D02*
X145779023Y-110431126D01*
X145779023Y-110431126D02*
X145781556Y-110435200D01*
X145781556Y-110435200D02*
X145798274Y-110429665D01*
X145798274Y-110429665D02*
X145834249Y-110415017D01*
X145834249Y-110415017D02*
X145882331Y-110394190D01*
X145882331Y-110394190D02*
X145892386Y-110389714D01*
X145892386Y-110389714D02*
X145953152Y-110358814D01*
X145953152Y-110358814D02*
X145986632Y-110331657D01*
X145986632Y-110331657D02*
X145993990Y-110306220D01*
X145993990Y-110306220D02*
X145976391Y-110280481D01*
X145976391Y-110280481D02*
X145961856Y-110269109D01*
X145961856Y-110269109D02*
X145909410Y-110246364D01*
X145909410Y-110246364D02*
X145860322Y-110250122D01*
X145860322Y-110250122D02*
X145819227Y-110277884D01*
X145819227Y-110277884D02*
X145790758Y-110327152D01*
X145790758Y-110327152D02*
X145781631Y-110366257D01*
X145781631Y-110366257D02*
X145778007Y-110406247D01*
X145778007Y-110406247D02*
X145690372Y-110406247D01*
X145690372Y-110406247D02*
X145691285Y-110362249D01*
X145691285Y-110362249D02*
X145698196Y-110295384D01*
X145698196Y-110295384D02*
X145711884Y-110246695D01*
X145711884Y-110246695D02*
X145734096Y-110210849D01*
X145734096Y-110210849D02*
X145766574Y-110182513D01*
X145766574Y-110182513D02*
X145780733Y-110173355D01*
X145780733Y-110173355D02*
X145845053Y-110149507D01*
X145845053Y-110149507D02*
X145915473Y-110148006D01*
X145915473Y-110148006D02*
X145983595Y-110166966D01*
X145983595Y-110166966D02*
X145983595Y-110166966D01*
G36*
X145698196Y-110295384D02*
G01*
X145711884Y-110246695D01*
X145734096Y-110210849D01*
X145766574Y-110182513D01*
X145780733Y-110173355D01*
X145845053Y-110149507D01*
X145915473Y-110148006D01*
X145983595Y-110166966D01*
X146041021Y-110204497D01*
X146068719Y-110238096D01*
X146090662Y-110299064D01*
X146092405Y-110347308D01*
X146088457Y-110411816D01*
X145939686Y-110476934D01*
X145867349Y-110510202D01*
X145820084Y-110536964D01*
X145795507Y-110560144D01*
X145791237Y-110582667D01*
X145804889Y-110607455D01*
X145819943Y-110623886D01*
X145863746Y-110650235D01*
X145911389Y-110652081D01*
X145955145Y-110631546D01*
X145987289Y-110590752D01*
X145993038Y-110576347D01*
X146020576Y-110531356D01*
X146052258Y-110512182D01*
X146095714Y-110495779D01*
X146095714Y-110557966D01*
X146091872Y-110600283D01*
X146076823Y-110635969D01*
X146045280Y-110676943D01*
X146040592Y-110682267D01*
X146005506Y-110718720D01*
X145975347Y-110738283D01*
X145937615Y-110747283D01*
X145906335Y-110750230D01*
X145850385Y-110750965D01*
X145810555Y-110741660D01*
X145785708Y-110727846D01*
X145746656Y-110697467D01*
X145719625Y-110664613D01*
X145702517Y-110623294D01*
X145693238Y-110567521D01*
X145689693Y-110491305D01*
X145689410Y-110452622D01*
X145690372Y-110406247D01*
X145778007Y-110406247D01*
X145779023Y-110431126D01*
X145781556Y-110435200D01*
X145798274Y-110429665D01*
X145834249Y-110415017D01*
X145882331Y-110394190D01*
X145892386Y-110389714D01*
X145953152Y-110358814D01*
X145986632Y-110331657D01*
X145993990Y-110306220D01*
X145976391Y-110280481D01*
X145961856Y-110269109D01*
X145909410Y-110246364D01*
X145860322Y-110250122D01*
X145819227Y-110277884D01*
X145790758Y-110327152D01*
X145781631Y-110366257D01*
X145778007Y-110406247D01*
X145690372Y-110406247D01*
X145691285Y-110362249D01*
X145698196Y-110295384D01*
G37*
X145698196Y-110295384D02*
X145711884Y-110246695D01*
X145734096Y-110210849D01*
X145766574Y-110182513D01*
X145780733Y-110173355D01*
X145845053Y-110149507D01*
X145915473Y-110148006D01*
X145983595Y-110166966D01*
X146041021Y-110204497D01*
X146068719Y-110238096D01*
X146090662Y-110299064D01*
X146092405Y-110347308D01*
X146088457Y-110411816D01*
X145939686Y-110476934D01*
X145867349Y-110510202D01*
X145820084Y-110536964D01*
X145795507Y-110560144D01*
X145791237Y-110582667D01*
X145804889Y-110607455D01*
X145819943Y-110623886D01*
X145863746Y-110650235D01*
X145911389Y-110652081D01*
X145955145Y-110631546D01*
X145987289Y-110590752D01*
X145993038Y-110576347D01*
X146020576Y-110531356D01*
X146052258Y-110512182D01*
X146095714Y-110495779D01*
X146095714Y-110557966D01*
X146091872Y-110600283D01*
X146076823Y-110635969D01*
X146045280Y-110676943D01*
X146040592Y-110682267D01*
X146005506Y-110718720D01*
X145975347Y-110738283D01*
X145937615Y-110747283D01*
X145906335Y-110750230D01*
X145850385Y-110750965D01*
X145810555Y-110741660D01*
X145785708Y-110727846D01*
X145746656Y-110697467D01*
X145719625Y-110664613D01*
X145702517Y-110623294D01*
X145693238Y-110567521D01*
X145689693Y-110491305D01*
X145689410Y-110452622D01*
X145690372Y-110406247D01*
X145778007Y-110406247D01*
X145779023Y-110431126D01*
X145781556Y-110435200D01*
X145798274Y-110429665D01*
X145834249Y-110415017D01*
X145882331Y-110394190D01*
X145892386Y-110389714D01*
X145953152Y-110358814D01*
X145986632Y-110331657D01*
X145993990Y-110306220D01*
X145976391Y-110280481D01*
X145961856Y-110269109D01*
X145909410Y-110246364D01*
X145860322Y-110250122D01*
X145819227Y-110277884D01*
X145790758Y-110327152D01*
X145781631Y-110366257D01*
X145778007Y-110406247D01*
X145690372Y-110406247D01*
X145691285Y-110362249D01*
X145698196Y-110295384D01*
X144020117Y-110265358D02*
X144019933Y-110373837D01*
X144019933Y-110373837D02*
X144019219Y-110457287D01*
X144019219Y-110457287D02*
X144017675Y-110519704D01*
X144017675Y-110519704D02*
X144015001Y-110565085D01*
X144015001Y-110565085D02*
X144010894Y-110597429D01*
X144010894Y-110597429D02*
X144005055Y-110620733D01*
X144005055Y-110620733D02*
X143997182Y-110638995D01*
X143997182Y-110638995D02*
X143991221Y-110649418D01*
X143991221Y-110649418D02*
X143941855Y-110705945D01*
X143941855Y-110705945D02*
X143879264Y-110741377D01*
X143879264Y-110741377D02*
X143810013Y-110754090D01*
X143810013Y-110754090D02*
X143740668Y-110742463D01*
X143740668Y-110742463D02*
X143699375Y-110721568D01*
X143699375Y-110721568D02*
X143656025Y-110685422D01*
X143656025Y-110685422D02*
X143626481Y-110641276D01*
X143626481Y-110641276D02*
X143608655Y-110583462D01*
X143608655Y-110583462D02*
X143600463Y-110506313D01*
X143600463Y-110506313D02*
X143599302Y-110449714D01*
X143599302Y-110449714D02*
X143599458Y-110445647D01*
X143599458Y-110445647D02*
X143700857Y-110445647D01*
X143700857Y-110445647D02*
X143701476Y-110510550D01*
X143701476Y-110510550D02*
X143704314Y-110553514D01*
X143704314Y-110553514D02*
X143710840Y-110581622D01*
X143710840Y-110581622D02*
X143722523Y-110601953D01*
X143722523Y-110601953D02*
X143736483Y-110617288D01*
X143736483Y-110617288D02*
X143783365Y-110646890D01*
X143783365Y-110646890D02*
X143833701Y-110649419D01*
X143833701Y-110649419D02*
X143881276Y-110624705D01*
X143881276Y-110624705D02*
X143884979Y-110621356D01*
X143884979Y-110621356D02*
X143900783Y-110603935D01*
X143900783Y-110603935D02*
X143910693Y-110583209D01*
X143910693Y-110583209D02*
X143916058Y-110552362D01*
X143916058Y-110552362D02*
X143918228Y-110504577D01*
X143918228Y-110504577D02*
X143918571Y-110451748D01*
X143918571Y-110451748D02*
X143917827Y-110385381D01*
X143917827Y-110385381D02*
X143914748Y-110341106D01*
X143914748Y-110341106D02*
X143908061Y-110312009D01*
X143908061Y-110312009D02*
X143896496Y-110291173D01*
X143896496Y-110291173D02*
X143887013Y-110280107D01*
X143887013Y-110280107D02*
X143842960Y-110252198D01*
X143842960Y-110252198D02*
X143792224Y-110248843D01*
X143792224Y-110248843D02*
X143743796Y-110270159D01*
X143743796Y-110270159D02*
X143734450Y-110278073D01*
X143734450Y-110278073D02*
X143718540Y-110295647D01*
X143718540Y-110295647D02*
X143708610Y-110316587D01*
X143708610Y-110316587D02*
X143703278Y-110347782D01*
X143703278Y-110347782D02*
X143701163Y-110396122D01*
X143701163Y-110396122D02*
X143700857Y-110445647D01*
X143700857Y-110445647D02*
X143599458Y-110445647D01*
X143599458Y-110445647D02*
X143602810Y-110358568D01*
X143602810Y-110358568D02*
X143614726Y-110290086D01*
X143614726Y-110290086D02*
X143637135Y-110238600D01*
X143637135Y-110238600D02*
X143672124Y-110198443D01*
X143672124Y-110198443D02*
X143699375Y-110177861D01*
X143699375Y-110177861D02*
X143748907Y-110155625D01*
X143748907Y-110155625D02*
X143806316Y-110145304D01*
X143806316Y-110145304D02*
X143859682Y-110148067D01*
X143859682Y-110148067D02*
X143889543Y-110159212D01*
X143889543Y-110159212D02*
X143901261Y-110162383D01*
X143901261Y-110162383D02*
X143909037Y-110150557D01*
X143909037Y-110150557D02*
X143914465Y-110118866D01*
X143914465Y-110118866D02*
X143918571Y-110070593D01*
X143918571Y-110070593D02*
X143923067Y-110016829D01*
X143923067Y-110016829D02*
X143929313Y-109984482D01*
X143929313Y-109984482D02*
X143940676Y-109965985D01*
X143940676Y-109965985D02*
X143960528Y-109953770D01*
X143960528Y-109953770D02*
X143973000Y-109948362D01*
X143973000Y-109948362D02*
X144020171Y-109928601D01*
X144020171Y-109928601D02*
X144020117Y-110265358D01*
X144020117Y-110265358D02*
X144020117Y-110265358D01*
G36*
X143614726Y-110290086D02*
G01*
X143637135Y-110238600D01*
X143672124Y-110198443D01*
X143699375Y-110177861D01*
X143748907Y-110155625D01*
X143806316Y-110145304D01*
X143859682Y-110148067D01*
X143889543Y-110159212D01*
X143901261Y-110162383D01*
X143909037Y-110150557D01*
X143914465Y-110118866D01*
X143918571Y-110070593D01*
X143923067Y-110016829D01*
X143929313Y-109984482D01*
X143940676Y-109965985D01*
X143960528Y-109953770D01*
X143973000Y-109948362D01*
X144020171Y-109928601D01*
X144020117Y-110265358D01*
X144019933Y-110373837D01*
X144019219Y-110457287D01*
X144017675Y-110519704D01*
X144015001Y-110565085D01*
X144010894Y-110597429D01*
X144005055Y-110620733D01*
X143997182Y-110638995D01*
X143991221Y-110649418D01*
X143941855Y-110705945D01*
X143879264Y-110741377D01*
X143810013Y-110754090D01*
X143740668Y-110742463D01*
X143699375Y-110721568D01*
X143656025Y-110685422D01*
X143626481Y-110641276D01*
X143608655Y-110583462D01*
X143600463Y-110506313D01*
X143599302Y-110449714D01*
X143599458Y-110445647D01*
X143700857Y-110445647D01*
X143701476Y-110510550D01*
X143704314Y-110553514D01*
X143710840Y-110581622D01*
X143722523Y-110601953D01*
X143736483Y-110617288D01*
X143783365Y-110646890D01*
X143833701Y-110649419D01*
X143881276Y-110624705D01*
X143884979Y-110621356D01*
X143900783Y-110603935D01*
X143910693Y-110583209D01*
X143916058Y-110552362D01*
X143918228Y-110504577D01*
X143918571Y-110451748D01*
X143917827Y-110385381D01*
X143914748Y-110341106D01*
X143908061Y-110312009D01*
X143896496Y-110291173D01*
X143887013Y-110280107D01*
X143842960Y-110252198D01*
X143792224Y-110248843D01*
X143743796Y-110270159D01*
X143734450Y-110278073D01*
X143718540Y-110295647D01*
X143708610Y-110316587D01*
X143703278Y-110347782D01*
X143701163Y-110396122D01*
X143700857Y-110445647D01*
X143599458Y-110445647D01*
X143602810Y-110358568D01*
X143614726Y-110290086D01*
G37*
X143614726Y-110290086D02*
X143637135Y-110238600D01*
X143672124Y-110198443D01*
X143699375Y-110177861D01*
X143748907Y-110155625D01*
X143806316Y-110145304D01*
X143859682Y-110148067D01*
X143889543Y-110159212D01*
X143901261Y-110162383D01*
X143909037Y-110150557D01*
X143914465Y-110118866D01*
X143918571Y-110070593D01*
X143923067Y-110016829D01*
X143929313Y-109984482D01*
X143940676Y-109965985D01*
X143960528Y-109953770D01*
X143973000Y-109948362D01*
X144020171Y-109928601D01*
X144020117Y-110265358D01*
X144019933Y-110373837D01*
X144019219Y-110457287D01*
X144017675Y-110519704D01*
X144015001Y-110565085D01*
X144010894Y-110597429D01*
X144005055Y-110620733D01*
X143997182Y-110638995D01*
X143991221Y-110649418D01*
X143941855Y-110705945D01*
X143879264Y-110741377D01*
X143810013Y-110754090D01*
X143740668Y-110742463D01*
X143699375Y-110721568D01*
X143656025Y-110685422D01*
X143626481Y-110641276D01*
X143608655Y-110583462D01*
X143600463Y-110506313D01*
X143599302Y-110449714D01*
X143599458Y-110445647D01*
X143700857Y-110445647D01*
X143701476Y-110510550D01*
X143704314Y-110553514D01*
X143710840Y-110581622D01*
X143722523Y-110601953D01*
X143736483Y-110617288D01*
X143783365Y-110646890D01*
X143833701Y-110649419D01*
X143881276Y-110624705D01*
X143884979Y-110621356D01*
X143900783Y-110603935D01*
X143910693Y-110583209D01*
X143916058Y-110552362D01*
X143918228Y-110504577D01*
X143918571Y-110451748D01*
X143917827Y-110385381D01*
X143914748Y-110341106D01*
X143908061Y-110312009D01*
X143896496Y-110291173D01*
X143887013Y-110280107D01*
X143842960Y-110252198D01*
X143792224Y-110248843D01*
X143743796Y-110270159D01*
X143734450Y-110278073D01*
X143718540Y-110295647D01*
X143708610Y-110316587D01*
X143703278Y-110347782D01*
X143701163Y-110396122D01*
X143700857Y-110445647D01*
X143599458Y-110445647D01*
X143602810Y-110358568D01*
X143614726Y-110290086D01*
X145482600Y-110158752D02*
X145499948Y-110166334D01*
X145499948Y-110166334D02*
X145541356Y-110199128D01*
X145541356Y-110199128D02*
X145576765Y-110246547D01*
X145576765Y-110246547D02*
X145598664Y-110297151D01*
X145598664Y-110297151D02*
X145602229Y-110322098D01*
X145602229Y-110322098D02*
X145590279Y-110356927D01*
X145590279Y-110356927D02*
X145564067Y-110375357D01*
X145564067Y-110375357D02*
X145535964Y-110386516D01*
X145535964Y-110386516D02*
X145523095Y-110388572D01*
X145523095Y-110388572D02*
X145516829Y-110373649D01*
X145516829Y-110373649D02*
X145504456Y-110341175D01*
X145504456Y-110341175D02*
X145499028Y-110326502D01*
X145499028Y-110326502D02*
X145468590Y-110275744D01*
X145468590Y-110275744D02*
X145424520Y-110250427D01*
X145424520Y-110250427D02*
X145368010Y-110251206D01*
X145368010Y-110251206D02*
X145363825Y-110252203D01*
X145363825Y-110252203D02*
X145333655Y-110266507D01*
X145333655Y-110266507D02*
X145311476Y-110294393D01*
X145311476Y-110294393D02*
X145296327Y-110339287D01*
X145296327Y-110339287D02*
X145287250Y-110404615D01*
X145287250Y-110404615D02*
X145283286Y-110493804D01*
X145283286Y-110493804D02*
X145282914Y-110541261D01*
X145282914Y-110541261D02*
X145282730Y-110616071D01*
X145282730Y-110616071D02*
X145281522Y-110667069D01*
X145281522Y-110667069D02*
X145278309Y-110699471D01*
X145278309Y-110699471D02*
X145272109Y-110718495D01*
X145272109Y-110718495D02*
X145261940Y-110729356D01*
X145261940Y-110729356D02*
X145246819Y-110737272D01*
X145246819Y-110737272D02*
X145245946Y-110737670D01*
X145245946Y-110737670D02*
X145216828Y-110749981D01*
X145216828Y-110749981D02*
X145202403Y-110754514D01*
X145202403Y-110754514D02*
X145200186Y-110740809D01*
X145200186Y-110740809D02*
X145198289Y-110702925D01*
X145198289Y-110702925D02*
X145196847Y-110645715D01*
X145196847Y-110645715D02*
X145195998Y-110574027D01*
X145195998Y-110574027D02*
X145195829Y-110521565D01*
X145195829Y-110521565D02*
X145196692Y-110420047D01*
X145196692Y-110420047D02*
X145200070Y-110343032D01*
X145200070Y-110343032D02*
X145207142Y-110286023D01*
X145207142Y-110286023D02*
X145219088Y-110244526D01*
X145219088Y-110244526D02*
X145237090Y-110214043D01*
X145237090Y-110214043D02*
X145262327Y-110190080D01*
X145262327Y-110190080D02*
X145287247Y-110173355D01*
X145287247Y-110173355D02*
X145347171Y-110151097D01*
X145347171Y-110151097D02*
X145416911Y-110146076D01*
X145416911Y-110146076D02*
X145482600Y-110158752D01*
X145482600Y-110158752D02*
X145482600Y-110158752D01*
G36*
X145482600Y-110158752D02*
G01*
X145499948Y-110166334D01*
X145541356Y-110199128D01*
X145576765Y-110246547D01*
X145598664Y-110297151D01*
X145602229Y-110322098D01*
X145590279Y-110356927D01*
X145564067Y-110375357D01*
X145535964Y-110386516D01*
X145523095Y-110388572D01*
X145516829Y-110373649D01*
X145504456Y-110341175D01*
X145499028Y-110326502D01*
X145468590Y-110275744D01*
X145424520Y-110250427D01*
X145368010Y-110251206D01*
X145363825Y-110252203D01*
X145333655Y-110266507D01*
X145311476Y-110294393D01*
X145296327Y-110339287D01*
X145287250Y-110404615D01*
X145283286Y-110493804D01*
X145282914Y-110541261D01*
X145282730Y-110616071D01*
X145281522Y-110667069D01*
X145278309Y-110699471D01*
X145272109Y-110718495D01*
X145261940Y-110729356D01*
X145246819Y-110737272D01*
X145245946Y-110737670D01*
X145216828Y-110749981D01*
X145202403Y-110754514D01*
X145200186Y-110740809D01*
X145198289Y-110702925D01*
X145196847Y-110645715D01*
X145195998Y-110574027D01*
X145195829Y-110521565D01*
X145196692Y-110420047D01*
X145200070Y-110343032D01*
X145207142Y-110286023D01*
X145219088Y-110244526D01*
X145237090Y-110214043D01*
X145262327Y-110190080D01*
X145287247Y-110173355D01*
X145347171Y-110151097D01*
X145416911Y-110146076D01*
X145482600Y-110158752D01*
G37*
X145482600Y-110158752D02*
X145499948Y-110166334D01*
X145541356Y-110199128D01*
X145576765Y-110246547D01*
X145598664Y-110297151D01*
X145602229Y-110322098D01*
X145590279Y-110356927D01*
X145564067Y-110375357D01*
X145535964Y-110386516D01*
X145523095Y-110388572D01*
X145516829Y-110373649D01*
X145504456Y-110341175D01*
X145499028Y-110326502D01*
X145468590Y-110275744D01*
X145424520Y-110250427D01*
X145368010Y-110251206D01*
X145363825Y-110252203D01*
X145333655Y-110266507D01*
X145311476Y-110294393D01*
X145296327Y-110339287D01*
X145287250Y-110404615D01*
X145283286Y-110493804D01*
X145282914Y-110541261D01*
X145282730Y-110616071D01*
X145281522Y-110667069D01*
X145278309Y-110699471D01*
X145272109Y-110718495D01*
X145261940Y-110729356D01*
X145246819Y-110737272D01*
X145245946Y-110737670D01*
X145216828Y-110749981D01*
X145202403Y-110754514D01*
X145200186Y-110740809D01*
X145198289Y-110702925D01*
X145196847Y-110645715D01*
X145195998Y-110574027D01*
X145195829Y-110521565D01*
X145196692Y-110420047D01*
X145200070Y-110343032D01*
X145207142Y-110286023D01*
X145219088Y-110244526D01*
X145237090Y-110214043D01*
X145262327Y-110190080D01*
X145287247Y-110173355D01*
X145347171Y-110151097D01*
X145416911Y-110146076D01*
X145482600Y-110158752D01*
X139871115Y-110121962D02*
X139939145Y-110157733D01*
X139939145Y-110157733D02*
X139989351Y-110215301D01*
X139989351Y-110215301D02*
X140007185Y-110252312D01*
X140007185Y-110252312D02*
X140021063Y-110307882D01*
X140021063Y-110307882D02*
X140028167Y-110378096D01*
X140028167Y-110378096D02*
X140028840Y-110454727D01*
X140028840Y-110454727D02*
X140023427Y-110529552D01*
X140023427Y-110529552D02*
X140012270Y-110594342D01*
X140012270Y-110594342D02*
X139995714Y-110640873D01*
X139995714Y-110640873D02*
X139990626Y-110648887D01*
X139990626Y-110648887D02*
X139930355Y-110708707D01*
X139930355Y-110708707D02*
X139858769Y-110744535D01*
X139858769Y-110744535D02*
X139781092Y-110755020D01*
X139781092Y-110755020D02*
X139702548Y-110738810D01*
X139702548Y-110738810D02*
X139680689Y-110729092D01*
X139680689Y-110729092D02*
X139638122Y-110699143D01*
X139638122Y-110699143D02*
X139600763Y-110659433D01*
X139600763Y-110659433D02*
X139597232Y-110654397D01*
X139597232Y-110654397D02*
X139582881Y-110630124D01*
X139582881Y-110630124D02*
X139573394Y-110604178D01*
X139573394Y-110604178D02*
X139567790Y-110570022D01*
X139567790Y-110570022D02*
X139565086Y-110521119D01*
X139565086Y-110521119D02*
X139564299Y-110450935D01*
X139564299Y-110450935D02*
X139564286Y-110435200D01*
X139564286Y-110435200D02*
X139564322Y-110430192D01*
X139564322Y-110430192D02*
X139709429Y-110430192D01*
X139709429Y-110430192D02*
X139710273Y-110496430D01*
X139710273Y-110496430D02*
X139713596Y-110540386D01*
X139713596Y-110540386D02*
X139720583Y-110568779D01*
X139720583Y-110568779D02*
X139732416Y-110588325D01*
X139732416Y-110588325D02*
X139738457Y-110594857D01*
X139738457Y-110594857D02*
X139773186Y-110619680D01*
X139773186Y-110619680D02*
X139806903Y-110618548D01*
X139806903Y-110618548D02*
X139840995Y-110597016D01*
X139840995Y-110597016D02*
X139861329Y-110574029D01*
X139861329Y-110574029D02*
X139873371Y-110540478D01*
X139873371Y-110540478D02*
X139880134Y-110487569D01*
X139880134Y-110487569D02*
X139880598Y-110481399D01*
X139880598Y-110481399D02*
X139881752Y-110385513D01*
X139881752Y-110385513D02*
X139869688Y-110314299D01*
X139869688Y-110314299D02*
X139844570Y-110268194D01*
X139844570Y-110268194D02*
X139806560Y-110247635D01*
X139806560Y-110247635D02*
X139792992Y-110246514D01*
X139792992Y-110246514D02*
X139757364Y-110252152D01*
X139757364Y-110252152D02*
X139732994Y-110271686D01*
X139732994Y-110271686D02*
X139718093Y-110309042D01*
X139718093Y-110309042D02*
X139710875Y-110368150D01*
X139710875Y-110368150D02*
X139709429Y-110430192D01*
X139709429Y-110430192D02*
X139564322Y-110430192D01*
X139564322Y-110430192D02*
X139564826Y-110360413D01*
X139564826Y-110360413D02*
X139567096Y-110308159D01*
X139567096Y-110308159D02*
X139572068Y-110271949D01*
X139572068Y-110271949D02*
X139580713Y-110245299D01*
X139580713Y-110245299D02*
X139594005Y-110221722D01*
X139594005Y-110221722D02*
X139596943Y-110217338D01*
X139596943Y-110217338D02*
X139646313Y-110158249D01*
X139646313Y-110158249D02*
X139700109Y-110123947D01*
X139700109Y-110123947D02*
X139765602Y-110110331D01*
X139765602Y-110110331D02*
X139787842Y-110109665D01*
X139787842Y-110109665D02*
X139871115Y-110121962D01*
X139871115Y-110121962D02*
X139871115Y-110121962D01*
G36*
X139567096Y-110308159D02*
G01*
X139572068Y-110271949D01*
X139580713Y-110245299D01*
X139594005Y-110221722D01*
X139596943Y-110217338D01*
X139646313Y-110158249D01*
X139700109Y-110123947D01*
X139765602Y-110110331D01*
X139787842Y-110109665D01*
X139871115Y-110121962D01*
X139939145Y-110157733D01*
X139989351Y-110215301D01*
X140007185Y-110252312D01*
X140021063Y-110307882D01*
X140028167Y-110378096D01*
X140028840Y-110454727D01*
X140023427Y-110529552D01*
X140012270Y-110594342D01*
X139995714Y-110640873D01*
X139990626Y-110648887D01*
X139930355Y-110708707D01*
X139858769Y-110744535D01*
X139781092Y-110755020D01*
X139702548Y-110738810D01*
X139680689Y-110729092D01*
X139638122Y-110699143D01*
X139600763Y-110659433D01*
X139597232Y-110654397D01*
X139582881Y-110630124D01*
X139573394Y-110604178D01*
X139567790Y-110570022D01*
X139565086Y-110521119D01*
X139564299Y-110450935D01*
X139564286Y-110435200D01*
X139564322Y-110430192D01*
X139709429Y-110430192D01*
X139710273Y-110496430D01*
X139713596Y-110540386D01*
X139720583Y-110568779D01*
X139732416Y-110588325D01*
X139738457Y-110594857D01*
X139773186Y-110619680D01*
X139806903Y-110618548D01*
X139840995Y-110597016D01*
X139861329Y-110574029D01*
X139873371Y-110540478D01*
X139880134Y-110487569D01*
X139880598Y-110481399D01*
X139881752Y-110385513D01*
X139869688Y-110314299D01*
X139844570Y-110268194D01*
X139806560Y-110247635D01*
X139792992Y-110246514D01*
X139757364Y-110252152D01*
X139732994Y-110271686D01*
X139718093Y-110309042D01*
X139710875Y-110368150D01*
X139709429Y-110430192D01*
X139564322Y-110430192D01*
X139564826Y-110360413D01*
X139567096Y-110308159D01*
G37*
X139567096Y-110308159D02*
X139572068Y-110271949D01*
X139580713Y-110245299D01*
X139594005Y-110221722D01*
X139596943Y-110217338D01*
X139646313Y-110158249D01*
X139700109Y-110123947D01*
X139765602Y-110110331D01*
X139787842Y-110109665D01*
X139871115Y-110121962D01*
X139939145Y-110157733D01*
X139989351Y-110215301D01*
X140007185Y-110252312D01*
X140021063Y-110307882D01*
X140028167Y-110378096D01*
X140028840Y-110454727D01*
X140023427Y-110529552D01*
X140012270Y-110594342D01*
X139995714Y-110640873D01*
X139990626Y-110648887D01*
X139930355Y-110708707D01*
X139858769Y-110744535D01*
X139781092Y-110755020D01*
X139702548Y-110738810D01*
X139680689Y-110729092D01*
X139638122Y-110699143D01*
X139600763Y-110659433D01*
X139597232Y-110654397D01*
X139582881Y-110630124D01*
X139573394Y-110604178D01*
X139567790Y-110570022D01*
X139565086Y-110521119D01*
X139564299Y-110450935D01*
X139564286Y-110435200D01*
X139564322Y-110430192D01*
X139709429Y-110430192D01*
X139710273Y-110496430D01*
X139713596Y-110540386D01*
X139720583Y-110568779D01*
X139732416Y-110588325D01*
X139738457Y-110594857D01*
X139773186Y-110619680D01*
X139806903Y-110618548D01*
X139840995Y-110597016D01*
X139861329Y-110574029D01*
X139873371Y-110540478D01*
X139880134Y-110487569D01*
X139880598Y-110481399D01*
X139881752Y-110385513D01*
X139869688Y-110314299D01*
X139844570Y-110268194D01*
X139806560Y-110247635D01*
X139792992Y-110246514D01*
X139757364Y-110252152D01*
X139732994Y-110271686D01*
X139718093Y-110309042D01*
X139710875Y-110368150D01*
X139709429Y-110430192D01*
X139564322Y-110430192D01*
X139564826Y-110360413D01*
X139567096Y-110308159D01*
X142205886Y-110051289D02*
X142210139Y-110110613D01*
X142210139Y-110110613D02*
X142215025Y-110145572D01*
X142215025Y-110145572D02*
X142221795Y-110160820D01*
X142221795Y-110160820D02*
X142231702Y-110161015D01*
X142231702Y-110161015D02*
X142234914Y-110159195D01*
X142234914Y-110159195D02*
X142277644Y-110146015D01*
X142277644Y-110146015D02*
X142333227Y-110146785D01*
X142333227Y-110146785D02*
X142389737Y-110160333D01*
X142389737Y-110160333D02*
X142425082Y-110177861D01*
X142425082Y-110177861D02*
X142461321Y-110205861D01*
X142461321Y-110205861D02*
X142487813Y-110237549D01*
X142487813Y-110237549D02*
X142505999Y-110277813D01*
X142505999Y-110277813D02*
X142517322Y-110331543D01*
X142517322Y-110331543D02*
X142523222Y-110403626D01*
X142523222Y-110403626D02*
X142525143Y-110498951D01*
X142525143Y-110498951D02*
X142525177Y-110517237D01*
X142525177Y-110517237D02*
X142525200Y-110722646D01*
X142525200Y-110722646D02*
X142479491Y-110738580D01*
X142479491Y-110738580D02*
X142447027Y-110749420D01*
X142447027Y-110749420D02*
X142429215Y-110754468D01*
X142429215Y-110754468D02*
X142428691Y-110754514D01*
X142428691Y-110754514D02*
X142426937Y-110740828D01*
X142426937Y-110740828D02*
X142425444Y-110703076D01*
X142425444Y-110703076D02*
X142424326Y-110646224D01*
X142424326Y-110646224D02*
X142423697Y-110575234D01*
X142423697Y-110575234D02*
X142423600Y-110532073D01*
X142423600Y-110532073D02*
X142423398Y-110446973D01*
X142423398Y-110446973D02*
X142422358Y-110385981D01*
X142422358Y-110385981D02*
X142419831Y-110344177D01*
X142419831Y-110344177D02*
X142415164Y-110316642D01*
X142415164Y-110316642D02*
X142407707Y-110298456D01*
X142407707Y-110298456D02*
X142396811Y-110284698D01*
X142396811Y-110284698D02*
X142390007Y-110278073D01*
X142390007Y-110278073D02*
X142343272Y-110251375D01*
X142343272Y-110251375D02*
X142292272Y-110249375D01*
X142292272Y-110249375D02*
X142246001Y-110271955D01*
X142246001Y-110271955D02*
X142237444Y-110280107D01*
X142237444Y-110280107D02*
X142224893Y-110295436D01*
X142224893Y-110295436D02*
X142216188Y-110313618D01*
X142216188Y-110313618D02*
X142210631Y-110339909D01*
X142210631Y-110339909D02*
X142207526Y-110379562D01*
X142207526Y-110379562D02*
X142206176Y-110437832D01*
X142206176Y-110437832D02*
X142205886Y-110518173D01*
X142205886Y-110518173D02*
X142205886Y-110722646D01*
X142205886Y-110722646D02*
X142160177Y-110738580D01*
X142160177Y-110738580D02*
X142127713Y-110749420D01*
X142127713Y-110749420D02*
X142109901Y-110754468D01*
X142109901Y-110754468D02*
X142109377Y-110754514D01*
X142109377Y-110754514D02*
X142108037Y-110740623D01*
X142108037Y-110740623D02*
X142106828Y-110701439D01*
X142106828Y-110701439D02*
X142105801Y-110640700D01*
X142105801Y-110640700D02*
X142105002Y-110562141D01*
X142105002Y-110562141D02*
X142104481Y-110469498D01*
X142104481Y-110469498D02*
X142104286Y-110366509D01*
X142104286Y-110366509D02*
X142104286Y-109969342D01*
X142104286Y-109969342D02*
X142151457Y-109949444D01*
X142151457Y-109949444D02*
X142198629Y-109929547D01*
X142198629Y-109929547D02*
X142205886Y-110051289D01*
X142205886Y-110051289D02*
X142205886Y-110051289D01*
G36*
X142205886Y-110051289D02*
G01*
X142210139Y-110110613D01*
X142215025Y-110145572D01*
X142221795Y-110160820D01*
X142231702Y-110161015D01*
X142234914Y-110159195D01*
X142277644Y-110146015D01*
X142333227Y-110146785D01*
X142389737Y-110160333D01*
X142425082Y-110177861D01*
X142461321Y-110205861D01*
X142487813Y-110237549D01*
X142505999Y-110277813D01*
X142517322Y-110331543D01*
X142523222Y-110403626D01*
X142525143Y-110498951D01*
X142525177Y-110517237D01*
X142525200Y-110722646D01*
X142479491Y-110738580D01*
X142447027Y-110749420D01*
X142429215Y-110754468D01*
X142428691Y-110754514D01*
X142426937Y-110740828D01*
X142425444Y-110703076D01*
X142424326Y-110646224D01*
X142423697Y-110575234D01*
X142423600Y-110532073D01*
X142423398Y-110446973D01*
X142422358Y-110385981D01*
X142419831Y-110344177D01*
X142415164Y-110316642D01*
X142407707Y-110298456D01*
X142396811Y-110284698D01*
X142390007Y-110278073D01*
X142343272Y-110251375D01*
X142292272Y-110249375D01*
X142246001Y-110271955D01*
X142237444Y-110280107D01*
X142224893Y-110295436D01*
X142216188Y-110313618D01*
X142210631Y-110339909D01*
X142207526Y-110379562D01*
X142206176Y-110437832D01*
X142205886Y-110518173D01*
X142205886Y-110722646D01*
X142160177Y-110738580D01*
X142127713Y-110749420D01*
X142109901Y-110754468D01*
X142109377Y-110754514D01*
X142108037Y-110740623D01*
X142106828Y-110701439D01*
X142105801Y-110640700D01*
X142105002Y-110562141D01*
X142104481Y-110469498D01*
X142104286Y-110366509D01*
X142104286Y-109969342D01*
X142151457Y-109949444D01*
X142198629Y-109929547D01*
X142205886Y-110051289D01*
G37*
X142205886Y-110051289D02*
X142210139Y-110110613D01*
X142215025Y-110145572D01*
X142221795Y-110160820D01*
X142231702Y-110161015D01*
X142234914Y-110159195D01*
X142277644Y-110146015D01*
X142333227Y-110146785D01*
X142389737Y-110160333D01*
X142425082Y-110177861D01*
X142461321Y-110205861D01*
X142487813Y-110237549D01*
X142505999Y-110277813D01*
X142517322Y-110331543D01*
X142523222Y-110403626D01*
X142525143Y-110498951D01*
X142525177Y-110517237D01*
X142525200Y-110722646D01*
X142479491Y-110738580D01*
X142447027Y-110749420D01*
X142429215Y-110754468D01*
X142428691Y-110754514D01*
X142426937Y-110740828D01*
X142425444Y-110703076D01*
X142424326Y-110646224D01*
X142423697Y-110575234D01*
X142423600Y-110532073D01*
X142423398Y-110446973D01*
X142422358Y-110385981D01*
X142419831Y-110344177D01*
X142415164Y-110316642D01*
X142407707Y-110298456D01*
X142396811Y-110284698D01*
X142390007Y-110278073D01*
X142343272Y-110251375D01*
X142292272Y-110249375D01*
X142246001Y-110271955D01*
X142237444Y-110280107D01*
X142224893Y-110295436D01*
X142216188Y-110313618D01*
X142210631Y-110339909D01*
X142207526Y-110379562D01*
X142206176Y-110437832D01*
X142205886Y-110518173D01*
X142205886Y-110722646D01*
X142160177Y-110738580D01*
X142127713Y-110749420D01*
X142109901Y-110754468D01*
X142109377Y-110754514D01*
X142108037Y-110740623D01*
X142106828Y-110701439D01*
X142105801Y-110640700D01*
X142105002Y-110562141D01*
X142104481Y-110469498D01*
X142104286Y-110366509D01*
X142104286Y-109969342D01*
X142151457Y-109949444D01*
X142198629Y-109929547D01*
X142205886Y-110051289D01*
X140429744Y-110119918D02*
X140485201Y-110147568D01*
X140485201Y-110147568D02*
X140534148Y-110198480D01*
X140534148Y-110198480D02*
X140547629Y-110217338D01*
X140547629Y-110217338D02*
X140562314Y-110242015D01*
X140562314Y-110242015D02*
X140571842Y-110268816D01*
X140571842Y-110268816D02*
X140577293Y-110304587D01*
X140577293Y-110304587D02*
X140579747Y-110356169D01*
X140579747Y-110356169D02*
X140580286Y-110424267D01*
X140580286Y-110424267D02*
X140577852Y-110517588D01*
X140577852Y-110517588D02*
X140569394Y-110587657D01*
X140569394Y-110587657D02*
X140553174Y-110639931D01*
X140553174Y-110639931D02*
X140527454Y-110679869D01*
X140527454Y-110679869D02*
X140490497Y-110712929D01*
X140490497Y-110712929D02*
X140487782Y-110714886D01*
X140487782Y-110714886D02*
X140451360Y-110734908D01*
X140451360Y-110734908D02*
X140407502Y-110744815D01*
X140407502Y-110744815D02*
X140351724Y-110747257D01*
X140351724Y-110747257D02*
X140261048Y-110747257D01*
X140261048Y-110747257D02*
X140261010Y-110835283D01*
X140261010Y-110835283D02*
X140260166Y-110884308D01*
X140260166Y-110884308D02*
X140255024Y-110913065D01*
X140255024Y-110913065D02*
X140241587Y-110930311D01*
X140241587Y-110930311D02*
X140215858Y-110944808D01*
X140215858Y-110944808D02*
X140209679Y-110947769D01*
X140209679Y-110947769D02*
X140180764Y-110961648D01*
X140180764Y-110961648D02*
X140158376Y-110970414D01*
X140158376Y-110970414D02*
X140141729Y-110971171D01*
X140141729Y-110971171D02*
X140130036Y-110961023D01*
X140130036Y-110961023D02*
X140122510Y-110937073D01*
X140122510Y-110937073D02*
X140118366Y-110896426D01*
X140118366Y-110896426D02*
X140116815Y-110836186D01*
X140116815Y-110836186D02*
X140117071Y-110753455D01*
X140117071Y-110753455D02*
X140118349Y-110645339D01*
X140118349Y-110645339D02*
X140118748Y-110613000D01*
X140118748Y-110613000D02*
X140120185Y-110501524D01*
X140120185Y-110501524D02*
X140121472Y-110428603D01*
X140121472Y-110428603D02*
X140260971Y-110428603D01*
X140260971Y-110428603D02*
X140261755Y-110490499D01*
X140261755Y-110490499D02*
X140265240Y-110530997D01*
X140265240Y-110530997D02*
X140273124Y-110557708D01*
X140273124Y-110557708D02*
X140287105Y-110578244D01*
X140287105Y-110578244D02*
X140296597Y-110588260D01*
X140296597Y-110588260D02*
X140335404Y-110617567D01*
X140335404Y-110617567D02*
X140369763Y-110619952D01*
X140369763Y-110619952D02*
X140405216Y-110595750D01*
X140405216Y-110595750D02*
X140406114Y-110594857D01*
X140406114Y-110594857D02*
X140420539Y-110576153D01*
X140420539Y-110576153D02*
X140429313Y-110550732D01*
X140429313Y-110550732D02*
X140433739Y-110511584D01*
X140433739Y-110511584D02*
X140435118Y-110451697D01*
X140435118Y-110451697D02*
X140435143Y-110438430D01*
X140435143Y-110438430D02*
X140431812Y-110355901D01*
X140431812Y-110355901D02*
X140420969Y-110298691D01*
X140420969Y-110298691D02*
X140401340Y-110263766D01*
X140401340Y-110263766D02*
X140371650Y-110248094D01*
X140371650Y-110248094D02*
X140354491Y-110246514D01*
X140354491Y-110246514D02*
X140313766Y-110253926D01*
X140313766Y-110253926D02*
X140285832Y-110278330D01*
X140285832Y-110278330D02*
X140269017Y-110322980D01*
X140269017Y-110322980D02*
X140261650Y-110391130D01*
X140261650Y-110391130D02*
X140260971Y-110428603D01*
X140260971Y-110428603D02*
X140121472Y-110428603D01*
X140121472Y-110428603D02*
X140121708Y-110415245D01*
X140121708Y-110415245D02*
X140123677Y-110350333D01*
X140123677Y-110350333D02*
X140126450Y-110302958D01*
X140126450Y-110302958D02*
X140130388Y-110269290D01*
X140130388Y-110269290D02*
X140135849Y-110245498D01*
X140135849Y-110245498D02*
X140143192Y-110227753D01*
X140143192Y-110227753D02*
X140152777Y-110212224D01*
X140152777Y-110212224D02*
X140156887Y-110206381D01*
X140156887Y-110206381D02*
X140211405Y-110151185D01*
X140211405Y-110151185D02*
X140280336Y-110119890D01*
X140280336Y-110119890D02*
X140360072Y-110111165D01*
X140360072Y-110111165D02*
X140429744Y-110119918D01*
X140429744Y-110119918D02*
X140429744Y-110119918D01*
G36*
X140123677Y-110350333D02*
G01*
X140126450Y-110302958D01*
X140130388Y-110269290D01*
X140135849Y-110245498D01*
X140143192Y-110227753D01*
X140152777Y-110212224D01*
X140156887Y-110206381D01*
X140211405Y-110151185D01*
X140280336Y-110119890D01*
X140360072Y-110111165D01*
X140429744Y-110119918D01*
X140485201Y-110147568D01*
X140534148Y-110198480D01*
X140547629Y-110217338D01*
X140562314Y-110242015D01*
X140571842Y-110268816D01*
X140577293Y-110304587D01*
X140579747Y-110356169D01*
X140580286Y-110424267D01*
X140577852Y-110517588D01*
X140569394Y-110587657D01*
X140553174Y-110639931D01*
X140527454Y-110679869D01*
X140490497Y-110712929D01*
X140487782Y-110714886D01*
X140451360Y-110734908D01*
X140407502Y-110744815D01*
X140351724Y-110747257D01*
X140261048Y-110747257D01*
X140261010Y-110835283D01*
X140260166Y-110884308D01*
X140255024Y-110913065D01*
X140241587Y-110930311D01*
X140215858Y-110944808D01*
X140209679Y-110947769D01*
X140180764Y-110961648D01*
X140158376Y-110970414D01*
X140141729Y-110971171D01*
X140130036Y-110961023D01*
X140122510Y-110937073D01*
X140118366Y-110896426D01*
X140116815Y-110836186D01*
X140117071Y-110753455D01*
X140118349Y-110645339D01*
X140118748Y-110613000D01*
X140120185Y-110501524D01*
X140121472Y-110428603D01*
X140260971Y-110428603D01*
X140261755Y-110490499D01*
X140265240Y-110530997D01*
X140273124Y-110557708D01*
X140287105Y-110578244D01*
X140296597Y-110588260D01*
X140335404Y-110617567D01*
X140369763Y-110619952D01*
X140405216Y-110595750D01*
X140406114Y-110594857D01*
X140420539Y-110576153D01*
X140429313Y-110550732D01*
X140433739Y-110511584D01*
X140435118Y-110451697D01*
X140435143Y-110438430D01*
X140431812Y-110355901D01*
X140420969Y-110298691D01*
X140401340Y-110263766D01*
X140371650Y-110248094D01*
X140354491Y-110246514D01*
X140313766Y-110253926D01*
X140285832Y-110278330D01*
X140269017Y-110322980D01*
X140261650Y-110391130D01*
X140260971Y-110428603D01*
X140121472Y-110428603D01*
X140121708Y-110415245D01*
X140123677Y-110350333D01*
G37*
X140123677Y-110350333D02*
X140126450Y-110302958D01*
X140130388Y-110269290D01*
X140135849Y-110245498D01*
X140143192Y-110227753D01*
X140152777Y-110212224D01*
X140156887Y-110206381D01*
X140211405Y-110151185D01*
X140280336Y-110119890D01*
X140360072Y-110111165D01*
X140429744Y-110119918D01*
X140485201Y-110147568D01*
X140534148Y-110198480D01*
X140547629Y-110217338D01*
X140562314Y-110242015D01*
X140571842Y-110268816D01*
X140577293Y-110304587D01*
X140579747Y-110356169D01*
X140580286Y-110424267D01*
X140577852Y-110517588D01*
X140569394Y-110587657D01*
X140553174Y-110639931D01*
X140527454Y-110679869D01*
X140490497Y-110712929D01*
X140487782Y-110714886D01*
X140451360Y-110734908D01*
X140407502Y-110744815D01*
X140351724Y-110747257D01*
X140261048Y-110747257D01*
X140261010Y-110835283D01*
X140260166Y-110884308D01*
X140255024Y-110913065D01*
X140241587Y-110930311D01*
X140215858Y-110944808D01*
X140209679Y-110947769D01*
X140180764Y-110961648D01*
X140158376Y-110970414D01*
X140141729Y-110971171D01*
X140130036Y-110961023D01*
X140122510Y-110937073D01*
X140118366Y-110896426D01*
X140116815Y-110836186D01*
X140117071Y-110753455D01*
X140118349Y-110645339D01*
X140118748Y-110613000D01*
X140120185Y-110501524D01*
X140121472Y-110428603D01*
X140260971Y-110428603D01*
X140261755Y-110490499D01*
X140265240Y-110530997D01*
X140273124Y-110557708D01*
X140287105Y-110578244D01*
X140296597Y-110588260D01*
X140335404Y-110617567D01*
X140369763Y-110619952D01*
X140405216Y-110595750D01*
X140406114Y-110594857D01*
X140420539Y-110576153D01*
X140429313Y-110550732D01*
X140433739Y-110511584D01*
X140435118Y-110451697D01*
X140435143Y-110438430D01*
X140431812Y-110355901D01*
X140420969Y-110298691D01*
X140401340Y-110263766D01*
X140371650Y-110248094D01*
X140354491Y-110246514D01*
X140313766Y-110253926D01*
X140285832Y-110278330D01*
X140269017Y-110322980D01*
X140261650Y-110391130D01*
X140260971Y-110428603D01*
X140121472Y-110428603D01*
X140121708Y-110415245D01*
X140123677Y-110350333D01*
X140998303Y-110131239D02*
X141055527Y-110169735D01*
X141055527Y-110169735D02*
X141099749Y-110225335D01*
X141099749Y-110225335D02*
X141126167Y-110296086D01*
X141126167Y-110296086D02*
X141131510Y-110348162D01*
X141131510Y-110348162D02*
X141130903Y-110369893D01*
X141130903Y-110369893D02*
X141125822Y-110386531D01*
X141125822Y-110386531D02*
X141111855Y-110401437D01*
X141111855Y-110401437D02*
X141084589Y-110417973D01*
X141084589Y-110417973D02*
X141039612Y-110439498D01*
X141039612Y-110439498D02*
X140972511Y-110469374D01*
X140972511Y-110469374D02*
X140972171Y-110469524D01*
X140972171Y-110469524D02*
X140910407Y-110497813D01*
X140910407Y-110497813D02*
X140859759Y-110522933D01*
X140859759Y-110522933D02*
X140825404Y-110542179D01*
X140825404Y-110542179D02*
X140812518Y-110552848D01*
X140812518Y-110552848D02*
X140812514Y-110552934D01*
X140812514Y-110552934D02*
X140823872Y-110576166D01*
X140823872Y-110576166D02*
X140850431Y-110601774D01*
X140850431Y-110601774D02*
X140880923Y-110620221D01*
X140880923Y-110620221D02*
X140896370Y-110623886D01*
X140896370Y-110623886D02*
X140938515Y-110611212D01*
X140938515Y-110611212D02*
X140974808Y-110579471D01*
X140974808Y-110579471D02*
X140992517Y-110544572D01*
X140992517Y-110544572D02*
X141009552Y-110518845D01*
X141009552Y-110518845D02*
X141042922Y-110489546D01*
X141042922Y-110489546D02*
X141082149Y-110464235D01*
X141082149Y-110464235D02*
X141116756Y-110450471D01*
X141116756Y-110450471D02*
X141123993Y-110449714D01*
X141123993Y-110449714D02*
X141132139Y-110462160D01*
X141132139Y-110462160D02*
X141132630Y-110493972D01*
X141132630Y-110493972D02*
X141126643Y-110536866D01*
X141126643Y-110536866D02*
X141115357Y-110582558D01*
X141115357Y-110582558D02*
X141099950Y-110622761D01*
X141099950Y-110622761D02*
X141099171Y-110624322D01*
X141099171Y-110624322D02*
X141052804Y-110689062D01*
X141052804Y-110689062D02*
X140992711Y-110733097D01*
X140992711Y-110733097D02*
X140924465Y-110754711D01*
X140924465Y-110754711D02*
X140853638Y-110752185D01*
X140853638Y-110752185D02*
X140785804Y-110723804D01*
X140785804Y-110723804D02*
X140782788Y-110721808D01*
X140782788Y-110721808D02*
X140729427Y-110673448D01*
X140729427Y-110673448D02*
X140694340Y-110610352D01*
X140694340Y-110610352D02*
X140674922Y-110527387D01*
X140674922Y-110527387D02*
X140672316Y-110504078D01*
X140672316Y-110504078D02*
X140667701Y-110394055D01*
X140667701Y-110394055D02*
X140673233Y-110342748D01*
X140673233Y-110342748D02*
X140812514Y-110342748D01*
X140812514Y-110342748D02*
X140814324Y-110374753D01*
X140814324Y-110374753D02*
X140824222Y-110384093D01*
X140824222Y-110384093D02*
X140848898Y-110377105D01*
X140848898Y-110377105D02*
X140887795Y-110360587D01*
X140887795Y-110360587D02*
X140931275Y-110339881D01*
X140931275Y-110339881D02*
X140932356Y-110339333D01*
X140932356Y-110339333D02*
X140969209Y-110319949D01*
X140969209Y-110319949D02*
X140984000Y-110307013D01*
X140984000Y-110307013D02*
X140980353Y-110293451D01*
X140980353Y-110293451D02*
X140964995Y-110275632D01*
X140964995Y-110275632D02*
X140925923Y-110249845D01*
X140925923Y-110249845D02*
X140883846Y-110247950D01*
X140883846Y-110247950D02*
X140846103Y-110266717D01*
X140846103Y-110266717D02*
X140820034Y-110302915D01*
X140820034Y-110302915D02*
X140812514Y-110342748D01*
X140812514Y-110342748D02*
X140673233Y-110342748D01*
X140673233Y-110342748D02*
X140677194Y-110306027D01*
X140677194Y-110306027D02*
X140701550Y-110236212D01*
X140701550Y-110236212D02*
X140735456Y-110187302D01*
X140735456Y-110187302D02*
X140796653Y-110137878D01*
X140796653Y-110137878D02*
X140864063Y-110113359D01*
X140864063Y-110113359D02*
X140932880Y-110111797D01*
X140932880Y-110111797D02*
X140998303Y-110131239D01*
X140998303Y-110131239D02*
X140998303Y-110131239D01*
G36*
X140701550Y-110236212D02*
G01*
X140735456Y-110187302D01*
X140796653Y-110137878D01*
X140864063Y-110113359D01*
X140932880Y-110111797D01*
X140998303Y-110131239D01*
X141055527Y-110169735D01*
X141099749Y-110225335D01*
X141126167Y-110296086D01*
X141131510Y-110348162D01*
X141130903Y-110369893D01*
X141125822Y-110386531D01*
X141111855Y-110401437D01*
X141084589Y-110417973D01*
X141039612Y-110439498D01*
X140972511Y-110469374D01*
X140972171Y-110469524D01*
X140910407Y-110497813D01*
X140859759Y-110522933D01*
X140825404Y-110542179D01*
X140812518Y-110552848D01*
X140812514Y-110552934D01*
X140823872Y-110576166D01*
X140850431Y-110601774D01*
X140880923Y-110620221D01*
X140896370Y-110623886D01*
X140938515Y-110611212D01*
X140974808Y-110579471D01*
X140992517Y-110544572D01*
X141009552Y-110518845D01*
X141042922Y-110489546D01*
X141082149Y-110464235D01*
X141116756Y-110450471D01*
X141123993Y-110449714D01*
X141132139Y-110462160D01*
X141132630Y-110493972D01*
X141126643Y-110536866D01*
X141115357Y-110582558D01*
X141099950Y-110622761D01*
X141099171Y-110624322D01*
X141052804Y-110689062D01*
X140992711Y-110733097D01*
X140924465Y-110754711D01*
X140853638Y-110752185D01*
X140785804Y-110723804D01*
X140782788Y-110721808D01*
X140729427Y-110673448D01*
X140694340Y-110610352D01*
X140674922Y-110527387D01*
X140672316Y-110504078D01*
X140667701Y-110394055D01*
X140673233Y-110342748D01*
X140812514Y-110342748D01*
X140814324Y-110374753D01*
X140824222Y-110384093D01*
X140848898Y-110377105D01*
X140887795Y-110360587D01*
X140931275Y-110339881D01*
X140932356Y-110339333D01*
X140969209Y-110319949D01*
X140984000Y-110307013D01*
X140980353Y-110293451D01*
X140964995Y-110275632D01*
X140925923Y-110249845D01*
X140883846Y-110247950D01*
X140846103Y-110266717D01*
X140820034Y-110302915D01*
X140812514Y-110342748D01*
X140673233Y-110342748D01*
X140677194Y-110306027D01*
X140701550Y-110236212D01*
G37*
X140701550Y-110236212D02*
X140735456Y-110187302D01*
X140796653Y-110137878D01*
X140864063Y-110113359D01*
X140932880Y-110111797D01*
X140998303Y-110131239D01*
X141055527Y-110169735D01*
X141099749Y-110225335D01*
X141126167Y-110296086D01*
X141131510Y-110348162D01*
X141130903Y-110369893D01*
X141125822Y-110386531D01*
X141111855Y-110401437D01*
X141084589Y-110417973D01*
X141039612Y-110439498D01*
X140972511Y-110469374D01*
X140972171Y-110469524D01*
X140910407Y-110497813D01*
X140859759Y-110522933D01*
X140825404Y-110542179D01*
X140812518Y-110552848D01*
X140812514Y-110552934D01*
X140823872Y-110576166D01*
X140850431Y-110601774D01*
X140880923Y-110620221D01*
X140896370Y-110623886D01*
X140938515Y-110611212D01*
X140974808Y-110579471D01*
X140992517Y-110544572D01*
X141009552Y-110518845D01*
X141042922Y-110489546D01*
X141082149Y-110464235D01*
X141116756Y-110450471D01*
X141123993Y-110449714D01*
X141132139Y-110462160D01*
X141132630Y-110493972D01*
X141126643Y-110536866D01*
X141115357Y-110582558D01*
X141099950Y-110622761D01*
X141099171Y-110624322D01*
X141052804Y-110689062D01*
X140992711Y-110733097D01*
X140924465Y-110754711D01*
X140853638Y-110752185D01*
X140785804Y-110723804D01*
X140782788Y-110721808D01*
X140729427Y-110673448D01*
X140694340Y-110610352D01*
X140674922Y-110527387D01*
X140672316Y-110504078D01*
X140667701Y-110394055D01*
X140673233Y-110342748D01*
X140812514Y-110342748D01*
X140814324Y-110374753D01*
X140824222Y-110384093D01*
X140848898Y-110377105D01*
X140887795Y-110360587D01*
X140931275Y-110339881D01*
X140932356Y-110339333D01*
X140969209Y-110319949D01*
X140984000Y-110307013D01*
X140980353Y-110293451D01*
X140964995Y-110275632D01*
X140925923Y-110249845D01*
X140883846Y-110247950D01*
X140846103Y-110266717D01*
X140820034Y-110302915D01*
X140812514Y-110342748D01*
X140673233Y-110342748D01*
X140677194Y-110306027D01*
X140701550Y-110236212D01*
X143359926Y-110149755D02*
X143425858Y-110174084D01*
X143425858Y-110174084D02*
X143479273Y-110217117D01*
X143479273Y-110217117D02*
X143500164Y-110247409D01*
X143500164Y-110247409D02*
X143522939Y-110302994D01*
X143522939Y-110302994D02*
X143522466Y-110343186D01*
X143522466Y-110343186D02*
X143498562Y-110370217D01*
X143498562Y-110370217D02*
X143489717Y-110374813D01*
X143489717Y-110374813D02*
X143451530Y-110389144D01*
X143451530Y-110389144D02*
X143432028Y-110385472D01*
X143432028Y-110385472D02*
X143425422Y-110361407D01*
X143425422Y-110361407D02*
X143425086Y-110348114D01*
X143425086Y-110348114D02*
X143412992Y-110299210D01*
X143412992Y-110299210D02*
X143381471Y-110264999D01*
X143381471Y-110264999D02*
X143337659Y-110248476D01*
X143337659Y-110248476D02*
X143288695Y-110252634D01*
X143288695Y-110252634D02*
X143248894Y-110274227D01*
X143248894Y-110274227D02*
X143235450Y-110286544D01*
X143235450Y-110286544D02*
X143225921Y-110301487D01*
X143225921Y-110301487D02*
X143219485Y-110324075D01*
X143219485Y-110324075D02*
X143215317Y-110359328D01*
X143215317Y-110359328D02*
X143212597Y-110412266D01*
X143212597Y-110412266D02*
X143210502Y-110487907D01*
X143210502Y-110487907D02*
X143209960Y-110511857D01*
X143209960Y-110511857D02*
X143207981Y-110593790D01*
X143207981Y-110593790D02*
X143205731Y-110651455D01*
X143205731Y-110651455D02*
X143202357Y-110689608D01*
X143202357Y-110689608D02*
X143197006Y-110713004D01*
X143197006Y-110713004D02*
X143188824Y-110726398D01*
X143188824Y-110726398D02*
X143176959Y-110734545D01*
X143176959Y-110734545D02*
X143169362Y-110738144D01*
X143169362Y-110738144D02*
X143137102Y-110750452D01*
X143137102Y-110750452D02*
X143118111Y-110754514D01*
X143118111Y-110754514D02*
X143111836Y-110740948D01*
X143111836Y-110740948D02*
X143108006Y-110699934D01*
X143108006Y-110699934D02*
X143106600Y-110630999D01*
X143106600Y-110630999D02*
X143107598Y-110533669D01*
X143107598Y-110533669D02*
X143107908Y-110518657D01*
X143107908Y-110518657D02*
X143110101Y-110429859D01*
X143110101Y-110429859D02*
X143112693Y-110365019D01*
X143112693Y-110365019D02*
X143116382Y-110319067D01*
X143116382Y-110319067D02*
X143121864Y-110286935D01*
X143121864Y-110286935D02*
X143129835Y-110263553D01*
X143129835Y-110263553D02*
X143140993Y-110243852D01*
X143140993Y-110243852D02*
X143146830Y-110235410D01*
X143146830Y-110235410D02*
X143180296Y-110198057D01*
X143180296Y-110198057D02*
X143217727Y-110169003D01*
X143217727Y-110169003D02*
X143222309Y-110166467D01*
X143222309Y-110166467D02*
X143289426Y-110146443D01*
X143289426Y-110146443D02*
X143359926Y-110149755D01*
X143359926Y-110149755D02*
X143359926Y-110149755D01*
G36*
X143359926Y-110149755D02*
G01*
X143425858Y-110174084D01*
X143479273Y-110217117D01*
X143500164Y-110247409D01*
X143522939Y-110302994D01*
X143522466Y-110343186D01*
X143498562Y-110370217D01*
X143489717Y-110374813D01*
X143451530Y-110389144D01*
X143432028Y-110385472D01*
X143425422Y-110361407D01*
X143425086Y-110348114D01*
X143412992Y-110299210D01*
X143381471Y-110264999D01*
X143337659Y-110248476D01*
X143288695Y-110252634D01*
X143248894Y-110274227D01*
X143235450Y-110286544D01*
X143225921Y-110301487D01*
X143219485Y-110324075D01*
X143215317Y-110359328D01*
X143212597Y-110412266D01*
X143210502Y-110487907D01*
X143209960Y-110511857D01*
X143207981Y-110593790D01*
X143205731Y-110651455D01*
X143202357Y-110689608D01*
X143197006Y-110713004D01*
X143188824Y-110726398D01*
X143176959Y-110734545D01*
X143169362Y-110738144D01*
X143137102Y-110750452D01*
X143118111Y-110754514D01*
X143111836Y-110740948D01*
X143108006Y-110699934D01*
X143106600Y-110630999D01*
X143107598Y-110533669D01*
X143107908Y-110518657D01*
X143110101Y-110429859D01*
X143112693Y-110365019D01*
X143116382Y-110319067D01*
X143121864Y-110286935D01*
X143129835Y-110263553D01*
X143140993Y-110243852D01*
X143146830Y-110235410D01*
X143180296Y-110198057D01*
X143217727Y-110169003D01*
X143222309Y-110166467D01*
X143289426Y-110146443D01*
X143359926Y-110149755D01*
G37*
X143359926Y-110149755D02*
X143425858Y-110174084D01*
X143479273Y-110217117D01*
X143500164Y-110247409D01*
X143522939Y-110302994D01*
X143522466Y-110343186D01*
X143498562Y-110370217D01*
X143489717Y-110374813D01*
X143451530Y-110389144D01*
X143432028Y-110385472D01*
X143425422Y-110361407D01*
X143425086Y-110348114D01*
X143412992Y-110299210D01*
X143381471Y-110264999D01*
X143337659Y-110248476D01*
X143288695Y-110252634D01*
X143248894Y-110274227D01*
X143235450Y-110286544D01*
X143225921Y-110301487D01*
X143219485Y-110324075D01*
X143215317Y-110359328D01*
X143212597Y-110412266D01*
X143210502Y-110487907D01*
X143209960Y-110511857D01*
X143207981Y-110593790D01*
X143205731Y-110651455D01*
X143202357Y-110689608D01*
X143197006Y-110713004D01*
X143188824Y-110726398D01*
X143176959Y-110734545D01*
X143169362Y-110738144D01*
X143137102Y-110750452D01*
X143118111Y-110754514D01*
X143111836Y-110740948D01*
X143108006Y-110699934D01*
X143106600Y-110630999D01*
X143107598Y-110533669D01*
X143107908Y-110518657D01*
X143110101Y-110429859D01*
X143112693Y-110365019D01*
X143116382Y-110319067D01*
X143121864Y-110286935D01*
X143129835Y-110263553D01*
X143140993Y-110243852D01*
X143146830Y-110235410D01*
X143180296Y-110198057D01*
X143217727Y-110169003D01*
X143222309Y-110166467D01*
X143289426Y-110146443D01*
X143359926Y-110149755D01*
X144609833Y-110158663D02*
X144612048Y-110196850D01*
X144612048Y-110196850D02*
X144613784Y-110254886D01*
X144613784Y-110254886D02*
X144614899Y-110328180D01*
X144614899Y-110328180D02*
X144615257Y-110405055D01*
X144615257Y-110405055D02*
X144615257Y-110665196D01*
X144615257Y-110665196D02*
X144569326Y-110711127D01*
X144569326Y-110711127D02*
X144537675Y-110739429D01*
X144537675Y-110739429D02*
X144509890Y-110750893D01*
X144509890Y-110750893D02*
X144471915Y-110750168D01*
X144471915Y-110750168D02*
X144456840Y-110748321D01*
X144456840Y-110748321D02*
X144409726Y-110742948D01*
X144409726Y-110742948D02*
X144370756Y-110739869D01*
X144370756Y-110739869D02*
X144361257Y-110739585D01*
X144361257Y-110739585D02*
X144329233Y-110741445D01*
X144329233Y-110741445D02*
X144283432Y-110746114D01*
X144283432Y-110746114D02*
X144265674Y-110748321D01*
X144265674Y-110748321D02*
X144222057Y-110751735D01*
X144222057Y-110751735D02*
X144192745Y-110744320D01*
X144192745Y-110744320D02*
X144163680Y-110721427D01*
X144163680Y-110721427D02*
X144153188Y-110711127D01*
X144153188Y-110711127D02*
X144107257Y-110665196D01*
X144107257Y-110665196D02*
X144107257Y-110178602D01*
X144107257Y-110178602D02*
X144144226Y-110161758D01*
X144144226Y-110161758D02*
X144176059Y-110149282D01*
X144176059Y-110149282D02*
X144194683Y-110144914D01*
X144194683Y-110144914D02*
X144199458Y-110158718D01*
X144199458Y-110158718D02*
X144203921Y-110197286D01*
X144203921Y-110197286D02*
X144207775Y-110256356D01*
X144207775Y-110256356D02*
X144210722Y-110331663D01*
X144210722Y-110331663D02*
X144212143Y-110395286D01*
X144212143Y-110395286D02*
X144216114Y-110645657D01*
X144216114Y-110645657D02*
X144250759Y-110650556D01*
X144250759Y-110650556D02*
X144282268Y-110647131D01*
X144282268Y-110647131D02*
X144297708Y-110636041D01*
X144297708Y-110636041D02*
X144302023Y-110615308D01*
X144302023Y-110615308D02*
X144305708Y-110571145D01*
X144305708Y-110571145D02*
X144308469Y-110509146D01*
X144308469Y-110509146D02*
X144310012Y-110434909D01*
X144310012Y-110434909D02*
X144310235Y-110396706D01*
X144310235Y-110396706D02*
X144310457Y-110176783D01*
X144310457Y-110176783D02*
X144356166Y-110160849D01*
X144356166Y-110160849D02*
X144388518Y-110150015D01*
X144388518Y-110150015D02*
X144406115Y-110144962D01*
X144406115Y-110144962D02*
X144406623Y-110144914D01*
X144406623Y-110144914D02*
X144408388Y-110158648D01*
X144408388Y-110158648D02*
X144410329Y-110196730D01*
X144410329Y-110196730D02*
X144412282Y-110254482D01*
X144412282Y-110254482D02*
X144414084Y-110327227D01*
X144414084Y-110327227D02*
X144415343Y-110395286D01*
X144415343Y-110395286D02*
X144419314Y-110645657D01*
X144419314Y-110645657D02*
X144506400Y-110645657D01*
X144506400Y-110645657D02*
X144510396Y-110417240D01*
X144510396Y-110417240D02*
X144514392Y-110188822D01*
X144514392Y-110188822D02*
X144556847Y-110166868D01*
X144556847Y-110166868D02*
X144588192Y-110151793D01*
X144588192Y-110151793D02*
X144606744Y-110144951D01*
X144606744Y-110144951D02*
X144607279Y-110144914D01*
X144607279Y-110144914D02*
X144609833Y-110158663D01*
X144609833Y-110158663D02*
X144609833Y-110158663D01*
G36*
X144609833Y-110158663D02*
G01*
X144612048Y-110196850D01*
X144613784Y-110254886D01*
X144614899Y-110328180D01*
X144615257Y-110405055D01*
X144615257Y-110665196D01*
X144569326Y-110711127D01*
X144537675Y-110739429D01*
X144509890Y-110750893D01*
X144471915Y-110750168D01*
X144456840Y-110748321D01*
X144409726Y-110742948D01*
X144370756Y-110739869D01*
X144361257Y-110739585D01*
X144329233Y-110741445D01*
X144283432Y-110746114D01*
X144265674Y-110748321D01*
X144222057Y-110751735D01*
X144192745Y-110744320D01*
X144163680Y-110721427D01*
X144153188Y-110711127D01*
X144107257Y-110665196D01*
X144107257Y-110178602D01*
X144144226Y-110161758D01*
X144176059Y-110149282D01*
X144194683Y-110144914D01*
X144199458Y-110158718D01*
X144203921Y-110197286D01*
X144207775Y-110256356D01*
X144210722Y-110331663D01*
X144212143Y-110395286D01*
X144216114Y-110645657D01*
X144250759Y-110650556D01*
X144282268Y-110647131D01*
X144297708Y-110636041D01*
X144302023Y-110615308D01*
X144305708Y-110571145D01*
X144308469Y-110509146D01*
X144310012Y-110434909D01*
X144310235Y-110396706D01*
X144310457Y-110176783D01*
X144356166Y-110160849D01*
X144388518Y-110150015D01*
X144406115Y-110144962D01*
X144406623Y-110144914D01*
X144408388Y-110158648D01*
X144410329Y-110196730D01*
X144412282Y-110254482D01*
X144414084Y-110327227D01*
X144415343Y-110395286D01*
X144419314Y-110645657D01*
X144506400Y-110645657D01*
X144510396Y-110417240D01*
X144514392Y-110188822D01*
X144556847Y-110166868D01*
X144588192Y-110151793D01*
X144606744Y-110144951D01*
X144607279Y-110144914D01*
X144609833Y-110158663D01*
G37*
X144609833Y-110158663D02*
X144612048Y-110196850D01*
X144613784Y-110254886D01*
X144614899Y-110328180D01*
X144615257Y-110405055D01*
X144615257Y-110665196D01*
X144569326Y-110711127D01*
X144537675Y-110739429D01*
X144509890Y-110750893D01*
X144471915Y-110750168D01*
X144456840Y-110748321D01*
X144409726Y-110742948D01*
X144370756Y-110739869D01*
X144361257Y-110739585D01*
X144329233Y-110741445D01*
X144283432Y-110746114D01*
X144265674Y-110748321D01*
X144222057Y-110751735D01*
X144192745Y-110744320D01*
X144163680Y-110721427D01*
X144153188Y-110711127D01*
X144107257Y-110665196D01*
X144107257Y-110178602D01*
X144144226Y-110161758D01*
X144176059Y-110149282D01*
X144194683Y-110144914D01*
X144199458Y-110158718D01*
X144203921Y-110197286D01*
X144207775Y-110256356D01*
X144210722Y-110331663D01*
X144212143Y-110395286D01*
X144216114Y-110645657D01*
X144250759Y-110650556D01*
X144282268Y-110647131D01*
X144297708Y-110636041D01*
X144302023Y-110615308D01*
X144305708Y-110571145D01*
X144308469Y-110509146D01*
X144310012Y-110434909D01*
X144310235Y-110396706D01*
X144310457Y-110176783D01*
X144356166Y-110160849D01*
X144388518Y-110150015D01*
X144406115Y-110144962D01*
X144406623Y-110144914D01*
X144408388Y-110158648D01*
X144410329Y-110196730D01*
X144412282Y-110254482D01*
X144414084Y-110327227D01*
X144415343Y-110395286D01*
X144419314Y-110645657D01*
X144506400Y-110645657D01*
X144510396Y-110417240D01*
X144514392Y-110188822D01*
X144556847Y-110166868D01*
X144588192Y-110151793D01*
X144606744Y-110144951D01*
X144607279Y-110144914D01*
X144609833Y-110158663D01*
X142933910Y-105442348D02*
X143012454Y-105442778D01*
X143012454Y-105442778D02*
X143069298Y-105443942D01*
X143069298Y-105443942D02*
X143108105Y-105446207D01*
X143108105Y-105446207D02*
X143132538Y-105449940D01*
X143132538Y-105449940D02*
X143146262Y-105455506D01*
X143146262Y-105455506D02*
X143152940Y-105463273D01*
X143152940Y-105463273D02*
X143156236Y-105473605D01*
X143156236Y-105473605D02*
X143156556Y-105474943D01*
X143156556Y-105474943D02*
X143161562Y-105499079D01*
X143161562Y-105499079D02*
X143170829Y-105546701D01*
X143170829Y-105546701D02*
X143183392Y-105612741D01*
X143183392Y-105612741D02*
X143198287Y-105692128D01*
X143198287Y-105692128D02*
X143214551Y-105779796D01*
X143214551Y-105779796D02*
X143215119Y-105782875D01*
X143215119Y-105782875D02*
X143231410Y-105868789D01*
X143231410Y-105868789D02*
X143246652Y-105944696D01*
X143246652Y-105944696D02*
X143259861Y-106006045D01*
X143259861Y-106006045D02*
X143270054Y-106048282D01*
X143270054Y-106048282D02*
X143276248Y-106066855D01*
X143276248Y-106066855D02*
X143276543Y-106067184D01*
X143276543Y-106067184D02*
X143294788Y-106076253D01*
X143294788Y-106076253D02*
X143332405Y-106091367D01*
X143332405Y-106091367D02*
X143381271Y-106109262D01*
X143381271Y-106109262D02*
X143381543Y-106109358D01*
X143381543Y-106109358D02*
X143443093Y-106132493D01*
X143443093Y-106132493D02*
X143515657Y-106161965D01*
X143515657Y-106161965D02*
X143584057Y-106191597D01*
X143584057Y-106191597D02*
X143587294Y-106193062D01*
X143587294Y-106193062D02*
X143698702Y-106243626D01*
X143698702Y-106243626D02*
X143945399Y-106075160D01*
X143945399Y-106075160D02*
X144021077Y-106023803D01*
X144021077Y-106023803D02*
X144089631Y-105977889D01*
X144089631Y-105977889D02*
X144147088Y-105940030D01*
X144147088Y-105940030D02*
X144189476Y-105912837D01*
X144189476Y-105912837D02*
X144212825Y-105898921D01*
X144212825Y-105898921D02*
X144215042Y-105897889D01*
X144215042Y-105897889D02*
X144232010Y-105902484D01*
X144232010Y-105902484D02*
X144263701Y-105924655D01*
X144263701Y-105924655D02*
X144311352Y-105965447D01*
X144311352Y-105965447D02*
X144376198Y-106025905D01*
X144376198Y-106025905D02*
X144442397Y-106090227D01*
X144442397Y-106090227D02*
X144506214Y-106153612D01*
X144506214Y-106153612D02*
X144563329Y-106211451D01*
X144563329Y-106211451D02*
X144610305Y-106260175D01*
X144610305Y-106260175D02*
X144643703Y-106296210D01*
X144643703Y-106296210D02*
X144660085Y-106315984D01*
X144660085Y-106315984D02*
X144660694Y-106317002D01*
X144660694Y-106317002D02*
X144662505Y-106330572D01*
X144662505Y-106330572D02*
X144655683Y-106352733D01*
X144655683Y-106352733D02*
X144638540Y-106386478D01*
X144638540Y-106386478D02*
X144609393Y-106434800D01*
X144609393Y-106434800D02*
X144566555Y-106500692D01*
X144566555Y-106500692D02*
X144509448Y-106585517D01*
X144509448Y-106585517D02*
X144458766Y-106660177D01*
X144458766Y-106660177D02*
X144413461Y-106727140D01*
X144413461Y-106727140D02*
X144376150Y-106782516D01*
X144376150Y-106782516D02*
X144349452Y-106822420D01*
X144349452Y-106822420D02*
X144335985Y-106842962D01*
X144335985Y-106842962D02*
X144335137Y-106844356D01*
X144335137Y-106844356D02*
X144336781Y-106864038D01*
X144336781Y-106864038D02*
X144349245Y-106902293D01*
X144349245Y-106902293D02*
X144370048Y-106951889D01*
X144370048Y-106951889D02*
X144377462Y-106967728D01*
X144377462Y-106967728D02*
X144409814Y-107038290D01*
X144409814Y-107038290D02*
X144444328Y-107118353D01*
X144444328Y-107118353D02*
X144472365Y-107187629D01*
X144472365Y-107187629D02*
X144492568Y-107239045D01*
X144492568Y-107239045D02*
X144508615Y-107278119D01*
X144508615Y-107278119D02*
X144517888Y-107298541D01*
X144517888Y-107298541D02*
X144519041Y-107300114D01*
X144519041Y-107300114D02*
X144536096Y-107302721D01*
X144536096Y-107302721D02*
X144576298Y-107309863D01*
X144576298Y-107309863D02*
X144634302Y-107320523D01*
X144634302Y-107320523D02*
X144704763Y-107333685D01*
X144704763Y-107333685D02*
X144782335Y-107348333D01*
X144782335Y-107348333D02*
X144861672Y-107363449D01*
X144861672Y-107363449D02*
X144937431Y-107378018D01*
X144937431Y-107378018D02*
X145004264Y-107391022D01*
X145004264Y-107391022D02*
X145056828Y-107401445D01*
X145056828Y-107401445D02*
X145089776Y-107408270D01*
X145089776Y-107408270D02*
X145097857Y-107410199D01*
X145097857Y-107410199D02*
X145106205Y-107414962D01*
X145106205Y-107414962D02*
X145112506Y-107425718D01*
X145112506Y-107425718D02*
X145117045Y-107446098D01*
X145117045Y-107446098D02*
X145120104Y-107479734D01*
X145120104Y-107479734D02*
X145121967Y-107530255D01*
X145121967Y-107530255D02*
X145122918Y-107601292D01*
X145122918Y-107601292D02*
X145123240Y-107696476D01*
X145123240Y-107696476D02*
X145123257Y-107735492D01*
X145123257Y-107735492D02*
X145123257Y-108052799D01*
X145123257Y-108052799D02*
X145047057Y-108067839D01*
X145047057Y-108067839D02*
X145004663Y-108075995D01*
X145004663Y-108075995D02*
X144941400Y-108087899D01*
X144941400Y-108087899D02*
X144864962Y-108102116D01*
X144864962Y-108102116D02*
X144783043Y-108117210D01*
X144783043Y-108117210D02*
X144760400Y-108121355D01*
X144760400Y-108121355D02*
X144684806Y-108136053D01*
X144684806Y-108136053D02*
X144618953Y-108150505D01*
X144618953Y-108150505D02*
X144568366Y-108163375D01*
X144568366Y-108163375D02*
X144538574Y-108173322D01*
X144538574Y-108173322D02*
X144533612Y-108176287D01*
X144533612Y-108176287D02*
X144521426Y-108197283D01*
X144521426Y-108197283D02*
X144503953Y-108237967D01*
X144503953Y-108237967D02*
X144484577Y-108290322D01*
X144484577Y-108290322D02*
X144480734Y-108301600D01*
X144480734Y-108301600D02*
X144455339Y-108371523D01*
X144455339Y-108371523D02*
X144423817Y-108450418D01*
X144423817Y-108450418D02*
X144392969Y-108521266D01*
X144392969Y-108521266D02*
X144392817Y-108521595D01*
X144392817Y-108521595D02*
X144341447Y-108632733D01*
X144341447Y-108632733D02*
X144510399Y-108881253D01*
X144510399Y-108881253D02*
X144679352Y-109129772D01*
X144679352Y-109129772D02*
X144462429Y-109347058D01*
X144462429Y-109347058D02*
X144396819Y-109411726D01*
X144396819Y-109411726D02*
X144336979Y-109468733D01*
X144336979Y-109468733D02*
X144286267Y-109515033D01*
X144286267Y-109515033D02*
X144248046Y-109547584D01*
X144248046Y-109547584D02*
X144225675Y-109563343D01*
X144225675Y-109563343D02*
X144222466Y-109564343D01*
X144222466Y-109564343D02*
X144203626Y-109556469D01*
X144203626Y-109556469D02*
X144165180Y-109534578D01*
X144165180Y-109534578D02*
X144111330Y-109501267D01*
X144111330Y-109501267D02*
X144046276Y-109459131D01*
X144046276Y-109459131D02*
X143975940Y-109411943D01*
X143975940Y-109411943D02*
X143904555Y-109363810D01*
X143904555Y-109363810D02*
X143840908Y-109321928D01*
X143840908Y-109321928D02*
X143789041Y-109288871D01*
X143789041Y-109288871D02*
X143752995Y-109267218D01*
X143752995Y-109267218D02*
X143736867Y-109259543D01*
X143736867Y-109259543D02*
X143717189Y-109266037D01*
X143717189Y-109266037D02*
X143679875Y-109283150D01*
X143679875Y-109283150D02*
X143632621Y-109307326D01*
X143632621Y-109307326D02*
X143627612Y-109310013D01*
X143627612Y-109310013D02*
X143563977Y-109341927D01*
X143563977Y-109341927D02*
X143520341Y-109357579D01*
X143520341Y-109357579D02*
X143493202Y-109357745D01*
X143493202Y-109357745D02*
X143479057Y-109343204D01*
X143479057Y-109343204D02*
X143478975Y-109343000D01*
X143478975Y-109343000D02*
X143471905Y-109325779D01*
X143471905Y-109325779D02*
X143455042Y-109284899D01*
X143455042Y-109284899D02*
X143429695Y-109223525D01*
X143429695Y-109223525D02*
X143397171Y-109144819D01*
X143397171Y-109144819D02*
X143358778Y-109051947D01*
X143358778Y-109051947D02*
X143315822Y-108948072D01*
X143315822Y-108948072D02*
X143274222Y-108847502D01*
X143274222Y-108847502D02*
X143228504Y-108736516D01*
X143228504Y-108736516D02*
X143186526Y-108633703D01*
X143186526Y-108633703D02*
X143149548Y-108542215D01*
X143149548Y-108542215D02*
X143118827Y-108465201D01*
X143118827Y-108465201D02*
X143095622Y-108405815D01*
X143095622Y-108405815D02*
X143081190Y-108367209D01*
X143081190Y-108367209D02*
X143076743Y-108352800D01*
X143076743Y-108352800D02*
X143087896Y-108336272D01*
X143087896Y-108336272D02*
X143117069Y-108309930D01*
X143117069Y-108309930D02*
X143155971Y-108280887D01*
X143155971Y-108280887D02*
X143266757Y-108189039D01*
X143266757Y-108189039D02*
X143353351Y-108083759D01*
X143353351Y-108083759D02*
X143414716Y-107967266D01*
X143414716Y-107967266D02*
X143449815Y-107841776D01*
X143449815Y-107841776D02*
X143457608Y-107709507D01*
X143457608Y-107709507D02*
X143451943Y-107648457D01*
X143451943Y-107648457D02*
X143421078Y-107521795D01*
X143421078Y-107521795D02*
X143367920Y-107409941D01*
X143367920Y-107409941D02*
X143295767Y-107314001D01*
X143295767Y-107314001D02*
X143207917Y-107235076D01*
X143207917Y-107235076D02*
X143107665Y-107174270D01*
X143107665Y-107174270D02*
X142998310Y-107132687D01*
X142998310Y-107132687D02*
X142883147Y-107111428D01*
X142883147Y-107111428D02*
X142765475Y-107111599D01*
X142765475Y-107111599D02*
X142648590Y-107134301D01*
X142648590Y-107134301D02*
X142535789Y-107180638D01*
X142535789Y-107180638D02*
X142430369Y-107251713D01*
X142430369Y-107251713D02*
X142386368Y-107291911D01*
X142386368Y-107291911D02*
X142301979Y-107395129D01*
X142301979Y-107395129D02*
X142243222Y-107507925D01*
X142243222Y-107507925D02*
X142209704Y-107627010D01*
X142209704Y-107627010D02*
X142201035Y-107749095D01*
X142201035Y-107749095D02*
X142216823Y-107870893D01*
X142216823Y-107870893D02*
X142256678Y-107989116D01*
X142256678Y-107989116D02*
X142320207Y-108100475D01*
X142320207Y-108100475D02*
X142407021Y-108201684D01*
X142407021Y-108201684D02*
X142504029Y-108280887D01*
X142504029Y-108280887D02*
X142544437Y-108311162D01*
X142544437Y-108311162D02*
X142572982Y-108337219D01*
X142572982Y-108337219D02*
X142583257Y-108352825D01*
X142583257Y-108352825D02*
X142577877Y-108369843D01*
X142577877Y-108369843D02*
X142562575Y-108410500D01*
X142562575Y-108410500D02*
X142538612Y-108471642D01*
X142538612Y-108471642D02*
X142507244Y-108550119D01*
X142507244Y-108550119D02*
X142469732Y-108642780D01*
X142469732Y-108642780D02*
X142427333Y-108746472D01*
X142427333Y-108746472D02*
X142385663Y-108847526D01*
X142385663Y-108847526D02*
X142339690Y-108958607D01*
X142339690Y-108958607D02*
X142297107Y-109061541D01*
X142297107Y-109061541D02*
X142259221Y-109153165D01*
X142259221Y-109153165D02*
X142227340Y-109230316D01*
X142227340Y-109230316D02*
X142202771Y-109289831D01*
X142202771Y-109289831D02*
X142186820Y-109328544D01*
X142186820Y-109328544D02*
X142180910Y-109343000D01*
X142180910Y-109343000D02*
X142166948Y-109357685D01*
X142166948Y-109357685D02*
X142139940Y-109357642D01*
X142139940Y-109357642D02*
X142096413Y-109342099D01*
X142096413Y-109342099D02*
X142032890Y-109310284D01*
X142032890Y-109310284D02*
X142032388Y-109310013D01*
X142032388Y-109310013D02*
X141984560Y-109285323D01*
X141984560Y-109285323D02*
X141945897Y-109267338D01*
X141945897Y-109267338D02*
X141924095Y-109259614D01*
X141924095Y-109259614D02*
X141923133Y-109259543D01*
X141923133Y-109259543D02*
X141906721Y-109267378D01*
X141906721Y-109267378D02*
X141870487Y-109289165D01*
X141870487Y-109289165D02*
X141818474Y-109322328D01*
X141818474Y-109322328D02*
X141754725Y-109364291D01*
X141754725Y-109364291D02*
X141684060Y-109411943D01*
X141684060Y-109411943D02*
X141612116Y-109460191D01*
X141612116Y-109460191D02*
X141547274Y-109502151D01*
X141547274Y-109502151D02*
X141493735Y-109535227D01*
X141493735Y-109535227D02*
X141455697Y-109556821D01*
X141455697Y-109556821D02*
X141437533Y-109564343D01*
X141437533Y-109564343D02*
X141420808Y-109554457D01*
X141420808Y-109554457D02*
X141387180Y-109526826D01*
X141387180Y-109526826D02*
X141340010Y-109484495D01*
X141340010Y-109484495D02*
X141282658Y-109430505D01*
X141282658Y-109430505D02*
X141218484Y-109367899D01*
X141218484Y-109367899D02*
X141197497Y-109346983D01*
X141197497Y-109346983D02*
X140980499Y-109129623D01*
X140980499Y-109129623D02*
X141145668Y-108887220D01*
X141145668Y-108887220D02*
X141195864Y-108812781D01*
X141195864Y-108812781D02*
X141239919Y-108745972D01*
X141239919Y-108745972D02*
X141275362Y-108690665D01*
X141275362Y-108690665D02*
X141299719Y-108650729D01*
X141299719Y-108650729D02*
X141310522Y-108630036D01*
X141310522Y-108630036D02*
X141310838Y-108628563D01*
X141310838Y-108628563D02*
X141305143Y-108609058D01*
X141305143Y-108609058D02*
X141289826Y-108569822D01*
X141289826Y-108569822D02*
X141267537Y-108517430D01*
X141267537Y-108517430D02*
X141251893Y-108482355D01*
X141251893Y-108482355D02*
X141222641Y-108415201D01*
X141222641Y-108415201D02*
X141195094Y-108347358D01*
X141195094Y-108347358D02*
X141173737Y-108290034D01*
X141173737Y-108290034D02*
X141167935Y-108272572D01*
X141167935Y-108272572D02*
X141151452Y-108225938D01*
X141151452Y-108225938D02*
X141135340Y-108189905D01*
X141135340Y-108189905D02*
X141126490Y-108176287D01*
X141126490Y-108176287D02*
X141106960Y-108167952D01*
X141106960Y-108167952D02*
X141064334Y-108156137D01*
X141064334Y-108156137D02*
X141004145Y-108142181D01*
X141004145Y-108142181D02*
X140931922Y-108127422D01*
X140931922Y-108127422D02*
X140899600Y-108121355D01*
X140899600Y-108121355D02*
X140817522Y-108106273D01*
X140817522Y-108106273D02*
X140738795Y-108091669D01*
X140738795Y-108091669D02*
X140671109Y-108078980D01*
X140671109Y-108078980D02*
X140622160Y-108069642D01*
X140622160Y-108069642D02*
X140612943Y-108067839D01*
X140612943Y-108067839D02*
X140536743Y-108052799D01*
X140536743Y-108052799D02*
X140536743Y-107735492D01*
X140536743Y-107735492D02*
X140536914Y-107631154D01*
X140536914Y-107631154D02*
X140537616Y-107552213D01*
X140537616Y-107552213D02*
X140539134Y-107495038D01*
X140539134Y-107495038D02*
X140541749Y-107455999D01*
X140541749Y-107455999D02*
X140545746Y-107431465D01*
X140545746Y-107431465D02*
X140551409Y-107417805D01*
X140551409Y-107417805D02*
X140559020Y-107411389D01*
X140559020Y-107411389D02*
X140562143Y-107410199D01*
X140562143Y-107410199D02*
X140580978Y-107405980D01*
X140580978Y-107405980D02*
X140622588Y-107397562D01*
X140622588Y-107397562D02*
X140681630Y-107385961D01*
X140681630Y-107385961D02*
X140752757Y-107372195D01*
X140752757Y-107372195D02*
X140830625Y-107357280D01*
X140830625Y-107357280D02*
X140909887Y-107342232D01*
X140909887Y-107342232D02*
X140985198Y-107328069D01*
X140985198Y-107328069D02*
X141051213Y-107315806D01*
X141051213Y-107315806D02*
X141102587Y-107306461D01*
X141102587Y-107306461D02*
X141133975Y-107301050D01*
X141133975Y-107301050D02*
X141140959Y-107300114D01*
X141140959Y-107300114D02*
X141147285Y-107287596D01*
X141147285Y-107287596D02*
X141161290Y-107254246D01*
X141161290Y-107254246D02*
X141180355Y-107206377D01*
X141180355Y-107206377D02*
X141187634Y-107187629D01*
X141187634Y-107187629D02*
X141216996Y-107115195D01*
X141216996Y-107115195D02*
X141251571Y-107035170D01*
X141251571Y-107035170D02*
X141282537Y-106967728D01*
X141282537Y-106967728D02*
X141305323Y-106916159D01*
X141305323Y-106916159D02*
X141320482Y-106873785D01*
X141320482Y-106873785D02*
X141325542Y-106847834D01*
X141325542Y-106847834D02*
X141324736Y-106844356D01*
X141324736Y-106844356D02*
X141314041Y-106827936D01*
X141314041Y-106827936D02*
X141289620Y-106791417D01*
X141289620Y-106791417D02*
X141254095Y-106738687D01*
X141254095Y-106738687D02*
X141210087Y-106673635D01*
X141210087Y-106673635D02*
X141160217Y-106600151D01*
X141160217Y-106600151D02*
X141150356Y-106585645D01*
X141150356Y-106585645D02*
X141092492Y-106499704D01*
X141092492Y-106499704D02*
X141049956Y-106434261D01*
X141049956Y-106434261D02*
X141021054Y-106386304D01*
X141021054Y-106386304D02*
X141004090Y-106352820D01*
X141004090Y-106352820D02*
X140997367Y-106330795D01*
X140997367Y-106330795D02*
X140999190Y-106317217D01*
X140999190Y-106317217D02*
X140999236Y-106317131D01*
X140999236Y-106317131D02*
X141013586Y-106299297D01*
X141013586Y-106299297D02*
X141045323Y-106264817D01*
X141045323Y-106264817D02*
X141091010Y-106217268D01*
X141091010Y-106217268D02*
X141147204Y-106160222D01*
X141147204Y-106160222D02*
X141210468Y-106097255D01*
X141210468Y-106097255D02*
X141217602Y-106090227D01*
X141217602Y-106090227D02*
X141297330Y-106013020D01*
X141297330Y-106013020D02*
X141358857Y-105956330D01*
X141358857Y-105956330D02*
X141403421Y-105919110D01*
X141403421Y-105919110D02*
X141432257Y-105900315D01*
X141432257Y-105900315D02*
X141444958Y-105897889D01*
X141444958Y-105897889D02*
X141463494Y-105908471D01*
X141463494Y-105908471D02*
X141501961Y-105932916D01*
X141501961Y-105932916D02*
X141556386Y-105968612D01*
X141556386Y-105968612D02*
X141622798Y-106012947D01*
X141622798Y-106012947D02*
X141697225Y-106063311D01*
X141697225Y-106063311D02*
X141714601Y-106075160D01*
X141714601Y-106075160D02*
X141961297Y-106243626D01*
X141961297Y-106243626D02*
X142072706Y-106193062D01*
X142072706Y-106193062D02*
X142140457Y-106163595D01*
X142140457Y-106163595D02*
X142213183Y-106133959D01*
X142213183Y-106133959D02*
X142275703Y-106110330D01*
X142275703Y-106110330D02*
X142278457Y-106109358D01*
X142278457Y-106109358D02*
X142327360Y-106091457D01*
X142327360Y-106091457D02*
X142365057Y-106076320D01*
X142365057Y-106076320D02*
X142383425Y-106067210D01*
X142383425Y-106067210D02*
X142383456Y-106067184D01*
X142383456Y-106067184D02*
X142389285Y-106050717D01*
X142389285Y-106050717D02*
X142399192Y-106010219D01*
X142399192Y-106010219D02*
X142412195Y-105950242D01*
X142412195Y-105950242D02*
X142427309Y-105875340D01*
X142427309Y-105875340D02*
X142443552Y-105790064D01*
X142443552Y-105790064D02*
X142444881Y-105782875D01*
X142444881Y-105782875D02*
X142461175Y-105695014D01*
X142461175Y-105695014D02*
X142476133Y-105615260D01*
X142476133Y-105615260D02*
X142488791Y-105548681D01*
X142488791Y-105548681D02*
X142498186Y-105500347D01*
X142498186Y-105500347D02*
X142503354Y-105475325D01*
X142503354Y-105475325D02*
X142503444Y-105474943D01*
X142503444Y-105474943D02*
X142506589Y-105464299D01*
X142506589Y-105464299D02*
X142512704Y-105456262D01*
X142512704Y-105456262D02*
X142525453Y-105450467D01*
X142525453Y-105450467D02*
X142548500Y-105446547D01*
X142548500Y-105446547D02*
X142585509Y-105444135D01*
X142585509Y-105444135D02*
X142640144Y-105442865D01*
X142640144Y-105442865D02*
X142716067Y-105442371D01*
X142716067Y-105442371D02*
X142816944Y-105442286D01*
X142816944Y-105442286D02*
X142830000Y-105442286D01*
X142830000Y-105442286D02*
X142933910Y-105442348D01*
X142933910Y-105442348D02*
X142933910Y-105442348D01*
G36*
X142933910Y-105442348D02*
G01*
X143012454Y-105442778D01*
X143069298Y-105443942D01*
X143108105Y-105446207D01*
X143132538Y-105449940D01*
X143146262Y-105455506D01*
X143152940Y-105463273D01*
X143156236Y-105473605D01*
X143156556Y-105474943D01*
X143161562Y-105499079D01*
X143170829Y-105546701D01*
X143183392Y-105612741D01*
X143198287Y-105692128D01*
X143214551Y-105779796D01*
X143215119Y-105782875D01*
X143231410Y-105868789D01*
X143246652Y-105944696D01*
X143259861Y-106006045D01*
X143270054Y-106048282D01*
X143276248Y-106066855D01*
X143276543Y-106067184D01*
X143294788Y-106076253D01*
X143332405Y-106091367D01*
X143381271Y-106109262D01*
X143381543Y-106109358D01*
X143443093Y-106132493D01*
X143515657Y-106161965D01*
X143584057Y-106191597D01*
X143587294Y-106193062D01*
X143698702Y-106243626D01*
X143945399Y-106075160D01*
X144021077Y-106023803D01*
X144089631Y-105977889D01*
X144147088Y-105940030D01*
X144189476Y-105912837D01*
X144212825Y-105898921D01*
X144215042Y-105897889D01*
X144232010Y-105902484D01*
X144263701Y-105924655D01*
X144311352Y-105965447D01*
X144376198Y-106025905D01*
X144442397Y-106090227D01*
X144506214Y-106153612D01*
X144563329Y-106211451D01*
X144610305Y-106260175D01*
X144643703Y-106296210D01*
X144660085Y-106315984D01*
X144660694Y-106317002D01*
X144662505Y-106330572D01*
X144655683Y-106352733D01*
X144638540Y-106386478D01*
X144609393Y-106434800D01*
X144566555Y-106500692D01*
X144509448Y-106585517D01*
X144458766Y-106660177D01*
X144413461Y-106727140D01*
X144376150Y-106782516D01*
X144349452Y-106822420D01*
X144335985Y-106842962D01*
X144335137Y-106844356D01*
X144336781Y-106864038D01*
X144349245Y-106902293D01*
X144370048Y-106951889D01*
X144377462Y-106967728D01*
X144409814Y-107038290D01*
X144444328Y-107118353D01*
X144472365Y-107187629D01*
X144492568Y-107239045D01*
X144508615Y-107278119D01*
X144517888Y-107298541D01*
X144519041Y-107300114D01*
X144536096Y-107302721D01*
X144576298Y-107309863D01*
X144634302Y-107320523D01*
X144704763Y-107333685D01*
X144782335Y-107348333D01*
X144861672Y-107363449D01*
X144937431Y-107378018D01*
X145004264Y-107391022D01*
X145056828Y-107401445D01*
X145089776Y-107408270D01*
X145097857Y-107410199D01*
X145106205Y-107414962D01*
X145112506Y-107425718D01*
X145117045Y-107446098D01*
X145120104Y-107479734D01*
X145121967Y-107530255D01*
X145122918Y-107601292D01*
X145123240Y-107696476D01*
X145123257Y-107735492D01*
X145123257Y-108052799D01*
X145047057Y-108067839D01*
X145004663Y-108075995D01*
X144941400Y-108087899D01*
X144864962Y-108102116D01*
X144783043Y-108117210D01*
X144760400Y-108121355D01*
X144684806Y-108136053D01*
X144618953Y-108150505D01*
X144568366Y-108163375D01*
X144538574Y-108173322D01*
X144533612Y-108176287D01*
X144521426Y-108197283D01*
X144503953Y-108237967D01*
X144484577Y-108290322D01*
X144480734Y-108301600D01*
X144455339Y-108371523D01*
X144423817Y-108450418D01*
X144392969Y-108521266D01*
X144392817Y-108521595D01*
X144341447Y-108632733D01*
X144510399Y-108881253D01*
X144679352Y-109129772D01*
X144462429Y-109347058D01*
X144396819Y-109411726D01*
X144336979Y-109468733D01*
X144286267Y-109515033D01*
X144248046Y-109547584D01*
X144225675Y-109563343D01*
X144222466Y-109564343D01*
X144203626Y-109556469D01*
X144165180Y-109534578D01*
X144111330Y-109501267D01*
X144046276Y-109459131D01*
X143975940Y-109411943D01*
X143904555Y-109363810D01*
X143840908Y-109321928D01*
X143789041Y-109288871D01*
X143752995Y-109267218D01*
X143736867Y-109259543D01*
X143717189Y-109266037D01*
X143679875Y-109283150D01*
X143632621Y-109307326D01*
X143627612Y-109310013D01*
X143563977Y-109341927D01*
X143520341Y-109357579D01*
X143493202Y-109357745D01*
X143479057Y-109343204D01*
X143478975Y-109343000D01*
X143471905Y-109325779D01*
X143455042Y-109284899D01*
X143429695Y-109223525D01*
X143397171Y-109144819D01*
X143358778Y-109051947D01*
X143315822Y-108948072D01*
X143274222Y-108847502D01*
X143228504Y-108736516D01*
X143186526Y-108633703D01*
X143149548Y-108542215D01*
X143118827Y-108465201D01*
X143095622Y-108405815D01*
X143081190Y-108367209D01*
X143076743Y-108352800D01*
X143087896Y-108336272D01*
X143117069Y-108309930D01*
X143155971Y-108280887D01*
X143266757Y-108189039D01*
X143353351Y-108083759D01*
X143414716Y-107967266D01*
X143449815Y-107841776D01*
X143457608Y-107709507D01*
X143451943Y-107648457D01*
X143421078Y-107521795D01*
X143367920Y-107409941D01*
X143295767Y-107314001D01*
X143207917Y-107235076D01*
X143107665Y-107174270D01*
X142998310Y-107132687D01*
X142883147Y-107111428D01*
X142765475Y-107111599D01*
X142648590Y-107134301D01*
X142535789Y-107180638D01*
X142430369Y-107251713D01*
X142386368Y-107291911D01*
X142301979Y-107395129D01*
X142243222Y-107507925D01*
X142209704Y-107627010D01*
X142201035Y-107749095D01*
X142216823Y-107870893D01*
X142256678Y-107989116D01*
X142320207Y-108100475D01*
X142407021Y-108201684D01*
X142504029Y-108280887D01*
X142544437Y-108311162D01*
X142572982Y-108337219D01*
X142583257Y-108352825D01*
X142577877Y-108369843D01*
X142562575Y-108410500D01*
X142538612Y-108471642D01*
X142507244Y-108550119D01*
X142469732Y-108642780D01*
X142427333Y-108746472D01*
X142385663Y-108847526D01*
X142339690Y-108958607D01*
X142297107Y-109061541D01*
X142259221Y-109153165D01*
X142227340Y-109230316D01*
X142202771Y-109289831D01*
X142186820Y-109328544D01*
X142180910Y-109343000D01*
X142166948Y-109357685D01*
X142139940Y-109357642D01*
X142096413Y-109342099D01*
X142032890Y-109310284D01*
X142032388Y-109310013D01*
X141984560Y-109285323D01*
X141945897Y-109267338D01*
X141924095Y-109259614D01*
X141923133Y-109259543D01*
X141906721Y-109267378D01*
X141870487Y-109289165D01*
X141818474Y-109322328D01*
X141754725Y-109364291D01*
X141684060Y-109411943D01*
X141612116Y-109460191D01*
X141547274Y-109502151D01*
X141493735Y-109535227D01*
X141455697Y-109556821D01*
X141437533Y-109564343D01*
X141420808Y-109554457D01*
X141387180Y-109526826D01*
X141340010Y-109484495D01*
X141282658Y-109430505D01*
X141218484Y-109367899D01*
X141197497Y-109346983D01*
X140980499Y-109129623D01*
X141145668Y-108887220D01*
X141195864Y-108812781D01*
X141239919Y-108745972D01*
X141275362Y-108690665D01*
X141299719Y-108650729D01*
X141310522Y-108630036D01*
X141310838Y-108628563D01*
X141305143Y-108609058D01*
X141289826Y-108569822D01*
X141267537Y-108517430D01*
X141251893Y-108482355D01*
X141222641Y-108415201D01*
X141195094Y-108347358D01*
X141173737Y-108290034D01*
X141167935Y-108272572D01*
X141151452Y-108225938D01*
X141135340Y-108189905D01*
X141126490Y-108176287D01*
X141106960Y-108167952D01*
X141064334Y-108156137D01*
X141004145Y-108142181D01*
X140931922Y-108127422D01*
X140899600Y-108121355D01*
X140817522Y-108106273D01*
X140738795Y-108091669D01*
X140671109Y-108078980D01*
X140622160Y-108069642D01*
X140612943Y-108067839D01*
X140536743Y-108052799D01*
X140536743Y-107735492D01*
X140536914Y-107631154D01*
X140537616Y-107552213D01*
X140539134Y-107495038D01*
X140541749Y-107455999D01*
X140545746Y-107431465D01*
X140551409Y-107417805D01*
X140559020Y-107411389D01*
X140562143Y-107410199D01*
X140580978Y-107405980D01*
X140622588Y-107397562D01*
X140681630Y-107385961D01*
X140752757Y-107372195D01*
X140830625Y-107357280D01*
X140909887Y-107342232D01*
X140985198Y-107328069D01*
X141051213Y-107315806D01*
X141102587Y-107306461D01*
X141133975Y-107301050D01*
X141140959Y-107300114D01*
X141147285Y-107287596D01*
X141161290Y-107254246D01*
X141180355Y-107206377D01*
X141187634Y-107187629D01*
X141216996Y-107115195D01*
X141251571Y-107035170D01*
X141282537Y-106967728D01*
X141305323Y-106916159D01*
X141320482Y-106873785D01*
X141325542Y-106847834D01*
X141324736Y-106844356D01*
X141314041Y-106827936D01*
X141289620Y-106791417D01*
X141254095Y-106738687D01*
X141210087Y-106673635D01*
X141160217Y-106600151D01*
X141150356Y-106585645D01*
X141092492Y-106499704D01*
X141049956Y-106434261D01*
X141021054Y-106386304D01*
X141004090Y-106352820D01*
X140997367Y-106330795D01*
X140999190Y-106317217D01*
X140999236Y-106317131D01*
X141013586Y-106299297D01*
X141045323Y-106264817D01*
X141091010Y-106217268D01*
X141147204Y-106160222D01*
X141210468Y-106097255D01*
X141217602Y-106090227D01*
X141297330Y-106013020D01*
X141358857Y-105956330D01*
X141403421Y-105919110D01*
X141432257Y-105900315D01*
X141444958Y-105897889D01*
X141463494Y-105908471D01*
X141501961Y-105932916D01*
X141556386Y-105968612D01*
X141622798Y-106012947D01*
X141697225Y-106063311D01*
X141714601Y-106075160D01*
X141961297Y-106243626D01*
X142072706Y-106193062D01*
X142140457Y-106163595D01*
X142213183Y-106133959D01*
X142275703Y-106110330D01*
X142278457Y-106109358D01*
X142327360Y-106091457D01*
X142365057Y-106076320D01*
X142383425Y-106067210D01*
X142383456Y-106067184D01*
X142389285Y-106050717D01*
X142399192Y-106010219D01*
X142412195Y-105950242D01*
X142427309Y-105875340D01*
X142443552Y-105790064D01*
X142444881Y-105782875D01*
X142461175Y-105695014D01*
X142476133Y-105615260D01*
X142488791Y-105548681D01*
X142498186Y-105500347D01*
X142503354Y-105475325D01*
X142503444Y-105474943D01*
X142506589Y-105464299D01*
X142512704Y-105456262D01*
X142525453Y-105450467D01*
X142548500Y-105446547D01*
X142585509Y-105444135D01*
X142640144Y-105442865D01*
X142716067Y-105442371D01*
X142816944Y-105442286D01*
X142830000Y-105442286D01*
X142933910Y-105442348D01*
G37*
X142933910Y-105442348D02*
X143012454Y-105442778D01*
X143069298Y-105443942D01*
X143108105Y-105446207D01*
X143132538Y-105449940D01*
X143146262Y-105455506D01*
X143152940Y-105463273D01*
X143156236Y-105473605D01*
X143156556Y-105474943D01*
X143161562Y-105499079D01*
X143170829Y-105546701D01*
X143183392Y-105612741D01*
X143198287Y-105692128D01*
X143214551Y-105779796D01*
X143215119Y-105782875D01*
X143231410Y-105868789D01*
X143246652Y-105944696D01*
X143259861Y-106006045D01*
X143270054Y-106048282D01*
X143276248Y-106066855D01*
X143276543Y-106067184D01*
X143294788Y-106076253D01*
X143332405Y-106091367D01*
X143381271Y-106109262D01*
X143381543Y-106109358D01*
X143443093Y-106132493D01*
X143515657Y-106161965D01*
X143584057Y-106191597D01*
X143587294Y-106193062D01*
X143698702Y-106243626D01*
X143945399Y-106075160D01*
X144021077Y-106023803D01*
X144089631Y-105977889D01*
X144147088Y-105940030D01*
X144189476Y-105912837D01*
X144212825Y-105898921D01*
X144215042Y-105897889D01*
X144232010Y-105902484D01*
X144263701Y-105924655D01*
X144311352Y-105965447D01*
X144376198Y-106025905D01*
X144442397Y-106090227D01*
X144506214Y-106153612D01*
X144563329Y-106211451D01*
X144610305Y-106260175D01*
X144643703Y-106296210D01*
X144660085Y-106315984D01*
X144660694Y-106317002D01*
X144662505Y-106330572D01*
X144655683Y-106352733D01*
X144638540Y-106386478D01*
X144609393Y-106434800D01*
X144566555Y-106500692D01*
X144509448Y-106585517D01*
X144458766Y-106660177D01*
X144413461Y-106727140D01*
X144376150Y-106782516D01*
X144349452Y-106822420D01*
X144335985Y-106842962D01*
X144335137Y-106844356D01*
X144336781Y-106864038D01*
X144349245Y-106902293D01*
X144370048Y-106951889D01*
X144377462Y-106967728D01*
X144409814Y-107038290D01*
X144444328Y-107118353D01*
X144472365Y-107187629D01*
X144492568Y-107239045D01*
X144508615Y-107278119D01*
X144517888Y-107298541D01*
X144519041Y-107300114D01*
X144536096Y-107302721D01*
X144576298Y-107309863D01*
X144634302Y-107320523D01*
X144704763Y-107333685D01*
X144782335Y-107348333D01*
X144861672Y-107363449D01*
X144937431Y-107378018D01*
X145004264Y-107391022D01*
X145056828Y-107401445D01*
X145089776Y-107408270D01*
X145097857Y-107410199D01*
X145106205Y-107414962D01*
X145112506Y-107425718D01*
X145117045Y-107446098D01*
X145120104Y-107479734D01*
X145121967Y-107530255D01*
X145122918Y-107601292D01*
X145123240Y-107696476D01*
X145123257Y-107735492D01*
X145123257Y-108052799D01*
X145047057Y-108067839D01*
X145004663Y-108075995D01*
X144941400Y-108087899D01*
X144864962Y-108102116D01*
X144783043Y-108117210D01*
X144760400Y-108121355D01*
X144684806Y-108136053D01*
X144618953Y-108150505D01*
X144568366Y-108163375D01*
X144538574Y-108173322D01*
X144533612Y-108176287D01*
X144521426Y-108197283D01*
X144503953Y-108237967D01*
X144484577Y-108290322D01*
X144480734Y-108301600D01*
X144455339Y-108371523D01*
X144423817Y-108450418D01*
X144392969Y-108521266D01*
X144392817Y-108521595D01*
X144341447Y-108632733D01*
X144510399Y-108881253D01*
X144679352Y-109129772D01*
X144462429Y-109347058D01*
X144396819Y-109411726D01*
X144336979Y-109468733D01*
X144286267Y-109515033D01*
X144248046Y-109547584D01*
X144225675Y-109563343D01*
X144222466Y-109564343D01*
X144203626Y-109556469D01*
X144165180Y-109534578D01*
X144111330Y-109501267D01*
X144046276Y-109459131D01*
X143975940Y-109411943D01*
X143904555Y-109363810D01*
X143840908Y-109321928D01*
X143789041Y-109288871D01*
X143752995Y-109267218D01*
X143736867Y-109259543D01*
X143717189Y-109266037D01*
X143679875Y-109283150D01*
X143632621Y-109307326D01*
X143627612Y-109310013D01*
X143563977Y-109341927D01*
X143520341Y-109357579D01*
X143493202Y-109357745D01*
X143479057Y-109343204D01*
X143478975Y-109343000D01*
X143471905Y-109325779D01*
X143455042Y-109284899D01*
X143429695Y-109223525D01*
X143397171Y-109144819D01*
X143358778Y-109051947D01*
X143315822Y-108948072D01*
X143274222Y-108847502D01*
X143228504Y-108736516D01*
X143186526Y-108633703D01*
X143149548Y-108542215D01*
X143118827Y-108465201D01*
X143095622Y-108405815D01*
X143081190Y-108367209D01*
X143076743Y-108352800D01*
X143087896Y-108336272D01*
X143117069Y-108309930D01*
X143155971Y-108280887D01*
X143266757Y-108189039D01*
X143353351Y-108083759D01*
X143414716Y-107967266D01*
X143449815Y-107841776D01*
X143457608Y-107709507D01*
X143451943Y-107648457D01*
X143421078Y-107521795D01*
X143367920Y-107409941D01*
X143295767Y-107314001D01*
X143207917Y-107235076D01*
X143107665Y-107174270D01*
X142998310Y-107132687D01*
X142883147Y-107111428D01*
X142765475Y-107111599D01*
X142648590Y-107134301D01*
X142535789Y-107180638D01*
X142430369Y-107251713D01*
X142386368Y-107291911D01*
X142301979Y-107395129D01*
X142243222Y-107507925D01*
X142209704Y-107627010D01*
X142201035Y-107749095D01*
X142216823Y-107870893D01*
X142256678Y-107989116D01*
X142320207Y-108100475D01*
X142407021Y-108201684D01*
X142504029Y-108280887D01*
X142544437Y-108311162D01*
X142572982Y-108337219D01*
X142583257Y-108352825D01*
X142577877Y-108369843D01*
X142562575Y-108410500D01*
X142538612Y-108471642D01*
X142507244Y-108550119D01*
X142469732Y-108642780D01*
X142427333Y-108746472D01*
X142385663Y-108847526D01*
X142339690Y-108958607D01*
X142297107Y-109061541D01*
X142259221Y-109153165D01*
X142227340Y-109230316D01*
X142202771Y-109289831D01*
X142186820Y-109328544D01*
X142180910Y-109343000D01*
X142166948Y-109357685D01*
X142139940Y-109357642D01*
X142096413Y-109342099D01*
X142032890Y-109310284D01*
X142032388Y-109310013D01*
X141984560Y-109285323D01*
X141945897Y-109267338D01*
X141924095Y-109259614D01*
X141923133Y-109259543D01*
X141906721Y-109267378D01*
X141870487Y-109289165D01*
X141818474Y-109322328D01*
X141754725Y-109364291D01*
X141684060Y-109411943D01*
X141612116Y-109460191D01*
X141547274Y-109502151D01*
X141493735Y-109535227D01*
X141455697Y-109556821D01*
X141437533Y-109564343D01*
X141420808Y-109554457D01*
X141387180Y-109526826D01*
X141340010Y-109484495D01*
X141282658Y-109430505D01*
X141218484Y-109367899D01*
X141197497Y-109346983D01*
X140980499Y-109129623D01*
X141145668Y-108887220D01*
X141195864Y-108812781D01*
X141239919Y-108745972D01*
X141275362Y-108690665D01*
X141299719Y-108650729D01*
X141310522Y-108630036D01*
X141310838Y-108628563D01*
X141305143Y-108609058D01*
X141289826Y-108569822D01*
X141267537Y-108517430D01*
X141251893Y-108482355D01*
X141222641Y-108415201D01*
X141195094Y-108347358D01*
X141173737Y-108290034D01*
X141167935Y-108272572D01*
X141151452Y-108225938D01*
X141135340Y-108189905D01*
X141126490Y-108176287D01*
X141106960Y-108167952D01*
X141064334Y-108156137D01*
X141004145Y-108142181D01*
X140931922Y-108127422D01*
X140899600Y-108121355D01*
X140817522Y-108106273D01*
X140738795Y-108091669D01*
X140671109Y-108078980D01*
X140622160Y-108069642D01*
X140612943Y-108067839D01*
X140536743Y-108052799D01*
X140536743Y-107735492D01*
X140536914Y-107631154D01*
X140537616Y-107552213D01*
X140539134Y-107495038D01*
X140541749Y-107455999D01*
X140545746Y-107431465D01*
X140551409Y-107417805D01*
X140559020Y-107411389D01*
X140562143Y-107410199D01*
X140580978Y-107405980D01*
X140622588Y-107397562D01*
X140681630Y-107385961D01*
X140752757Y-107372195D01*
X140830625Y-107357280D01*
X140909887Y-107342232D01*
X140985198Y-107328069D01*
X141051213Y-107315806D01*
X141102587Y-107306461D01*
X141133975Y-107301050D01*
X141140959Y-107300114D01*
X141147285Y-107287596D01*
X141161290Y-107254246D01*
X141180355Y-107206377D01*
X141187634Y-107187629D01*
X141216996Y-107115195D01*
X141251571Y-107035170D01*
X141282537Y-106967728D01*
X141305323Y-106916159D01*
X141320482Y-106873785D01*
X141325542Y-106847834D01*
X141324736Y-106844356D01*
X141314041Y-106827936D01*
X141289620Y-106791417D01*
X141254095Y-106738687D01*
X141210087Y-106673635D01*
X141160217Y-106600151D01*
X141150356Y-106585645D01*
X141092492Y-106499704D01*
X141049956Y-106434261D01*
X141021054Y-106386304D01*
X141004090Y-106352820D01*
X140997367Y-106330795D01*
X140999190Y-106317217D01*
X140999236Y-106317131D01*
X141013586Y-106299297D01*
X141045323Y-106264817D01*
X141091010Y-106217268D01*
X141147204Y-106160222D01*
X141210468Y-106097255D01*
X141217602Y-106090227D01*
X141297330Y-106013020D01*
X141358857Y-105956330D01*
X141403421Y-105919110D01*
X141432257Y-105900315D01*
X141444958Y-105897889D01*
X141463494Y-105908471D01*
X141501961Y-105932916D01*
X141556386Y-105968612D01*
X141622798Y-106012947D01*
X141697225Y-106063311D01*
X141714601Y-106075160D01*
X141961297Y-106243626D01*
X142072706Y-106193062D01*
X142140457Y-106163595D01*
X142213183Y-106133959D01*
X142275703Y-106110330D01*
X142278457Y-106109358D01*
X142327360Y-106091457D01*
X142365057Y-106076320D01*
X142383425Y-106067210D01*
X142383456Y-106067184D01*
X142389285Y-106050717D01*
X142399192Y-106010219D01*
X142412195Y-105950242D01*
X142427309Y-105875340D01*
X142443552Y-105790064D01*
X142444881Y-105782875D01*
X142461175Y-105695014D01*
X142476133Y-105615260D01*
X142488791Y-105548681D01*
X142498186Y-105500347D01*
X142503354Y-105475325D01*
X142503444Y-105474943D01*
X142506589Y-105464299D01*
X142512704Y-105456262D01*
X142525453Y-105450467D01*
X142548500Y-105446547D01*
X142585509Y-105444135D01*
X142640144Y-105442865D01*
X142716067Y-105442371D01*
X142816944Y-105442286D01*
X142830000Y-105442286D01*
X142933910Y-105442348D01*
%TO.C,svg2mod*%
G36*
X139644312Y-98965534D02*
G01*
X139700261Y-98913513D01*
X139766407Y-98882301D01*
X139842750Y-98871896D01*
X139919396Y-98881496D01*
X139979176Y-98910294D01*
X140022088Y-98958291D01*
X140048133Y-99025487D01*
X140057311Y-99111882D01*
X140057311Y-99555266D01*
X139942589Y-99555266D01*
X139942589Y-99111262D01*
X139933985Y-99048165D01*
X139909413Y-99003981D01*
X139867787Y-98977937D01*
X139808023Y-98969255D01*
X139755624Y-98976696D01*
X139710045Y-98999021D01*
X139644312Y-99077155D01*
X139644312Y-99555266D01*
X139529591Y-99555266D01*
X139529591Y-98602766D01*
X139644312Y-98602766D01*
X139644312Y-98965534D01*
G37*
G36*
X142117727Y-98886624D02*
G01*
X142199505Y-98930808D01*
X142252758Y-98997935D01*
X142270509Y-99081496D01*
X142155167Y-99081496D01*
X142115169Y-99000261D01*
X142069978Y-98974681D01*
X142014400Y-98966154D01*
X141958590Y-98972976D01*
X141916422Y-98993439D01*
X141881075Y-99064753D01*
X141913941Y-99127385D01*
X141960063Y-99148004D01*
X142032694Y-99167692D01*
X142110441Y-99188776D01*
X142171910Y-99213581D01*
X142250975Y-99277763D01*
X142276710Y-99369230D01*
X142258727Y-99450233D01*
X142204776Y-99513408D01*
X142122146Y-99554103D01*
X142018121Y-99567668D01*
X141942157Y-99560537D01*
X141875494Y-99539143D01*
X141820226Y-99504959D01*
X141778446Y-99459458D01*
X141752168Y-99406205D01*
X141743409Y-99348767D01*
X141858131Y-99348767D01*
X141871231Y-99400469D01*
X141904330Y-99440234D01*
X141954327Y-99465581D01*
X142018121Y-99474030D01*
X142076800Y-99467442D01*
X142122611Y-99447675D01*
X142161988Y-99377292D01*
X142126952Y-99305048D01*
X142078893Y-99281096D01*
X142004789Y-99260710D01*
X141926654Y-99240246D01*
X141866502Y-99216062D01*
X141790848Y-99154050D01*
X141766354Y-99068474D01*
X141783794Y-98992354D01*
X141836117Y-98928947D01*
X141915569Y-98886159D01*
X142014400Y-98871896D01*
X142117727Y-98886624D01*
G37*
G36*
X148445016Y-99399616D02*
G01*
X148611207Y-98884299D01*
X148728409Y-98884299D01*
X148487804Y-99555266D01*
X148400367Y-99555266D01*
X148157281Y-98884299D01*
X148274483Y-98884299D01*
X148445016Y-99399616D01*
G37*
G36*
X143280060Y-99632780D02*
G01*
X143181461Y-99632780D01*
X143558492Y-98652375D01*
X143656471Y-98652375D01*
X143280060Y-99632780D01*
G37*
G36*
X140384732Y-98884299D02*
G01*
X140509996Y-98884299D01*
X140509996Y-98972976D01*
X140384732Y-98972976D01*
X140384732Y-99389074D01*
X140401476Y-99449536D01*
X140458526Y-99469689D01*
X140513097Y-99462248D01*
X140513097Y-99555266D01*
X140425040Y-99567668D01*
X140357602Y-99556041D01*
X140309078Y-99521159D01*
X140279778Y-99464884D01*
X140270011Y-99389074D01*
X140270011Y-98972976D01*
X140147848Y-98972976D01*
X140147848Y-98884299D01*
X140270011Y-98884299D01*
X140270011Y-98721828D01*
X140384732Y-98721828D01*
X140384732Y-98884299D01*
G37*
G36*
X146347986Y-99323032D02*
G01*
X146324422Y-99405404D01*
X146285147Y-99474340D01*
X146232644Y-99526189D01*
X146169392Y-99557298D01*
X146095392Y-99567668D01*
X146017050Y-99557677D01*
X145951524Y-99527705D01*
X145898814Y-99477751D01*
X145893233Y-99555266D01*
X145787813Y-99555266D01*
X145787813Y-99364890D01*
X145902535Y-99364890D01*
X145944221Y-99423456D01*
X145998998Y-99458596D01*
X146066866Y-99470310D01*
X146140195Y-99454342D01*
X146195230Y-99406438D01*
X146229647Y-99326442D01*
X146241119Y-99214201D01*
X146229802Y-99110332D01*
X146195851Y-99033127D01*
X146140660Y-98985223D01*
X146065626Y-98969255D01*
X145997069Y-98980968D01*
X145942705Y-99016108D01*
X145902535Y-99074675D01*
X145902535Y-99364890D01*
X145787813Y-99364890D01*
X145787813Y-98602766D01*
X145902535Y-98602766D01*
X145902535Y-98958093D01*
X145954694Y-98910206D01*
X146018566Y-98881474D01*
X146094151Y-98871896D01*
X146169771Y-98882163D01*
X146233747Y-98912962D01*
X146286078Y-98964294D01*
X146324835Y-99033471D01*
X146348089Y-99117807D01*
X146355841Y-99217302D01*
X146355841Y-99227224D01*
X146347986Y-99323032D01*
G37*
G36*
X144718731Y-99129245D02*
G01*
X144867560Y-98884299D01*
X145001505Y-98884299D01*
X144781983Y-99216062D01*
X145008326Y-99555266D01*
X144875621Y-99555266D01*
X144720592Y-99304118D01*
X144565563Y-99555266D01*
X144432237Y-99555266D01*
X144658580Y-99216062D01*
X144439059Y-98884299D01*
X144571764Y-98884299D01*
X144718731Y-99129245D01*
G37*
G36*
X142546771Y-99445505D02*
G01*
X142565064Y-99495114D01*
X142546771Y-99542863D01*
X142493131Y-99562087D01*
X142440111Y-99542863D01*
X142422437Y-99495114D01*
X142440111Y-99445505D01*
X142493131Y-99425661D01*
X142546771Y-99445505D01*
G37*
G36*
X144330577Y-99264469D02*
G01*
X144317671Y-99345821D01*
X144296160Y-99414228D01*
X144266046Y-99469689D01*
X144211544Y-99524122D01*
X144139818Y-99556781D01*
X144050865Y-99567668D01*
X143962877Y-99557023D01*
X143891564Y-99525087D01*
X143836925Y-99471860D01*
X143798064Y-99397480D01*
X143774086Y-99302086D01*
X143765185Y-99188156D01*
X143879713Y-99188156D01*
X143884433Y-99277212D01*
X143898592Y-99349249D01*
X143922191Y-99404267D01*
X143975599Y-99456589D01*
X144050865Y-99474030D01*
X144124892Y-99457597D01*
X144177059Y-99408298D01*
X144200176Y-99356070D01*
X144214542Y-99287030D01*
X144220157Y-99201179D01*
X144220157Y-99013283D01*
X144215610Y-98924917D01*
X144201967Y-98854120D01*
X144179229Y-98800893D01*
X144126365Y-98750896D01*
X144049625Y-98734230D01*
X143973506Y-98750819D01*
X143921261Y-98800583D01*
X143898730Y-98852742D01*
X143884881Y-98920748D01*
X143879713Y-99004602D01*
X143879713Y-99188156D01*
X143765185Y-99188156D01*
X143764991Y-99185676D01*
X143764991Y-99032507D01*
X143769293Y-98939373D01*
X143782199Y-98859029D01*
X143803710Y-98791475D01*
X143833824Y-98736711D01*
X143888395Y-98682967D01*
X143960328Y-98650721D01*
X144049625Y-98639973D01*
X144138233Y-98650342D01*
X144209753Y-98681452D01*
X144264186Y-98733300D01*
X144302633Y-98806784D01*
X144326197Y-98902799D01*
X144334879Y-99021345D01*
X144334879Y-99170173D01*
X144330577Y-99264469D01*
G37*
G36*
X146839188Y-99035194D02*
G01*
X146879840Y-98965844D01*
X146933652Y-98913651D01*
X146997524Y-98882335D01*
X147071456Y-98871896D01*
X147144561Y-98880854D01*
X147206779Y-98907725D01*
X147258111Y-98952512D01*
X147258111Y-98602766D01*
X147372833Y-98602766D01*
X147372833Y-99555266D01*
X147267413Y-99555266D01*
X147261832Y-99483332D01*
X147209949Y-99530185D01*
X147146077Y-99558297D01*
X147070216Y-99567668D01*
X146997283Y-99557057D01*
X146933928Y-99525224D01*
X146880150Y-99472170D01*
X146839326Y-99402028D01*
X146814831Y-99318932D01*
X146807035Y-99227224D01*
X146921388Y-99227224D01*
X146933170Y-99328923D01*
X146968517Y-99405817D01*
X147024637Y-99454187D01*
X147098741Y-99470310D01*
X147164956Y-99459423D01*
X147218079Y-99426764D01*
X147258111Y-99372331D01*
X147258111Y-99064133D01*
X147217666Y-99011423D01*
X147164956Y-98979797D01*
X147099981Y-98969255D01*
X147024947Y-98985533D01*
X146968517Y-99034367D01*
X146933170Y-99115137D01*
X146921388Y-99227224D01*
X146807035Y-99227224D01*
X146806666Y-99222883D01*
X146806666Y-99214201D01*
X146814796Y-99117980D01*
X146839188Y-99035194D01*
G37*
G36*
X142547391Y-98897941D02*
G01*
X142565685Y-98947551D01*
X142547391Y-98995300D01*
X142493751Y-99014523D01*
X142440731Y-98995300D01*
X142423058Y-98947551D01*
X142440731Y-98897941D01*
X142493751Y-98878098D01*
X142547391Y-98897941D01*
G37*
G36*
X142756681Y-99632780D02*
G01*
X142658082Y-99632780D01*
X143035113Y-98652375D01*
X143133092Y-98652375D01*
X142756681Y-99632780D01*
G37*
G36*
X145462562Y-98879407D02*
G01*
X145525090Y-98901938D01*
X145579144Y-98939489D01*
X145636427Y-99017159D01*
X145658829Y-99114982D01*
X145550309Y-99114982D01*
X145535503Y-99055684D01*
X145501009Y-99008012D01*
X145451477Y-98976619D01*
X145391559Y-98966154D01*
X145313966Y-98981890D01*
X145256063Y-99029096D01*
X145220019Y-99106068D01*
X145208004Y-99211101D01*
X145208004Y-99232805D01*
X145219941Y-99335434D01*
X145255753Y-99411398D01*
X145313734Y-99458372D01*
X145392179Y-99474030D01*
X145449695Y-99464729D01*
X145499459Y-99436823D01*
X145535116Y-99394965D01*
X145550309Y-99343806D01*
X145658829Y-99343806D01*
X145647357Y-99400081D01*
X145619142Y-99453566D01*
X145576431Y-99500385D01*
X145521473Y-99536662D01*
X145458609Y-99559917D01*
X145392179Y-99567668D01*
X145307050Y-99557505D01*
X145234393Y-99527016D01*
X145174208Y-99476201D01*
X145129249Y-99407747D01*
X145102274Y-99324341D01*
X145093282Y-99225983D01*
X145093282Y-99206760D01*
X145102274Y-99114207D01*
X145129249Y-99032507D01*
X145173045Y-98964759D01*
X145232499Y-98914064D01*
X145305905Y-98882438D01*
X145391559Y-98871896D01*
X145462562Y-98879407D01*
G37*
G36*
X141617801Y-99322722D02*
G01*
X141594443Y-99404991D01*
X141555514Y-99474030D01*
X141503286Y-99526051D01*
X141440034Y-99557264D01*
X141365758Y-99567668D01*
X141290104Y-99559055D01*
X141226025Y-99533217D01*
X141173521Y-99490153D01*
X141173521Y-99813234D01*
X141058800Y-99813234D01*
X141058800Y-99382253D01*
X141173521Y-99382253D01*
X141238634Y-99451086D01*
X141331031Y-99474030D01*
X141405058Y-99457675D01*
X141462186Y-99408608D01*
X141498695Y-99327295D01*
X141510865Y-99214201D01*
X141498773Y-99112657D01*
X141462496Y-99034987D01*
X141405135Y-98985688D01*
X141329791Y-98969255D01*
X141238634Y-98992354D01*
X141173521Y-99061652D01*
X141173521Y-99382253D01*
X141058800Y-99382253D01*
X141058800Y-98884299D01*
X141163600Y-98884299D01*
X141169181Y-98958713D01*
X141221960Y-98910482D01*
X141286865Y-98881543D01*
X141363897Y-98871896D01*
X141438897Y-98882025D01*
X141502666Y-98912411D01*
X141555204Y-98963054D01*
X141594305Y-99031749D01*
X141617767Y-99116292D01*
X141625587Y-99216682D01*
X141625587Y-99227224D01*
X141617801Y-99322722D01*
G37*
G36*
X147636383Y-99252648D02*
G01*
X147652118Y-99342333D01*
X147694364Y-99412949D01*
X147757383Y-99458760D01*
X147835440Y-99474030D01*
X147891561Y-99467829D01*
X147938380Y-99449226D01*
X148012174Y-99383493D01*
X148082247Y-99438063D01*
X148034808Y-99494765D01*
X147976827Y-99535267D01*
X147908304Y-99559568D01*
X147829239Y-99567668D01*
X147743939Y-99557712D01*
X147669938Y-99527843D01*
X147607237Y-99478061D01*
X147559695Y-99411605D01*
X147531170Y-99331713D01*
X147521661Y-99238386D01*
X147521661Y-99217302D01*
X147527605Y-99158391D01*
X147640104Y-99158391D01*
X147976207Y-99158391D01*
X147976207Y-99149709D01*
X147961944Y-99072117D01*
X147929078Y-99014213D01*
X147879469Y-98978169D01*
X147814977Y-98966154D01*
X147751104Y-98978789D01*
X147698395Y-99016694D01*
X147660257Y-99077388D01*
X147640104Y-99158391D01*
X147527605Y-99158391D01*
X147531195Y-99122811D01*
X147559798Y-99039018D01*
X147605532Y-98969100D01*
X147666458Y-98916235D01*
X147737849Y-98882981D01*
X147814977Y-98871896D01*
X147895730Y-98881474D01*
X147963529Y-98910206D01*
X148018375Y-98958093D01*
X148058683Y-99023825D01*
X148082867Y-99106094D01*
X148090929Y-99204899D01*
X148090929Y-99252648D01*
X147636383Y-99252648D01*
G37*
G36*
X146627142Y-99445505D02*
G01*
X146645436Y-99495114D01*
X146627142Y-99542863D01*
X146573502Y-99562087D01*
X146520482Y-99542863D01*
X146502809Y-99495114D01*
X146520482Y-99445505D01*
X146573502Y-99425661D01*
X146627142Y-99445505D01*
G37*
G36*
X140799591Y-98884299D02*
G01*
X140924854Y-98884299D01*
X140924854Y-98972976D01*
X140799591Y-98972976D01*
X140799591Y-99389074D01*
X140816334Y-99449536D01*
X140873385Y-99469689D01*
X140927955Y-99462248D01*
X140927955Y-99555266D01*
X140839898Y-99567668D01*
X140772461Y-99556041D01*
X140723937Y-99521159D01*
X140694636Y-99464884D01*
X140684869Y-99389074D01*
X140684869Y-98972976D01*
X140562706Y-98972976D01*
X140562706Y-98884299D01*
X140684869Y-98884299D01*
X140684869Y-98721828D01*
X140799591Y-98721828D01*
X140799591Y-98884299D01*
G37*
G36*
X151144450Y-89774442D02*
G01*
X151281253Y-89823734D01*
X151387694Y-89898743D01*
X151464133Y-89992326D01*
X151525569Y-90206639D01*
X151512710Y-90270932D01*
X151474134Y-90286649D01*
X151429843Y-90268075D01*
X151422699Y-90235214D01*
X151401268Y-90119485D01*
X151335545Y-89996612D01*
X151201243Y-89899457D01*
X150974071Y-89860881D01*
X150775118Y-89890528D01*
X150629743Y-89979467D01*
X150540803Y-90130558D01*
X150511156Y-90346656D01*
X150511156Y-91275344D01*
X150541160Y-91493228D01*
X150631171Y-91643961D01*
X150779761Y-91731829D01*
X150985501Y-91761119D01*
X151211244Y-91723971D01*
X151336974Y-91629674D01*
X151396981Y-91506801D01*
X151422699Y-91386786D01*
X151434129Y-91351068D01*
X151474134Y-91335351D01*
X151512710Y-91352496D01*
X151525569Y-91418219D01*
X151462704Y-91629674D01*
X151384480Y-91723257D01*
X151275538Y-91798266D01*
X151136592Y-91847558D01*
X150968356Y-91863989D01*
X150822624Y-91849344D01*
X150688321Y-91805410D01*
X150572950Y-91729329D01*
X150484010Y-91618244D01*
X150427217Y-91468225D01*
X150408286Y-91275344D01*
X150408286Y-90346656D01*
X150427932Y-90153775D01*
X150486868Y-90003756D01*
X150577950Y-89892671D01*
X150694036Y-89816590D01*
X150829053Y-89772656D01*
X150976929Y-89758011D01*
X151144450Y-89774442D01*
G37*
G36*
X150091104Y-90486674D02*
G01*
X150109677Y-90503819D01*
X150116821Y-90532394D01*
X150108249Y-90558111D01*
X149708199Y-91166759D01*
X150108249Y-91786836D01*
X150115392Y-91799695D01*
X150116821Y-91815411D01*
X150109677Y-91838271D01*
X150091104Y-91856845D01*
X150065386Y-91863989D01*
X150042526Y-91858274D01*
X150025381Y-91841129D01*
X149648191Y-91261056D01*
X149273859Y-91841129D01*
X149255285Y-91858274D01*
X149230996Y-91863989D01*
X149205279Y-91856845D01*
X149186705Y-91838271D01*
X149179561Y-91815411D01*
X149188134Y-91786836D01*
X149585326Y-91166759D01*
X149188134Y-90558111D01*
X149182419Y-90545252D01*
X149179561Y-90532394D01*
X149186705Y-90506676D01*
X149205279Y-90488102D01*
X149230996Y-90480959D01*
X149256714Y-90486674D01*
X149273859Y-90503819D01*
X149648191Y-91075319D01*
X150025381Y-90503819D01*
X150042526Y-90486674D01*
X150065386Y-90480959D01*
X150091104Y-90486674D01*
G37*
G36*
X148073709Y-91805410D02*
G01*
X147960837Y-91729329D01*
X147873684Y-91618244D01*
X147817962Y-91468225D01*
X147799389Y-91275344D01*
X147902259Y-91275344D01*
X147932262Y-91491442D01*
X148022274Y-91642533D01*
X148165863Y-91731472D01*
X148356601Y-91761119D01*
X148547697Y-91731472D01*
X148692357Y-91642533D01*
X148783440Y-91491442D01*
X148813801Y-91275344D01*
X148813801Y-90346656D01*
X148783440Y-90130558D01*
X148692357Y-89979467D01*
X148547697Y-89890528D01*
X148356601Y-89860881D01*
X148165863Y-89890528D01*
X148022274Y-89979467D01*
X147932262Y-90130558D01*
X147902259Y-90346656D01*
X147902259Y-91275344D01*
X147799389Y-91275344D01*
X147799389Y-90346656D01*
X147817962Y-90153775D01*
X147873684Y-90003756D01*
X147960837Y-89892671D01*
X148073709Y-89816590D01*
X148207297Y-89772656D01*
X148356601Y-89758011D01*
X148506263Y-89772656D01*
X148640922Y-89816590D01*
X148754865Y-89892671D01*
X148842376Y-90003756D01*
X148898097Y-90153775D01*
X148916671Y-90346656D01*
X148916671Y-91275344D01*
X148898097Y-91468225D01*
X148842376Y-91618244D01*
X148754865Y-91729329D01*
X148640922Y-91805410D01*
X148506263Y-91849344D01*
X148356601Y-91863989D01*
X148207297Y-91849344D01*
X148073709Y-91805410D01*
G37*
G36*
X148422324Y-90749564D02*
G01*
X148448041Y-90812429D01*
X148422324Y-90876723D01*
X148359459Y-90903869D01*
X148295165Y-90876723D01*
X148268019Y-90812429D01*
X148295165Y-90749564D01*
X148359459Y-90723846D01*
X148422324Y-90749564D01*
G37*
G36*
X151891329Y-89809446D02*
G01*
X151907045Y-89770870D01*
X151942764Y-89758011D01*
X152371389Y-89758011D01*
X152528908Y-89766941D01*
X152669998Y-89793730D01*
X152788941Y-89846237D01*
X152880024Y-89932319D01*
X152937888Y-90059477D01*
X152957176Y-90235214D01*
X152940388Y-90403449D01*
X152890025Y-90542395D01*
X152812515Y-90647765D01*
X152714289Y-90715274D01*
X152868594Y-90813858D01*
X152971464Y-90972449D01*
X152999324Y-91082463D01*
X153008611Y-91218194D01*
X153008611Y-91266771D01*
X152990038Y-91459295D01*
X152934316Y-91608243D01*
X152846805Y-91717542D01*
X152732863Y-91791123D01*
X152598203Y-91832913D01*
X152448541Y-91846844D01*
X151942764Y-91846844D01*
X151905616Y-91832556D01*
X151891329Y-91798266D01*
X151891329Y-91743974D01*
X151994199Y-91743974D01*
X152448541Y-91743974D01*
X152639637Y-91715399D01*
X152784298Y-91629674D01*
X152875380Y-91481798D01*
X152905741Y-91266771D01*
X152905741Y-91218194D01*
X152875380Y-91006382D01*
X152784298Y-90868150D01*
X152639637Y-90792069D01*
X152448541Y-90766709D01*
X151994199Y-90766709D01*
X151994199Y-91743974D01*
X151891329Y-91743974D01*
X151891329Y-90663839D01*
X151994199Y-90663839D01*
X152391391Y-90663839D01*
X152597488Y-90641336D01*
X152741435Y-90573827D01*
X152826088Y-90444168D01*
X152854306Y-90235214D01*
X152838947Y-90095196D01*
X152792870Y-89995184D01*
X152624278Y-89888027D01*
X152508906Y-89867668D01*
X152377104Y-89860881D01*
X151994199Y-89860881D01*
X151994199Y-90663839D01*
X151891329Y-90663839D01*
X151891329Y-89809446D01*
G37*
%TO.C,G\u002A\u002A\u002A*%
G36*
X154003493Y-109474576D02*
G01*
X154112543Y-109490466D01*
X154158534Y-109521778D01*
X154163647Y-109545304D01*
X154139129Y-109590407D01*
X154052977Y-109613757D01*
X153886296Y-109620452D01*
X153606514Y-109620452D01*
X153637612Y-109996192D01*
X153900630Y-110011335D01*
X154075165Y-110032122D01*
X154152578Y-110062615D01*
X154134144Y-110093614D01*
X154021140Y-110115921D01*
X153885360Y-110121438D01*
X153607073Y-110121438D01*
X153622342Y-110359407D01*
X153637612Y-110597375D01*
X153925679Y-110612400D01*
X154108937Y-110630235D01*
X154197438Y-110655715D01*
X154195725Y-110683125D01*
X154108343Y-110706752D01*
X153939838Y-110720883D01*
X153838006Y-110722622D01*
X153462267Y-110722622D01*
X153462267Y-109470156D01*
X153812957Y-109470156D01*
X154003493Y-109474576D01*
G37*
G36*
X158221636Y-105662661D02*
G01*
X152460294Y-105662661D01*
X152460294Y-108518282D01*
X159273707Y-108518282D01*
X159273707Y-105412168D01*
X159574298Y-105412168D01*
X159574298Y-108768776D01*
X152159703Y-108768776D01*
X152159703Y-105412168D01*
X158221636Y-105412168D01*
X158221636Y-105662661D01*
G37*
G36*
X156900474Y-110052566D02*
G01*
X156919071Y-110096389D01*
X156877304Y-110157589D01*
X156818874Y-110171537D01*
X156737274Y-110140212D01*
X156718677Y-110096389D01*
X156760444Y-110035189D01*
X156818874Y-110021241D01*
X156900474Y-110052566D01*
G37*
G36*
X154462471Y-109814576D02*
G01*
X154542489Y-109636553D01*
X154557830Y-109616170D01*
X154686006Y-109528891D01*
X154847360Y-109508755D01*
X155000765Y-109555683D01*
X155072813Y-109617139D01*
X155157759Y-109790139D01*
X155194033Y-110014421D01*
X155182992Y-110254452D01*
X155125996Y-110474700D01*
X155034126Y-110629328D01*
X154903834Y-110706450D01*
X154743988Y-110713505D01*
X154596369Y-110650789D01*
X154568048Y-110626036D01*
X154478488Y-110475677D01*
X154430812Y-110267843D01*
X154426756Y-110095566D01*
X154572050Y-110095566D01*
X154586670Y-110285695D01*
X154625336Y-110448606D01*
X154685228Y-110549911D01*
X154690417Y-110554009D01*
X154793287Y-110613928D01*
X154869631Y-110601611D01*
X154932504Y-110547792D01*
X155004958Y-110420841D01*
X155045429Y-110239293D01*
X155053622Y-110037062D01*
X155029243Y-109848062D01*
X154971996Y-109706208D01*
X154940127Y-109670510D01*
X154822555Y-109626970D01*
X154705134Y-109672564D01*
X154626225Y-109771192D01*
X154584295Y-109912603D01*
X154572050Y-110095566D01*
X154426756Y-110095566D01*
X154425359Y-110036241D01*
X154462471Y-109814576D01*
G37*
G36*
X154896530Y-110052566D02*
G01*
X154915127Y-110096389D01*
X154873360Y-110157589D01*
X154814929Y-110171537D01*
X154733329Y-110140212D01*
X154714732Y-110096389D01*
X154756499Y-110035189D01*
X154814929Y-110021241D01*
X154896530Y-110052566D01*
G37*
G36*
X155152016Y-106232596D02*
G01*
X155325288Y-106261925D01*
X155420603Y-106298293D01*
X155460034Y-106354574D01*
X155466211Y-106415857D01*
X155452671Y-106480149D01*
X155393088Y-106482009D01*
X155337704Y-106462999D01*
X155148165Y-106419030D01*
X154958310Y-106420177D01*
X154804425Y-106463810D01*
X154747546Y-106505758D01*
X154666128Y-106645621D01*
X154682282Y-106773687D01*
X154793755Y-106886779D01*
X154998296Y-106981725D01*
X155108755Y-107014728D01*
X155274705Y-107078567D01*
X155418024Y-107166351D01*
X155446921Y-107191874D01*
X155545320Y-107355405D01*
X155568213Y-107551456D01*
X155515508Y-107746575D01*
X155448720Y-107847939D01*
X155362991Y-107929215D01*
X155260731Y-107974018D01*
X155106264Y-107995451D01*
X155035406Y-107999748D01*
X154847668Y-107999076D01*
X154680147Y-107981368D01*
X154602010Y-107961742D01*
X154490795Y-107884373D01*
X154464239Y-107807367D01*
X154488663Y-107733048D01*
X154536254Y-107733619D01*
X154816793Y-107820189D01*
X155030346Y-107837960D01*
X155149546Y-107806597D01*
X155302282Y-107698115D01*
X155359786Y-107565935D01*
X155339041Y-107436863D01*
X155293596Y-107356430D01*
X155208506Y-107292095D01*
X155060566Y-107229201D01*
X154952143Y-107192540D01*
X154714851Y-107100571D01*
X154563912Y-107000695D01*
X154485579Y-106880536D01*
X154465832Y-106754663D01*
X154506645Y-106536099D01*
X154625694Y-106368003D01*
X154809412Y-106260696D01*
X155044233Y-106224501D01*
X155152016Y-106232596D01*
G37*
G36*
X155464444Y-109814576D02*
G01*
X155544461Y-109636553D01*
X155559802Y-109616170D01*
X155687979Y-109528891D01*
X155849333Y-109508755D01*
X156002738Y-109555683D01*
X156074786Y-109617139D01*
X156159731Y-109790139D01*
X156196005Y-110014421D01*
X156184965Y-110254452D01*
X156127969Y-110474700D01*
X156036098Y-110629328D01*
X155905806Y-110706450D01*
X155745960Y-110713505D01*
X155598342Y-110650789D01*
X155570020Y-110626036D01*
X155480461Y-110475677D01*
X155432784Y-110267843D01*
X155428729Y-110095566D01*
X155574022Y-110095566D01*
X155588643Y-110285695D01*
X155627308Y-110448606D01*
X155687200Y-110549911D01*
X155692390Y-110554009D01*
X155795259Y-110613928D01*
X155871603Y-110601611D01*
X155934476Y-110547792D01*
X156006930Y-110420841D01*
X156047401Y-110239293D01*
X156055594Y-110037062D01*
X156031215Y-109848062D01*
X155973969Y-109706208D01*
X155942100Y-109670510D01*
X155824527Y-109626970D01*
X155707107Y-109672564D01*
X155628197Y-109771192D01*
X155586267Y-109912603D01*
X155574022Y-110095566D01*
X155428729Y-110095566D01*
X155427332Y-110036241D01*
X155464444Y-109814576D01*
G37*
G36*
X156466416Y-109814576D02*
G01*
X156546434Y-109636553D01*
X156561775Y-109616170D01*
X156689951Y-109528891D01*
X156851305Y-109508755D01*
X157004710Y-109555683D01*
X157076758Y-109617139D01*
X157161704Y-109790139D01*
X157197977Y-110014421D01*
X157186937Y-110254452D01*
X157129941Y-110474700D01*
X157038071Y-110629328D01*
X156907778Y-110706450D01*
X156747932Y-110713505D01*
X156600314Y-110650789D01*
X156571992Y-110626036D01*
X156482433Y-110475677D01*
X156434757Y-110267843D01*
X156430701Y-110095566D01*
X156575995Y-110095566D01*
X156590615Y-110285695D01*
X156629281Y-110448606D01*
X156689173Y-110549911D01*
X156694362Y-110554009D01*
X156797231Y-110613928D01*
X156873576Y-110601611D01*
X156936448Y-110547792D01*
X157008902Y-110420841D01*
X157049373Y-110239293D01*
X157057567Y-110037062D01*
X157033187Y-109848062D01*
X156975941Y-109706208D01*
X156944072Y-109670510D01*
X156826500Y-109626970D01*
X156709079Y-109672564D01*
X156630170Y-109771192D01*
X156588240Y-109912603D01*
X156575995Y-110095566D01*
X156430701Y-110095566D01*
X156429304Y-110036241D01*
X156466416Y-109814576D01*
G37*
G36*
X158933866Y-110030153D02*
G01*
X158948066Y-110597375D01*
X159085837Y-110613228D01*
X159202020Y-110636459D01*
X159229497Y-110664626D01*
X159179201Y-110692110D01*
X159062067Y-110713295D01*
X158889027Y-110722563D01*
X158872918Y-110722622D01*
X158700078Y-110716506D01*
X158574829Y-110700412D01*
X158522505Y-110677719D01*
X158522227Y-110675851D01*
X158565553Y-110636891D01*
X158659998Y-110613228D01*
X158797770Y-110597375D01*
X158797770Y-109645501D01*
X158659998Y-109661611D01*
X158560623Y-109657550D01*
X158522227Y-109626994D01*
X158538907Y-109574704D01*
X158605003Y-109536937D01*
X158744601Y-109500493D01*
X158758521Y-109497484D01*
X158919667Y-109462931D01*
X158933866Y-110030153D01*
G37*
G36*
X155898502Y-110052566D02*
G01*
X155917099Y-110096389D01*
X155875332Y-110157589D01*
X155816902Y-110171537D01*
X155735302Y-110140212D01*
X155716705Y-110096389D01*
X155758472Y-110035189D01*
X155816902Y-110021241D01*
X155898502Y-110052566D01*
G37*
G36*
X153028565Y-106798705D02*
G01*
X153062346Y-106602215D01*
X153082580Y-106541105D01*
X153205797Y-106366656D01*
X153388381Y-106256464D01*
X153602301Y-106225790D01*
X153651580Y-106231357D01*
X153847207Y-106299386D01*
X153988591Y-106435228D01*
X154079319Y-106645539D01*
X154122981Y-106936976D01*
X154128284Y-107115521D01*
X154103253Y-107459528D01*
X154027621Y-107719178D01*
X153900575Y-107897065D01*
X153877722Y-107916316D01*
X153704113Y-107996910D01*
X153500052Y-108012470D01*
X153311121Y-107961554D01*
X153267727Y-107935601D01*
X153167126Y-107831837D01*
X153083905Y-107692973D01*
X153081235Y-107686717D01*
X153039813Y-107521808D01*
X153017256Y-107294702D01*
X153015198Y-107155230D01*
X153236823Y-107155230D01*
X153238372Y-107376448D01*
X153246835Y-107521532D01*
X153267935Y-107614535D01*
X153307393Y-107679515D01*
X153370934Y-107740525D01*
X153377388Y-107746092D01*
X153476646Y-107829549D01*
X153539343Y-107859329D01*
X153607459Y-107843964D01*
X153685620Y-107808739D01*
X153802103Y-107701179D01*
X153876120Y-107506267D01*
X153906670Y-107227862D01*
X153901163Y-106977464D01*
X153868437Y-106716763D01*
X153805102Y-106542900D01*
X153704796Y-106445496D01*
X153561154Y-106414168D01*
X153555854Y-106414140D01*
X153425120Y-106441281D01*
X153332205Y-106529312D01*
X153272838Y-106688151D01*
X153242751Y-106927713D01*
X153236823Y-107155230D01*
X153015198Y-107155230D01*
X153013521Y-107041601D01*
X153028565Y-106798705D01*
G37*
G36*
X152637660Y-109487714D02*
G01*
X152859911Y-109533432D01*
X153007594Y-109607372D01*
X153105497Y-109724831D01*
X153140867Y-109798221D01*
X153199534Y-109988875D01*
X153202987Y-110176407D01*
X153159063Y-110384376D01*
X153062459Y-110564784D01*
X152892631Y-110677703D01*
X152651462Y-110721969D01*
X152613078Y-110722622D01*
X152410196Y-110722622D01*
X152410196Y-110634949D01*
X152560492Y-110634949D01*
X152722641Y-110602519D01*
X152860108Y-110557171D01*
X152959775Y-110495105D01*
X153012622Y-110379680D01*
X153034235Y-110172023D01*
X153034758Y-110124821D01*
X153009792Y-109878230D01*
X152933351Y-109715432D01*
X152803126Y-109632914D01*
X152703023Y-109620452D01*
X152560492Y-109620452D01*
X152560492Y-110634949D01*
X152410196Y-110634949D01*
X152410196Y-109456537D01*
X152637660Y-109487714D01*
G37*
G36*
X158999325Y-104971838D02*
G01*
X159009550Y-105025674D01*
X159004263Y-105044856D01*
X158988134Y-105110993D01*
X158954648Y-105258163D01*
X158907061Y-105471412D01*
X158848629Y-105735790D01*
X158782608Y-106036344D01*
X158712254Y-106358122D01*
X158640823Y-106686173D01*
X158571570Y-107005544D01*
X158507752Y-107301284D01*
X158452625Y-107558440D01*
X158409444Y-107762060D01*
X158381466Y-107897194D01*
X158371931Y-107948638D01*
X158329159Y-107962937D01*
X158254515Y-107967198D01*
X158196673Y-107958959D01*
X158154257Y-107921697D01*
X158118361Y-107836593D01*
X158080082Y-107684829D01*
X158047096Y-107528835D01*
X158003177Y-107325295D01*
X157962765Y-107156176D01*
X157932350Y-107047968D01*
X157924227Y-107027267D01*
X157900713Y-107045779D01*
X157862796Y-107145210D01*
X157816215Y-107308327D01*
X157778247Y-107465630D01*
X157723830Y-107695534D01*
X157680493Y-107843716D01*
X157641123Y-107926990D01*
X157598609Y-107962164D01*
X157566072Y-107967198D01*
X157475029Y-107939651D01*
X157446333Y-107904574D01*
X157430473Y-107829051D01*
X157404635Y-107676679D01*
X157372100Y-107469926D01*
X157336149Y-107231259D01*
X157300063Y-106983146D01*
X157267123Y-106748054D01*
X157240610Y-106548450D01*
X157223803Y-106406803D01*
X157219542Y-106351517D01*
X157260367Y-106277153D01*
X157313873Y-106263845D01*
X157355375Y-106274137D01*
X157386919Y-106315851D01*
X157412877Y-106405243D01*
X157437620Y-106558568D01*
X157465517Y-106792082D01*
X157472150Y-106852503D01*
X157507773Y-107163679D01*
X157537935Y-107378815D01*
X157565269Y-107501742D01*
X157592409Y-107536290D01*
X157621989Y-107486289D01*
X157656643Y-107355569D01*
X157693808Y-107174844D01*
X157737775Y-106958932D01*
X157773273Y-106823400D01*
X157808510Y-106749827D01*
X157851691Y-106719793D01*
X157898792Y-106714732D01*
X157959012Y-106724433D01*
X158002670Y-106766769D01*
X158039889Y-106861590D01*
X158080793Y-107028746D01*
X158096789Y-107102996D01*
X158139527Y-107296961D01*
X158177928Y-107458196D01*
X158204833Y-107556913D01*
X158208156Y-107566409D01*
X158217722Y-107593695D01*
X158225957Y-107611705D01*
X158235306Y-107610573D01*
X158248212Y-107580434D01*
X158267119Y-107511424D01*
X158294471Y-107393677D01*
X158332711Y-107217329D01*
X158384284Y-106972516D01*
X158451633Y-106649371D01*
X158537043Y-106238795D01*
X158617228Y-105855672D01*
X158680869Y-105559414D01*
X158731341Y-105338691D01*
X158772020Y-105182170D01*
X158806284Y-105078521D01*
X158837508Y-105016412D01*
X158869068Y-104984512D01*
X158904341Y-104971490D01*
X158915168Y-104969708D01*
X158999325Y-104971838D01*
G37*
G36*
X156957048Y-106268773D02*
G01*
X156982825Y-106292876D01*
X157000296Y-106350128D01*
X157011068Y-106454505D01*
X157016748Y-106619981D01*
X157018943Y-106860532D01*
X157019269Y-107115521D01*
X157018743Y-107425827D01*
X157016070Y-107649930D01*
X157009603Y-107801824D01*
X156997696Y-107895500D01*
X156978702Y-107944953D01*
X156950975Y-107964175D01*
X156919071Y-107967198D01*
X156869149Y-107958830D01*
X156839229Y-107920291D01*
X156824273Y-107831426D01*
X156819243Y-107672080D01*
X156818874Y-107566409D01*
X156818874Y-107165620D01*
X156117494Y-107165620D01*
X156117494Y-107566409D01*
X156115402Y-107766099D01*
X156105767Y-107885778D01*
X156083551Y-107945601D01*
X156043714Y-107965723D01*
X156017296Y-107967198D01*
X155980790Y-107962734D01*
X155954425Y-107940013D01*
X155936555Y-107885042D01*
X155925534Y-107783829D01*
X155919716Y-107622379D01*
X155917455Y-107386701D01*
X155917099Y-107115521D01*
X155917624Y-106805215D01*
X155920297Y-106581112D01*
X155926764Y-106429219D01*
X155938672Y-106335542D01*
X155957666Y-106286089D01*
X155985393Y-106266867D01*
X156017296Y-106263845D01*
X156069817Y-106273249D01*
X156099975Y-106315701D01*
X156113834Y-106412565D01*
X156117458Y-106585200D01*
X156117494Y-106616824D01*
X156117494Y-106969803D01*
X156455659Y-106954990D01*
X156793825Y-106940176D01*
X156808639Y-106602010D01*
X156819937Y-106420897D01*
X156838664Y-106318497D01*
X156871981Y-106273326D01*
X156921360Y-106263845D01*
X156957048Y-106268773D01*
G37*
G36*
X157946093Y-110597375D02*
G01*
X158083864Y-110613228D01*
X158200047Y-110636459D01*
X158227524Y-110664626D01*
X158177229Y-110692110D01*
X158060094Y-110713295D01*
X157887055Y-110722563D01*
X157870945Y-110722622D01*
X157698106Y-110716506D01*
X157572857Y-110700412D01*
X157520533Y-110677719D01*
X157520255Y-110675851D01*
X157563581Y-110636891D01*
X157658026Y-110613228D01*
X157795797Y-110597375D01*
X157795797Y-109645501D01*
X157658026Y-109661611D01*
X157558650Y-109657550D01*
X157520255Y-109626994D01*
X157536935Y-109574704D01*
X157603031Y-109536937D01*
X157742629Y-109500493D01*
X157756549Y-109497484D01*
X157917695Y-109462931D01*
X157946093Y-110597375D01*
G37*
G36*
X160042773Y-109490828D02*
G01*
X160073979Y-109527642D01*
X160075284Y-109542804D01*
X160048308Y-109593470D01*
X159954413Y-109616788D01*
X159849841Y-109620452D01*
X159711212Y-109624809D01*
X159645553Y-109649965D01*
X159625671Y-109714047D01*
X159624397Y-109770748D01*
X159634172Y-109871726D01*
X159683752Y-109913143D01*
X159799742Y-109921044D01*
X159979862Y-109962243D01*
X160107691Y-110070122D01*
X160174446Y-110221103D01*
X160171345Y-110391609D01*
X160089606Y-110558061D01*
X160052512Y-110599652D01*
X159903472Y-110687810D01*
X159710190Y-110723867D01*
X159517995Y-110700632D01*
X159486626Y-110689442D01*
X159428402Y-110623595D01*
X159424002Y-110597239D01*
X159445107Y-110557706D01*
X159523376Y-110560156D01*
X159603006Y-110579729D01*
X159788168Y-110594647D01*
X159930919Y-110536167D01*
X160012790Y-110415282D01*
X160025186Y-110328443D01*
X159983906Y-110164825D01*
X159870571Y-110061651D01*
X159700937Y-110031110D01*
X159648162Y-110036794D01*
X159469265Y-110065825D01*
X159484208Y-109780515D01*
X159499150Y-109495206D01*
X159787217Y-109480181D01*
X159954169Y-109476526D01*
X160042773Y-109490828D01*
G37*
%TO.C,svg2mod*%
G36*
X154140741Y-91211149D02*
G01*
X154159752Y-91408928D01*
X154213993Y-91547408D01*
X154308348Y-91629031D01*
X154447699Y-91656239D01*
X154611565Y-91632674D01*
X154732953Y-91561981D01*
X154811863Y-91444158D01*
X154811863Y-90327948D01*
X155071382Y-90327948D01*
X155071382Y-91837623D01*
X154838373Y-91837623D01*
X154825816Y-91677167D01*
X154669198Y-91818438D01*
X154458862Y-91865528D01*
X154276780Y-91840065D01*
X154140741Y-91763674D01*
X154140741Y-92418052D01*
X153882618Y-92418052D01*
X153882618Y-90327948D01*
X154140741Y-90327948D01*
X154140741Y-91211149D01*
G37*
%TO.C,G\u002A\u002A\u002A*%
G36*
X159519708Y-100318000D02*
G01*
X159253854Y-100439496D01*
X159192573Y-100467475D01*
X159135513Y-100493472D01*
X159084402Y-100516707D01*
X159040963Y-100536397D01*
X159006924Y-100551759D01*
X158984010Y-100562012D01*
X158974000Y-100566352D01*
X158970797Y-100566854D01*
X158968122Y-100564828D01*
X158965928Y-100558977D01*
X158964168Y-100548004D01*
X158962793Y-100530610D01*
X158961758Y-100505498D01*
X158961014Y-100471371D01*
X158960513Y-100426932D01*
X158960210Y-100370882D01*
X158960055Y-100301925D01*
X158960003Y-100218762D01*
X158960000Y-100182855D01*
X158960000Y-99794000D01*
X159520000Y-99794000D01*
X159519708Y-100318000D01*
G37*
G36*
X158974000Y-98565527D02*
G01*
X158984292Y-98569968D01*
X159007404Y-98580293D01*
X159041611Y-98595720D01*
X159085188Y-98615469D01*
X159136410Y-98638757D01*
X159193552Y-98664801D01*
X159253928Y-98692383D01*
X159519857Y-98814000D01*
X159519928Y-99076000D01*
X159520000Y-99338000D01*
X158960000Y-99338000D01*
X158960000Y-98949144D01*
X158960026Y-98860192D01*
X158960136Y-98785942D01*
X158960377Y-98725096D01*
X158960796Y-98676357D01*
X158961442Y-98638426D01*
X158962361Y-98610005D01*
X158963600Y-98589797D01*
X158965208Y-98576504D01*
X158967231Y-98568827D01*
X158969716Y-98565469D01*
X158972712Y-98565131D01*
X158974000Y-98565527D01*
G37*
G36*
X159031324Y-95823774D02*
G01*
X159032882Y-95815258D01*
X159047150Y-95796704D01*
X159061258Y-95786882D01*
X159072009Y-95784852D01*
X159095050Y-95783103D01*
X159130871Y-95781626D01*
X159179961Y-95780413D01*
X159242811Y-95779455D01*
X159319908Y-95778746D01*
X159411743Y-95778275D01*
X159518806Y-95778036D01*
X159587486Y-95778000D01*
X160094219Y-95778000D01*
X160099754Y-95748494D01*
X160117602Y-95693163D01*
X160148994Y-95638876D01*
X160191589Y-95588571D01*
X160243044Y-95545188D01*
X160280302Y-95522000D01*
X160332000Y-95494000D01*
X160440134Y-95494000D01*
X160484042Y-95494150D01*
X160515740Y-95495004D01*
X160539015Y-95497169D01*
X160557658Y-95501251D01*
X160575456Y-95507854D01*
X160596199Y-95517585D01*
X160600337Y-95519617D01*
X160661570Y-95558225D01*
X160712829Y-95607807D01*
X160752960Y-95666158D01*
X160780806Y-95731079D01*
X160795211Y-95800366D01*
X160795019Y-95871818D01*
X160793043Y-95886717D01*
X160774352Y-95958690D01*
X160742839Y-96023143D01*
X160700162Y-96078839D01*
X160647982Y-96124544D01*
X160587958Y-96159022D01*
X160521749Y-96181037D01*
X160451016Y-96189354D01*
X160392000Y-96185271D01*
X160332701Y-96170519D01*
X160274488Y-96145814D01*
X160223505Y-96113968D01*
X160207656Y-96100894D01*
X160181785Y-96074046D01*
X160155766Y-96041051D01*
X160132646Y-96006411D01*
X160115473Y-95974626D01*
X160107914Y-95953610D01*
X160102728Y-95930000D01*
X159176000Y-95930000D01*
X159176052Y-97478000D01*
X159244399Y-97518000D01*
X159280759Y-97539279D01*
X159307171Y-97554722D01*
X159327495Y-97566573D01*
X159345592Y-97577074D01*
X159365324Y-97588469D01*
X159390552Y-97603002D01*
X159408089Y-97613099D01*
X159444712Y-97634241D01*
X159492739Y-97662051D01*
X159549757Y-97695127D01*
X159613356Y-97732065D01*
X159681124Y-97771462D01*
X159750650Y-97811917D01*
X159819521Y-97852026D01*
X159885327Y-97890387D01*
X159945655Y-97925596D01*
X159998095Y-97956251D01*
X160012000Y-97964391D01*
X160069329Y-97998121D01*
X160115020Y-98025484D01*
X160151339Y-98048028D01*
X160180553Y-98067302D01*
X160204930Y-98084854D01*
X160226735Y-98102231D01*
X160248235Y-98120982D01*
X160268194Y-98139373D01*
X160322161Y-98196465D01*
X160373823Y-98263419D01*
X160420227Y-98335671D01*
X160458416Y-98408660D01*
X160483580Y-98472000D01*
X160497285Y-98514000D01*
X161760000Y-98514000D01*
X161759784Y-98052000D01*
X161759569Y-97590000D01*
X161708036Y-97566982D01*
X161644947Y-97531148D01*
X161593222Y-97484731D01*
X161552109Y-97426882D01*
X161520859Y-97356749D01*
X161519605Y-97353092D01*
X161510820Y-97323588D01*
X161506114Y-97296199D01*
X161504810Y-97264721D01*
X161505330Y-97248380D01*
X161636500Y-97248380D01*
X161636827Y-97262683D01*
X161646997Y-97316165D01*
X161670125Y-97363295D01*
X161703911Y-97402537D01*
X161746054Y-97432358D01*
X161794255Y-97451223D01*
X161846215Y-97457597D01*
X161899632Y-97449946D01*
X161911716Y-97446099D01*
X161940186Y-97433022D01*
X161968885Y-97415365D01*
X161975130Y-97410688D01*
X162011668Y-97372056D01*
X162036543Y-97325168D01*
X162049076Y-97273403D01*
X162048585Y-97220144D01*
X162034387Y-97168772D01*
X162026974Y-97153535D01*
X161994379Y-97107731D01*
X161954937Y-97074565D01*
X161910736Y-97053454D01*
X161863866Y-97043812D01*
X161816416Y-97045056D01*
X161770473Y-97056600D01*
X161728128Y-97077861D01*
X161691469Y-97108254D01*
X161662586Y-97147194D01*
X161643566Y-97194098D01*
X161636500Y-97248380D01*
X161505330Y-97248380D01*
X161505982Y-97227906D01*
X161508601Y-97189455D01*
X161513005Y-97160655D01*
X161520771Y-97135159D01*
X161533479Y-97106619D01*
X161538796Y-97095906D01*
X161559718Y-97056819D01*
X161579434Y-97027243D01*
X161602312Y-97001692D01*
X161632723Y-96974680D01*
X161640287Y-96968460D01*
X161699424Y-96930233D01*
X161765106Y-96905367D01*
X161834667Y-96894145D01*
X161905442Y-96896845D01*
X161974764Y-96913750D01*
X162011687Y-96929392D01*
X162064116Y-96959481D01*
X162105444Y-96993504D01*
X162140570Y-97035669D01*
X162147941Y-97046439D01*
X162184437Y-97114720D01*
X162205469Y-97185239D01*
X162211148Y-97256576D01*
X162201586Y-97327313D01*
X162176895Y-97396028D01*
X162137187Y-97461304D01*
X162112911Y-97490902D01*
X162075032Y-97525892D01*
X162029609Y-97556666D01*
X161982257Y-97579865D01*
X161946000Y-97590861D01*
X161920000Y-97596000D01*
X161920000Y-98619230D01*
X161873230Y-98666000D01*
X161202615Y-98666004D01*
X160532000Y-98666009D01*
X160532000Y-99338005D01*
X161053109Y-99338002D01*
X161574219Y-99338000D01*
X161579306Y-99310884D01*
X161593208Y-99267074D01*
X161617559Y-99220336D01*
X161649144Y-99176067D01*
X161677526Y-99145996D01*
X161739549Y-99099287D01*
X161806310Y-99067302D01*
X161876194Y-99050170D01*
X161947585Y-99048021D01*
X162018866Y-99060987D01*
X162088421Y-99089196D01*
X162123560Y-99110058D01*
X162178467Y-99155777D01*
X162222191Y-99211503D01*
X162253704Y-99274884D01*
X162271981Y-99343562D01*
X162275994Y-99415185D01*
X162272342Y-99451297D01*
X162258111Y-99513585D01*
X162234957Y-99567078D01*
X162200409Y-99616569D01*
X162170133Y-99649401D01*
X162139670Y-99678231D01*
X162113399Y-99698473D01*
X162085501Y-99714017D01*
X162053174Y-99727600D01*
X161980155Y-99748600D01*
X161909530Y-99754113D01*
X161839849Y-99744180D01*
X161808815Y-99734824D01*
X161763026Y-99716818D01*
X161726631Y-99696845D01*
X161693249Y-99670829D01*
X161663493Y-99641966D01*
X161644261Y-99619023D01*
X161624274Y-99590172D01*
X161606008Y-99559658D01*
X161591941Y-99531723D01*
X161584551Y-99510614D01*
X161584000Y-99505781D01*
X161576075Y-99504113D01*
X161552603Y-99502632D01*
X161514035Y-99501344D01*
X161460821Y-99500255D01*
X161393414Y-99499371D01*
X161312264Y-99498701D01*
X161217822Y-99498250D01*
X161110541Y-99498025D01*
X161056000Y-99498000D01*
X160528000Y-99498000D01*
X160527585Y-99760000D01*
X160527379Y-99825780D01*
X160526989Y-99888657D01*
X160526445Y-99946254D01*
X160525776Y-99996191D01*
X160525011Y-100036089D01*
X160524180Y-100063572D01*
X160523743Y-100072000D01*
X160520315Y-100122000D01*
X161873230Y-100122000D01*
X161896615Y-100145384D01*
X161920000Y-100168769D01*
X161920000Y-101216219D01*
X161947115Y-101221306D01*
X162000986Y-101238874D01*
X162053701Y-101269715D01*
X162102578Y-101311177D01*
X162144935Y-101360606D01*
X162178089Y-101415347D01*
X162198689Y-101470133D01*
X162210077Y-101542480D01*
X162207056Y-101612608D01*
X162190928Y-101679040D01*
X162163001Y-101740296D01*
X162124580Y-101794894D01*
X162076968Y-101841356D01*
X162021473Y-101878202D01*
X161959399Y-101903952D01*
X161892052Y-101917125D01*
X161820736Y-101916243D01*
X161806854Y-101914365D01*
X161732565Y-101895517D01*
X161667316Y-101863475D01*
X161611232Y-101818334D01*
X161564439Y-101760186D01*
X161538626Y-101714566D01*
X161523723Y-101682135D01*
X161514476Y-101654998D01*
X161509216Y-101626417D01*
X161506272Y-101589656D01*
X161505904Y-101582566D01*
X161505502Y-101567700D01*
X161645383Y-101567700D01*
X161653214Y-101619894D01*
X161674724Y-101668455D01*
X161682954Y-101680582D01*
X161722019Y-101720993D01*
X161768783Y-101748732D01*
X161820524Y-101763064D01*
X161874516Y-101763252D01*
X161928036Y-101748558D01*
X161930454Y-101747507D01*
X161976425Y-101719163D01*
X162011692Y-101681175D01*
X162035759Y-101636218D01*
X162048131Y-101586967D01*
X162048311Y-101536099D01*
X162035805Y-101486288D01*
X162010115Y-101440210D01*
X161991384Y-101418615D01*
X161947874Y-101385672D01*
X161898609Y-101366157D01*
X161846483Y-101360035D01*
X161794388Y-101367273D01*
X161745220Y-101387837D01*
X161701873Y-101421695D01*
X161701605Y-101421970D01*
X161669814Y-101465472D01*
X161650994Y-101515137D01*
X161645383Y-101567700D01*
X161505502Y-101567700D01*
X161504805Y-101541962D01*
X161506677Y-101510852D01*
X161512210Y-101482892D01*
X161519250Y-101459960D01*
X161550832Y-101388499D01*
X161593132Y-101327933D01*
X161645315Y-101279160D01*
X161706545Y-101243078D01*
X161730000Y-101233598D01*
X161760000Y-101222785D01*
X161760000Y-100282000D01*
X160520000Y-100282000D01*
X160519387Y-100380000D01*
X160518970Y-100418897D01*
X160518283Y-100452574D01*
X160517423Y-100477450D01*
X160516485Y-100489945D01*
X160516474Y-100490000D01*
X160514306Y-100504097D01*
X160511070Y-100528191D01*
X160508335Y-100550000D01*
X160493448Y-100624378D01*
X160467417Y-100702882D01*
X160432382Y-100780721D01*
X160390482Y-100853100D01*
X160346804Y-100911812D01*
X160324725Y-100935683D01*
X160296923Y-100962930D01*
X160266667Y-100990662D01*
X160237226Y-101015987D01*
X160211868Y-101036014D01*
X160193862Y-101047853D01*
X160192000Y-101048742D01*
X160178304Y-101056124D01*
X160157671Y-101068652D01*
X160148000Y-101074845D01*
X160135001Y-101082837D01*
X160110068Y-101097739D01*
X160075108Y-101118435D01*
X160032028Y-101143807D01*
X159982736Y-101172742D01*
X159929139Y-101204122D01*
X159873144Y-101236833D01*
X159816660Y-101269757D01*
X159761592Y-101301780D01*
X159709850Y-101331786D01*
X159663339Y-101358658D01*
X159634392Y-101375308D01*
X159609148Y-101389879D01*
X159573356Y-101410658D01*
X159530262Y-101435747D01*
X159483115Y-101463249D01*
X159435161Y-101491269D01*
X159389647Y-101517909D01*
X159349822Y-101541272D01*
X159318932Y-101559463D01*
X159308000Y-101565939D01*
X159276095Y-101584726D01*
X159244506Y-101603042D01*
X159219651Y-101617166D01*
X159218000Y-101618084D01*
X159184000Y-101636946D01*
X159184000Y-102970000D01*
X160100244Y-102970000D01*
X160113781Y-102931886D01*
X160145838Y-102864880D01*
X160190809Y-102806869D01*
X160247682Y-102758967D01*
X160296000Y-102731088D01*
X160322640Y-102718513D01*
X160343744Y-102710210D01*
X160363936Y-102705294D01*
X160387841Y-102702880D01*
X160420086Y-102702083D01*
X160448000Y-102702014D01*
X160488766Y-102702302D01*
X160518078Y-102703681D01*
X160540480Y-102706939D01*
X160560514Y-102712868D01*
X160582724Y-102722256D01*
X160593624Y-102727341D01*
X160657190Y-102765262D01*
X160709061Y-102812260D01*
X160749235Y-102866497D01*
X160777714Y-102926133D01*
X160794496Y-102989329D01*
X160799582Y-103054244D01*
X160792972Y-103119040D01*
X160774666Y-103181876D01*
X160744664Y-103240913D01*
X160702966Y-103294311D01*
X160649571Y-103340231D01*
X160593624Y-103372658D01*
X160569184Y-103383710D01*
X160548800Y-103390975D01*
X160527930Y-103395242D01*
X160502029Y-103397303D01*
X160466555Y-103397947D01*
X160448000Y-103397985D01*
X160407745Y-103397766D01*
X160378858Y-103396506D01*
X160356708Y-103393322D01*
X160336663Y-103387333D01*
X160314092Y-103377657D01*
X160296000Y-103369033D01*
X160250932Y-103343436D01*
X160211043Y-103313683D01*
X160197632Y-103301191D01*
X160178119Y-103278250D01*
X160157113Y-103248525D01*
X160136908Y-103215937D01*
X160119795Y-103184413D01*
X160108066Y-103157874D01*
X160104000Y-103140925D01*
X160101850Y-103138686D01*
X160094694Y-103136763D01*
X160081472Y-103135135D01*
X160061126Y-103133779D01*
X160032596Y-103132672D01*
X159994823Y-103131791D01*
X159946747Y-103131115D01*
X159887310Y-103130621D01*
X159815451Y-103130286D01*
X159730112Y-103130089D01*
X159630232Y-103130006D01*
X159588446Y-103130000D01*
X159072892Y-103130000D01*
X159028000Y-103091388D01*
X159027658Y-103033164D01*
X160242206Y-103033164D01*
X160244254Y-103091087D01*
X160260615Y-103143776D01*
X160290322Y-103189294D01*
X160332410Y-103225704D01*
X160340926Y-103230966D01*
X160394944Y-103254331D01*
X160449680Y-103261935D01*
X160504062Y-103253750D01*
X160545817Y-103236238D01*
X160591432Y-103203318D01*
X160624863Y-103162467D01*
X160646116Y-103116119D01*
X160655196Y-103066705D01*
X160652111Y-103016658D01*
X160636865Y-102968412D01*
X160609465Y-102924399D01*
X160569916Y-102887051D01*
X160544928Y-102871277D01*
X160493484Y-102851550D01*
X160441275Y-102846288D01*
X160390611Y-102854258D01*
X160343804Y-102874223D01*
X160303164Y-102904947D01*
X160271000Y-102945196D01*
X160249624Y-102993733D01*
X160242206Y-103033164D01*
X159027658Y-103033164D01*
X159024000Y-102411359D01*
X159020000Y-101731329D01*
X158945518Y-101773968D01*
X158853412Y-101819960D01*
X158758779Y-101853217D01*
X158657493Y-101875039D01*
X158601535Y-101882225D01*
X158531516Y-101885841D01*
X158460559Y-101883119D01*
X158395335Y-101874433D01*
X158372573Y-101869429D01*
X158352000Y-101864265D01*
X158352000Y-102329132D01*
X158352051Y-102429109D01*
X158352222Y-102514201D01*
X158352539Y-102585520D01*
X158353028Y-102644180D01*
X158353716Y-102691295D01*
X158354628Y-102727979D01*
X158355792Y-102755346D01*
X158357232Y-102774508D01*
X158358975Y-102786581D01*
X158361047Y-102792677D01*
X158362925Y-102794000D01*
X158381152Y-102798538D01*
X158408071Y-102810626D01*
X158439758Y-102827972D01*
X158472289Y-102848282D01*
X158501741Y-102869264D01*
X158523191Y-102887632D01*
X158553166Y-102923141D01*
X158581129Y-102966939D01*
X158591033Y-102986000D01*
X158603560Y-103012664D01*
X158611830Y-103033811D01*
X158616725Y-103054071D01*
X158619127Y-103078077D01*
X158619917Y-103110460D01*
X158619985Y-103138000D01*
X158619697Y-103178766D01*
X158618318Y-103208078D01*
X158615060Y-103230480D01*
X158609131Y-103250514D01*
X158599743Y-103272724D01*
X158594658Y-103283624D01*
X158556923Y-103346127D01*
X158508540Y-103398672D01*
X158451620Y-103440310D01*
X158388274Y-103470095D01*
X158320613Y-103487080D01*
X158250749Y-103490319D01*
X158180792Y-103478863D01*
X158167910Y-103475026D01*
X158097671Y-103444509D01*
X158036929Y-103401322D01*
X157986651Y-103346312D01*
X157949341Y-103283624D01*
X157938289Y-103259184D01*
X157931024Y-103238800D01*
X157926757Y-103217930D01*
X157924696Y-103192029D01*
X157924052Y-103156555D01*
X157924014Y-103138000D01*
X157924026Y-103135700D01*
X158077383Y-103135700D01*
X158085214Y-103187894D01*
X158106724Y-103236455D01*
X158114954Y-103248582D01*
X158154019Y-103288993D01*
X158200783Y-103316732D01*
X158252524Y-103331064D01*
X158306516Y-103331252D01*
X158360036Y-103316558D01*
X158362454Y-103315507D01*
X158408425Y-103287163D01*
X158443692Y-103249175D01*
X158467759Y-103204218D01*
X158480131Y-103154967D01*
X158480311Y-103104099D01*
X158467805Y-103054288D01*
X158442115Y-103008210D01*
X158423384Y-102986615D01*
X158379874Y-102953672D01*
X158330609Y-102934157D01*
X158278483Y-102928035D01*
X158226388Y-102935273D01*
X158177220Y-102955837D01*
X158133873Y-102989695D01*
X158133605Y-102989970D01*
X158101814Y-103033472D01*
X158082994Y-103083137D01*
X158077383Y-103135700D01*
X157924026Y-103135700D01*
X157924230Y-103097770D01*
X157925483Y-103068915D01*
X157928657Y-103046808D01*
X157934638Y-103026824D01*
X157944310Y-103004339D01*
X157953088Y-102986000D01*
X157992927Y-102921098D01*
X158043688Y-102867361D01*
X158104255Y-102825801D01*
X158153886Y-102803781D01*
X158192000Y-102790244D01*
X158192000Y-102335266D01*
X158191978Y-102238449D01*
X158191891Y-102156434D01*
X158191698Y-102088022D01*
X158191364Y-102032013D01*
X158190850Y-101987211D01*
X158190120Y-101952416D01*
X158189135Y-101926429D01*
X158187859Y-101908053D01*
X158186254Y-101896088D01*
X158184282Y-101889336D01*
X158181906Y-101886598D01*
X158179089Y-101886676D01*
X158178000Y-101887144D01*
X158164893Y-101889712D01*
X158139411Y-101891694D01*
X158105173Y-101892902D01*
X158065799Y-101893144D01*
X158064000Y-101893129D01*
X157952176Y-101884936D01*
X157843645Y-101862057D01*
X157736883Y-101824063D01*
X157634055Y-101772640D01*
X157606564Y-101757134D01*
X157584897Y-101745213D01*
X157572374Y-101738692D01*
X157570634Y-101738000D01*
X157570234Y-101745805D01*
X157569852Y-101768442D01*
X157569493Y-101804743D01*
X157569162Y-101853540D01*
X157568863Y-101913665D01*
X157568601Y-101983949D01*
X157568381Y-102063225D01*
X157568206Y-102150324D01*
X157568082Y-102244078D01*
X157568013Y-102343320D01*
X157568000Y-102410615D01*
X157568000Y-103083230D01*
X157521230Y-103130000D01*
X156475493Y-103130000D01*
X156464412Y-103168000D01*
X156446030Y-103218559D01*
X156421197Y-103262001D01*
X156386298Y-103304299D01*
X156374753Y-103316227D01*
X156318623Y-103362703D01*
X156258176Y-103395077D01*
X156195037Y-103414105D01*
X156130831Y-103420539D01*
X156067185Y-103415134D01*
X156005722Y-103398644D01*
X155948069Y-103371824D01*
X155895850Y-103335426D01*
X155850691Y-103290206D01*
X155814218Y-103236917D01*
X155788055Y-103176314D01*
X155773828Y-103109151D01*
X155773086Y-103037062D01*
X155773818Y-103033164D01*
X155922206Y-103033164D01*
X155924254Y-103091087D01*
X155940615Y-103143776D01*
X155970322Y-103189294D01*
X156012410Y-103225704D01*
X156020926Y-103230966D01*
X156074944Y-103254331D01*
X156129680Y-103261935D01*
X156184062Y-103253750D01*
X156225817Y-103236238D01*
X156271432Y-103203318D01*
X156304863Y-103162467D01*
X156326116Y-103116119D01*
X156335196Y-103066705D01*
X156332111Y-103016658D01*
X156316865Y-102968412D01*
X156289465Y-102924399D01*
X156249916Y-102887051D01*
X156224928Y-102871277D01*
X156173484Y-102851550D01*
X156121275Y-102846288D01*
X156070611Y-102854258D01*
X156023804Y-102874223D01*
X155983164Y-102904947D01*
X155951000Y-102945196D01*
X155929624Y-102993733D01*
X155922206Y-103033164D01*
X155773818Y-103033164D01*
X155786991Y-102963061D01*
X155815044Y-102896098D01*
X155856620Y-102837071D01*
X155911093Y-102786878D01*
X155974715Y-102747948D01*
X156041957Y-102723298D01*
X156112400Y-102713624D01*
X156184027Y-102718773D01*
X156254820Y-102738595D01*
X156322760Y-102772941D01*
X156324434Y-102774003D01*
X156377353Y-102816637D01*
X156419949Y-102870776D01*
X156444982Y-102918036D01*
X156468000Y-102969569D01*
X156942000Y-102969784D01*
X157416000Y-102970000D01*
X157416000Y-101645130D01*
X156934302Y-101377565D01*
X156829796Y-101319465D01*
X156738400Y-101268534D01*
X156659197Y-101224247D01*
X156591269Y-101186075D01*
X156533701Y-101153491D01*
X156485574Y-101125970D01*
X156445971Y-101102984D01*
X156413976Y-101084006D01*
X156388671Y-101068508D01*
X156369139Y-101055966D01*
X156354462Y-101045850D01*
X156346493Y-101039857D01*
X156284881Y-100985551D01*
X156226921Y-100923398D01*
X156175407Y-100856987D01*
X156133136Y-100789903D01*
X156104065Y-100728768D01*
X156084988Y-100676372D01*
X156071037Y-100628991D01*
X156061491Y-100582293D01*
X156055631Y-100531945D01*
X156052735Y-100473613D01*
X156052067Y-100416007D01*
X156052000Y-100282014D01*
X154800000Y-100282000D01*
X154800000Y-100754000D01*
X154800130Y-100860303D01*
X154800516Y-100954081D01*
X154801150Y-101034838D01*
X154802023Y-101102079D01*
X154803127Y-101155311D01*
X154804453Y-101194037D01*
X154805995Y-101217764D01*
X154807744Y-101225996D01*
X154807781Y-101226000D01*
X154818648Y-101229213D01*
X154839125Y-101237575D01*
X154860958Y-101247493D01*
X154919939Y-101283975D01*
X154970143Y-101332245D01*
X155010092Y-101389854D01*
X155038308Y-101454352D01*
X155053310Y-101523287D01*
X155055272Y-101569421D01*
X155046174Y-101645404D01*
X155023135Y-101713698D01*
X154985841Y-101774998D01*
X154940268Y-101824362D01*
X154879745Y-101869487D01*
X154813735Y-101900165D01*
X154744040Y-101916134D01*
X154672461Y-101917128D01*
X154600798Y-101902883D01*
X154548000Y-101882001D01*
X154495196Y-101851981D01*
X154453427Y-101817366D01*
X154417728Y-101773905D01*
X154412058Y-101765560D01*
X154375700Y-101697263D01*
X154354731Y-101625962D01*
X154349788Y-101560380D01*
X154508500Y-101560380D01*
X154508827Y-101574683D01*
X154518997Y-101628165D01*
X154542125Y-101675295D01*
X154575911Y-101714537D01*
X154618054Y-101744358D01*
X154666255Y-101763223D01*
X154718215Y-101769597D01*
X154771632Y-101761946D01*
X154783716Y-101758099D01*
X154812186Y-101745022D01*
X154840885Y-101727365D01*
X154847130Y-101722688D01*
X154883668Y-101684056D01*
X154908543Y-101637168D01*
X154921076Y-101585403D01*
X154920585Y-101532144D01*
X154906387Y-101480772D01*
X154898974Y-101465535D01*
X154866379Y-101419731D01*
X154826937Y-101386565D01*
X154782736Y-101365454D01*
X154735866Y-101355812D01*
X154688416Y-101357056D01*
X154642473Y-101368600D01*
X154600128Y-101389861D01*
X154563469Y-101420254D01*
X154534586Y-101459194D01*
X154515566Y-101506098D01*
X154508500Y-101560380D01*
X154349788Y-101560380D01*
X154349237Y-101553072D01*
X154359305Y-101480005D01*
X154385022Y-101408175D01*
X154389623Y-101398795D01*
X154420594Y-101350890D01*
X154461799Y-101306309D01*
X154509541Y-101267992D01*
X154560123Y-101238877D01*
X154609849Y-101221904D01*
X154612884Y-101221306D01*
X154640000Y-101216219D01*
X154640000Y-100168769D01*
X154663384Y-100145384D01*
X154686769Y-100122000D01*
X156056000Y-100122000D01*
X156056000Y-100020513D01*
X156520934Y-100020513D01*
X156521041Y-100104919D01*
X156521388Y-100178104D01*
X156522015Y-100241022D01*
X156522965Y-100294630D01*
X156524279Y-100339882D01*
X156525998Y-100377735D01*
X156528165Y-100409144D01*
X156530819Y-100435065D01*
X156534004Y-100456453D01*
X156537761Y-100474264D01*
X156542130Y-100489454D01*
X156547155Y-100502978D01*
X156552875Y-100515792D01*
X156559333Y-100528851D01*
X156565036Y-100540071D01*
X156590815Y-100585629D01*
X156618232Y-100621347D01*
X156652056Y-100653074D01*
X156666504Y-100664479D01*
X156681816Y-100674826D01*
X156709779Y-100692314D01*
X156749117Y-100716209D01*
X156798556Y-100745773D01*
X156856819Y-100780271D01*
X156922633Y-100818966D01*
X156994721Y-100861122D01*
X157071809Y-100906004D01*
X157152621Y-100952874D01*
X157235881Y-101000997D01*
X157320316Y-101049636D01*
X157404649Y-101098055D01*
X157487606Y-101145519D01*
X157567911Y-101191290D01*
X157644288Y-101234633D01*
X157715464Y-101274811D01*
X157780162Y-101311088D01*
X157837107Y-101342728D01*
X157885024Y-101368996D01*
X157911904Y-101383468D01*
X157944844Y-101400522D01*
X157968596Y-101410935D01*
X157987833Y-101416063D01*
X158007223Y-101417263D01*
X158025181Y-101416365D01*
X158068379Y-101408498D01*
X158103118Y-101391532D01*
X158127641Y-101370391D01*
X158149085Y-101343940D01*
X158153841Y-101335991D01*
X158172000Y-101302000D01*
X158174158Y-100548000D01*
X158175414Y-100109505D01*
X158407965Y-100109505D01*
X158407975Y-100264845D01*
X158408021Y-100406690D01*
X158408115Y-100535668D01*
X158408272Y-100652404D01*
X158408506Y-100757525D01*
X158408831Y-100851657D01*
X158409262Y-100935426D01*
X158409812Y-101009460D01*
X158410496Y-101074383D01*
X158411328Y-101130824D01*
X158412322Y-101179407D01*
X158413491Y-101220760D01*
X158414851Y-101255509D01*
X158416416Y-101284280D01*
X158418198Y-101307700D01*
X158420214Y-101326395D01*
X158422476Y-101340991D01*
X158424999Y-101352115D01*
X158427797Y-101360394D01*
X158430884Y-101366453D01*
X158434274Y-101370919D01*
X158437982Y-101374418D01*
X158442022Y-101377577D01*
X158446407Y-101381023D01*
X158449243Y-101383519D01*
X158474132Y-101402219D01*
X158502037Y-101412552D01*
X158537864Y-101415932D01*
X158560000Y-101415470D01*
X158612000Y-101413118D01*
X159266801Y-101033559D01*
X159361568Y-100978539D01*
X159452864Y-100925363D01*
X159539675Y-100874633D01*
X159620985Y-100826949D01*
X159695779Y-100782912D01*
X159763043Y-100743122D01*
X159821760Y-100708181D01*
X159870917Y-100678689D01*
X159909498Y-100655248D01*
X159936488Y-100638457D01*
X159950871Y-100628919D01*
X159952314Y-100627793D01*
X159973389Y-100605296D01*
X159994249Y-100575923D01*
X160004731Y-100557221D01*
X160013862Y-100536879D01*
X160020424Y-100516853D01*
X160025093Y-100493391D01*
X160028546Y-100462743D01*
X160031459Y-100421155D01*
X160032471Y-100403427D01*
X160033331Y-100380243D01*
X160034208Y-100342294D01*
X160035089Y-100290814D01*
X160035964Y-100227038D01*
X160036821Y-100152201D01*
X160037648Y-100067536D01*
X160038434Y-99974279D01*
X160039168Y-99873665D01*
X160039838Y-99766928D01*
X160040433Y-99655302D01*
X160040941Y-99540022D01*
X160041252Y-99454000D01*
X160041386Y-99413064D01*
X161712504Y-99413064D01*
X161718562Y-99464251D01*
X161737123Y-99512508D01*
X161767848Y-99555144D01*
X161810403Y-99589463D01*
X161812926Y-99590966D01*
X161866944Y-99614331D01*
X161921680Y-99621935D01*
X161976062Y-99613750D01*
X162017817Y-99596238D01*
X162063840Y-99562677D01*
X162098080Y-99519813D01*
X162119566Y-99470137D01*
X162127326Y-99416142D01*
X162120390Y-99360320D01*
X162115776Y-99344977D01*
X162090817Y-99295640D01*
X162052482Y-99255005D01*
X162015312Y-99230397D01*
X161986284Y-99216560D01*
X161959674Y-99209674D01*
X161927080Y-99207733D01*
X161920467Y-99207749D01*
X161869269Y-99212537D01*
X161826833Y-99227403D01*
X161788045Y-99254462D01*
X161772703Y-99268875D01*
X161739238Y-99312683D01*
X161719283Y-99361644D01*
X161712504Y-99413064D01*
X160041386Y-99413064D01*
X160044000Y-98614000D01*
X160021212Y-98567593D01*
X160013067Y-98551349D01*
X160004859Y-98536523D01*
X159995655Y-98522496D01*
X159984519Y-98508653D01*
X159970517Y-98494377D01*
X159952715Y-98479050D01*
X159930179Y-98462057D01*
X159901974Y-98442779D01*
X159867166Y-98420600D01*
X159824820Y-98394903D01*
X159774003Y-98365072D01*
X159713779Y-98330489D01*
X159643215Y-98290537D01*
X159561376Y-98244600D01*
X159467328Y-98192060D01*
X159371507Y-98138639D01*
X159281592Y-98088527D01*
X159193270Y-98039300D01*
X159107904Y-97991717D01*
X159026859Y-97946540D01*
X158951496Y-97904527D01*
X158883180Y-97866440D01*
X158823275Y-97833038D01*
X158773143Y-97805082D01*
X158734149Y-97783332D01*
X158707655Y-97768547D01*
X158706075Y-97767665D01*
X158653292Y-97738976D01*
X158611388Y-97718458D01*
X158577862Y-97705505D01*
X158550215Y-97699510D01*
X158525948Y-97699867D01*
X158502562Y-97705970D01*
X158484254Y-97713876D01*
X158456384Y-97731685D01*
X158432712Y-97754131D01*
X158427707Y-97760712D01*
X158408000Y-97789714D01*
X158408000Y-99556254D01*
X158407991Y-99755836D01*
X158407975Y-99940044D01*
X158407965Y-100109505D01*
X158175414Y-100109505D01*
X158176317Y-99794000D01*
X157608811Y-99794000D01*
X157606405Y-100129425D01*
X157605793Y-100211521D01*
X157605192Y-100279143D01*
X157604519Y-100333815D01*
X157603692Y-100377063D01*
X157602630Y-100410411D01*
X157601251Y-100435386D01*
X157599473Y-100453512D01*
X157597213Y-100466314D01*
X157594391Y-100475318D01*
X157590924Y-100482048D01*
X157587182Y-100487425D01*
X157563140Y-100510583D01*
X157534187Y-100520220D01*
X157497659Y-100517095D01*
X157489814Y-100515168D01*
X157472839Y-100508703D01*
X157444142Y-100495569D01*
X157405971Y-100476890D01*
X157360576Y-100453792D01*
X157310208Y-100427400D01*
X157257116Y-100398838D01*
X157256000Y-100398230D01*
X157060000Y-100291342D01*
X157060000Y-98831214D01*
X157258759Y-98721093D01*
X157326268Y-98684060D01*
X157381667Y-98654641D01*
X157426553Y-98632200D01*
X157462525Y-98616098D01*
X157491181Y-98605699D01*
X157514117Y-98600364D01*
X157532933Y-98599458D01*
X157549226Y-98602341D01*
X157553228Y-98603627D01*
X157564963Y-98608077D01*
X157574735Y-98613462D01*
X157582736Y-98621195D01*
X157589157Y-98632689D01*
X157594189Y-98649360D01*
X157598025Y-98672621D01*
X157600857Y-98703886D01*
X157602875Y-98744569D01*
X157604271Y-98796084D01*
X157605238Y-98859846D01*
X157605966Y-98937268D01*
X157606405Y-98996000D01*
X157608811Y-99329999D01*
X157892405Y-99330000D01*
X158176000Y-99330000D01*
X158176000Y-98587425D01*
X158175976Y-98460051D01*
X158175894Y-98347691D01*
X158175739Y-98249360D01*
X158175493Y-98164072D01*
X158175142Y-98090842D01*
X158174669Y-98028684D01*
X158174058Y-97976612D01*
X158173293Y-97933640D01*
X158172359Y-97898784D01*
X158171239Y-97871057D01*
X158169917Y-97849474D01*
X158168378Y-97833049D01*
X158166605Y-97820797D01*
X158164582Y-97811732D01*
X158163371Y-97807788D01*
X158142220Y-97767871D01*
X158110324Y-97735264D01*
X158071228Y-97712167D01*
X158028479Y-97700784D01*
X157992726Y-97701816D01*
X157980053Y-97706650D01*
X157955348Y-97718316D01*
X157920515Y-97735787D01*
X157877457Y-97758033D01*
X157828077Y-97784024D01*
X157774277Y-97812731D01*
X157717962Y-97843125D01*
X157661033Y-97874175D01*
X157605395Y-97904853D01*
X157552950Y-97934130D01*
X157505601Y-97960976D01*
X157465252Y-97984361D01*
X157433805Y-98003256D01*
X157423731Y-98009591D01*
X157407958Y-98019229D01*
X157379845Y-98035880D01*
X157340955Y-98058638D01*
X157292853Y-98086597D01*
X157237100Y-98118851D01*
X157175260Y-98154494D01*
X157108896Y-98192619D01*
X157039571Y-98232321D01*
X157036634Y-98234000D01*
X156946053Y-98286099D01*
X156866383Y-98332573D01*
X156798167Y-98373092D01*
X156741948Y-98407325D01*
X156698267Y-98434944D01*
X156667667Y-98455620D01*
X156651997Y-98467801D01*
X156614007Y-98510308D01*
X156579590Y-98564567D01*
X156551194Y-98626369D01*
X156539044Y-98662000D01*
X156536739Y-98670514D01*
X156534686Y-98680394D01*
X156532867Y-98692588D01*
X156531263Y-98708045D01*
X156529857Y-98727715D01*
X156528630Y-98752547D01*
X156527565Y-98783491D01*
X156526643Y-98821497D01*
X156525846Y-98867513D01*
X156525156Y-98922490D01*
X156524555Y-98987376D01*
X156524025Y-99063121D01*
X156523547Y-99150675D01*
X156523104Y-99250987D01*
X156522677Y-99365006D01*
X156522249Y-99493682D01*
X156522066Y-99551555D01*
X156521632Y-99690406D01*
X156521271Y-99814212D01*
X156521024Y-99923929D01*
X156520934Y-100020513D01*
X156056000Y-100020513D01*
X156056000Y-99498000D01*
X154980000Y-99498430D01*
X154956929Y-99550079D01*
X154920682Y-99611929D01*
X154871604Y-99664781D01*
X154810760Y-99707572D01*
X154786884Y-99719974D01*
X154754423Y-99734754D01*
X154728614Y-99743865D01*
X154703014Y-99748801D01*
X154671177Y-99751058D01*
X154650272Y-99751662D01*
X154576512Y-99747783D01*
X154511786Y-99731967D01*
X154453534Y-99703306D01*
X154401829Y-99663321D01*
X154352168Y-99607689D01*
X154315673Y-99545099D01*
X154292765Y-99477675D01*
X154284562Y-99413064D01*
X154432504Y-99413064D01*
X154438562Y-99464251D01*
X154457123Y-99512508D01*
X154487848Y-99555144D01*
X154530403Y-99589463D01*
X154532926Y-99590966D01*
X154586944Y-99614331D01*
X154641680Y-99621935D01*
X154696062Y-99613750D01*
X154737817Y-99596238D01*
X154783840Y-99562677D01*
X154818080Y-99519813D01*
X154839566Y-99470137D01*
X154847326Y-99416142D01*
X154840390Y-99360320D01*
X154835776Y-99344977D01*
X154810817Y-99295640D01*
X154772482Y-99255005D01*
X154735312Y-99230397D01*
X154706284Y-99216560D01*
X154679674Y-99209674D01*
X154647080Y-99207733D01*
X154640467Y-99207749D01*
X154589269Y-99212537D01*
X154546833Y-99227403D01*
X154508045Y-99254462D01*
X154492703Y-99268875D01*
X154459238Y-99312683D01*
X154439283Y-99361644D01*
X154432504Y-99413064D01*
X154284562Y-99413064D01*
X154283861Y-99407543D01*
X154289381Y-99336828D01*
X154309743Y-99267653D01*
X154319557Y-99246000D01*
X154349450Y-99193916D01*
X154383582Y-99152535D01*
X154426548Y-99116567D01*
X154440190Y-99107143D01*
X154504354Y-99073127D01*
X154571489Y-99053467D01*
X154639664Y-99047467D01*
X154706948Y-99054434D01*
X154771408Y-99073673D01*
X154831114Y-99104490D01*
X154884135Y-99146190D01*
X154928537Y-99198079D01*
X154962390Y-99259463D01*
X154976676Y-99299999D01*
X154987493Y-99337999D01*
X155521746Y-99337999D01*
X156056000Y-99338000D01*
X156056000Y-98666000D01*
X154686769Y-98666000D01*
X154663384Y-98642615D01*
X154640000Y-98619230D01*
X154640000Y-97595780D01*
X154614000Y-97590817D01*
X154565207Y-97575043D01*
X154514722Y-97547211D01*
X154467137Y-97509978D01*
X154456423Y-97499703D01*
X154408245Y-97442679D01*
X154375093Y-97382138D01*
X154356047Y-97315886D01*
X154350183Y-97246116D01*
X154350286Y-97245064D01*
X154504504Y-97245064D01*
X154510562Y-97296251D01*
X154529123Y-97344508D01*
X154559848Y-97387144D01*
X154602403Y-97421463D01*
X154604926Y-97422966D01*
X154658944Y-97446331D01*
X154713680Y-97453935D01*
X154768062Y-97445750D01*
X154809817Y-97428238D01*
X154855840Y-97394677D01*
X154890080Y-97351813D01*
X154911566Y-97302137D01*
X154919326Y-97248142D01*
X154912390Y-97192320D01*
X154907776Y-97176977D01*
X154882817Y-97127640D01*
X154844482Y-97087005D01*
X154807312Y-97062397D01*
X154778284Y-97048560D01*
X154751674Y-97041674D01*
X154719080Y-97039733D01*
X154712467Y-97039749D01*
X154661269Y-97044537D01*
X154618833Y-97059403D01*
X154580045Y-97086462D01*
X154564703Y-97100875D01*
X154531238Y-97144683D01*
X154511283Y-97193644D01*
X154504504Y-97245064D01*
X154350286Y-97245064D01*
X154357479Y-97171935D01*
X154379272Y-97102898D01*
X154414668Y-97040711D01*
X154462770Y-96987083D01*
X154501967Y-96956586D01*
X154552725Y-96926451D01*
X154600439Y-96907538D01*
X154651243Y-96897960D01*
X154700000Y-96895750D01*
X154774201Y-96901661D01*
X154839689Y-96920083D01*
X154898838Y-96951993D01*
X154954022Y-96998365D01*
X154957027Y-97001394D01*
X155002152Y-97057882D01*
X155033129Y-97121420D01*
X155050121Y-97192441D01*
X155053662Y-97260272D01*
X155052202Y-97297825D01*
X155048831Y-97325827D01*
X155042054Y-97350724D01*
X155030376Y-97378960D01*
X155021971Y-97396891D01*
X154984636Y-97459284D01*
X154937614Y-97512015D01*
X154883238Y-97552654D01*
X154860621Y-97564665D01*
X154835743Y-97575890D01*
X154816373Y-97583618D01*
X154807781Y-97586000D01*
X154806015Y-97593915D01*
X154804459Y-97617328D01*
X154803121Y-97655736D01*
X154802010Y-97708637D01*
X154801134Y-97775531D01*
X154800501Y-97855914D01*
X154800120Y-97949285D01*
X154800000Y-98050000D01*
X154800000Y-98514000D01*
X156078100Y-98514000D01*
X156087458Y-98476836D01*
X156115345Y-98395019D01*
X156156842Y-98314564D01*
X156172270Y-98290426D01*
X156203594Y-98249244D01*
X156244338Y-98203649D01*
X156290366Y-98157733D01*
X156337544Y-98115584D01*
X156381735Y-98081293D01*
X156388297Y-98076779D01*
X156410488Y-98062286D01*
X156440273Y-98043464D01*
X156475062Y-98021881D01*
X156512263Y-97999102D01*
X156549286Y-97976695D01*
X156583538Y-97956227D01*
X156612429Y-97939264D01*
X156633367Y-97927372D01*
X156643762Y-97922120D01*
X156644292Y-97922000D01*
X156652583Y-97918017D01*
X156670216Y-97907650D01*
X156690123Y-97895203D01*
X156712812Y-97881011D01*
X156743127Y-97862510D01*
X156778522Y-97841201D01*
X156816450Y-97818589D01*
X156854364Y-97796175D01*
X156889720Y-97775463D01*
X156919970Y-97757955D01*
X156942568Y-97745154D01*
X156954970Y-97738563D01*
X156956469Y-97738000D01*
X156964661Y-97734018D01*
X156982218Y-97723651D01*
X157002123Y-97711185D01*
X157023346Y-97697987D01*
X157055021Y-97678789D01*
X157093761Y-97655621D01*
X157136179Y-97630511D01*
X157164000Y-97614179D01*
X157205611Y-97589758D01*
X157244433Y-97566824D01*
X157277492Y-97547145D01*
X157301816Y-97532489D01*
X157312178Y-97526085D01*
X157338000Y-97510661D01*
X157367134Y-97494588D01*
X157374178Y-97490929D01*
X157408000Y-97473674D01*
X157408000Y-95930000D01*
X156481271Y-95930000D01*
X156476085Y-95953610D01*
X156466175Y-95979598D01*
X156447785Y-96012181D01*
X156423962Y-96046859D01*
X156397754Y-96079131D01*
X156376343Y-96100894D01*
X156319195Y-96141929D01*
X156254861Y-96170250D01*
X156186097Y-96185617D01*
X156115662Y-96187788D01*
X156046314Y-96176523D01*
X155980812Y-96151583D01*
X155956000Y-96137531D01*
X155898488Y-96092537D01*
X155851702Y-96037615D01*
X155816729Y-95975119D01*
X155794655Y-95907402D01*
X155787510Y-95845064D01*
X155936504Y-95845064D01*
X155942562Y-95896251D01*
X155961123Y-95944508D01*
X155991848Y-95987144D01*
X156034403Y-96021463D01*
X156036926Y-96022966D01*
X156090944Y-96046331D01*
X156145680Y-96053935D01*
X156200062Y-96045750D01*
X156241817Y-96028238D01*
X156287840Y-95994677D01*
X156322080Y-95951813D01*
X156343566Y-95902137D01*
X156351326Y-95848142D01*
X156344390Y-95792320D01*
X156339776Y-95776977D01*
X156314817Y-95727640D01*
X156276482Y-95687005D01*
X156239312Y-95662397D01*
X156210284Y-95648560D01*
X156183674Y-95641674D01*
X156151080Y-95639733D01*
X156144467Y-95639749D01*
X156093269Y-95644537D01*
X156050833Y-95659403D01*
X156012045Y-95686462D01*
X155996703Y-95700875D01*
X155963238Y-95744683D01*
X155943283Y-95793644D01*
X155936504Y-95845064D01*
X155787510Y-95845064D01*
X155786565Y-95836818D01*
X155790900Y-95779828D01*
X155810030Y-95711131D01*
X155842973Y-95647114D01*
X155887717Y-95590490D01*
X155942254Y-95543971D01*
X155983662Y-95519617D01*
X156005292Y-95509287D01*
X156023327Y-95502189D01*
X156041555Y-95497718D01*
X156063765Y-95495267D01*
X156093745Y-95494230D01*
X156135285Y-95494001D01*
X156143865Y-95494000D01*
X156252000Y-95494000D01*
X156303570Y-95521951D01*
X156336380Y-95542276D01*
X156369490Y-95566826D01*
X156391619Y-95586380D01*
X156421039Y-95621000D01*
X156448150Y-95662175D01*
X156469863Y-95704511D01*
X156483086Y-95742615D01*
X156484215Y-95748000D01*
X156489780Y-95778000D01*
X157521230Y-95778000D01*
X157544615Y-95801384D01*
X157568000Y-95824769D01*
X157568000Y-97369054D01*
X157658000Y-97325799D01*
X157767859Y-97280469D01*
X157876597Y-97250476D01*
X157983660Y-97235870D01*
X158088495Y-97236706D01*
X158190549Y-97253035D01*
X158248517Y-97269716D01*
X158301034Y-97287407D01*
X158357913Y-97264700D01*
X158439459Y-97240665D01*
X158527106Y-97230935D01*
X158620000Y-97235405D01*
X158717287Y-97253970D01*
X158818113Y-97286526D01*
X158921625Y-97332968D01*
X158923784Y-97334073D01*
X158957619Y-97351126D01*
X158986420Y-97365092D01*
X159007138Y-97374530D01*
X159016727Y-97377999D01*
X159016729Y-97378000D01*
X159017885Y-97370133D01*
X159018964Y-97347068D01*
X159019960Y-97309607D01*
X159020864Y-97258550D01*
X159021669Y-97194700D01*
X159022368Y-97118857D01*
X159022952Y-97031823D01*
X159023415Y-96934400D01*
X159023748Y-96827390D01*
X159023945Y-96711593D01*
X159024000Y-96606376D01*
X159024065Y-96464018D01*
X159024264Y-96337180D01*
X159024602Y-96225385D01*
X159025085Y-96128153D01*
X159025719Y-96045005D01*
X159026507Y-95975463D01*
X159027457Y-95919047D01*
X159028572Y-95875280D01*
X159028712Y-95871851D01*
X160237407Y-95871851D01*
X160249023Y-95919400D01*
X160271532Y-95962263D01*
X160303233Y-95998758D01*
X160342426Y-96027200D01*
X160387409Y-96045905D01*
X160436482Y-96053191D01*
X160487943Y-96047372D01*
X160522454Y-96035507D01*
X160568425Y-96007163D01*
X160603692Y-95969175D01*
X160627759Y-95924218D01*
X160640131Y-95874967D01*
X160640311Y-95824099D01*
X160627805Y-95774288D01*
X160602115Y-95728210D01*
X160583384Y-95706615D01*
X160540126Y-95673681D01*
X160491868Y-95654315D01*
X160441233Y-95648016D01*
X160390844Y-95654285D01*
X160343327Y-95672622D01*
X160301302Y-95702527D01*
X160267395Y-95743500D01*
X160253657Y-95769431D01*
X160238384Y-95821300D01*
X160237407Y-95871851D01*
X159028712Y-95871851D01*
X159029859Y-95843682D01*
X159031324Y-95823774D01*
G37*
%TD*%
%LPC*%
D11*
%TO.C,H2*%
X162161000Y-110028000D03*
D12*
X162161000Y-110028000D03*
%TD*%
D13*
%TO.C,J3*%
X154455000Y-111660000D03*
X153185000Y-111660000D03*
%TD*%
D12*
%TO.C,H1*%
X140425000Y-88293000D03*
D11*
X140425000Y-88293000D03*
%TD*%
D14*
%TO.C,MX1*%
X151390000Y-99160000D03*
D15*
X147580000Y-96620000D03*
X153930000Y-94080000D03*
D16*
X150120000Y-104240000D03*
D17*
X152660000Y-104240000D03*
%TD*%
D13*
%TO.C,J5*%
X147090000Y-111670000D03*
X145820000Y-111670000D03*
X144550000Y-111670000D03*
X143280000Y-111670000D03*
%TD*%
%TO.C,J4*%
X149230000Y-111660000D03*
X150500000Y-111660000D03*
X151770000Y-111660000D03*
%TD*%
D18*
%TO.C,J2*%
X142504579Y-92371000D03*
X139964579Y-92371000D03*
X142504579Y-94911000D03*
X139964579Y-94911000D03*
X142504579Y-97451000D03*
X139964579Y-97451000D03*
%TD*%
D13*
%TO.C,J6*%
X138790000Y-105807000D03*
X138790000Y-104537000D03*
X138790000Y-103267000D03*
X138790000Y-101997000D03*
X138790000Y-100727000D03*
%TD*%
%TO.C,J7*%
X163792000Y-88894000D03*
X163792000Y-90164000D03*
X163792000Y-91434000D03*
X163792000Y-92704000D03*
X163792000Y-93974000D03*
X163792000Y-95244000D03*
X163792000Y-96514000D03*
X163792000Y-97784000D03*
X163792000Y-99054000D03*
X163792000Y-100324000D03*
X163792000Y-101594000D03*
X163792000Y-102864000D03*
X163792000Y-104134000D03*
X163792000Y-105404000D03*
X163792000Y-106674000D03*
X163792000Y-107944000D03*
%TD*%
D19*
%TO.C,J1*%
X156912579Y-84156500D03*
D20*
X156912579Y-88156500D03*
D19*
X145672579Y-84156500D03*
D20*
X145672579Y-88156500D03*
%TD*%
M02*
